<svg width="175" height="175" viewBox="0 0 175 175" fill="none" xmlns="http://www.w3.org/2000/svg">
<g clip-path="url(#clip0_1925_2103)">
<path d="M254.789 -87.1648H-80.46V248.084H254.789V-87.1648Z" fill="white"/>
<path d="M254.789 -87.1648H-80.46V248.084H254.789V-87.1648Z" fill="white"/>
<mask id="mask0_1925_2103" style="mask-type:luminance" maskUnits="userSpaceOnUse" x="-1" y="0" width="176" height="176">
<path d="M-0.174805 0.174561H174.825V175.175H-0.174805V0.174561Z" fill="white"/>
</mask>
<g mask="url(#mask0_1925_2103)">
<path d="M174.504 87.5105C174.504 135.748 135.402 174.85 87.1646 174.85C38.9271 174.85 -0.174805 135.748 -0.174805 87.5105C-0.174805 39.2731 38.9271 0.171143 87.1646 0.171143C135.402 0.171143 174.504 39.2731 174.504 87.5105Z" fill="white"/>
</g>
<path d="M87.1646 6.6666C65.5689 6.6666 45.2689 15.0758 30.0011 30.3471C14.7298 45.6149 6.32065 65.9149 6.32065 87.5105C6.32065 109.106 14.7298 129.406 30.0011 144.677C45.2689 159.945 65.5689 168.354 87.1646 168.354C108.76 168.354 129.06 159.945 144.332 144.677C159.599 129.406 168.008 109.106 168.008 87.5105C168.008 65.9149 159.599 45.6149 144.332 30.3471C129.06 15.0758 108.76 6.6666 87.1646 6.6666ZM87.1646 170.209C65.0765 170.209 44.3086 161.608 28.6881 145.987C13.0675 130.367 4.46631 109.602 4.46631 87.5105C4.46631 65.4225 13.0675 44.6545 28.6881 29.034C44.3086 13.4135 65.0765 4.81226 87.1646 4.81226C109.253 4.81226 130.021 13.4135 145.641 29.034C161.262 44.6545 169.863 65.4225 169.863 87.5105C169.863 109.602 161.262 130.367 145.641 145.987C130.021 161.608 109.253 170.209 87.1646 170.209Z" fill="#E32636"/>
<path d="M44.3504 55.6931L49.0334 66.002C54.7571 53.72 42.1573 49.8228 42.1573 49.8228L42.1678 49.8542C41.9268 50.2488 35.4593 61.092 47.4864 66.5328L44.3504 55.6931Z" fill="#E32636"/>
<path d="M36.6992 68.2756L45.241 69.7981C37.209 76.3774 31.9219 67.7622 31.9219 67.7622L31.9463 67.7657C32.1943 67.5108 39.0145 60.6486 45.3423 68.5479L36.6992 68.2756Z" fill="#E32636"/>
<path d="M51.8098 70.4755C51.8098 71.6907 50.825 72.6755 49.6097 72.6755C48.3945 72.6755 47.4097 71.6907 47.4097 70.4755C47.4097 69.2602 48.3945 68.2754 49.6097 68.2754C50.825 68.2754 51.8098 69.2602 51.8098 70.4755Z" fill="#E32636"/>
<mask id="mask1_1925_2103" style="mask-type:luminance" maskUnits="userSpaceOnUse" x="30" y="60" width="5" height="6">
<path d="M30.1338 60.3447H34.8657V65.7087H30.1338V60.3447Z" fill="white"/>
</mask>
<g mask="url(#mask1_1925_2103)">
<path d="M32.3339 64.958C31.1186 64.958 30.1338 63.9732 30.1338 62.7579C30.1338 61.5427 31.1186 60.5579 32.3339 60.5579C33.5491 60.5579 34.5339 61.5427 34.5339 62.7579C34.5339 63.9732 33.5491 64.958 32.3339 64.958Z" fill="#E32636"/>
</g>
<path d="M53.643 53.7165C54.2996 54.373 54.2996 55.4382 53.643 56.0947C52.9865 56.7512 51.9214 56.7512 51.2649 56.0947C50.6083 55.4382 50.6083 54.373 51.2649 53.7165C51.9214 53.06 52.9865 53.06 53.643 53.7165Z" fill="#E32636"/>
<path d="M39.2309 60.4531C39.5417 60.7639 39.5417 61.2633 39.2309 61.5741C38.9236 61.8814 38.4207 61.8814 38.1099 61.5741C37.8026 61.2633 37.8026 60.7639 38.1099 60.4531C38.4207 60.1423 38.9236 60.1423 39.2309 60.4531Z" fill="#E32636"/>
<path d="M34.649 73.1436C35.2217 73.1436 35.6862 73.608 35.6862 74.1807C35.6862 74.7534 35.2217 75.2179 34.649 75.2179C34.0763 75.2179 33.6118 74.7534 33.6118 74.1807C33.6118 73.608 34.0763 73.1436 34.649 73.1436Z" fill="#E32636"/>
<path d="M129.668 55.6968L124.985 66.0022C119.261 53.7202 131.861 49.8264 131.861 49.8264L131.85 49.8544C132.091 50.249 138.559 61.0922 126.528 66.533L129.668 55.6968Z" fill="#E32636"/>
<path d="M137.319 68.279L128.781 69.7946C136.81 76.3774 142.097 67.7622 142.097 67.7622L142.072 67.7657C141.824 67.5108 135.004 60.6486 128.676 68.5479L137.319 68.279Z" fill="#E32636"/>
<path d="M122.208 70.4755C122.208 71.6907 123.193 72.6755 124.409 72.6755C125.624 72.6755 126.609 71.6907 126.609 70.4755C126.609 69.2602 125.624 68.2754 124.409 68.2754C123.193 68.2754 122.208 69.2602 122.208 70.4755Z" fill="#E32636"/>
<path d="M141.684 64.958C142.9 64.958 143.885 63.9732 143.885 62.7579C143.885 61.5427 142.9 60.5579 141.684 60.5579C140.469 60.5579 139.484 61.5427 139.484 62.7579C139.484 63.9732 140.469 64.958 141.684 64.958Z" fill="#E32636"/>
<path d="M120.375 53.7165C119.719 54.373 119.719 55.4382 120.375 56.0947C121.032 56.7512 122.097 56.7512 122.753 56.0947C123.41 55.4382 123.41 54.373 122.753 53.7165C122.097 53.06 121.032 53.06 120.375 53.7165Z" fill="#E32636"/>
<path d="M134.787 60.4531C134.476 60.7639 134.476 61.2633 134.787 61.5741C135.098 61.8849 135.597 61.8849 135.908 61.5741C136.216 61.2633 136.216 60.7639 135.908 60.4531C135.597 60.1458 135.098 60.1458 134.787 60.4531Z" fill="#E32636"/>
<path d="M139.369 73.1436C138.796 73.1436 138.332 73.608 138.332 74.1807C138.332 74.7534 138.796 75.2179 139.369 75.2179C139.942 75.2179 140.406 74.7534 140.406 74.1807C140.406 73.608 139.942 73.1436 139.369 73.1436Z" fill="#E32636"/>
<mask id="mask2_1925_2103" style="mask-type:luminance" maskUnits="userSpaceOnUse" x="67" y="42" width="17" height="47">
<path d="M67.0498 42.7827H83.1418V88.9528H67.0498V42.7827Z" fill="white"/>
</mask>
<g mask="url(#mask2_1925_2103)">
<path d="M73.2102 77.3937L72.6549 86.4384C74.2613 87.2556 75.9376 87.9401 77.6697 88.4744L76.9887 77.3937C76.7583 73.6361 77.9561 69.8716 80.5298 67.1267C81.7765 65.7997 82.5413 64.0117 82.5413 62.0421V42.7932H80.4146V59.3252C80.4146 59.9154 79.9396 60.3903 79.3529 60.3903C78.7663 60.3903 78.2913 59.9154 78.2913 59.3252V42.7932H76.1646V59.3252C76.1646 59.9154 75.6862 60.3903 75.0995 60.3903C74.5128 60.3903 74.0378 59.9154 74.0378 59.3252V42.7932H71.9111V59.3252C71.9111 59.9154 71.4362 60.3903 70.8495 60.3903C70.2628 60.3903 69.7844 59.9154 69.7844 59.3252V42.7932H67.6611V62.0421C67.6611 64.0117 68.4259 65.7997 69.6726 67.1267C72.2464 69.8716 73.4407 73.6361 73.2102 77.3937Z" fill="#E32636"/>
</g>
<mask id="mask3_1925_2103" style="mask-type:luminance" maskUnits="userSpaceOnUse" x="88" y="42" width="19" height="47">
<path d="M88.5054 42.7827H106.385V88.9528H88.5054V42.7827Z" fill="white"/>
</mask>
<g mask="url(#mask3_1925_2103)">
<path d="M95.6641 77.1667L94.9447 88.869C96.6943 88.4185 98.395 87.8214 100.026 87.0845L99.4147 77.1667C99.1982 73.6152 100.351 70.0951 102.715 67.441C104.922 64.965 106.357 60.949 106.357 56.4127C106.357 48.8906 102.411 42.7932 97.5394 42.7932C92.6678 42.7932 88.7217 48.8906 88.7217 56.4127C88.7217 60.949 90.157 64.965 92.364 67.441C94.7317 70.0951 95.8841 73.6152 95.6641 77.1667Z" fill="#E32636"/>
</g>
<mask id="mask4_1925_2103" style="mask-type:luminance" maskUnits="userSpaceOnUse" x="50" y="74" width="75" height="28">
<path d="M50.0635 74.6487H124.265V101.786H50.0635V74.6487Z" fill="white"/>
</mask>
<g mask="url(#mask4_1925_2103)">
<path d="M120.989 75.8396C120.958 75.8256 120.93 75.8081 120.902 75.7942C118.748 74.6976 116.086 75.3472 114.742 77.3587C108.18 87.1402 97.5954 92.0328 87.0106 92.0328C76.4223 92.0328 65.8375 87.1402 59.2757 77.3587C57.9312 75.3472 55.2702 74.6976 53.1155 75.7942C53.0876 75.8081 53.0597 75.8256 53.0282 75.8396C50.465 77.1456 49.5954 80.4003 51.1948 82.7925C59.6564 95.4412 73.3317 101.769 87.0106 101.769C100.686 101.769 114.361 95.4412 122.823 82.7925C124.422 80.4003 123.553 77.1456 120.989 75.8396Z" fill="#E32636"/>
</g>
<path d="M43.3754 119.346C43.5779 119.457 43.77 119.51 43.9481 119.499C44.1227 119.482 44.2694 119.45 44.3811 119.401C44.5103 119.339 44.6465 119.262 44.7862 119.178L45.9875 118.005C46.2564 117.736 46.5602 117.54 46.8955 117.418C47.2307 117.299 47.5695 117.236 47.9152 117.236C48.2574 117.236 48.5927 117.303 48.9209 117.432C49.2457 117.565 49.5391 117.764 49.801 118.032C50.3388 118.574 50.6112 119.227 50.6112 119.988C50.6112 120.742 50.3388 121.385 49.801 121.916C49.7172 122.01 49.6403 122.08 49.5775 122.125H49.6054C49.1375 122.544 48.6032 122.824 47.999 122.963C47.4577 123.075 46.8012 123.072 46.0294 122.949C45.2646 122.82 44.3811 122.401 43.3754 121.692V126.442C43.3928 126.648 43.4382 126.815 43.5151 126.945C43.55 127.077 43.6163 127.192 43.7106 127.294C43.8014 127.399 43.9236 127.447 44.0738 127.447H37.4526V110.559C37.4701 110.318 37.5644 109.993 37.732 109.581C37.8996 109.162 38.193 108.743 38.612 108.324C39.0381 107.898 39.6318 107.507 40.3861 107.151C41.1474 106.788 42.1461 106.543 43.3754 106.411C43.9341 106.348 44.5697 106.313 45.2891 106.313C46.0434 106.313 46.8815 106.39 47.8035 106.536C48.7324 106.676 49.5984 106.934 50.4016 107.305C51.2118 107.668 51.8858 108.178 52.4271 108.827C52.9754 109.47 53.2512 110.294 53.2512 111.3C53.2512 112.131 52.9614 112.836 52.3852 113.423C51.8055 114.003 51.1036 114.289 50.2759 114.289C49.4448 114.289 48.7463 114.003 48.1806 113.423C47.6114 112.836 47.3285 112.131 47.3285 111.3L47.3006 109.526C47.2726 109.285 47.1923 109.061 47.0631 108.855C46.9514 108.68 46.7558 108.527 46.4764 108.394C46.197 108.254 45.8094 108.185 45.317 108.185C44.9329 108.185 44.6221 108.233 44.3811 108.324C44.1367 108.408 43.9411 108.52 43.7944 108.659C43.6443 108.792 43.543 108.925 43.4871 109.065C43.4312 109.197 43.3928 109.302 43.3754 109.386V119.346Z" fill="#E32636"/>
<path d="M58.755 110.364C57.9239 110.364 57.2185 110.077 56.6318 109.498C56.0521 108.911 55.7657 108.209 55.7657 107.388C55.7657 106.561 56.0521 105.862 56.6318 105.293C57.2185 104.727 57.9239 104.441 58.755 104.441C59.5547 104.441 60.2427 104.727 60.8224 105.293C61.4091 105.862 61.7024 106.561 61.7024 107.388C61.7024 107.79 61.6221 108.178 61.4649 108.548C61.3043 108.911 61.0913 109.229 60.8224 109.498C60.5605 109.76 60.2497 109.969 59.8865 110.126C59.5303 110.287 59.1531 110.364 58.755 110.364ZM61.6605 126.47C61.6884 126.676 61.7338 126.843 61.8002 126.972C61.8456 127.084 61.9119 127.192 61.9958 127.294C62.0866 127.398 62.2123 127.447 62.3729 127.447H55.7378V112.403C55.7378 112.117 55.6679 111.911 55.5282 111.788C55.3955 111.67 55.3082 111.593 55.2628 111.565C55.1511 111.502 55.0952 111.411 55.0952 111.3C55.0952 111.076 55.1965 110.964 55.4025 110.964H58.7131C59.1217 110.964 59.5023 111.045 59.8585 111.202C60.2113 111.362 60.5221 111.575 60.7944 111.844C61.0633 112.106 61.2729 112.424 61.423 112.794C61.5802 113.157 61.6605 113.545 61.6605 113.954V126.47Z" fill="#E32636"/>
<path d="M79.1241 119.471C79.9413 119.471 80.6397 119.764 81.2194 120.351C81.8061 120.931 82.0994 121.633 82.0994 122.46C82.0994 122.638 82.075 122.886 82.0296 123.201C81.9807 123.508 81.8759 123.85 81.7083 124.22C81.5407 124.584 81.2893 124.961 80.954 125.352C80.6188 125.743 80.1508 126.092 79.5571 126.4C78.9704 126.7 78.2301 126.951 77.3361 127.154C76.4491 127.349 75.3805 127.447 74.1233 127.447C73.4144 127.447 72.7579 127.412 72.1537 127.335C71.5461 127.252 70.9978 127.154 70.5054 127.042C69.3879 126.756 68.5393 126.379 67.9631 125.911C67.3834 125.436 66.9713 124.968 66.7199 124.5C66.43 123.962 66.2764 123.393 66.2589 122.796L66.217 117.669C65.7316 117.606 65.337 117.648 65.0297 117.795C64.7293 117.935 64.4849 118.102 64.2893 118.298C64.1008 118.486 63.9541 118.657 63.8423 118.815C63.7306 118.965 63.6188 119.038 63.5071 119.038C63.2626 119.021 63.0496 118.898 62.8645 118.675C62.6864 118.451 62.7318 118.039 63.0042 117.432C63.1788 117.006 63.4093 116.688 63.6887 116.482C63.9681 116.269 64.195 116.115 64.3731 116.021C64.4185 116.003 64.45 115.993 64.4709 115.993C64.4989 115.993 64.5338 115.979 64.5827 115.951C64.6281 115.951 64.6595 115.944 64.6805 115.923C65.2567 115.7 65.77 115.546 66.217 115.462V107.416C66.217 107.13 66.1507 106.924 66.0215 106.801C65.8888 106.672 65.8014 106.599 65.756 106.578C65.6443 106.533 65.5884 106.445 65.5884 106.313C65.5884 106.089 65.7002 105.977 65.9237 105.977H69.2063C69.6044 105.977 69.9816 106.058 70.3378 106.215C70.701 106.365 71.0118 106.574 71.2737 106.843C71.5426 107.116 71.7556 107.437 71.9162 107.807C72.0734 108.17 72.1537 108.555 72.1537 108.953V115.294C72.6007 115.266 72.936 115.183 73.1595 115.043C73.383 114.896 73.5506 114.732 73.6623 114.554C73.7741 114.352 73.8474 114.135 73.8858 113.912L73.9277 112.179C73.9277 111.352 74.2106 110.65 74.7798 110.07C75.3456 109.483 76.044 109.19 76.8751 109.19C77.7028 109.19 78.4047 109.483 78.9844 110.07C79.5606 110.65 79.8505 111.352 79.8505 112.179C79.8505 112.246 79.8435 112.316 79.8365 112.389C79.826 112.466 79.8225 112.539 79.8225 112.612C79.8016 112.791 79.7248 113.126 79.5851 113.618C79.4524 114.104 79.1276 114.606 78.6073 115.127C78.0939 115.64 77.3291 116.101 76.3164 116.51C75.3002 116.922 73.9138 117.138 72.1537 117.166L72.1817 124.192C72.2096 124.465 72.2864 124.702 72.4191 124.905C72.5309 125.083 72.7194 125.24 72.9918 125.38C73.2607 125.513 73.6519 125.575 74.1652 125.575C74.6471 125.575 75.0313 125.513 75.3106 125.38C75.59 125.24 75.7856 125.083 75.8973 124.905C76.037 124.702 76.1138 124.479 76.1348 124.234L76.1767 122.46C76.1767 121.633 76.4596 120.931 77.0288 120.351C77.5945 119.764 78.293 119.471 79.1241 119.471Z" fill="#E32636"/>
<path d="M90.2416 119.346C90.4441 119.457 90.6362 119.51 90.8143 119.499C90.9889 119.482 91.1356 119.45 91.2473 119.401C91.3765 119.339 91.5127 119.262 91.6524 119.178L92.8537 118.005C93.1226 117.736 93.4264 117.54 93.7617 117.418C94.0969 117.299 94.4357 117.236 94.7814 117.236C95.1236 117.236 95.4589 117.303 95.7872 117.432C96.1119 117.565 96.4053 117.764 96.6672 118.032C97.205 118.574 97.4774 119.227 97.4774 119.988C97.4774 120.742 97.205 121.385 96.6672 121.916C96.5834 122.01 96.5065 122.08 96.4437 122.125H96.4716C96.0037 122.544 95.4694 122.824 94.8652 122.963C94.3239 123.075 93.6674 123.072 92.8956 122.949C92.1308 122.82 91.2473 122.401 90.2416 121.692V126.442C90.259 126.648 90.3044 126.815 90.3813 126.945C90.4162 127.077 90.4825 127.192 90.5768 127.294C90.6676 127.399 90.7899 127.447 90.94 127.447H84.3188V110.559C84.3363 110.318 84.4306 109.993 84.5982 109.581C84.7658 109.162 85.0592 108.743 85.4783 108.324C85.9043 107.898 86.498 107.507 87.2523 107.151C88.0136 106.788 89.0123 106.543 90.2416 106.411C90.8003 106.348 91.4359 106.313 92.1553 106.313C92.9096 106.313 93.7477 106.39 94.6697 106.536C95.5986 106.676 96.4646 106.934 97.2678 107.305C98.078 107.668 98.752 108.178 99.2933 108.827C99.8416 109.47 100.117 110.294 100.117 111.3C100.117 112.131 99.8276 112.836 99.2514 113.423C98.6717 114.003 97.9698 114.289 97.1421 114.289C96.311 114.289 95.6125 114.003 95.0468 113.423C94.4776 112.836 94.1947 112.131 94.1947 111.3L94.1668 109.526C94.1389 109.285 94.0585 109.061 93.9293 108.855C93.8176 108.68 93.622 108.527 93.3426 108.394C93.0633 108.254 92.6756 108.185 92.1832 108.185C91.7991 108.185 91.4883 108.233 91.2473 108.324C91.0029 108.408 90.8073 108.52 90.6606 108.659C90.5105 108.792 90.4092 108.925 90.3533 109.065C90.2975 109.197 90.259 109.302 90.2416 109.386V119.346Z" fill="#E32636"/>
<path d="M117.476 127.447H115.492C115.007 127.447 114.556 127.447 114.137 127.447C113.725 127.447 113.53 127.44 113.551 127.419C112.842 127.346 112.241 127.067 111.749 126.581C111.253 126.089 110.973 125.485 110.911 124.765C110.687 125.279 110.359 125.726 109.933 126.106C109.514 126.49 109.032 126.798 108.494 127.028C107.963 127.262 107.397 127.419 106.804 127.503C106.217 127.594 105.651 127.622 105.114 127.587C104.583 127.538 104.069 127.433 103.577 127.266C103.081 127.098 102.645 126.847 102.264 126.511C101.89 126.176 101.593 125.743 101.37 125.212C101.146 124.674 101.035 124.011 101.035 123.229C101.035 122.401 101.244 121.699 101.663 121.119C102.089 120.533 102.589 120.051 103.158 119.667C103.724 119.276 104.307 118.979 104.904 118.773C105.508 118.57 105.994 118.434 106.357 118.368C106.888 118.284 107.39 118.158 107.865 117.99C108.347 117.823 108.787 117.652 109.178 117.474C109.57 117.289 109.898 117.121 110.17 116.971C110.439 116.814 110.638 116.698 110.771 116.622C110.816 116.492 110.848 116.311 110.869 116.077C110.897 115.846 110.911 115.612 110.911 115.378C110.911 115.137 110.911 114.914 110.911 114.708C110.911 114.495 110.911 114.341 110.911 114.247C110.911 114.184 110.904 114.086 110.897 113.954C110.886 113.814 110.869 113.674 110.841 113.534C110.82 113.388 110.792 113.248 110.757 113.115C110.729 112.976 110.701 112.885 110.673 112.836C110.54 112.661 110.345 112.508 110.086 112.375C109.835 112.246 109.447 112.179 108.927 112.179C108.414 112.179 108.023 112.246 107.754 112.375C107.492 112.508 107.307 112.661 107.195 112.836C107.055 113.042 106.975 113.266 106.957 113.507V115.35C106.936 116.07 106.692 116.698 106.217 117.236C105.749 117.767 105.173 118.088 104.485 118.2C104.373 118.228 104.206 118.242 103.982 118.242C103.151 118.242 102.452 117.959 101.887 117.39C101.318 116.814 101.035 116.115 101.035 115.294V114.82C101.052 114.17 101.206 113.611 101.496 113.143C101.782 112.679 102.166 112.288 102.641 111.97C103.217 111.551 103.87 111.23 104.597 111.006C105.323 110.783 106.008 110.615 106.65 110.503C107.394 110.391 108.152 110.322 108.927 110.294C109.336 110.294 109.765 110.318 110.212 110.364C110.582 110.412 111.015 110.468 111.511 110.531C112.004 110.598 112.506 110.699 113.02 110.838C113.865 111.1 114.542 111.436 115.045 111.844C115.548 112.246 115.932 112.64 116.205 113.032C116.474 113.423 116.645 113.786 116.722 114.121C116.795 114.456 116.833 114.69 116.833 114.82V122.153C116.833 123.159 116.861 123.994 116.917 124.654C116.973 125.317 117.046 125.855 117.141 126.274C117.231 126.77 117.343 127.161 117.476 127.447ZM110.841 117.432C110.394 117.9 109.919 118.28 109.416 118.577C108.913 118.867 108.431 119.146 107.977 119.415C107.52 119.677 107.125 119.974 106.79 120.309C106.455 120.645 106.221 121.092 106.091 121.65C105.997 122.08 106.011 122.488 106.133 122.88C106.252 123.271 106.455 123.606 106.734 123.885C107.013 124.165 107.352 124.36 107.754 124.472C108.162 124.584 108.599 124.584 109.067 124.472C109.447 124.381 109.751 124.262 109.975 124.123C110.198 123.976 110.373 123.843 110.505 123.732C110.663 123.592 110.774 123.449 110.841 123.299V117.432Z" fill="#E32636"/>
<path d="M134.298 119.471C135.115 119.471 135.814 119.764 136.393 120.351C136.98 120.931 137.273 121.633 137.273 122.46C137.273 122.638 137.249 122.886 137.203 123.201C137.155 123.508 137.05 123.85 136.882 124.22C136.715 124.584 136.463 124.961 136.128 125.352C135.793 125.743 135.325 126.092 134.731 126.4C134.144 126.7 133.404 126.951 132.51 127.154C131.623 127.349 130.554 127.447 129.297 127.447C128.588 127.447 127.932 127.412 127.328 127.335C126.72 127.252 126.172 127.154 125.679 127.042C124.562 126.756 123.713 126.379 123.137 125.911C122.557 125.436 122.145 124.968 121.894 124.5C121.604 123.962 121.45 123.393 121.433 122.796L121.391 117.669C120.905 117.606 120.511 117.648 120.204 117.795C119.903 117.935 119.659 118.102 119.463 118.298C119.275 118.486 119.128 118.657 119.016 118.815C118.904 118.965 118.793 119.038 118.681 119.038C118.436 119.021 118.223 118.898 118.038 118.675C117.86 118.451 117.906 118.039 118.178 117.432C118.353 117.006 118.583 116.688 118.863 116.482C119.142 116.269 119.369 116.115 119.547 116.021C119.592 116.003 119.624 115.993 119.645 115.993C119.673 115.993 119.708 115.979 119.757 115.951C119.802 115.951 119.833 115.944 119.854 115.923C120.43 115.7 120.944 115.546 121.391 115.462V107.416C121.391 107.13 121.324 106.924 121.195 106.801C121.063 106.672 120.975 106.599 120.93 106.578C120.818 106.533 120.762 106.445 120.762 106.313C120.762 106.089 120.874 105.977 121.097 105.977H124.38C124.778 105.977 125.155 106.058 125.512 106.215C125.875 106.365 126.186 106.574 126.448 106.843C126.716 107.116 126.929 107.437 127.09 107.807C127.247 108.17 127.328 108.555 127.328 108.953V115.294C127.775 115.266 128.11 115.183 128.333 115.043C128.557 114.896 128.724 114.732 128.836 114.554C128.948 114.352 129.021 114.135 129.06 113.912L129.102 112.179C129.102 111.352 129.384 110.65 129.954 110.07C130.519 109.483 131.218 109.19 132.049 109.19C132.877 109.19 133.579 109.483 134.158 110.07C134.734 110.65 135.024 111.352 135.024 112.179C135.024 112.246 135.017 112.316 135.01 112.389C135 112.466 134.996 112.539 134.996 112.612C134.975 112.791 134.899 113.126 134.759 113.618C134.626 114.104 134.301 114.606 133.781 115.127C133.268 115.64 132.503 116.101 131.49 116.51C130.474 116.922 129.088 117.138 127.328 117.166L127.355 124.192C127.383 124.465 127.46 124.702 127.593 124.905C127.705 125.083 127.893 125.24 128.166 125.38C128.435 125.513 128.826 125.575 129.339 125.575C129.821 125.575 130.205 125.513 130.484 125.38C130.764 125.24 130.959 125.083 131.071 124.905C131.211 124.702 131.288 124.479 131.309 124.234L131.351 122.46C131.351 121.633 131.633 120.931 132.203 120.351C132.768 119.764 133.467 119.471 134.298 119.471Z" fill="#E32636"/>
</g>
<defs>
<clipPath id="clip0_1925_2103">
<rect width="175" height="175" rx="87.5" fill="white"/>
</clipPath>
</defs>
</svg>
