<svg width="24" height="24" viewBox="0 0 24 24" fill="none" xmlns="http://www.w3.org/2000/svg">
<rect width="24" height="24" rx="4" fill="#FCE9EB"/>
<path fill-rule="evenodd" clip-rule="evenodd" d="M11.9969 10.2335C11.0726 10.2335 10.3233 11.0244 10.3233 12C10.3233 12.9756 11.0726 13.7665 11.9969 13.7665C12.9212 13.7665 13.6706 12.9756 13.6706 12C13.6706 11.0244 12.9212 10.2335 11.9969 10.2335ZM9.20752 12C9.20752 10.374 10.4564 9.05585 11.9969 9.05585C13.5375 9.05585 14.7863 10.374 14.7863 12C14.7863 13.6261 13.5375 14.9442 11.9969 14.9442C10.4564 14.9442 9.20752 13.6261 9.20752 12Z" fill="#E32636"/>
<path fill-rule="evenodd" clip-rule="evenodd" d="M10.2136 5.53864C10.0145 5.18851 9.59523 5.0796 9.28385 5.27514L9.27573 5.28023L7.98885 6.05743C7.58169 6.303 7.44123 6.85976 7.67412 7.28522L7.19107 7.57981L7.67374 7.28452C8.07174 8.00929 8.17874 8.80365 7.8232 9.45484C7.46772 10.1059 6.76321 10.4062 5.97118 10.4062C5.50016 10.4062 5.11576 10.8158 5.11576 11.3091V12.6909C5.11576 13.1843 5.50016 13.5938 5.97118 13.5938C6.76321 13.5938 7.46772 13.8941 7.8232 14.5452C8.17869 15.1963 8.07177 15.9905 7.67389 16.7153C7.44132 17.1406 7.58152 17.6969 7.98854 17.9424L9.28388 18.7248C9.59527 18.9203 10.0145 18.8115 10.2136 18.4614L10.2936 18.3156C10.6914 17.5911 11.2911 17.0974 12.0028 17.0974C12.715 17.0974 13.3129 17.5915 13.7071 18.3169C13.7073 18.3172 13.7074 18.3175 13.7076 18.3178L13.7863 18.4614C13.9855 18.8115 14.4048 18.9204 14.7161 18.7249L14.7242 18.7198L16.0112 17.9426C16.4172 17.6977 16.5598 17.1486 16.3253 16.7137C15.9281 15.9894 15.8216 15.1958 16.1768 14.5452C16.5323 13.8941 17.2368 13.5938 18.0288 13.5938C18.4998 13.5938 18.8842 13.1843 18.8842 12.6909V11.3091C18.8842 10.812 18.4963 10.4062 18.0288 10.4062C17.2368 10.4062 16.5323 10.1059 16.1768 9.45484C15.8213 8.80379 15.9282 8.0096 16.326 7.28495C16.5587 6.85952 16.4185 6.30313 16.0115 6.05761L14.7161 5.27521C14.4048 5.07967 13.9855 5.18851 13.7863 5.53865L13.7064 5.68436C13.3086 6.40888 12.7089 6.90264 11.9972 6.90264C11.2851 6.90264 10.6873 6.4086 10.293 5.68339C10.2928 5.68298 10.2926 5.68258 10.2924 5.68218L10.2136 5.53864ZM8.71779 4.26027C9.58022 3.72218 10.6742 4.0523 11.174 4.93909L11.1774 4.94511L11.2592 5.0943L11.2604 5.09648C11.5356 5.60324 11.8227 5.72497 11.9972 5.72497C12.1726 5.72497 12.4619 5.60221 12.7408 5.0943C12.7408 5.09439 12.7409 5.09421 12.7408 5.0943L12.826 4.93907C13.3258 4.05227 14.4198 3.72218 15.2822 4.26027L16.565 5.0351C17.5116 5.60605 17.8327 6.88664 17.292 7.87439L17.2916 7.87509C17.0127 8.38296 17.0565 8.70738 17.1435 8.86683C17.2306 9.02637 17.4745 9.22855 18.0288 9.22855C19.1086 9.22855 20 10.1575 20 11.3091V12.6909C20 13.8307 19.1199 14.7715 18.0288 14.7715C17.4745 14.7715 17.2306 14.9736 17.1435 15.1332C17.0565 15.2926 17.0127 15.617 17.2916 16.1249L17.2933 16.1281C17.8313 17.1217 17.5124 18.3933 16.5653 18.9648C16.5652 18.9648 16.5654 18.9647 16.5653 18.9648L15.2821 19.7398C14.4197 20.2778 13.3258 19.9477 12.826 19.0609L12.8226 19.0549L12.7408 18.9057L12.7396 18.9035C12.4644 18.3968 12.1773 18.275 12.0028 18.275C11.8274 18.275 11.5381 18.3978 11.2592 18.9057C11.2591 18.9058 11.2592 18.9057 11.2592 18.9057L11.174 19.0609C10.6742 19.9477 9.58028 20.2778 8.71786 19.7398L7.43498 18.9649C7.43487 18.9648 7.43508 18.965 7.43498 18.9649C6.48858 18.3939 6.16739 17.1133 6.70802 16.1256L6.70841 16.1249C6.9873 15.617 6.94353 15.2926 6.85648 15.1332C6.76938 14.9736 6.52549 14.7715 5.97118 14.7715C4.88013 14.7715 4 13.8307 4 12.6909V11.3091C4 10.1694 4.88013 9.22855 5.97118 9.22855C6.52549 9.22855 6.76938 9.02637 6.85648 8.86683C6.94353 8.70738 6.9873 8.38296 6.70841 7.87509L6.70802 7.87439C6.16739 6.88674 6.48828 5.60632 7.43467 5.03528L8.71779 4.26027Z" fill="#E32636"/>
</svg>
