<svg width="30" height="30" viewBox="0 0 30 30" fill="none" xmlns="http://www.w3.org/2000/svg">
<path d="M24.0089 3.4914C22.4853 1.96771 20.0149 1.96771 18.4911 3.4914L7.10579 14.8767C6.62519 15.3574 6.28425 15.9595 6.1194 16.6189L5.03735 20.9471C4.93085 21.3731 5.05567 21.8237 5.36614 22.1341C5.67662 22.4446 6.12723 22.5695 6.5532 22.463L10.8814 21.3809C11.5408 21.2161 12.143 20.8751 12.6235 20.3945L24.0089 9.00916C25.5326 7.48547 25.5326 5.01509 24.0089 3.4914Z" fill="#E32636"/>
<path d="M5 26.25C5 25.5596 5.55965 25 6.25 25H23.75C24.4404 25 25 25.5596 25 26.25C25 26.9404 24.4404 27.5 23.75 27.5H6.25C5.55965 27.5 5 26.9404 5 26.25Z" fill="#E32636"/>
</svg>
