<svg width="375" height="211" viewBox="0 0 375 211" fill="none" xmlns="http://www.w3.org/2000/svg">
<mask id="mask0_1_669" style="mask-type:luminance" maskUnits="userSpaceOnUse" x="0" y="0" width="375" height="211">
<path d="M375 0H0V211H375V0Z" fill="white"/>
</mask>
<g mask="url(#mask0_1_669)">
<path d="M375 0H0V211H375V0Z" fill="#F6F4EA"/>
<path d="M170.703 211L375 0L375.082 99.9168L375 211H170.703Z" fill="#F3CF95"/>
<path fill-rule="evenodd" clip-rule="evenodd" d="M319.215 212.876L314.199 212.872L193.71 191.564C193.477 191.523 193.321 191.302 193.362 191.07C193.364 191.059 193.366 191.049 193.368 191.039L193.656 190.735C193.719 190.715 193.787 190.71 193.856 190.722L319.215 212.876ZM375.082 185.962V186.829L222.756 159.982L223.461 159.238L375.082 185.962ZM375.082 151.779V152.646L250.529 130.632L251.232 129.887L375.082 151.779ZM375.082 117.596V118.463L278.301 101.282L279.006 100.537L375.082 117.596ZM375.082 83.4129V84.2804L306.074 71.932L306.779 71.1873L375.082 83.4129ZM375.082 49.23V50.0974L333.846 42.5819L334.551 41.8372L375.082 49.23Z" fill="#F1DDBE"/>
<path d="M307.354 51.8547L311.387 52.2197L300.568 211.242L291.627 211.33L307.354 51.8547Z" fill="url(#paint0_linear_1_669)"/>
<path d="M334.178 35.2253L338.211 35.5903L326.6 211.33H317.438L334.178 35.2253Z" fill="url(#paint1_linear_1_669)"/>
<path d="M275.391 105.5C275.391 154.055 236.041 193.417 187.5 193.417C138.959 193.417 99.6094 154.055 99.6094 105.5C99.6094 56.9452 138.959 17.5835 187.5 17.5835C236.041 17.5835 275.391 56.9452 275.391 105.5Z" fill="#323138"/>
<path fill-rule="evenodd" clip-rule="evenodd" d="M187.5 191.264C234.852 191.264 273.238 152.866 273.238 105.5C273.238 58.1344 234.852 19.7367 187.5 19.7367C140.148 19.7367 101.762 58.1344 101.762 105.5C101.762 152.866 140.148 191.264 187.5 191.264ZM187.5 193.417C236.041 193.417 275.391 154.055 275.391 105.5C275.391 56.9452 236.041 17.5835 187.5 17.5835C138.959 17.5835 99.6094 56.9452 99.6094 105.5C99.6094 154.055 138.959 193.417 187.5 193.417Z" fill="url(#paint2_linear_1_669)"/>
<path d="M189.613 179.469C230.452 179.469 263.559 146.352 263.559 105.5C263.559 64.6485 230.452 31.5317 189.613 31.5317C148.773 31.5317 115.666 64.6485 115.666 105.5C115.666 146.352 148.773 179.469 189.613 179.469Z" fill="url(#paint3_radial_1_669)"/>
<path d="M151.794 147.345C153.078 147.345 154.119 148.386 154.119 149.67C154.119 150.954 153.078 151.995 151.794 151.995C150.511 151.995 149.47 150.954 149.47 149.67C149.47 148.386 150.511 147.345 151.794 147.345Z" fill="#D55561"/>
<path d="M218.557 154.953C219.84 154.953 220.881 155.994 220.881 157.278C220.881 158.562 219.84 159.603 218.557 159.603C217.273 159.603 216.233 158.562 216.233 157.278C216.233 155.994 217.273 154.953 218.557 154.953Z" fill="#D55561"/>
<path d="M220.459 140.582C221.159 140.582 221.727 141.15 221.727 141.85C221.727 142.551 221.159 143.118 220.459 143.118C219.759 143.118 219.191 142.551 219.191 141.85C219.191 141.15 219.759 140.582 220.459 140.582Z" fill="#D55561"/>
<path d="M230.178 54.7789C230.878 54.7789 231.445 55.3466 231.445 56.0469C231.445 56.7472 230.878 57.3149 230.178 57.3149C229.478 57.3149 228.91 56.7472 228.91 56.0469C228.91 55.3466 229.478 54.7789 230.178 54.7789Z" fill="#D55561"/>
<path d="M250.883 87.7476C251.583 87.7476 252.151 88.3154 252.151 89.0157C252.151 89.716 251.583 90.2837 250.883 90.2837C250.183 90.2837 249.615 89.716 249.615 89.0157C249.615 88.3154 250.183 87.7476 250.883 87.7476Z" fill="#EEAB75"/>
<path d="M125.807 83.0982C126.508 83.0982 127.075 83.6659 127.075 84.3662C127.075 85.0666 126.508 85.6343 125.807 85.6343C125.107 85.6343 124.54 85.0666 124.54 84.3662C124.54 83.6659 125.107 83.0982 125.807 83.0982Z" fill="#EEAB75"/>
<path d="M181.584 50.1295C182.284 50.1295 182.852 50.6972 182.852 51.3975C182.852 52.0978 182.284 52.6655 181.584 52.6655C180.884 52.6655 180.316 52.0978 180.316 51.3975C180.316 50.6972 180.884 50.1295 181.584 50.1295Z" fill="#D55561"/>
<path d="M132.105 55.2017L139.225 57.8761C150.149 61.9789 155.68 74.1627 151.578 85.0898L148.904 92.2126L141.784 89.5382C130.86 85.4354 125.33 73.2513 129.431 62.3243L132.105 55.2017Z" fill="url(#paint4_linear_1_669)"/>
<path opacity="0.5" fill-rule="evenodd" clip-rule="evenodd" d="M148.057 91.8944L131.975 55.5461L132.104 55.2017L139.225 57.8761C150.149 61.9789 155.679 74.1627 151.578 85.0898L148.904 92.2124L148.057 91.8944Z" fill="#529D6A"/>
<path d="M162.105 149.274L167.362 147.858C175.426 145.684 183.726 150.462 185.899 158.529L187.315 163.787L182.058 165.204C173.993 167.378 165.694 162.6 163.521 154.533L162.105 149.274Z" fill="url(#paint5_linear_1_669)"/>
<path opacity="0.5" fill-rule="evenodd" clip-rule="evenodd" d="M186.69 163.956L162.174 149.529L162.105 149.274L167.362 147.858C175.426 145.684 183.726 150.462 185.899 158.529L187.315 163.787L186.69 163.956Z" fill="#529D6A"/>
<path d="M142.709 143.118C152.744 143.118 160.879 134.981 160.879 124.943C160.879 114.905 152.744 106.768 142.709 106.768C132.675 106.768 124.54 114.905 124.54 124.943C124.54 134.981 132.675 143.118 142.709 143.118Z" fill="url(#paint6_linear_1_669)"/>
<path fill-rule="evenodd" clip-rule="evenodd" d="M159.743 131.283C160.478 129.309 160.879 127.173 160.879 124.943C160.879 122.553 160.418 120.271 159.58 118.18H125.839C125.001 120.271 124.54 122.553 124.54 124.943C124.54 127.173 124.942 129.309 125.676 131.283H159.743Z" fill="#E3E798"/>
<path fill-rule="evenodd" clip-rule="evenodd" d="M142.71 141.826C152.031 141.826 159.588 134.267 159.588 124.943C159.588 115.619 152.031 108.06 142.71 108.06C133.388 108.06 125.831 115.619 125.831 124.943C125.831 134.267 133.388 141.826 142.71 141.826ZM142.71 143.118C152.745 143.118 160.879 134.981 160.879 124.943C160.879 114.905 152.745 106.768 142.71 106.768C132.675 106.768 124.54 114.905 124.54 124.943C124.54 134.981 132.675 143.118 142.71 143.118Z" fill="#F3F4CB"/>
<path fill-rule="evenodd" clip-rule="evenodd" d="M213.957 55.18C209.467 55.1255 205.803 56.3096 203.879 59.4937C202.975 60.9897 202.986 62.377 203.685 63.6952C204.392 65.03 205.812 66.3067 207.75 67.5319C211.621 69.9804 217.473 72.1655 223.51 74.1877C225.451 74.8379 227.412 75.4711 229.328 76.0908C233.363 77.3947 237.211 78.6377 240.295 79.8486C242.568 80.7414 244.445 81.6233 245.682 82.5088C246.301 82.9513 246.773 83.4041 247.053 83.8717C247.336 84.3456 247.422 84.8399 247.256 85.341C247.062 85.9227 246.613 86.3138 246.014 86.5584C245.418 86.8012 244.66 86.9062 243.81 86.9155C242.111 86.9341 239.986 86.5693 237.918 86.0799C235.848 85.5898 233.822 84.9714 232.314 84.4758C231.56 84.228 230.935 84.0108 230.5 83.8553C230.281 83.7777 230.109 83.7154 229.994 83.6726C229.935 83.6511 229.891 83.6345 229.859 83.6233L229.826 83.6105L229.814 83.6062C229.814 83.6062 229.814 83.6062 229.883 83.4233C229.951 83.2404 229.951 83.2404 229.951 83.2404L229.953 83.2406L229.963 83.2445L229.996 83.257C230.025 83.2682 230.07 83.2846 230.129 83.3057C230.244 83.3483 230.414 83.41 230.631 83.4872C231.064 83.6417 231.685 83.858 232.437 84.1045C233.939 84.5982 235.953 85.2131 238.01 85.6997C240.068 86.187 242.154 86.5428 243.807 86.5248C244.633 86.5158 245.334 86.413 245.865 86.1966C246.392 85.9817 246.736 85.6616 246.885 85.2176C247.01 84.844 246.953 84.4677 246.717 84.0723C246.476 83.6704 246.053 83.2547 245.455 82.8266C244.26 81.9709 242.42 81.1033 240.152 80.2122C237.08 79.006 233.252 77.7693 229.225 76.4677C227.305 75.8472 225.338 75.2121 223.387 74.5582C217.353 72.5373 211.459 70.3393 207.541 67.8622C205.584 66.6246 204.096 65.3031 203.34 63.8781C202.576 62.4366 202.57 60.9031 203.543 59.2917C205.574 55.931 209.418 54.7341 213.963 54.7894C218.512 54.8447 223.816 56.1527 228.859 57.8646C233.904 59.5774 238.701 61.6995 242.234 63.3926C244 64.2393 245.453 64.9792 246.463 65.5072C246.969 65.7714 247.363 65.9828 247.633 66.1279C247.766 66.2006 247.869 66.2569 247.939 66.2948C247.973 66.3139 248 66.3284 248.017 66.3382L248.037 66.3493L248.043 66.3528C248.045 66.353 248.045 66.353 247.949 66.5238C247.853 66.6945 247.853 66.6943 247.853 66.6943L247.848 66.691L247.828 66.68C247.81 66.6705 247.785 66.6562 247.75 66.6375C247.682 66.5998 247.58 66.5441 247.447 66.4718C247.18 66.3272 246.785 66.1168 246.283 65.8536C245.275 65.3271 243.828 64.5894 242.064 63.745C238.539 62.0558 233.76 59.9408 228.734 58.2346C223.705 56.5274 218.445 55.2347 213.957 55.18ZM248.119 66.6187C248.068 66.7131 247.949 66.7469 247.853 66.6945L247.949 66.5238L248.045 66.353C248.139 66.4056 248.172 66.5245 248.119 66.6187ZM229.699 83.3543C229.738 83.2535 229.851 83.2025 229.951 83.2404L229.883 83.4233L229.814 83.6062C229.713 83.5681 229.662 83.4553 229.699 83.3543Z" fill="#BE424D"/>
<path d="M261.682 72.9397L192.65 68.3094L176.643 67.4924C162.676 66.7797 150.831 77.6434 150.332 91.6236C149.801 106.496 162.269 118.551 177.11 117.515L196.475 116.164C197.896 116.064 198.098 114.057 196.725 113.677L175.116 107.693C171.668 106.738 170.892 102.198 173.827 100.152L180.396 95.572L187.71 99.4452C198.463 105.14 211.607 103.666 220.832 95.731L228.144 89.4432L261.967 74.557C262.775 74.201 262.564 72.9989 261.682 72.9397Z" fill="url(#paint7_linear_1_669)"/>
<path d="M165.606 74.0154L161.803 76.7629C161.803 76.7629 163.252 86.0858 166.663 90.7111C169.72 94.8573 176.381 98.3193 176.381 98.3193L178.283 97.0513C178.283 97.0513 171.567 92.4814 168.987 88.175C166.065 83.2984 165.606 74.0154 165.606 74.0154Z" fill="url(#paint8_linear_1_669)"/>
<path d="M174.81 99.4169L174.903 99.3759H170.261C168.176 99.3759 166.123 98.8617 164.285 97.8788L156.54 93.7379C156.14 93.524 155.73 94.0054 156.004 94.3666L157.728 96.6323C160.665 100.494 164.648 103.431 169.204 105.096L173.212 106.561C171.214 104.247 172.016 100.659 174.81 99.4169Z" fill="url(#paint9_linear_1_669)"/>
<path fill-rule="evenodd" clip-rule="evenodd" d="M177.996 77.2863L179.821 74.4182L180.547 74.8807L178.723 77.7487C176.283 81.584 176.119 86.4429 178.295 90.4339L180.985 95.3656L180.229 95.7781L177.54 90.8463C175.213 86.58 175.388 81.3861 177.996 77.2863Z" fill="#D15A63"/>
<path d="M230.256 77.3966C232.589 77.3966 234.481 75.5043 234.481 73.1699C234.481 70.8355 232.589 68.9431 230.256 68.9431C227.922 68.9431 226.03 70.8355 226.03 73.1699C226.03 75.5043 227.922 77.3966 230.256 77.3966Z" fill="#4B1E20"/>
<path fill-rule="evenodd" clip-rule="evenodd" d="M197.395 54.5014C196.014 55.2104 195.046 56.3021 194.622 57.8805C194.171 59.5617 194.62 61.2286 195.785 62.8888C196.953 64.5528 198.83 66.1951 201.201 67.8063C205.941 71.028 212.596 74.091 219.313 76.9411C221.543 77.8872 223.779 78.81 225.955 79.7071C230.322 81.5084 234.438 83.206 237.736 84.7797C240.207 85.9582 242.234 87.0745 243.574 88.1213C244.244 88.6445 244.754 89.1593 245.059 89.6667C245.365 90.178 245.471 90.6957 245.303 91.2021C245.109 91.7837 244.66 92.1749 244.061 92.4195C243.465 92.6623 242.707 92.7672 241.857 92.7766C240.158 92.7952 238.033 92.4304 235.965 91.941C233.895 91.4508 231.869 90.8325 230.361 90.3368C229.607 90.0891 228.982 89.8718 228.547 89.7165C228.328 89.6388 228.156 89.5764 228.041 89.5337C227.982 89.5124 227.938 89.4958 227.906 89.4844L227.873 89.4717L227.861 89.4672C227.861 89.4672 227.861 89.4672 227.93 89.2844C227.998 89.1015 227.998 89.1015 227.998 89.1015L228 89.1017L228.01 89.1056L228.043 89.1181C228.063 89.1255 228.088 89.1351 228.121 89.147C228.137 89.1531 228.156 89.1597 228.176 89.1667C228.291 89.2093 228.461 89.2711 228.678 89.3482C229.111 89.5028 229.732 89.7191 230.484 89.9656C231.986 90.4593 234 91.0742 236.057 91.5608C238.115 92.0483 240.201 92.4038 241.854 92.3859C242.68 92.3769 243.381 92.2741 243.912 92.0576C244.439 91.8429 244.783 91.5227 244.932 91.0786C245.055 90.7104 244.99 90.3122 244.723 89.8679C244.455 89.4196 243.986 88.9393 243.334 88.4294C242.029 87.4102 240.033 86.3089 237.568 85.1323C234.277 83.5631 230.18 81.8728 225.82 80.074C223.643 79.1761 221.4 78.251 219.16 77.3007C212.445 74.4511 205.756 71.3751 200.982 68.1295C198.596 66.5069 196.672 64.8334 195.465 63.1133C194.256 61.3896 193.755 59.6045 194.245 57.7791C194.7 56.0849 195.746 54.9086 197.217 54.1538C198.68 53.4026 200.559 53.0709 202.689 53.0432C206.949 52.9879 212.283 54.1489 217.488 55.7133C222.697 57.279 227.795 59.2538 231.588 60.8365C233.484 61.6279 235.057 62.3217 236.154 62.8175C236.703 63.0655 237.133 63.2642 237.428 63.4007C237.574 63.4689 237.686 63.5218 237.762 63.5576C237.801 63.5756 237.828 63.5891 237.848 63.5982L237.877 63.6121C237.877 63.6121 237.877 63.6123 237.793 63.7885C237.709 63.9647 237.709 63.9647 237.709 63.9646L237.68 63.9513C237.67 63.946 237.654 63.9394 237.639 63.9311C237.625 63.9253 237.611 63.9184 237.596 63.911C237.52 63.8755 237.408 63.8229 237.262 63.7549C236.971 63.6189 236.541 63.421 235.994 63.1737C234.898 62.679 233.33 61.9868 231.438 61.1969C227.65 59.6172 222.566 57.6478 217.375 56.0876C212.18 54.526 206.893 53.3794 202.693 53.4339C200.596 53.4612 198.783 53.7887 197.395 54.5014ZM237.969 63.8727C237.922 63.9702 237.807 64.0112 237.709 63.9648L237.793 63.7885L237.877 63.6123C237.975 63.6588 238.016 63.7754 237.969 63.8727ZM227.746 89.2156C227.785 89.1146 227.898 89.0636 227.998 89.1015L227.93 89.2844L227.861 89.4672C227.76 89.4291 227.709 89.3164 227.746 89.2156Z" fill="#BE424D"/>
<path fill-rule="evenodd" clip-rule="evenodd" d="M204.23 75.4059C202.85 76.1149 201.883 77.2067 201.459 78.7851C201.006 80.4662 201.455 82.1331 202.621 83.7934C203.789 85.4574 205.666 87.0996 208.037 88.7109C212.777 91.9325 219.432 94.9955 226.148 97.8456C228.379 98.7918 230.615 99.7145 232.791 100.612C237.158 102.413 241.273 104.111 244.572 105.684C247.043 106.863 249.07 107.979 250.41 109.026C251.08 109.549 251.59 110.064 251.894 110.571C252.201 111.083 252.307 111.6 252.139 112.107C251.945 112.688 251.496 113.079 250.896 113.324C250.301 113.567 249.543 113.672 248.693 113.681C246.994 113.7 244.869 113.335 242.801 112.846C240.73 112.355 238.705 111.737 237.197 111.241C236.443 110.994 235.818 110.776 235.383 110.621C235.164 110.543 234.992 110.481 234.877 110.438C234.818 110.417 234.773 110.4 234.742 110.389L234.709 110.376L234.697 110.372C234.697 110.372 234.697 110.372 234.766 110.189C234.834 110.006 234.834 110.006 234.834 110.006L234.836 110.006L234.846 110.01L234.879 110.023C234.898 110.03 234.924 110.04 234.957 110.052C234.973 110.058 234.992 110.064 235.012 110.071C235.127 110.114 235.297 110.176 235.514 110.253C235.947 110.407 236.568 110.624 237.32 110.87C238.822 111.364 240.836 111.979 242.893 112.465C244.951 112.953 247.037 113.308 248.689 113.29C249.516 113.281 250.217 113.179 250.748 112.962C251.275 112.747 251.619 112.427 251.768 111.983C251.891 111.615 251.826 111.217 251.559 110.772C251.291 110.324 250.822 109.844 250.17 109.334C248.865 108.315 246.869 107.213 244.404 106.037C241.113 104.468 237.016 102.777 232.656 100.979C230.478 100.081 228.236 99.1556 225.996 98.2053C219.281 95.3556 212.592 92.2797 207.818 89.034C205.432 87.4114 203.508 85.7379 202.301 84.0179C201.092 82.2941 200.59 80.509 201.08 78.6837C201.535 76.9894 202.582 75.8131 204.053 75.0584C205.516 74.3072 207.394 73.9754 209.525 73.9477C213.785 73.8924 219.119 75.0535 224.324 76.6178C229.533 78.1835 234.631 80.1583 238.424 81.741C240.32 82.5325 241.893 83.2262 242.99 83.7221C243.539 83.97 243.969 84.1687 244.264 84.3053C244.41 84.3734 244.521 84.4264 244.598 84.4621C244.637 84.4801 244.664 84.4936 244.684 84.5028L244.713 84.5166C244.713 84.5166 244.713 84.5168 244.629 84.6931C244.545 84.8693 244.545 84.8693 244.545 84.8691L244.516 84.8558C244.506 84.8505 244.49 84.8439 244.475 84.8357C244.461 84.8298 244.447 84.823 244.432 84.8156C244.355 84.78 244.244 84.7275 244.098 84.6595C243.807 84.5235 243.377 84.3256 242.83 84.0782C241.734 83.5836 240.166 82.8914 238.273 82.1015C234.486 80.5217 229.402 78.5524 224.211 76.9922C219.016 75.4306 213.728 74.2839 209.529 74.3384C207.432 74.3658 205.619 74.6932 204.23 75.4059ZM244.805 84.7773C244.758 84.8748 244.642 84.9158 244.545 84.8693L244.629 84.6931L244.713 84.5168C244.81 84.5633 244.851 84.68 244.805 84.7773ZM234.582 110.12C234.621 110.019 234.734 109.968 234.834 110.006L234.766 110.189L234.697 110.372C234.596 110.334 234.545 110.221 234.582 110.12Z" fill="#BE424D"/>
<path d="M264.984 101.043L195.951 96.4127L179.944 95.5957C165.978 94.8829 154.133 105.747 153.634 119.727C153.102 134.599 165.57 146.654 180.412 145.618L199.775 144.267C201.197 144.168 201.398 142.16 200.025 141.78L178.417 135.796C174.97 134.841 174.194 130.301 177.128 128.255L183.697 123.675L191.011 127.548C201.766 133.243 214.908 131.77 224.135 123.834L231.445 117.546L265.268 102.66C266.076 102.304 265.865 101.102 264.984 101.043Z" fill="url(#paint10_linear_1_669)"/>
<path fill-rule="evenodd" clip-rule="evenodd" d="M214.933 89.7605C210.443 89.706 206.779 90.8902 204.855 94.0743C203.951 95.5703 203.963 96.9576 204.662 98.2758C205.369 99.6105 206.789 100.887 208.726 102.112C212.598 104.561 218.449 106.746 224.486 108.768C226.428 109.419 228.389 110.052 230.305 110.671C234.34 111.975 238.187 113.218 241.271 114.429C243.545 115.322 245.422 116.204 246.658 117.089C247.277 117.532 247.75 117.985 248.029 118.452C248.312 118.926 248.398 119.42 248.232 119.922C248.039 120.503 247.59 120.894 246.99 121.139C246.394 121.382 245.637 121.487 244.787 121.496C243.088 121.515 240.963 121.15 238.894 120.661C236.824 120.17 234.799 119.552 233.291 119.056C232.537 118.809 231.912 118.591 231.476 118.436C231.258 118.358 231.086 118.296 230.971 118.253C230.912 118.232 230.867 118.215 230.836 118.204L230.803 118.191L230.791 118.187C230.791 118.187 230.791 118.187 230.859 118.004C230.928 117.821 230.928 117.821 230.928 117.821L230.93 117.821L230.939 117.825L230.973 117.838C231.002 117.849 231.047 117.865 231.105 117.886C231.221 117.929 231.391 117.991 231.607 118.068C232.041 118.222 232.662 118.439 233.414 118.685C234.916 119.179 236.93 119.794 238.986 120.28C241.045 120.768 243.131 121.123 244.783 121.105C245.609 121.096 246.31 120.994 246.842 120.777C247.369 120.562 247.713 120.242 247.861 119.798C247.986 119.425 247.93 119.048 247.693 118.653C247.453 118.251 247.029 117.835 246.432 117.407C245.236 116.551 243.396 115.684 241.129 114.793C238.057 113.587 234.228 112.35 230.201 111.048C228.281 110.428 226.314 109.793 224.363 109.139C218.33 107.118 212.435 104.92 208.517 102.443C206.56 101.205 205.072 99.8836 204.316 98.4586C203.553 97.0172 203.547 95.4837 204.519 93.8723C206.551 90.5115 210.394 89.3147 214.939 89.37C219.488 89.4253 224.793 90.7333 229.836 92.4451C234.881 94.1579 239.678 96.28 243.211 97.9731C244.976 98.8199 246.43 99.5597 247.439 100.088C247.945 100.352 248.34 100.563 248.609 100.709C248.742 100.781 248.846 100.837 248.916 100.875C248.949 100.894 248.976 100.909 248.994 100.919L249.014 100.93L249.019 100.933C249.021 100.934 249.021 100.934 248.926 101.104C248.83 101.275 248.83 101.275 248.83 101.275L248.824 101.272L248.805 101.261C248.787 101.251 248.762 101.237 248.726 101.218C248.658 101.18 248.557 101.125 248.424 101.052C248.156 100.908 247.762 100.697 247.26 100.434C246.252 99.9077 244.805 99.17 243.041 98.3256C239.516 96.6364 234.736 94.5213 229.711 92.8151C224.682 91.108 219.422 89.8152 214.933 89.7605ZM249.096 101.199C249.045 101.294 248.926 101.327 248.83 101.275L248.926 101.104L249.021 100.934C249.115 100.986 249.148 101.105 249.096 101.199ZM230.676 117.935C230.715 117.834 230.828 117.783 230.928 117.821L230.859 118.004L230.791 118.187C230.689 118.149 230.639 118.036 230.676 117.935Z" fill="#BE424D"/>
<path d="M168.908 102.119L165.105 104.866C165.105 104.866 166.553 114.189 169.964 118.814C173.022 122.961 179.683 126.423 179.683 126.423L181.584 125.155C181.584 125.155 174.868 120.585 172.288 116.278C169.367 111.402 168.908 102.119 168.908 102.119Z" fill="url(#paint11_linear_1_669)"/>
<path d="M178.112 127.52L178.204 127.479H173.562C171.477 127.479 169.425 126.965 167.586 125.982L159.841 121.841C159.441 121.627 159.031 122.109 159.305 122.47L161.029 124.736C163.966 128.597 167.949 131.534 172.505 133.199L176.513 134.665C174.515 132.35 175.317 128.762 178.112 127.52Z" fill="url(#paint12_linear_1_669)"/>
<path fill-rule="evenodd" clip-rule="evenodd" d="M181.298 105.39L183.122 102.521L183.849 102.984L182.024 105.852C179.584 109.687 179.421 114.546 181.597 118.537L184.286 123.469L183.53 123.881L180.841 118.95C178.515 114.683 178.69 109.489 181.298 105.39Z" fill="#D15A63"/>
<path d="M233.559 105.5C235.892 105.5 237.784 103.608 237.784 101.273C237.784 98.9388 235.892 97.0464 233.559 97.0464C231.225 97.0464 229.333 98.9388 229.333 101.273C229.333 103.608 231.225 105.5 233.559 105.5Z" fill="#4B1E20"/>
<path d="M155.668 86.8023C150.721 83.9141 144.83 83.11 139.291 84.5666C133.752 86.0233 129.018 89.6215 126.13 94.5698C123.243 99.5179 122.439 105.411 123.895 110.952C125.352 116.493 128.949 121.228 133.895 124.116L144.782 105.459L155.668 86.8023Z" fill="#DBE272"/>
<path fill-rule="evenodd" clip-rule="evenodd" d="M123.206 106.391L144.612 105.711L133.774 86.8738C130.641 88.7308 127.999 91.3675 126.13 94.5698C124.026 98.1758 123.029 102.283 123.206 106.391Z" fill="#E3E798"/>
<path fill-rule="evenodd" clip-rule="evenodd" d="M123.271 111.116C121.771 105.409 122.599 99.3403 125.573 94.2443C128.546 89.148 133.422 85.4422 139.127 83.942C144.832 82.4419 150.899 83.2701 155.994 86.2446L155.343 87.3604C150.544 84.5586 144.829 83.7785 139.455 85.1916C134.081 86.6047 129.489 90.0954 126.688 94.8954C123.887 99.6957 123.107 105.412 124.52 110.788C125.933 116.163 129.422 120.757 134.221 123.559L133.57 124.675C128.475 121.7 124.77 116.823 123.271 111.116Z" fill="#F3F4CB"/>
<path d="M210.67 143.332L210.387 149.858C209.955 159.869 201.492 167.635 191.483 167.203L184.959 166.921L185.241 160.395C185.673 150.384 194.137 142.618 204.145 143.05L210.67 143.332Z" fill="url(#paint13_linear_1_669)"/>
<path opacity="0.5" fill-rule="evenodd" clip-rule="evenodd" d="M184.993 166.145L210.354 143.318L210.67 143.332L210.387 149.858C209.955 159.869 201.492 167.635 191.483 167.203L184.959 166.921L184.993 166.145Z" fill="#529D6A"/>
<path d="M227.035 128.77C227.182 127.822 227.996 127.122 228.955 127.122H235.738C241.156 127.122 245.973 131.363 244.109 136.45C243.525 138.044 242.67 139.639 241.428 141.049C239.908 142.773 237.955 143.983 235.912 144.831C230.027 147.274 225.106 141.316 226.074 135.016L227.035 128.77Z" fill="url(#paint14_linear_1_669)"/>
<path d="M228.33 128.77C228.477 127.822 229.291 127.122 230.25 127.122H237.033C242.451 127.122 247.268 131.363 245.404 136.45C244.82 138.044 243.965 139.639 242.723 141.049C241.203 142.773 239.25 143.983 237.207 144.831C231.322 147.274 226.4 141.316 227.369 135.016L228.33 128.77Z" fill="#F5E6D5"/>
<path fill-rule="evenodd" clip-rule="evenodd" d="M232.897 138.749C233.455 141.133 236.873 141.058 237.328 138.653L237.352 138.531C237.385 138.356 237.555 138.24 237.731 138.273C237.906 138.307 238.022 138.476 237.988 138.652L237.965 138.773C237.379 141.867 232.984 141.962 232.266 138.897L231.473 135.524C230.678 132.139 233.914 129.201 237.205 130.32L240.817 131.548C243.588 132.491 243.395 136.476 240.545 137.146L239.067 137.494C238.891 137.535 238.717 137.427 238.676 137.252C238.635 137.078 238.744 136.904 238.918 136.863L240.397 136.515C242.613 135.994 242.764 132.895 240.608 132.162L236.996 130.933C234.188 129.978 231.424 132.486 232.104 135.375L232.897 138.749Z" fill="url(#paint15_linear_1_669)"/>
<path d="M205.391 43.7598C205.267 42.8087 204.467 42.09 203.51 42.0677L196.726 41.91C191.312 41.784 186.398 45.9116 188.143 51.0413C188.69 52.6484 189.507 54.2625 190.717 55.7012C192.195 57.4601 194.12 58.7152 196.142 59.6102C201.969 62.1901 207.027 56.3477 206.205 50.0267L205.391 43.7598Z" fill="url(#paint16_linear_1_669)"/>
<path d="M204.096 43.7298C203.971 42.7785 203.172 42.0599 202.215 42.0377L195.432 41.88C190.017 41.754 185.103 45.8816 186.848 51.0112C187.395 52.6183 188.212 54.2325 189.422 55.6712C190.9 57.4301 192.825 58.6852 194.847 59.5802C200.674 62.16 205.733 56.3177 204.91 49.9967L204.096 43.7298Z" fill="#F5E6D5"/>
<path fill-rule="evenodd" clip-rule="evenodd" d="M199.299 53.6004C198.684 55.9706 195.27 55.8169 194.87 53.4011L194.849 53.2792C194.82 53.1028 194.654 52.9834 194.477 53.0127C194.301 53.0418 194.181 53.2087 194.211 53.3851L194.231 53.507C194.745 56.613 199.135 56.8107 199.926 53.7633L200.797 50.409C201.67 47.044 198.502 44.0312 195.187 45.0737L191.548 46.2177C188.755 47.0959 188.856 51.0838 191.69 51.82L193.16 52.2021C193.333 52.2471 193.51 52.1431 193.555 51.97C193.6 51.7969 193.496 51.6201 193.323 51.5752L191.852 51.1931C189.648 50.6206 189.57 47.5187 191.742 46.8357L195.381 45.6916C198.211 44.8017 200.916 47.3736 200.17 50.2463L199.299 53.6004Z" fill="url(#paint17_linear_1_669)"/>
<path d="M172.009 50.1001C171.885 49.1489 171.086 48.4303 170.127 48.408L163.345 48.2504C157.93 48.1244 153.017 52.2519 154.761 57.3816C155.308 58.9887 156.126 60.6029 157.335 62.0416C158.813 63.8005 160.739 65.0555 162.76 65.9505C168.587 68.5304 173.646 62.688 172.824 56.367L172.009 50.1001Z" fill="url(#paint18_linear_1_669)"/>
<path d="M170.714 50.0701C170.59 49.1189 169.791 48.4003 168.832 48.378L162.05 48.2203C156.635 48.0943 151.722 52.2219 153.466 57.3516C154.013 58.9587 154.83 60.5728 156.04 62.0115C157.518 63.7705 159.443 65.0253 161.465 65.9205C167.292 68.5004 172.351 62.658 171.529 56.337L170.714 50.0701Z" fill="#F5E6D5"/>
<path fill-rule="evenodd" clip-rule="evenodd" d="M165.918 59.9405C165.302 62.3107 161.888 62.157 161.488 59.7412L161.467 59.6193C161.438 59.4429 161.272 59.3235 161.095 59.3528C160.919 59.3819 160.799 59.5488 160.829 59.7252L160.849 59.8471C161.363 62.9531 165.753 63.1506 166.544 60.1034L167.415 56.7491C168.289 53.3841 165.121 50.3713 161.805 51.4137L158.166 52.5578C155.373 53.436 155.474 57.4239 158.308 58.1601L159.779 58.5422C159.952 58.5872 160.128 58.4832 160.173 58.3101C160.218 58.137 160.114 57.9602 159.941 57.9153L158.47 57.5331C156.266 56.9605 156.188 53.8588 158.36 53.1758L161.999 52.0317C164.83 51.1418 167.534 53.7136 166.788 56.5864L165.918 59.9405Z" fill="url(#paint19_linear_1_669)"/>
<path d="M66.3508 196.254C71.0196 200.849 77.3219 203.4 83.8713 203.347C90.4207 203.293 96.6807 200.64 101.274 195.97C105.867 191.299 108.418 184.995 108.364 178.444C108.311 171.892 105.658 165.63 100.989 161.036L83.67 178.645L66.3508 196.254Z" fill="#DBE272"/>
<path fill-rule="evenodd" clip-rule="evenodd" d="M107.844 183.693L83.9294 178.414L90.6351 202.345C94.6304 201.169 98.3009 198.993 101.274 195.97C104.621 192.566 106.883 188.295 107.844 183.693Z" fill="#E3E798"/>
<path d="M66.3508 196.254C71.0196 200.849 77.3219 203.4 83.8713 203.347C90.4207 203.293 96.6807 200.64 101.274 195.97C105.867 191.299 108.418 184.995 108.364 178.444C108.311 171.892 105.658 165.63 100.989 161.036" stroke="#F3F4CB" stroke-width="7.42177"/>
<path d="M274.252 26.2763L280.4 21.657C289.832 14.5706 303.221 16.4739 310.305 25.908L314.922 32.0577L308.775 36.6769C299.344 43.7633 285.955 41.86 278.871 32.4258L274.252 26.2763Z" fill="url(#paint20_linear_1_669)"/>
<path opacity="0.5" fill-rule="evenodd" clip-rule="evenodd" d="M314.191 32.607L274.477 26.5736L274.252 26.2762L280.4 21.6571C289.832 14.5706 303.221 16.4738 310.305 25.908L314.922 32.0576L314.191 32.607Z" fill="#529D6A"/>
<path d="M47.5083 102.956L40.6509 106.434C30.1306 111.771 17.2773 107.566 11.9422 97.0429L8.4646 90.1834L15.3221 86.7049C25.8423 81.3681 38.6956 85.5729 44.0308 96.0961L47.5083 102.956Z" fill="url(#paint21_linear_1_669)"/>
<path opacity="0.5" fill-rule="evenodd" clip-rule="evenodd" d="M9.2803 89.7695L47.3401 102.624L47.5083 102.956L40.6509 106.434C30.1305 111.771 17.2773 107.566 11.9422 97.0428L8.4646 90.1833L9.2803 89.7695Z" fill="#529D6A"/>
<path d="M42.0291 102.133L41.5251 109.808C40.7517 121.582 30.5832 130.499 18.8127 129.726L11.1404 129.222L11.6445 121.547C12.4178 109.773 22.5865 100.856 34.3568 101.629L42.0291 102.133Z" fill="url(#paint22_linear_1_669)"/>
<path opacity="0.5" fill-rule="evenodd" clip-rule="evenodd" d="M11.2001 128.309L41.6577 102.109L42.0288 102.133L41.5247 109.808C40.7515 121.582 30.5829 130.499 18.8125 129.726L11.1401 129.221L11.2001 128.309Z" fill="#529D6A"/>
<path d="M92.9916 39.0857C92.9916 58.0823 77.5963 73.4822 58.6051 73.4822C39.6141 73.4822 24.2188 58.0823 24.2188 39.0857C24.2188 20.0889 39.6141 4.68896 58.6051 4.68896C77.5963 4.68896 92.9916 20.0889 92.9916 39.0857Z" fill="#323138"/>
<path fill-rule="evenodd" clip-rule="evenodd" d="M58.6051 71.3458C76.4166 71.3458 90.8559 56.9025 90.8559 39.0857C90.8559 21.2689 76.4166 6.82542 58.6051 6.82542C40.7936 6.82542 26.3545 21.2689 26.3545 39.0857C26.3545 56.9025 40.7936 71.3458 58.6051 71.3458ZM58.6051 73.4822C77.5963 73.4822 92.9916 58.0823 92.9916 39.0857C92.9916 20.0889 77.5963 4.68896 58.6051 4.68896C39.6141 4.68896 24.2188 20.0889 24.2188 39.0857C24.2188 58.0823 39.6141 73.4822 58.6051 73.4822Z" fill="url(#paint23_linear_1_669)"/>
<path d="M58.605 61.091C70.7547 61.091 80.6039 51.2389 80.6039 39.0857C80.6039 26.9325 70.7547 17.0803 58.605 17.0803C46.4554 17.0803 36.6062 26.9325 36.6062 39.0857C36.6062 51.2389 46.4554 61.091 58.605 61.091Z" fill="#C24048"/>
<path d="M47.9261 42.2902C48.28 42.2902 48.5669 42.0032 48.5669 41.6492C48.5669 41.2953 48.28 41.0083 47.9261 41.0083C47.5723 41.0083 47.2854 41.2953 47.2854 41.6492C47.2854 42.0032 47.5723 42.2902 47.9261 42.2902Z" fill="#B4373F"/>
<path d="M54.7609 31.608C55.1147 31.608 55.4016 31.3211 55.4016 30.9671C55.4016 30.6131 55.1147 30.3262 54.7609 30.3262C54.407 30.3262 54.1201 30.6131 54.1201 30.9671C54.1201 31.3211 54.407 31.608 54.7609 31.608Z" fill="#B4373F"/>
<path d="M64.5853 41.0084C64.9392 41.0084 65.2261 40.7215 65.2261 40.3675C65.2261 40.0135 64.9392 39.7266 64.5853 39.7266C64.2315 39.7266 63.9446 40.0135 63.9446 40.3675C63.9446 40.7215 64.2315 41.0084 64.5853 41.0084Z" fill="#B4373F"/>
<path d="M64.5853 52.9725C64.9392 52.9725 65.2261 52.6856 65.2261 52.3316C65.2261 51.9776 64.9392 51.6907 64.5853 51.6907C64.2315 51.6907 63.9446 51.9776 63.9446 52.3316C63.9446 52.6856 64.2315 52.9725 64.5853 52.9725Z" fill="#B4373F"/>
<path d="M72.7013 35.881C73.0552 35.881 73.342 35.594 73.342 35.2401C73.342 34.8861 73.0552 34.5991 72.7013 34.5991C72.3474 34.5991 72.0605 34.8861 72.0605 35.2401C72.0605 35.594 72.3474 35.881 72.7013 35.881Z" fill="#B4373F"/>
<path d="M47.9261 26.0534C48.28 26.0534 48.5669 25.7664 48.5669 25.4124C48.5669 25.0584 48.28 24.7715 47.9261 24.7715C47.5723 24.7715 47.2854 25.0584 47.2854 25.4124C47.2854 25.7664 47.5723 26.0534 47.9261 26.0534Z" fill="#B4373F"/>
<path d="M46.2024 134.825L49.1924 130.552" stroke="#323138" stroke-width="4.37413" stroke-linecap="round"/>
<path d="M13.9455 156.244L29.8704 149.041C31.8809 148.132 33.5604 146.622 34.678 144.719L40.3745 135.02C41.8227 132.554 44.9971 131.733 47.4585 133.188C50.0983 134.749 50.8067 138.252 48.9809 140.716L43.1653 148.565C40.4608 152.215 36.4147 154.637 31.9208 155.298L14.4217 157.868C13.4418 158.012 13.0431 156.652 13.9455 156.244Z" fill="url(#paint24_linear_1_669)"/>
<path d="M68.2608 130.052L66.8528 125.857" stroke="#323138" stroke-width="3.71138" stroke-linecap="round"/>
<path d="M66.6152 162.871L69.7281 148.368C70.121 146.537 69.9374 144.63 69.2025 142.907L65.4562 134.129C64.5038 131.898 65.5441 129.317 67.7773 128.37C70.1726 127.354 72.9201 128.636 73.681 131.125L76.1048 139.052C77.232 142.738 76.8454 146.722 75.0306 150.122L67.9634 163.365C67.5677 164.107 66.4388 163.693 66.6152 162.871Z" fill="url(#paint25_linear_1_669)"/>
<path d="M33.6938 176.743L29.6392 178.513" stroke="#323138" stroke-width="3.71138" stroke-linecap="round"/>
<path d="M56.9179 153.502L48.2558 165.541C47.1623 167.061 45.6248 168.205 43.8548 168.816L34.8343 171.927C32.5412 172.718 31.3257 175.221 32.1222 177.513C32.9765 179.971 35.7703 181.149 38.1255 180.043L45.6279 176.522C49.1169 174.885 51.8105 171.925 53.1136 168.297L58.1884 154.17C58.4726 153.379 57.4087 152.819 56.9179 153.502Z" fill="url(#paint26_linear_1_669)"/>
</g>
<defs>
<linearGradient id="paint0_linear_1_669" x1="280.416" y1="207.022" x2="291.919" y2="28.5154" gradientUnits="userSpaceOnUse">
<stop stop-color="#FEF4E9"/>
<stop offset="1" stop-color="#E9D2BA"/>
</linearGradient>
<linearGradient id="paint1_linear_1_669" x1="305.186" y1="199.096" x2="317.054" y2="10.6251" gradientUnits="userSpaceOnUse">
<stop stop-color="#FEF4E9"/>
<stop offset="1" stop-color="#E9D2BA"/>
</linearGradient>
<linearGradient id="paint2_linear_1_669" x1="187.5" y1="17.5835" x2="187.5" y2="193.417" gradientUnits="userSpaceOnUse">
<stop stop-color="#64626F"/>
<stop offset="1" stop-color="#64626F" stop-opacity="0.34"/>
</linearGradient>
<radialGradient id="paint3_radial_1_669" cx="0" cy="0" r="1" gradientUnits="userSpaceOnUse" gradientTransform="translate(186.866 89.8611) rotate(88.5765) scale(110.564 97.8852)">
<stop stop-color="#F7C97C"/>
<stop offset="1" stop-color="#D55561"/>
</radialGradient>
<linearGradient id="paint4_linear_1_669" x1="142.287" y1="83.521" x2="129.182" y2="59.0089" gradientUnits="userSpaceOnUse">
<stop stop-color="#64B581"/>
<stop offset="1" stop-color="#8DE691"/>
</linearGradient>
<linearGradient id="paint5_linear_1_669" x1="179.841" y1="161.495" x2="161.994" y2="152.708" gradientUnits="userSpaceOnUse">
<stop stop-color="#64B581"/>
<stop offset="1" stop-color="#8DE691"/>
</linearGradient>
<linearGradient id="paint6_linear_1_669" x1="132.357" y1="116.278" x2="141.446" y2="134.874" gradientUnits="userSpaceOnUse">
<stop stop-color="#C4CC57"/>
<stop offset="1" stop-color="#DBE272"/>
</linearGradient>
<linearGradient id="paint7_linear_1_669" x1="197.43" y1="90.9179" x2="192.356" y2="63.8671" gradientUnits="userSpaceOnUse">
<stop stop-color="#D55561"/>
<stop offset="1" stop-color="#EB8B75"/>
</linearGradient>
<linearGradient id="paint8_linear_1_669" x1="176.091" y1="98.9485" x2="158.419" y2="84.5875" gradientUnits="userSpaceOnUse">
<stop stop-color="#C14752"/>
<stop offset="1" stop-color="#C14752" stop-opacity="0"/>
</linearGradient>
<linearGradient id="paint9_linear_1_669" x1="165.527" y1="105.289" x2="159.644" y2="91.2626" gradientUnits="userSpaceOnUse">
<stop stop-color="#C14752"/>
<stop offset="1" stop-color="#C14752" stop-opacity="0"/>
</linearGradient>
<linearGradient id="paint10_linear_1_669" x1="203.346" y1="125.366" x2="197.85" y2="99.7946" gradientUnits="userSpaceOnUse">
<stop stop-color="#D55561"/>
<stop offset="1" stop-color="#EB8B75"/>
</linearGradient>
<linearGradient id="paint11_linear_1_669" x1="188.556" y1="134.665" x2="161.718" y2="112.693" gradientUnits="userSpaceOnUse">
<stop stop-color="#C14752"/>
<stop offset="1" stop-color="#C14752" stop-opacity="0"/>
</linearGradient>
<linearGradient id="paint12_linear_1_669" x1="186.237" y1="139.031" x2="172.927" y2="113.126" gradientUnits="userSpaceOnUse">
<stop stop-color="#C14752"/>
<stop offset="1" stop-color="#C14752" stop-opacity="0"/>
</linearGradient>
<linearGradient id="paint13_linear_1_669" x1="190.284" y1="159.2" x2="206.792" y2="141.971" gradientUnits="userSpaceOnUse">
<stop stop-color="#64B581"/>
<stop offset="1" stop-color="#8DE691"/>
</linearGradient>
<linearGradient id="paint14_linear_1_669" x1="232.111" y1="151.617" x2="234.453" y2="128.697" gradientUnits="userSpaceOnUse">
<stop offset="0.438968" stop-color="#A58F78"/>
<stop offset="1" stop-color="#CFBDAA"/>
</linearGradient>
<linearGradient id="paint15_linear_1_669" x1="249.955" y1="143.316" x2="246.279" y2="127.614" gradientUnits="userSpaceOnUse">
<stop stop-color="#A58F78"/>
<stop offset="1" stop-color="#F5E6D5"/>
</linearGradient>
<linearGradient id="paint16_linear_1_669" x1="199.785" y1="66.4831" x2="197.975" y2="43.5143" gradientUnits="userSpaceOnUse">
<stop offset="0.438968" stop-color="#A58F78"/>
<stop offset="1" stop-color="#CFBDAA"/>
</linearGradient>
<linearGradient id="paint17_linear_1_669" x1="182.14" y1="57.7698" x2="186.178" y2="42.1572" gradientUnits="userSpaceOnUse">
<stop stop-color="#A58F78"/>
<stop offset="1" stop-color="#F5E6D5"/>
</linearGradient>
<linearGradient id="paint18_linear_1_669" x1="166.403" y1="72.8235" x2="164.594" y2="49.8546" gradientUnits="userSpaceOnUse">
<stop offset="0.438968" stop-color="#A58F78"/>
<stop offset="1" stop-color="#CFBDAA"/>
</linearGradient>
<linearGradient id="paint19_linear_1_669" x1="148.757" y1="64.1099" x2="152.796" y2="48.4973" gradientUnits="userSpaceOnUse">
<stop stop-color="#A58F78"/>
<stop offset="1" stop-color="#F5E6D5"/>
</linearGradient>
<linearGradient id="paint20_linear_1_669" x1="303.92" y1="32.9785" x2="275.91" y2="30.8315" gradientUnits="userSpaceOnUse">
<stop stop-color="#64B581"/>
<stop offset="1" stop-color="#8DE691"/>
</linearGradient>
<linearGradient id="paint21_linear_1_669" x1="19.4595" y1="91.1915" x2="46.6693" y2="98.179" gradientUnits="userSpaceOnUse">
<stop stop-color="#64B581"/>
<stop offset="1" stop-color="#8DE691"/>
</linearGradient>
<linearGradient id="paint22_linear_1_669" x1="17.6125" y1="120.274" x2="37.5019" y2="100.429" gradientUnits="userSpaceOnUse">
<stop stop-color="#64B581"/>
<stop offset="1" stop-color="#8DE691"/>
</linearGradient>
<linearGradient id="paint23_linear_1_669" x1="58.6051" y1="4.68896" x2="58.6051" y2="73.4822" gradientUnits="userSpaceOnUse">
<stop stop-color="#64626F"/>
<stop offset="1" stop-color="#64626F" stop-opacity="0.34"/>
</linearGradient>
<linearGradient id="paint24_linear_1_669" x1="40.0085" y1="145.08" x2="37.9473" y2="128.05" gradientUnits="userSpaceOnUse">
<stop stop-color="#D55561"/>
<stop offset="1" stop-color="#EB8B75"/>
</linearGradient>
<linearGradient id="paint25_linear_1_669" x1="72.1357" y1="139.45" x2="59.4757" y2="132.275" gradientUnits="userSpaceOnUse">
<stop stop-color="#D55561"/>
<stop offset="1" stop-color="#EB8B75"/>
</linearGradient>
<linearGradient id="paint26_linear_1_669" x1="43.2603" y1="173.311" x2="29.4454" y2="168.741" gradientUnits="userSpaceOnUse">
<stop stop-color="#D55561"/>
<stop offset="1" stop-color="#EB8B75"/>
</linearGradient>
</defs>
</svg>
