<svg width="162" height="162" viewBox="0 0 162 162" fill="none" xmlns="http://www.w3.org/2000/svg">
<path d="M78.2066 8.34131L78.2751 8.33778C78.8011 8.31814 79.3273 8.30408 79.8537 8.29559C80.38 8.2871 80.9063 8.28418 81.4325 8.28684C81.9589 8.2895 82.4852 8.29773 83.0114 8.31153C83.5377 8.32534 84.0637 8.34471 84.5895 8.36966C85.1153 8.3946 85.6407 8.42511 86.1658 8.46118C86.691 8.49726 87.2157 8.53889 87.74 8.58606C88.2642 8.63325 88.7879 8.68599 89.3111 8.74427C89.8342 8.80255 90.3566 8.86636 90.8784 8.93569C91.4002 9.00504 91.9213 9.0799 92.4414 9.16028C92.9616 9.24066 93.4809 9.32653 93.9993 9.41791C94.5176 9.50929 95.035 9.60614 95.5514 9.70847C96.0676 9.8108 96.5828 9.91859 97.0969 10.0318C97.6109 10.1451 98.1237 10.2638 98.6352 10.3879C99.1469 10.512 99.6571 10.6415 100.166 10.7764C100.675 10.9113 101.182 11.0516 101.688 11.1972C102.194 11.3429 102.698 11.4939 103.2 11.6502C103.703 11.8066 104.204 11.9682 104.703 12.1351C105.202 12.3021 105.7 12.4743 106.195 12.6518C106.691 12.8293 107.184 13.012 107.676 13.1999C108.168 13.3878 108.657 13.581 109.145 13.7793C109.633 13.9776 110.118 14.181 110.601 14.3896C111.085 14.5982 111.566 14.8118 112.044 15.0306C112.523 15.2494 113 15.4732 113.474 15.7021C113.948 15.9309 114.419 16.1648 114.888 16.4037C115.357 16.6425 115.824 16.8863 116.288 17.1351C116.752 17.3838 117.213 17.6374 117.671 17.8959C118.13 18.1544 118.586 18.4177 119.039 18.6858C119.492 18.954 119.942 19.2269 120.389 19.5045C120.836 19.7822 121.28 20.0646 121.721 20.3517C122.163 20.6387 122.601 20.9305 123.036 21.2268C123.471 21.5232 123.902 21.8242 124.331 22.1297C124.76 22.4352 125.185 22.7453 125.607 23.0598C127.241 24.2893 128.863 25.5439 130.371 26.9272C140.175 35.918 147.099 46.0084 151.399 58.6507C152.591 62.1559 153.622 65.8203 154.247 69.4737C154.803 72.7237 155.072 76.0059 155.215 79.2981C155.881 94.6962 151.374 109.247 143.094 122.15C140.823 125.688 138.374 129.075 135.524 132.175C135.113 132.62 134.697 133.061 134.275 133.497C133.853 133.932 133.426 134.363 132.994 134.788C132.562 135.213 132.125 135.633 131.682 136.047C131.24 136.462 130.792 136.87 130.339 137.274C129.887 137.677 129.429 138.075 128.967 138.467C128.504 138.859 128.037 139.245 127.566 139.626C127.094 140.007 126.617 140.381 126.136 140.75C125.655 141.119 125.169 141.482 124.679 141.839C124.189 142.196 123.695 142.547 123.196 142.891C122.697 143.236 122.195 143.575 121.688 143.907C121.181 144.24 120.67 144.566 120.155 144.886C119.64 145.206 119.121 145.519 118.598 145.826C118.075 146.133 117.549 146.434 117.019 146.728C116.489 147.022 115.955 147.309 115.418 147.59C114.881 147.872 114.34 148.146 113.796 148.414C113.252 148.681 112.705 148.942 112.154 149.196C111.604 149.451 111.051 149.698 110.494 149.939C109.938 150.179 109.378 150.413 108.816 150.64C108.254 150.867 107.689 151.087 107.122 151.3C106.554 151.513 105.984 151.719 105.411 151.917C104.838 152.116 104.263 152.308 103.686 152.493C103.109 152.678 102.529 152.855 101.947 153.026C101.365 153.197 100.782 153.36 100.196 153.516C99.6101 153.672 99.0225 153.821 98.433 153.963C97.8436 154.104 97.2524 154.239 96.6596 154.366C96.0669 154.493 95.4726 154.613 94.877 154.726C94.2813 154.838 93.6843 154.943 93.0859 155.041C92.4876 155.139 91.8882 155.23 91.2876 155.313C90.6871 155.396 90.0857 155.472 89.4833 155.54C88.8809 155.608 88.2778 155.669 87.674 155.723C87.0701 155.776 86.4656 155.822 85.8605 155.861C85.2555 155.899 84.6501 155.931 84.0443 155.954C84.0388 155.955 84.0333 155.955 84.0276 155.956C83.4309 155.982 82.8341 156.002 82.237 156.014C81.6399 156.026 81.0427 156.03 80.4455 156.028C79.8483 156.025 79.2511 156.015 78.6542 155.998C78.0572 155.98 77.4606 155.956 76.8643 155.924C76.2679 155.892 75.672 155.853 75.0766 155.806C74.4812 155.759 73.8865 155.706 73.2924 155.644C72.6983 155.583 72.1051 155.515 71.5127 155.439C70.9203 155.363 70.3289 155.28 69.7385 155.19C69.1482 155.1 68.559 155.002 67.9711 154.898C67.3831 154.793 66.7965 154.681 66.2114 154.562C65.6261 154.443 65.0424 154.317 64.4602 154.183C63.8781 154.05 63.2977 153.909 62.719 153.761C62.1404 153.614 61.5637 153.459 60.9888 153.297C60.4139 153.135 59.8411 152.967 59.2704 152.791C58.6997 152.615 58.1312 152.432 57.5649 152.242C56.9987 152.052 56.4348 151.855 55.8734 151.652C55.312 151.448 54.7532 151.238 54.197 151.02C53.6407 150.803 53.0872 150.579 52.5365 150.348C51.9857 150.117 51.4379 149.879 50.893 149.635C50.3481 149.39 49.8062 149.139 49.2675 148.882C48.7288 148.624 48.1933 148.359 47.661 148.089C47.1287 147.818 46.5998 147.54 46.0743 147.257C45.5489 146.973 45.027 146.682 44.5088 146.386C43.9904 146.089 43.4757 145.786 42.9648 145.477C42.454 145.168 41.9469 144.852 41.4437 144.53C40.9406 144.209 40.4415 143.881 39.9463 143.547C39.4513 143.213 38.9603 142.873 38.4735 142.527C37.9867 142.181 37.5043 141.829 37.0262 141.471C36.548 141.113 36.0744 140.75 35.6052 140.38C35.136 140.011 34.6714 139.636 34.2115 139.255C33.7514 138.874 33.2962 138.487 32.8457 138.095C32.3951 137.703 31.9495 137.306 31.5087 136.903C31.0551 136.491 30.6067 136.074 30.1634 135.652C29.7201 135.229 29.282 134.802 28.8492 134.368C28.4163 133.935 27.9889 133.497 27.5669 133.053C27.1449 132.609 26.7283 132.16 26.3173 131.707C25.9063 131.253 25.5009 130.794 25.1012 130.33C24.7015 129.866 24.3075 129.397 23.9193 128.924C23.531 128.45 23.1487 127.972 22.7723 127.489C22.3959 127.006 22.0254 126.518 21.6609 126.026C21.2964 125.534 20.938 125.037 20.5858 124.537C20.2335 124.036 19.8875 123.531 19.5476 123.021C19.2077 122.512 18.8741 121.998 18.5468 121.481C18.2197 120.963 17.8989 120.442 17.5845 119.916C17.27 119.391 16.962 118.861 16.6606 118.328C16.3593 117.795 16.0645 117.259 15.7762 116.718C15.488 116.178 15.2064 115.634 14.9316 115.087C14.6567 114.54 14.3886 113.989 14.1273 113.435C13.8659 112.882 13.6114 112.325 13.3638 111.765C13.1162 111.205 12.8754 110.641 12.6416 110.075C12.4078 109.509 12.181 108.941 11.9612 108.369C11.7413 107.798 11.5285 107.223 11.3228 106.647C11.1171 106.07 10.9185 105.491 10.727 104.909C10.5355 104.327 10.3512 103.743 10.1741 103.157C9.99692 102.571 9.82701 101.983 9.66433 101.392C9.50164 100.802 9.34624 100.21 9.19812 99.6157C9.05 99.0214 8.9092 98.4255 8.77572 97.8278C8.64224 97.2302 8.51612 96.6311 8.39736 96.0303C8.2786 95.4296 8.16725 94.8274 8.0633 94.2239C7.95934 93.6204 7.86281 93.0158 7.77371 92.41C7.68461 91.8041 7.60297 91.1972 7.5288 90.5894C7.45461 89.9816 7.3879 89.3729 7.32867 88.7634C7.26945 88.1539 7.21772 87.5438 7.17349 86.933C7.12926 86.3222 7.09254 85.711 7.06333 85.0993C6.25222 64.9831 13.0117 46.7741 26.6479 31.9957C27.0597 31.5503 27.4768 31.11 27.8993 30.6749C28.3219 30.2398 28.7498 29.81 29.183 29.3854C29.6162 28.9609 30.0545 28.5417 30.498 28.128C30.9415 27.7142 31.39 27.306 31.8437 26.9033C32.2972 26.5006 32.7556 26.1036 33.2191 25.7122C33.6824 25.3208 34.1505 24.9352 34.6234 24.5554C35.0963 24.1755 35.5737 23.8015 36.0558 23.4335C36.5379 23.0654 37.0245 22.7033 37.5155 22.3472C38.0066 21.9912 38.5019 21.6412 39.0015 21.2974C39.5013 20.9536 40.0051 20.6159 40.513 20.2844C41.021 19.953 41.533 19.6279 42.049 19.3091C42.565 18.9904 43.0848 18.678 43.6086 18.3719C44.1322 18.0659 44.6596 17.7665 45.1908 17.4735C45.7218 17.1806 46.2564 16.8942 46.7946 16.6144C47.3327 16.3346 47.8742 16.0615 48.4191 15.795C48.964 15.5286 49.5121 15.2689 50.0634 15.016C50.6147 14.7631 51.169 14.517 51.7263 14.2777C52.2837 14.0385 52.8439 13.8061 53.407 13.5807C53.9701 13.3552 54.5359 13.1368 55.1044 12.9253C55.6729 12.7138 56.2439 12.5094 56.8174 12.312C57.3909 12.1145 57.9667 11.9242 58.545 11.741C59.1232 11.5578 59.7035 11.3818 60.286 11.2129C60.8686 11.044 61.4532 10.8823 62.0397 10.7278C62.6262 10.5734 63.2146 10.4261 63.8048 10.2862C64.395 10.1462 64.9868 10.0135 65.5801 9.88815C66.1736 9.76277 66.7685 9.64473 67.3648 9.53403C67.9611 9.42332 68.5588 9.31998 69.1577 9.22402C69.7566 9.12805 70.3566 9.03948 70.9578 8.95832C71.5588 8.87715 72.1608 8.8034 72.7637 8.73707C73.3666 8.67074 73.9703 8.61186 74.5746 8.56042C75.1789 8.50898 75.7838 8.465 76.3892 8.42848C76.9947 8.39195 77.6005 8.3629 78.2066 8.34131Z" fill="black"/>
<path d="M93.5286 84.1135C93.2556 83.5695 93.0991 82.5775 93.3155 81.9794C93.3521 81.8784 93.3628 81.8721 93.4166 81.7971C93.4864 81.9333 93.4748 81.8757 93.4854 81.9591C93.6911 82.5092 93.8894 83.062 94.0804 83.6174C93.8987 83.7818 93.7191 83.9602 93.5286 84.1135Z" fill="#FEFEFE"/>
<path d="M79.4353 96.74C79.4616 96.8507 79.428 96.9031 79.3692 97.0053C78.9903 97.6639 78.4469 98.2951 78.0099 98.9248C76.893 100.535 75.7688 102.137 74.7478 103.81C74.7278 103.75 74.7131 103.718 74.7139 103.649C74.725 102.783 75.2081 101.437 75.7043 100.722C76.472 99.6158 78.4408 97.7639 79.4353 96.74Z" fill="#FEFEFE"/>
<path d="M78.9569 89.2761C79.4877 89.79 80.1702 91.1201 80.6285 91.7871C79.7695 92.8267 78.7416 93.7832 77.8087 94.7591C77.5208 95.0637 77.2055 95.3419 76.8975 95.6258C77.6121 93.5164 78.2482 91.3848 78.9569 89.2761Z" fill="#FEFEFE"/>
<path d="M104.062 65.5C104.068 65.7849 103.39 66.7245 103.211 67.0311C102.428 68.3793 101.8 69.7041 101.311 71.1857C100.983 71.0004 100.639 70.8594 100.293 70.7122C100.264 70.7308 100.234 70.749 100.205 70.768C98.9208 71.6066 97.9076 72.9238 97.5966 74.4193C97.4123 74.1795 97.2052 73.9553 97.006 73.7278C96.9627 73.7188 96.9201 73.7052 96.876 73.7008C96.6107 73.6739 96.5131 73.7832 96.3052 73.921C96.3254 73.6351 96.9008 73.0438 97.0943 72.8027C99.2261 70.1459 101.562 67.803 104.062 65.5Z" fill="#FEFEFE"/>
<path d="M104.748 69.2756C104.91 69.3495 105.057 69.5982 105.15 69.7455C105.844 70.8343 105.823 72.4933 105.545 73.7134C105.208 75.1918 104.359 75.5784 103.176 76.3255C103.394 74.9229 103.867 73.6719 104.29 72.3269C104.371 72.0198 104.41 71.7183 104.448 71.4033C103.811 72.7985 103.156 74.2302 102.772 75.718C102.764 74.536 102.783 73.4277 102.329 72.3139C103.041 71.1204 103.678 70.1867 104.748 69.2756Z" fill="#FEFEFE"/>
<path d="M96.2094 57.0475C96.5714 56.2693 97.4334 55.7171 98.2134 55.4388C99.5317 54.9685 101.079 55.2182 102.317 55.8242C102.789 56.0554 103.178 56.3469 103.57 56.6958C102.295 57.6687 100.707 58.1903 99.1025 57.9764C98.5954 57.9087 96.4869 57.6244 96.1792 57.4097C96.2866 57.3797 96.3762 57.3575 96.4879 57.3463L96.2094 57.0475Z" fill="#FEFEFE"/>
<path d="M96.2095 57.0474C97.6801 56.7223 99.1044 56.788 100.597 56.8513C99.6431 57.2055 97.5362 57.3447 96.4879 57.3463L96.2095 57.0474Z" fill="black"/>
<path d="M93.0115 62.579C95.0436 62.4697 96.3243 62.8513 97.9278 64.1068L97.8385 64.1688C96.5045 65.0817 94.7295 66.0953 93.0622 65.7703C92.3526 65.632 91.6853 65.3443 90.9737 65.2098C90.9427 65.2039 90.9117 65.1987 90.8808 65.1932C90.4429 65.2046 90.0011 65.2506 89.564 65.2827C91.4365 64.602 93.318 65.1358 95.1814 64.4303C94.5689 64.4189 93.9552 64.4742 93.3414 64.4531C92.2957 64.4172 91.3411 64.287 90.2912 64.4106C91.0838 63.5463 91.8517 62.888 93.0115 62.579Z" fill="#FEFEFE"/>
<path d="M97.7403 83.2408C97.8814 83.2295 98.0233 83.2204 98.1651 83.2243C99.4707 83.2606 100.797 84.2322 101.64 85.1705C101.075 85.6417 100.478 85.9837 99.7776 86.2101C97.6239 86.906 95.6152 86.147 93.6841 85.1653L93.6294 85.0517C94.0031 84.9421 97.3124 85.3838 97.962 85.4241C98.4396 85.4537 98.9012 85.4341 99.3771 85.3884C98.4481 85.0816 97.4696 85.0693 96.5079 84.9293C95.6637 84.8062 94.8469 84.5803 93.9879 84.5953C95.101 83.9459 96.4593 83.4086 97.7403 83.2408Z" fill="#FEFEFE"/>
<path d="M87.9546 70.7295C89.4223 70.5503 90.981 71.1817 92.1396 72.0452C91.3368 72.8757 90.3036 73.3804 89.209 73.703C88.2759 73.9746 87.1755 74.0179 86.2182 73.8484C85.8627 73.7854 85.5319 73.7189 85.3115 73.4115C85.4669 72.9626 85.5544 72.5454 85.6162 72.0744C86.2365 71.3318 87.0497 70.9838 87.9546 70.7295Z" fill="#FEFEFE"/>
<path d="M88.1752 72.489C88.5367 72.4601 88.8808 72.4877 89.2402 72.5189L89.2986 72.6509L89.3198 72.58C88.6944 72.8223 87.3908 72.956 86.6351 73.1552C86.3615 73.2239 86.1086 73.2748 85.8271 73.2963L85.686 73.1368L85.7539 73.2916L85.6683 73.1361L85.5669 73.2414L85.615 73.1462C86.3554 72.6842 87.3222 72.5736 88.1752 72.489Z" fill="black"/>
<path d="M105.708 47.1653C107.409 47.6807 108.839 48.2937 110.089 49.5812C109.265 50.2789 108.104 50.8918 106.997 50.7696C106.801 50.7479 103.398 49.707 103.381 49.6926L103.349 49.7029C103.128 49.6103 103.079 49.5062 102.958 49.3105L102.9 49.2809C103.66 48.3912 104.696 47.7334 105.708 47.1653Z" fill="#FEFEFE"/>
<path d="M102.958 49.3106C104.277 49.2322 106.098 49.1984 107.329 49.7157L107.388 49.8051C106.111 50.074 104.641 49.3068 103.381 49.6926L103.349 49.7029C103.128 49.6103 103.079 49.5063 102.958 49.3106Z" fill="black"/>
<path d="M85.2606 60.0115C85.4395 60.1174 85.6138 60.2303 85.7836 60.3502C85.9534 60.4701 86.1181 60.5967 86.2777 60.7299C86.4373 60.8632 86.5912 61.0026 86.7395 61.1482C86.8878 61.2938 87.03 61.4452 87.1662 61.6024C87.8167 62.3409 88.4636 63.325 88.3693 64.351C88.2771 65.3534 87.5077 66.0521 86.7871 66.6598C86.4731 65.4314 86.21 64.2781 85.5563 63.1765C85.4202 63.0188 85.3509 62.8765 85.1448 62.8215C85.2503 63.8745 86.5637 65.5972 86.2271 66.8261C86.207 66.8175 86.1856 66.8117 86.167 66.8004C85.8039 66.5796 84.9024 64.5636 84.7463 64.0871C84.24 62.5426 84.5519 61.4317 85.2606 60.0115Z" fill="#FEFEFE"/>
<path d="M99.1308 78.0691L99.067 78.1027C98.6484 76.4752 98.2799 74.6143 99.1861 73.0791C99.4484 72.6347 100.004 71.9362 100.539 71.8494C100.757 71.8138 100.957 71.8793 101.122 72.0231C101.697 72.5263 101.889 73.8002 101.9 74.5376C101.917 75.7412 101.508 76.7032 100.814 77.6722C100.394 77.8568 99.9761 78.0465 99.5604 78.2414L99.5557 78.19L99.1308 78.0691Z" fill="#FEFEFE"/>
<path d="M99.1309 78.0693C99.3474 76.979 99.799 75.2918 100.364 74.3435L100.43 74.3766C100.536 75.6895 99.7037 76.9153 99.5558 78.1902L99.1309 78.0693Z" fill="black"/>
<path d="M90.3461 66.6226C90.8732 66.5693 91.4111 66.6277 91.9249 66.7481C92.7539 66.9422 94.1304 67.4046 94.6006 68.1524C94.6297 68.375 94.6509 68.44 94.5215 68.6387C94.3212 68.9463 93.7824 69.1562 93.4483 69.2904C92.2818 69.759 91.0676 69.9393 89.8189 69.792C88.7615 69.6672 88.1086 69.4582 87.0469 69.7326L87.0086 69.7338L86.9971 69.6582C87.2467 69.4661 87.487 69.3481 87.7843 69.2429C87.8322 69.2258 87.8806 69.2102 87.9287 69.1934C88.7307 68.9131 89.6957 69.0947 90.541 68.998C90.9783 68.948 91.3872 68.814 91.8045 68.6802C90.2837 68.6658 88.7299 68.5645 87.235 68.8825C87.3204 68.6912 87.4204 68.5078 87.5348 68.3323C88.1762 67.3488 89.2459 66.8732 90.3461 66.6226Z" fill="#FEFEFE"/>
<path d="M114.726 71.0962C116.11 70.4021 118.683 69.7162 120.215 70.212C121.782 70.7192 122.538 72.2903 123.318 73.605C121.864 73.8559 120.038 74.0258 118.752 73.143C118.458 72.9411 116.763 71.5173 116.681 71.2792L116.728 70.9361C116.055 70.9411 115.393 71.0207 114.726 71.0962Z" fill="#FEFEFE"/>
<path d="M116.728 70.936C117.781 70.9753 118.887 71.3094 119.653 72.0757C119.813 72.2355 119.901 72.3415 119.936 72.5613C119.715 72.6136 119.545 72.5276 119.355 72.4132C118.555 71.9322 117.657 71.3039 116.681 71.2792L116.728 70.936Z" fill="black"/>
<path d="M96.2305 58.5539C97.0187 58.4892 97.7156 58.5909 98.447 58.8812C99.0905 59.1367 100.254 59.7137 100.536 60.3575C100.523 60.4901 100.537 60.5534 100.454 60.6637C100.274 60.9038 99.7697 61.1039 99.4943 61.2314C96.5525 62.5948 95.4009 61.1224 92.8024 61.5575L92.7358 61.436C94.3652 60.7725 95.6806 61.071 97.3307 60.7489C95.9345 60.5869 94.5468 60.3387 93.1745 60.7328C93.0187 60.7776 92.9763 60.7888 92.8085 60.7749C92.832 60.6906 92.8331 60.6695 92.8846 60.5834C93.562 59.4483 94.9959 58.7863 96.2305 58.5539Z" fill="#FEFEFE"/>
<path d="M110.243 74.7046C110.485 74.7084 110.74 74.7305 110.978 74.7767C112.381 75.0485 113.592 76.7062 114.371 77.7875C113.246 78.4595 111.518 78.8391 110.29 78.2657C109.87 78.0699 109.5 77.7685 109.126 77.4997C108.229 76.855 107.452 76.4439 106.375 76.187C106.073 76.0314 106.01 76.389 105.699 76.3118L105.688 76.1844C105.756 76.1181 105.742 76.1253 105.839 76.0672C106.139 75.8876 106.465 75.987 106.782 76.0542C108.379 76.3925 109.616 77.2192 111.314 77.1593C110.917 77.003 110.486 76.9264 110.081 76.7881C108.91 76.3891 107.781 75.8906 106.546 75.7377C107.794 75.162 108.859 74.7857 110.243 74.7046Z" fill="#FEFEFE"/>
<path d="M97.0771 82.4375C98.5532 81.3228 100.548 79.836 102.475 80.13C103.252 80.2486 105.269 81.3222 105.74 81.9757C105.8 82.0579 105.798 82.0714 105.825 82.1545C105.719 82.4687 105.506 82.5991 105.217 82.7365C104.054 83.2906 102.571 83.6669 101.317 83.2009C100.539 82.9117 99.8745 82.5135 99.0414 82.376L99.0843 82.2709C98.9587 82.2423 99.0167 82.2472 98.8857 82.2516C98.6446 82.26 98.5097 82.2803 98.2985 82.1374C97.8916 82.2776 97.4996 82.3622 97.0771 82.4375Z" fill="#FEFEFE"/>
<path d="M98.2988 82.1374C99.5323 81.5017 100.576 81.8642 101.849 82.1165C102.109 82.1681 102.437 82.154 102.677 82.2227C102.746 82.2426 102.769 82.266 102.821 82.3054L102.789 82.4174C102.026 82.689 100.04 82.2511 99.0846 82.2709C98.959 82.2423 99.0171 82.2472 98.8861 82.2516C98.645 82.26 98.51 82.2802 98.2988 82.1374Z" fill="black"/>
<path d="M106.786 37.6494L106.93 37.6999C107.414 38.2643 107.743 39.4607 107.855 40.199C108.226 42.6572 106.107 44.2213 104.805 45.9976C104.788 45.8639 104.778 45.9111 104.821 45.789C104.918 45.51 105.066 45.2209 105.118 44.9299C105.175 44.6102 105.142 44.2384 105.167 43.9087C105.205 43.4091 105.307 42.9152 105.401 42.4237C105.55 41.8684 105.96 41.2193 105.942 40.6575L105.824 40.6004C105.723 40.6429 105.704 40.6439 105.608 40.7192C104.936 41.2449 104.733 43.8266 104.639 44.6939C104.516 42.7845 103.975 41.0978 104.837 39.2506C105.259 38.3453 105.894 37.9843 106.786 37.6494Z" fill="#FEFEFE"/>
<path d="M114.375 64.1345C114.588 64.3309 114.621 64.8112 114.663 65.0891C114.914 66.7498 115.246 68.5207 114.145 69.9575C113.686 70.5563 112.728 71.3584 111.946 71.4503C111.752 71.3829 111.751 71.3696 111.636 71.1977C111.943 69.8994 113.078 68.5359 113.84 67.4449L113.894 67.2576L113.815 67.1921C112.483 67.9689 111.641 69.917 111.085 71.281C111.133 70.2271 110.961 69.1325 111.169 68.095C111.538 66.2525 112.874 65.1197 114.375 64.1345Z" fill="#FEFEFE"/>
<path d="M98.041 44.644C98.0873 44.6778 98.1329 44.7125 98.1779 44.7481C99.2277 45.5858 100.037 47.1114 100.154 48.4466C100.289 50.0011 99.4084 51.3139 98.465 52.4529L98.4547 51.0525C98.449 51.0736 98.443 51.0946 98.4378 51.1158C98.3524 51.4623 98.4604 52.0021 98.307 52.2845L98.1657 52.0122C98.0809 51.9094 96.9282 48.9334 96.8494 48.6331C96.7949 48.4288 96.755 48.2218 96.7297 48.0119C96.7045 47.8019 96.6942 47.5912 96.6988 47.3798C96.7246 46.2243 97.2283 45.4188 98.041 44.644Z" fill="#FEFEFE"/>
<path d="M98.1654 52.0122C98.1189 51.1362 97.8026 48.3433 98.0489 47.6741L98.1382 47.7326C98.5745 48.6877 98.4532 50.015 98.4544 51.0525C98.4487 51.0735 98.4427 51.0946 98.4375 51.1158C98.3521 51.4622 98.4601 52.002 98.3067 52.2844L98.1654 52.0122Z" fill="black"/>
<path d="M101.484 41.3445C102.529 42.2771 103.625 43.2481 103.722 44.7545C103.834 46.4908 102.356 48.0724 101.398 49.397C101.492 48.9578 101.613 48.5104 101.666 48.0648L101.397 48.0286L101.36 48.4086L101.295 48.4233C101.076 47.8941 100.968 47.3266 100.783 46.7849C100.353 45.5261 99.7791 44.6226 100.341 43.2584C100.618 42.5846 101.036 41.9169 101.484 41.3445Z" fill="#FEFEFE"/>
<path d="M101.397 48.0285C101.267 47.01 100.609 45.1681 101.182 44.2306L101.329 44.1436L101.458 44.2393C101.501 44.7583 101.33 45.2633 101.374 45.7738C101.436 46.488 101.672 47.117 101.665 47.8518C101.665 47.8961 101.666 47.9406 101.666 47.9849L101.666 48.0648L101.397 48.0285Z" fill="black"/>
<path d="M102.141 78.9815L101.805 79.0692L101.767 78.9997C102.729 77.9904 104.46 77.3617 105.838 77.3275C107.516 77.286 109.037 78.4433 110.175 79.5771C110.264 79.6662 110.309 79.7526 110.35 79.8703C110.269 80.0755 110.206 80.1476 109.998 80.2373C108.722 80.7853 106.781 80.8371 105.538 80.262C104.674 79.8617 103.896 79.4349 102.95 79.2427C102.796 79.2098 102.641 79.1781 102.486 79.1476L102.141 78.9815Z" fill="#FEFEFE"/>
<path d="M102.142 78.9814C104.046 78.211 105.83 79.011 107.596 79.7667C107.616 79.7754 107.636 79.7846 107.655 79.7935C105.846 79.6623 104.343 78.8539 102.486 79.1475L102.142 78.9814Z" fill="black"/>
<path d="M82.0452 63.9482C82.5264 64.0376 83.1868 64.6589 83.5305 65.0047C84.5063 65.9862 85.3122 67.2561 85.2859 68.6882C85.2674 69.7083 84.7931 70.38 84.0871 71.0547C83.4964 69.62 82.9479 68.143 81.9339 66.9443C81.8855 67.0922 81.8988 67.1844 81.9542 67.3297C82.538 68.86 83.3866 70.1835 83.8174 71.7953C83.6663 71.6456 83.5211 71.4905 83.3818 71.3298C83.2426 71.1693 83.1096 71.0037 82.9828 70.8329C82.8561 70.6623 82.7359 70.4871 82.6223 70.3074C82.5088 70.1275 82.4023 69.9438 82.3027 69.756C82.203 69.5682 82.1107 69.3769 82.0255 69.1821C81.9403 68.9873 81.8626 68.7895 81.7925 68.5888C81.7223 68.3881 81.6597 68.1851 81.6049 67.9797C81.55 67.7743 81.5031 67.5671 81.4639 67.3581C81.229 66.168 81.3552 64.9726 82.0452 63.9482Z" fill="#FEFEFE"/>
<path d="M123.03 68.2832C123.386 68.2438 123.729 68.2152 124.088 68.2525C126.09 68.4612 127.808 70.8651 128.974 72.3299C128.185 72.5885 127.395 72.7559 126.561 72.7445C125.065 72.7241 123.963 72.2212 122.924 71.1384C122.415 70.4556 121.955 69.9671 121.271 69.4534C122.932 70.0978 124.056 71.5365 125.915 71.7527C125.341 71.2834 124.666 70.9412 124.045 70.5382C123.213 69.9986 122.42 69.3783 121.537 68.9255C122.029 68.6984 122.526 68.4843 123.03 68.2832Z" fill="#FEFEFE"/>
<path d="M123.725 60.3572C123.836 60.3695 123.768 60.3535 123.918 60.442C124.247 61.3007 124.007 63.7201 123.675 64.5935C123.517 65.011 123.242 65.3871 122.973 65.7402C122.052 66.9528 121.134 67.4058 119.798 68.022C120.367 66.902 120.747 65.5692 121.537 64.5913C121.782 64.2884 122.27 63.7241 122.24 63.3372L122.241 63.5818C122.283 63.4766 122.31 63.4581 122.285 63.3437C122.222 63.3486 122.19 63.3463 122.127 63.3792C121.297 63.8138 120.382 65.8546 120.037 66.6965C120.223 65.3479 119.97 63.9479 120.604 62.6964C121.308 61.3047 122.295 60.8131 123.725 60.3572Z" fill="#FEFEFE"/>
<path d="M96.5884 74.5544C96.6099 74.5616 96.6327 74.5657 96.6529 74.576C97.0525 74.7808 97.7157 76.3021 97.8795 76.7487C98.2489 77.7573 98.4799 78.8756 97.9863 79.8777C97.5859 80.6908 96.4027 81.8215 95.5107 82.1004C95.3452 82.1521 95.3433 82.1474 95.1848 82.0617C94.9503 81.2706 96.0736 79.4203 96.3383 78.5668C96.4976 77.9439 96.5506 77.3012 96.6202 76.6636C95.9527 78.3515 95.1342 79.9751 94.5795 81.7057C94.461 81.0159 94.3264 80.3168 94.3215 79.6149C94.3065 77.5041 95.1462 76.012 96.5884 74.5544Z" fill="#FEFEFE"/>
<path d="M114.294 72.2474C114.525 72.2127 114.769 72.2069 115.003 72.2045C116.952 72.1836 118.306 74.0547 119.573 75.2851C119.238 75.4687 118.906 75.6165 118.54 75.726C117.227 76.1185 115.116 76.3129 113.913 75.548C113.191 75.0892 112.664 74.4657 111.885 74.0422C111.701 73.9615 111.516 73.9088 111.381 73.7566C112.348 73.7872 113.336 74.3997 114.25 74.6913C114.791 74.8639 115.55 75.0781 116.083 74.8021L115.991 74.7037C113.683 74.186 112.766 73.1952 110.205 73.3211C111.552 72.9 112.896 72.466 114.294 72.2474Z" fill="#FEFEFE"/>
<path d="M95.0539 55.4653C95.0058 55.5971 94.9897 55.7633 94.961 55.9022C94.9065 53.9277 93.2948 52.6048 93.3526 50.6326C93.3826 49.6061 93.7536 48.607 94.5171 47.9033C95.5957 49.5282 96.8952 50.4184 97.183 52.5423C97.3399 53.6999 96.7065 54.6856 95.9919 55.5474C95.8524 55.7157 95.7774 55.797 95.5592 55.8211C95.4179 55.5978 95.4424 55.4297 95.4284 55.1688L95.3504 55.5224L95.2888 55.3376L95.2333 55.379L95.2189 55.5689L95.0539 55.4653Z" fill="#FEFEFE"/>
<path d="M95.0539 55.4654C95.1129 54.7032 95.229 53.8691 95.107 53.1077C95.0192 52.56 94.6982 52.0041 94.7209 51.4491L94.8076 51.4187C94.889 51.4959 94.9006 51.5011 94.9768 51.6073C95.6867 52.5954 95.6323 54.0265 95.4283 55.1689L95.3504 55.5225L95.2888 55.3377L95.2333 55.3792L95.2189 55.569L95.0539 55.4654Z" fill="black"/>
<path d="M106.737 73.3326L106.665 73.3674C106.244 71.7752 106.418 69.8937 107.25 68.4643C107.782 67.5498 108.516 66.792 109.509 66.3901C109.988 67.8282 110.693 70.2853 109.976 71.7368C109.348 73.0084 108.051 73.0272 107.13 73.9068L107.315 73.9261L107.226 73.984L107.082 73.9372L107.014 73.7675C107.055 73.58 107.087 73.4083 107.099 73.216L106.992 73.2201L106.817 73.524C106.757 73.4348 106.792 73.4949 106.737 73.3326Z" fill="#FEFEFE"/>
<path d="M109.152 69.1497C108.487 70.7651 107.309 72.094 107.131 73.9067L107.315 73.926L107.227 73.9839L107.082 73.937L107.014 73.7673C107.055 73.5798 107.087 73.4082 107.1 73.2158L106.993 73.2199L106.817 73.5238C106.757 73.4346 106.792 73.4947 106.737 73.3324C107.044 71.7459 107.899 70.1859 109.152 69.1497Z" fill="black"/>
<path d="M118.9 62.0911C119.029 62.1531 119.106 62.2088 119.154 62.3518C119.595 63.6601 119.429 65.9208 118.934 67.2012C118.608 68.043 118.116 68.6143 117.283 68.9835C116.878 69.1626 116.492 69.3632 116.054 69.4485C115.88 69.2868 115.646 69.218 115.547 68.9816C115.407 68.6432 115.785 68.0105 115.806 67.6071C115.862 66.5098 115.396 65.7332 115.928 64.6529C116.499 63.4943 117.688 62.5092 118.9 62.0911Z" fill="black"/>
<path d="M118.833 62.2324L118.996 62.3465C119.469 63.7926 119.276 65.9046 118.716 67.3136C118.184 68.6531 117.197 68.844 115.976 69.3747C116.287 68.2973 116.657 67.3536 117.225 66.384C117.45 65.9709 117.616 65.5572 117.78 65.1177C116.908 66.0125 116.436 66.9417 115.911 68.0527C115.901 67.0825 115.652 65.9817 115.949 65.0453C116.371 63.7135 117.64 62.8269 118.833 62.2324Z" fill="#FEFEFE"/>
<path d="M89.5636 63.0541L89.5426 63.1198C88.6807 61.8788 87.1833 60.387 87.0935 58.776C87.0715 58.3816 87.0612 57.984 87.0987 57.5904C87.1522 57.0291 87.2439 56.3643 87.701 55.9894C87.9724 55.9157 88.1677 55.9484 88.4192 56.0671C89.7617 56.7005 91.0091 58.6034 91.4763 59.9718C91.2612 61.168 90.9297 62.1204 90.0072 62.9715L89.5636 63.0541Z" fill="#FEFEFE"/>
<path d="M89.5641 63.0541C89.6596 61.9402 87.9766 59.4528 88.0538 58.72L88.2026 58.7393C88.8556 59.3387 89.8461 62.034 90.0077 62.9715L89.5641 63.0541Z" fill="black"/>
<path d="M90.8328 51.7561C90.9054 51.7664 90.9426 51.767 91.0153 51.8039C92.3091 52.4604 93.5135 54.2924 93.8658 55.6716C94.2197 57.0572 93.5716 58.3157 92.866 59.4645L92.6406 59.4623C92.5255 59.2872 92.4101 59.2603 92.2281 59.1678C91.7341 58.4111 90.0777 56.4388 89.9388 55.7465C89.6442 54.2772 90.0348 52.9866 90.8328 51.7561Z" fill="black"/>
<path d="M90.9028 51.925C92.1895 52.7332 93.4026 54.25 93.7239 55.7531C94.0194 57.1366 93.4202 58.2494 92.7097 59.375C92.5694 57.7105 92.1254 56.5318 91.3553 55.0545C91.2643 54.9067 91.1993 54.8384 91.0525 54.7455L90.9802 54.8336C91.0364 55.4247 91.5488 56.2321 91.779 56.7994C92.1128 57.6218 92.3211 58.4142 92.4233 59.2954C91.8158 58.1962 90.3154 56.5137 90.0664 55.5558C89.717 54.2117 90.2612 53.0611 90.9028 51.925Z" fill="#FEFEFE"/>
<path d="M128.185 66.6331C128.329 66.5996 128.26 66.6097 128.432 66.6C130.439 66.4879 131.94 67.8962 133.33 69.1719C133.625 69.4429 134.003 69.7673 134.02 70.1862C133.479 70.5217 132.36 70.5855 131.721 70.6945C131.145 70.9321 129.628 70.7764 129.018 70.6301C128.757 70.5675 128.565 70.5096 128.354 70.3368C127.941 69.9987 127.643 69.516 127.259 69.1443C126.956 68.8517 126.146 68.3985 125.994 68.0294C125.917 67.8416 125.979 67.5899 126.094 67.4328C126.496 66.8826 127.546 66.7135 128.185 66.6331Z" fill="black"/>
<path d="M128.447 66.7109C128.631 66.6885 128.829 66.6847 129.013 66.6956C130.856 66.8043 132.767 68.8414 133.96 70.096C132.785 70.3958 131.568 70.6575 130.35 70.6581C129.476 70.6587 128.789 70.5396 128.154 69.9084C127.75 69.4596 127.35 69.0411 126.887 68.6533C128.182 68.9187 129.436 69.3102 130.698 69.6986C128.977 68.3002 127.533 68.7837 126.113 67.958C126.098 67.775 126.106 67.743 126.215 67.5841C126.669 66.9199 127.717 66.8297 128.447 66.7109Z" fill="#FEFEFE"/>
<path d="M106.127 45.8103C107.405 44.6934 108.83 43.8663 110.578 43.9937C112.25 44.1153 113.615 44.8763 114.807 46.0163L114.901 45.9422L114.975 46.0438L114.909 46.2365C114.124 46.865 113.31 46.9038 112.431 47.2501C112.135 47.3664 111.899 47.4287 111.581 47.4583C109.725 47.6303 107.641 47.4124 106.157 46.1625C105.917 45.9596 105.724 46.3295 105.442 46.3267C105.525 46.1405 105.881 46.0289 106.049 45.8815C106.076 45.8582 106.101 45.834 106.127 45.8103Z" fill="#FEFEFE"/>
<path d="M106.127 45.8103C107.956 45.7097 110.339 46.202 112.089 46.7312C109.809 46.7998 108.174 46.1335 106.096 46.0041C108.527 47.4529 110.078 47.7399 112.865 47.0311C113.428 46.888 114.398 46.5926 114.754 46.1134C114.781 46.0767 114.791 46.0522 114.807 46.0163L114.901 45.9422L114.975 46.0438L114.909 46.2365C114.124 46.865 113.31 46.9038 112.431 47.2501C112.135 47.3664 111.899 47.4287 111.581 47.4583C109.725 47.6303 107.641 47.4124 106.157 46.1624C105.917 45.9596 105.724 46.3295 105.442 46.3267C105.525 46.1405 105.881 46.0289 106.049 45.8815C106.076 45.8582 106.101 45.834 106.127 45.8103Z" fill="black"/>
<path d="M98.895 53.6097C99.4211 52.5293 101.038 51.4681 102.153 51.0862C103.265 50.7054 104.429 50.7628 105.485 51.2871C106.305 51.6943 107.029 52.281 107.653 52.9464C105.092 54.7326 103.201 54.8008 100.144 54.2552C99.7946 54.1928 99.451 54.1272 99.111 54.0251L98.7397 53.9554L98.7503 53.7782C98.7258 53.7943 98.5878 53.8753 98.5796 53.9002C98.6832 53.8003 98.7857 53.7034 98.895 53.6097Z" fill="#FEFEFE"/>
<path d="M98.895 53.6098C100.806 52.8476 102.84 53.1387 104.833 53.2589C103.103 53.491 100.631 53.2366 99.111 54.0252L98.7397 53.9555L98.7503 53.7783C98.7258 53.7944 98.5878 53.8754 98.5796 53.9002C98.6832 53.8004 98.7857 53.7034 98.895 53.6098Z" fill="url(#paint0_linear_1003_1267)"/>
<path d="M129.765 59.4974C129.947 59.495 129.924 59.4627 130.073 59.5937C130.253 60.3444 130.086 62.0399 129.736 62.7274C129.482 63.2251 129.346 63.7752 129.084 64.2653C128.704 64.9752 127.94 65.5494 127.172 65.7727C126.679 65.9162 125.642 66.3439 125.19 66.0956L125.124 66.225C124.948 66.293 124.811 66.3096 124.624 66.3182C124.523 66.2544 124.456 66.2541 124.437 66.1248C124.327 65.3952 125.351 62.5211 125.772 61.8682C126.588 60.6035 128.332 59.7836 129.765 59.4974Z" fill="black"/>
<path d="M129.682 59.6387C129.842 59.6442 129.852 59.6494 129.98 59.7456C130.28 60.9779 129.494 63.2174 128.838 64.2868C128.034 65.5996 126.666 65.7874 125.277 66.1122C126.018 65.1051 126.922 64.3468 127.704 63.4007C127.895 63.1693 128.271 62.764 128.244 62.462L128.096 62.495C127.423 63.0236 126.747 63.5852 126.182 64.2283C125.745 64.7246 125.256 65.9973 124.668 66.1794L124.579 66.087C124.523 65.2913 125.257 63.1633 125.632 62.4101C126.436 60.7989 128.078 60.1685 129.682 59.6387Z" fill="#FEFEFE"/>
<path d="M117.395 35.1252L117.452 35.1801C117.451 35.2048 117.452 35.2297 117.448 35.254C117.385 35.6679 117.024 36.223 116.821 36.6062C115.67 38.7761 114.228 40.962 112.166 42.3684C111.842 42.2956 111.502 42.2146 111.17 42.1901C110.674 42.1533 109.487 42.3353 109.138 42.0101C109.164 41.8158 109.238 41.7508 109.397 41.644C109.851 41.339 110.361 41.1006 110.828 40.8114C111.968 40.1044 113.101 39.21 114.01 38.2263C114.297 37.9101 114.541 37.5624 114.791 37.2175C113.982 37.6826 113.241 38.3141 112.484 38.8623C111.422 39.6231 110.334 40.3463 109.222 41.0321C109.142 40.5764 109.042 40.1224 108.95 39.669C111.856 36.6525 113.807 36.6764 117.395 35.1252Z" fill="#FEFEFE"/>
<path d="M132.297 62.0488C134.713 61.9613 136.835 62.5014 139.193 62.6846C137.097 64.563 134.998 66.2395 132.331 67.2607C131.434 66.5658 130.652 66.1188 129.573 65.7712C130.089 65.7323 130.641 65.6786 131.136 65.5203C131.533 65.3934 135.109 63.7291 135.337 63.4823L135.297 63.3864C133.589 63.1293 130.741 64.875 129.031 65.397L128.881 65.4421C129.299 65.039 129.705 64.6377 129.983 64.1219C130.251 63.625 130.393 62.9017 130.776 62.4926C131.222 62.0165 131.693 62.0714 132.297 62.0488Z" fill="#FEFEFE"/>
<path d="M72.7529 109.776C73.066 108.379 74.5337 105.751 75.3182 104.481C76.3641 102.788 77.5365 101.173 78.6778 99.5445C82.1772 94.551 86.0189 89.3716 90.9153 85.6517C91.696 85.0585 92.5606 84.3436 93.5289 84.1135C93.0502 84.6641 92.7889 84.618 92.7245 85.4609C86.5011 90.5287 81.4484 96.6533 76.9597 103.276C75.9678 104.766 74.9936 106.267 74.0371 107.78C73.6422 108.398 73.2737 109.055 72.8466 109.648L72.7529 109.776Z" fill="#FEFEFE"/>
<path d="M83.8622 72.3606C84.0359 72.3767 84.1804 72.4128 84.3463 72.466C84.4685 73.1814 80.6066 82.2013 80.0146 83.7838C79.0539 86.4075 78.1355 89.046 77.2596 91.6992C76.5743 93.711 75.8488 95.6971 75.2256 97.7307C74.1897 101.111 73.325 104.56 72.1937 107.91C71.4177 110.208 70.4406 112.487 69.5319 114.737C68.6819 116.841 67.8753 118.978 66.9617 121.055C65.5766 124.204 64.0679 127.337 62.3808 130.334C60.9755 132.831 59.433 135.23 57.8981 137.646L57.7397 137.868C57.8209 137.177 60.2949 132.847 60.8089 131.827C63.1743 127.137 65.2784 122.215 67.2527 117.348C69.4401 111.855 71.4374 106.295 73.2448 100.665C74.5972 96.3595 75.7532 91.9858 77.2751 87.7327C78.2275 85.0714 79.3826 82.4774 80.4838 79.8749C81.5479 77.3603 82.5335 74.749 83.8622 72.3606Z" fill="#FEFEFE"/>
<path d="M83.2498 96.2498C83.8035 96.8666 84.2735 97.6196 84.7497 98.2996C85.687 99.6393 86.6139 100.986 87.5303 102.34C89.5849 105.336 91.7268 108.273 93.7899 111.264C101.17 122.178 108.761 132.943 116.564 143.558C115.078 144.493 113.468 145.267 111.882 146.015C106.499 148.553 100.771 150.589 94.9253 151.75C94.5007 151.836 94.0754 151.918 93.6493 151.996C93.2232 152.074 92.7964 152.148 92.3689 152.218C91.9415 152.288 91.5134 152.355 91.0848 152.417C90.6561 152.479 90.2268 152.538 89.797 152.592C89.3672 152.647 88.937 152.697 88.5064 152.743C88.0757 152.79 87.6446 152.832 87.2131 152.871C86.7816 152.909 86.3498 152.944 85.9177 152.975C85.4855 153.005 85.0531 153.032 84.6205 153.054C84.1879 153.077 83.7552 153.095 83.3222 153.11C82.8893 153.124 82.4562 153.135 82.0231 153.141C81.5899 153.148 81.1567 153.151 80.7234 153.149C80.2903 153.148 79.8572 153.142 79.4241 153.133C78.991 153.123 78.558 153.11 78.1251 153.092C77.6923 153.075 77.2596 153.054 76.8272 153.028C76.3948 153.003 75.9626 152.973 75.5306 152.94C75.0987 152.906 74.6672 152.869 74.236 152.828C73.8047 152.786 73.3739 152.741 72.9435 152.692C72.5132 152.642 72.0833 152.589 71.654 152.532C71.2245 152.474 70.7957 152.413 70.3675 152.348C69.9392 152.283 69.5115 152.214 69.0846 152.141C68.6576 152.068 68.2313 151.991 67.8057 151.91C67.3801 151.829 66.9553 151.744 66.5314 151.655C66.1074 151.566 65.6842 151.473 65.2619 151.377C64.8396 151.28 64.4182 151.18 63.9977 151.075C63.5773 150.971 63.1579 150.863 62.7395 150.751C62.321 150.638 61.9037 150.522 61.4874 150.403C61.0711 150.283 60.656 150.159 60.242 150.032C59.8279 149.904 59.4151 149.773 59.0036 149.638C58.5919 149.503 58.1816 149.364 57.7726 149.221C57.3636 149.078 56.956 148.932 56.5497 148.782C56.1433 148.631 55.7384 148.477 55.335 148.32C54.9315 148.162 54.5295 148.001 54.129 147.835C50.1543 146.216 46.1944 144.232 42.6187 141.845C43.5812 140.43 44.7496 139.088 45.8368 137.766C50.6805 131.798 55.4924 125.805 60.2727 119.787C63.5238 115.636 66.616 111.366 69.8438 107.197C69.3482 108.85 68.6394 110.47 68.0395 112.09C65.6023 118.575 62.854 124.925 59.7946 131.14C58.6905 133.359 57.6484 135.61 56.5372 137.824C55.5905 139.711 54.5328 141.547 53.7978 143.531C58.3977 139.49 62.7454 132.606 65.5228 127.163C66.5254 125.198 67.4244 123.156 68.3214 121.14C69.3395 118.853 70.1528 116.475 71.2737 114.233C73.4315 109.918 76.2406 105.82 79.0229 101.889C80.3729 99.9826 81.7155 98.0136 83.2498 96.2498Z" fill="#FEFEFE"/>
<path d="M79.367 129.435C79.6271 129.454 79.8894 129.481 80.1115 129.63C80.5247 129.905 80.7459 130.402 80.8454 130.873C81.2314 132.7 80.7193 134.753 79.6885 136.285C78.8764 137.492 77.8054 138.402 76.3562 138.686C76.1099 138.629 75.865 138.575 75.6537 138.429C75.1511 138.082 74.8774 137.528 74.7843 136.937C74.5089 135.188 75.3504 133.331 76.3518 131.951C77.0758 130.953 78.0737 129.641 79.367 129.435Z" fill="black"/>
<path d="M79.3526 130.129L79.3841 130.221C77.5698 131.606 76.3075 134.241 75.6382 136.381L75.5581 136.253C75.5659 135.807 75.6146 135.37 75.7335 134.94C76.2374 133.119 77.7089 131.067 79.3526 130.129Z" fill="#FEFEFE"/>
<path d="M80.0017 130.805C80.0129 130.828 80.0261 130.849 80.0353 130.872C80.3846 131.757 79.8873 133.39 79.5663 134.236C79.011 135.7 78.0451 137.127 76.5848 137.789L76.5244 137.73C76.8914 137.248 77.3698 136.833 77.7465 136.332C78.9242 134.768 79.6435 132.71 80.0017 130.805Z" fill="#FEFEFE"/>
<path d="M79.4358 130.5C79.4398 130.517 79.4456 130.533 79.4477 130.55C79.4899 130.881 79.3604 131.266 79.2791 131.584C78.6947 133.871 77.4357 135.801 76.0326 137.656C76.0297 137.639 76.0256 137.622 76.0239 137.605C75.8737 136.142 78.4502 131.671 79.4358 130.5Z" fill="#FEFEFE"/>
<path d="M73.8785 120.978C75.2885 120.949 76.7236 121.16 78.0332 121.697C79.1952 122.174 80.4178 123.032 80.8976 124.237C81.0724 124.677 81.115 125.123 80.8997 125.557C80.5475 126.265 79.788 126.589 79.0793 126.816C77.2591 127.058 75.5486 126.553 74.0462 125.51C73.1563 124.892 71.969 123.723 71.8092 122.607C71.7649 122.296 71.8255 122 72.019 121.75C72.4512 121.191 73.2213 121.058 73.8785 120.978Z" fill="black"/>
<path d="M72.8936 122.983C73.1952 123.146 73.4903 123.428 73.7727 123.631C74.5748 124.206 75.3909 124.726 76.3033 125.112C77.2199 125.5 78.6142 125.594 79.3552 125.975C78.5841 126.103 77.8425 126.068 77.0864 125.871C75.5202 125.463 73.7225 124.415 72.8936 122.983Z" fill="#FEFEFE"/>
<path d="M73.8159 121.771C74.7859 121.792 75.7147 121.895 76.6503 122.163C78.1508 122.595 79.3703 123.31 80.1466 124.705C79.1494 124.392 78.2655 123.497 77.3128 123.039C76.2117 122.51 75.014 122.249 73.8841 121.798L73.8159 121.771Z" fill="#FEFEFE"/>
<path d="M72.7144 122.135C72.8794 122.126 73.0464 122.121 73.2095 122.153C74.2284 122.355 79.6266 124.768 80.0297 125.406C79.9148 125.432 79.9131 125.437 79.7764 125.445C77.9846 125.55 74.0765 123.285 72.7144 122.135Z" fill="#FEFEFE"/>
<path d="M79.7885 139.085C80.592 138.972 81.7495 138.981 82.4594 139.414C82.8135 139.629 83.0459 139.961 83.1232 140.369C83.2376 140.974 82.981 141.577 82.6306 142.057C81.4673 143.651 79.2567 144.605 77.3616 144.894C76.3773 144.993 75.1916 145.05 74.3093 144.521C74.0142 144.344 73.7848 144.083 73.7184 143.739C73.5988 143.117 73.9878 142.422 74.3376 141.932C75.6019 140.161 77.728 139.426 79.7885 139.085Z" fill="black"/>
<path d="M79.9039 139.874C80.4826 139.784 81.073 139.862 81.6511 139.919C79.5835 140.152 77.8768 140.856 76.0607 141.847C75.5979 142.086 75.1735 142.385 74.7427 142.676C76.1369 140.934 77.7538 140.295 79.9039 139.874Z" fill="#FEFEFE"/>
<path d="M82.0878 141.037L82.1476 141.166C82.0138 141.392 81.8689 141.557 81.6756 141.735C81.5649 141.835 81.4519 141.933 81.3364 142.028C81.2209 142.124 81.1032 142.216 80.9833 142.305C80.8632 142.395 80.7411 142.481 80.6169 142.564C80.4926 142.648 80.3664 142.728 80.2383 142.805C80.1101 142.882 79.9802 142.956 79.8485 143.027C79.7166 143.098 79.5832 143.166 79.4481 143.23C79.313 143.294 79.1764 143.355 79.0383 143.413C78.9003 143.47 78.7609 143.524 78.6202 143.575C78.4794 143.626 78.3375 143.673 78.1945 143.717C78.0515 143.761 77.9074 143.801 77.7624 143.838C77.6173 143.875 77.4714 143.908 77.3248 143.937C77.1782 143.967 77.0309 143.993 76.883 144.015C76.735 144.038 76.5866 144.056 76.4378 144.071C76.289 144.086 76.1398 144.098 75.9904 144.106C75.841 144.113 75.6915 144.118 75.5419 144.118C75.3923 144.118 75.2428 144.115 75.0934 144.108L75.0293 144.038L75.1291 143.934C77.6335 143.516 79.9716 142.392 82.0878 141.037Z" fill="#FEFEFE"/>
<path d="M81.3518 140.501C81.5205 140.483 81.6534 140.484 81.8206 140.512L81.7935 140.616C80.6705 141.507 76.7679 143.009 75.3741 143.281L75.0081 143.421L74.9995 143.347C76.208 142.202 79.6773 140.823 81.3518 140.501Z" fill="#FEFEFE"/>
<path d="M92.4933 124.998C94.0045 124.848 95.4943 125.326 96.798 126.066C98.2092 126.866 99.7787 128.217 100.188 129.86C100.275 130.208 100.269 130.57 100.065 130.878C99.7428 131.364 99.2291 131.458 98.6999 131.563C97.2862 131.747 95.9339 131.429 94.6732 130.784C93.2402 130.05 91.3441 128.571 90.8779 126.954C90.7629 126.555 90.7612 126.142 90.9918 125.782C91.3305 125.254 91.9192 125.104 92.4933 124.998Z" fill="black"/>
<path d="M92.4557 125.646C93.9584 125.529 95.7912 126.445 96.9912 127.276C97.8115 127.845 99.0557 128.763 99.244 129.803C97.2669 127.757 95.197 126.423 92.4365 125.724L92.4557 125.646Z" fill="#FEFEFE"/>
<path d="M91.873 126.963C92.8629 127.383 94.5513 128.751 95.6941 129.405C96.5313 129.883 98.0952 130.362 98.7315 130.809C96.6098 130.875 94.367 129.583 92.8264 128.214C92.5117 127.935 91.9022 127.391 91.873 126.963Z" fill="#FEFEFE"/>
<path d="M91.6582 126.169C91.7403 126.163 91.7582 126.16 91.8509 126.164C92.3877 126.189 93.0085 126.447 93.5047 126.644C95.6493 127.494 97.4975 128.695 99.0814 130.379C97.8131 130.24 94.1189 127.659 92.9055 126.903C92.4942 126.647 92.0529 126.451 91.6582 126.169Z" fill="#FEFEFE"/>
<path d="M70.5846 129.495C70.9398 129.477 71.2591 129.439 71.572 129.638C71.9909 129.904 72.2116 130.392 72.3041 130.863C72.6759 132.756 71.988 135.426 70.9162 137.007C70.1347 138.16 69.1406 138.977 67.7549 139.252C67.5297 139.235 67.2859 139.228 67.073 139.147C66.6299 138.977 66.2494 138.588 66.0727 138.151C65.6052 136.996 66.0066 135.378 66.4525 134.271C67.213 132.382 68.6699 130.322 70.5846 129.495Z" fill="black"/>
<path d="M71.3059 130.67C71.4839 131.086 71.4491 131.635 71.4176 132.082C71.2476 134.491 70.2552 136.681 68.433 138.264L68.3774 138.14C68.6725 137.9 68.8769 137.459 69.0697 137.131C70.2944 135.051 70.8191 133.013 71.3059 130.67Z" fill="#FEFEFE"/>
<path d="M70.1063 130.516C70.1569 130.885 69.3355 131.964 69.1256 132.343C68.5728 133.34 68.1367 134.455 67.7671 135.535C67.513 136.277 67.3559 137.347 66.9324 137.977C66.7687 137.407 66.7519 136.894 66.8271 136.311C67.092 134.257 68.4725 131.789 70.1063 130.516Z" fill="#FEFEFE"/>
<path d="M70.9245 130.264C70.9859 130.327 70.9476 130.279 70.9919 130.436C70.5227 132.309 69.0107 137.311 67.4866 138.275L67.4448 138.172C67.9995 136.357 69.9088 131.726 70.9245 130.264Z" fill="#FEFEFE"/>
<path d="M83.9044 124.886C84.1993 124.976 84.5103 125.052 84.7955 125.168C86.198 125.736 87.1684 127.294 87.7443 128.617C88.3399 129.985 88.7891 132.111 88.1879 133.532C87.8832 134.253 87.4363 134.63 86.7275 134.92C86.3934 134.898 86.0811 134.861 85.7617 134.754C84.4986 134.332 83.6225 133.116 83.055 131.97C82.2906 130.426 81.8482 128.148 82.4519 126.485C82.7319 125.713 83.1725 125.239 83.9044 124.886Z" fill="black"/>
<path d="M83.3317 126.232C83.4239 126.341 83.6301 128.624 83.725 129.04C84.1281 130.804 84.8561 132.211 85.7145 133.787L85.6603 133.893C84.9504 133.369 84.4106 132.663 84.0105 131.881C83.1274 130.156 82.7179 128.104 83.3317 126.232Z" fill="#FEFEFE"/>
<path d="M84.6802 125.979C85.4641 126.254 86.1712 127.564 86.5139 128.277C87.322 129.96 87.7389 131.938 87.1129 133.741L87.0728 133.827C86.8376 133.458 86.8531 131.796 86.7349 131.23C86.3453 129.362 85.7172 127.587 84.6802 125.979Z" fill="#FEFEFE"/>
<path d="M83.9381 125.833C83.9674 125.863 83.9976 125.892 84.026 125.923C85.2069 127.203 86.6408 132.414 86.5388 134.177C86.4994 134.145 86.4339 134.097 86.3975 134.056C85.6388 133.207 84.294 129.022 84.065 127.798C83.9401 127.13 83.9194 126.512 83.9381 125.833Z" fill="#FEFEFE"/>
<path d="M80.8398 115.992C82.7269 115.734 84.8451 116.413 86.4334 117.401C87.5013 118.064 88.9683 119.252 89.2305 120.553C89.2958 120.878 89.2591 121.203 89.0669 121.479C88.6608 122.062 87.8389 122.245 87.1841 122.378C87.041 122.389 86.8977 122.397 86.7543 122.402C86.6108 122.408 86.4673 122.41 86.3238 122.409C86.1802 122.408 86.0368 122.404 85.8933 122.398C85.7499 122.391 85.6067 122.381 85.4638 122.368C85.3208 122.355 85.1781 122.339 85.0359 122.32C84.8936 122.301 84.7517 122.279 84.6103 122.255C84.469 122.23 84.3282 122.202 84.1879 122.171C84.0477 122.14 83.9082 122.106 83.7694 122.07C83.6306 122.033 83.4927 121.993 83.3556 121.951C83.2185 121.908 83.0823 121.863 82.9471 121.815C82.8119 121.766 82.6778 121.715 82.5448 121.661C82.4118 121.607 82.28 121.551 82.1493 121.491C82.0186 121.432 81.8893 121.369 81.7612 121.304C81.6332 121.239 81.5066 121.172 81.3815 121.102C81.2563 121.031 81.1327 120.958 81.0105 120.883C80.8884 120.807 80.768 120.729 80.6492 120.649C79.7049 120.021 78.7666 119.16 78.5586 117.989C78.4912 117.61 78.5459 117.253 78.7786 116.94C79.26 116.291 80.0836 116.084 80.8398 115.992Z" fill="black"/>
<path d="M80.1935 116.691C81.0408 116.649 81.8235 116.665 82.6542 116.849C84.5745 117.274 87.1856 118.578 88.2649 120.287L88.2291 120.393L88.1383 120.413C86.7559 118.931 84.2291 117.806 82.2715 117.338C81.5893 117.175 80.6477 117.175 80.0405 116.84L80.1935 116.691Z" fill="#FEFEFE"/>
<path d="M79.478 118.242C80.3001 118.508 81.2353 119.23 82.0523 119.611C84.0637 120.549 85.5888 120.756 87.6805 121.186L87.7365 121.277C86.5794 121.652 84.9033 121.326 83.7625 120.981C82.3345 120.549 80.2186 119.628 79.478 118.242Z" fill="#FEFEFE"/>
<path d="M79.4907 117.407C81.9671 117.313 85.9117 119.215 87.8807 120.694C87.6445 120.677 87.4075 120.657 87.1737 120.619C85.4914 120.342 80.4186 118.678 79.4907 117.407Z" fill="#FEFEFE"/>
<path d="M90.8936 132.181C91.145 132.164 91.416 132.154 91.6586 132.234C92.7142 132.586 93.4739 133.888 93.9036 134.852C94.7324 136.712 94.8808 139.221 94.1273 141.131C93.7881 141.991 93.302 142.585 92.448 142.955C92.0999 143.001 91.7717 143.013 91.4334 142.901C90.6114 142.626 90.0395 141.879 89.6721 141.129C88.6666 139.075 88.444 136.352 89.2069 134.184C89.5301 133.265 90.0055 132.603 90.8936 132.181Z" fill="black"/>
<path d="M92.144 133.592C92.809 134.131 93.1765 135.303 93.3783 136.106C93.8401 137.942 93.8719 140.117 92.8783 141.784C92.815 141.854 92.7296 141.921 92.6588 141.984C92.5744 141.397 92.9749 140.487 93.0322 139.858C93.2195 137.798 92.7139 135.558 92.144 133.592Z" fill="#FEFEFE"/>
<path d="M90.6953 133.267C90.7704 133.844 90.5486 134.661 90.5011 135.259C90.3344 137.354 90.5546 139.264 91.2009 141.262L91.1241 141.381L91.2176 141.574L91.3232 141.619L91.3675 141.884L91.261 141.669L91.3542 141.756L91.273 141.709L91.3532 141.89C91.2275 141.879 91.1428 141.758 91.0496 141.676C90.3075 140.555 89.9031 139.357 89.7766 138.02C89.6339 136.515 89.681 134.487 90.6953 133.267Z" fill="#FEFEFE"/>
<path d="M91.3037 133.125C92.2613 135.265 92.7557 139.707 92.1015 141.945L91.9708 141.968C91.7685 141.686 91.7286 141.074 91.665 140.721C91.2121 138.208 90.9935 135.672 91.3037 133.125Z" fill="#FEFEFE"/>
<path d="M34.7857 27.8997C35.2883 28.2548 38.2809 32.7054 38.9061 33.5866L53.6141 54.4472L76.5901 86.7072C74.8043 90.908 73.8914 95.4565 72.3328 99.739C72.0422 100.537 68.9707 104.225 68.2352 105.179C65.8954 108.215 63.6257 111.309 61.2449 114.313C55.9887 120.946 50.5296 127.42 45.239 134.024C43.6025 136.109 41.7977 138.103 40.245 140.247C39.1762 139.407 38.0374 138.658 36.9767 137.809C33.5948 135.104 30.365 132.073 27.5052 128.819C27.1255 128.383 26.7511 127.943 26.382 127.498C26.0128 127.053 25.6491 126.604 25.2907 126.151C24.9324 125.697 24.5796 125.239 24.2323 124.777C23.885 124.315 23.5433 123.849 23.2073 123.379C22.8712 122.909 22.5408 122.434 22.2162 121.956C21.8915 121.478 21.5727 120.996 21.2597 120.51C20.9465 120.024 20.6394 119.535 20.3381 119.041C20.0369 118.548 19.7417 118.051 19.4524 117.551C19.1631 117.05 18.8798 116.547 18.6026 116.039C18.3255 115.532 18.0544 115.022 17.7895 114.508C17.5247 113.994 17.266 113.477 17.0135 112.957C16.7611 112.437 16.515 111.914 16.2752 111.389C16.0353 110.863 15.8018 110.334 15.5747 109.802C15.3476 109.271 15.1269 108.737 14.9126 108.2C14.6984 107.663 14.4906 107.124 14.2893 106.582C14.0881 106.04 13.8933 105.496 13.7052 104.95C13.517 104.403 13.3354 103.854 13.1605 103.303C12.9855 102.753 12.8172 102.2 12.6556 101.645C12.4939 101.09 12.339 100.533 12.1907 99.9743C12.0425 99.4156 11.901 98.8553 11.7662 98.2932C11.6315 97.7312 11.5035 97.1675 11.3824 96.6023C11.2612 96.0372 11.1468 95.4707 11.0393 94.9028C10.9317 94.3348 10.831 93.7657 10.7372 93.1954C10.6434 92.6251 10.5564 92.0537 10.4763 91.4813C10.3962 90.9088 10.3231 90.3355 10.2568 89.7613C10.1905 89.1872 10.1312 88.6122 10.0787 88.0366C10.0263 87.4609 9.98079 86.8848 9.94222 86.3081C9.90366 85.7314 9.87204 85.1543 9.84737 84.5769C9.8227 83.9994 9.80499 83.4217 9.79422 82.8437C9.78346 82.2659 9.77966 81.688 9.78281 81.11C9.78596 80.5319 9.79607 79.954 9.81314 79.3762C9.83021 78.7985 9.85423 78.221 9.8852 77.6439C10.474 68.387 12.6479 59.5306 16.7888 51.2038C17.3328 50.1101 17.954 49.0539 18.5444 47.9851C19.0645 47.0361 19.6054 46.0991 20.1673 45.1742C20.7292 44.2493 21.3115 43.3375 21.9142 42.4387C22.5168 41.5398 23.1392 40.6548 23.7814 39.7837C24.4236 38.9126 25.085 38.0564 25.7654 37.215C26.4458 36.3734 27.1447 35.5475 27.8621 34.7372C28.5794 33.927 29.3145 33.1331 30.0673 32.3556C30.8201 31.5782 31.59 30.818 32.3768 30.075C33.1636 29.3319 33.9665 28.6068 34.7857 27.8997Z" fill="#FEFEFE"/>
<path d="M34.3025 49.9464C34.9793 49.8604 35.7581 49.8867 36.4376 49.9236C40.3712 50.1371 44.5922 51.7421 47.2445 54.7511C48.5996 56.2884 49.1249 58.1009 48.9814 60.1285C48.4894 67.0736 42.2995 71.8496 37.4553 76.0378L29.6126 82.8208C28.57 83.652 26.1675 86.212 24.9532 86.3732C24.5047 86.4329 24.1441 86.2598 23.8008 85.9812C23.2245 85.5133 22.7711 84.8361 22.3523 84.2323C19.7619 80.4982 18.5816 75.5196 18.2303 71.0389C17.8057 65.6225 18.9127 59.7973 22.5433 55.595C25.5801 52.0799 29.7322 50.2908 34.3025 49.9464Z" fill="black"/>
<path d="M42.7817 55.6317C43.072 55.6002 43.3884 55.5909 43.68 55.6075C44.6455 55.6624 45.6153 55.9759 46.2677 56.722C47.1543 57.7356 47.2371 59.2401 47.1312 60.5214C46.8934 63.3991 45.0724 66.336 43.262 68.52C41.9553 70.0965 40.3445 71.4638 38.8252 72.8315C35.6248 75.7127 32.2899 78.4575 29.0029 81.2398C28.1987 81.931 27.3843 82.6002 26.6284 83.3455C28.0719 76.6765 31.0496 67.6393 34.8716 62.0443C36.758 59.2827 39.3335 56.2844 42.7817 55.6317Z" fill="#FEFEFE"/>
<path d="M34.9287 52.1615C34.961 52.1576 34.9929 52.1527 35.0252 52.1498C38.1986 51.882 42.1723 52.9927 44.6659 54.9913C42.8313 54.8804 41.293 55.0575 39.6729 55.9864C33.6952 59.4142 29.5452 69.9899 27.5273 76.3307C27.0636 77.7882 26.7009 79.2881 26.3058 80.7659C25.9681 82.1326 25.9624 83.6764 24.8788 84.6843C22.1907 80.7729 20.7577 76.3704 20.3756 71.6575C19.9761 66.7327 20.596 61.2278 23.9288 57.3508C26.8263 53.9801 30.5784 52.5022 34.9287 52.1615Z" fill="#FEFEFE"/>
<path d="M25.1404 75.1328C25.3332 75.1452 25.5147 75.1372 25.6811 75.2504C25.8477 75.3635 25.9493 75.5328 25.9616 75.7338C25.9833 76.0906 25.7974 76.2943 25.5735 76.5388C25.3956 76.5133 25.2165 76.4937 25.064 76.3894C24.8993 76.2769 24.7783 76.0991 24.7593 75.8987C24.7259 75.5492 24.911 75.3576 25.1404 75.1328Z" fill="black"/>
<path d="M27.027 70.9197C27.0936 70.9219 27.1478 70.9202 27.2137 70.9412C27.3743 70.9925 27.5795 71.173 27.6603 71.3247C27.8388 71.6594 27.7825 72.0182 27.657 72.3606C27.4664 72.8804 27.1841 73.1234 26.6894 73.3487C26.4839 73.2823 26.2751 73.1904 26.1378 73.0138C25.9775 72.8078 25.9316 72.5813 25.9748 72.3286C26.0788 71.7211 26.5342 71.2442 27.027 70.9197Z" fill="black"/>
<path d="M23.1837 78.8445C23.4997 78.8491 23.7258 78.8609 23.9926 79.0421C24.4513 79.3534 24.8404 79.7684 24.9351 80.334C24.9943 80.6875 24.9209 80.8897 24.7211 81.1781C24.4225 81.2153 24.2235 81.1982 23.9691 81.0339C23.4969 80.7287 23.1522 80.2126 23.0357 79.6646C22.9653 79.3332 22.9981 79.1243 23.1837 78.8445Z" fill="black"/>
<path d="M22.4015 72.3586C22.6676 72.4075 22.9163 72.4699 23.1029 72.6798C23.3103 72.913 23.3803 73.2416 23.3645 73.5464C23.3308 74.2019 23.0368 74.708 22.565 75.1403L22.3429 75.2006C22.213 75.1755 22.0963 75.1584 21.9933 75.0658C21.806 74.8975 21.7524 74.5836 21.7388 74.3438C21.6967 73.6065 21.9011 72.9016 22.4015 72.3586Z" fill="black"/>
<path d="M23.964 68.0161C24.1546 68.0311 24.4157 68.0762 24.5739 68.1871C24.767 68.3227 24.8466 68.5736 24.852 68.7997C24.8689 69.5097 24.384 70.2325 23.9263 70.7339C23.8666 70.7314 23.807 70.7277 23.7476 70.7228C23.4712 70.6988 23.247 70.6179 23.0735 70.393C22.9099 70.1813 22.8702 69.9051 22.9034 69.6454C22.9944 68.9304 23.4039 68.4284 23.964 68.0161Z" fill="black"/>
<path d="M27.0018 56.8774C27.3215 56.8307 27.6088 56.8385 27.8956 56.9927C28.0144 57.1634 28.0687 57.2495 28.0345 57.4639C27.9276 58.1356 27.1532 58.8347 26.6461 59.2516C26.4439 59.2566 26.2332 59.2675 26.0317 59.2494C25.8173 59.2301 25.6941 59.1063 25.559 58.9505C25.4996 58.7782 25.4723 58.6536 25.5218 58.473C25.7154 57.7662 26.387 57.2106 27.0018 56.8774Z" fill="black"/>
<path d="M28.0288 64.9246C28.1984 64.9484 28.3479 64.997 28.5006 65.0739C28.733 65.1907 28.8684 65.3712 28.9447 65.6169C29.0551 65.9733 28.9089 66.3908 28.7309 66.6985C28.4386 67.204 28.1076 67.4201 27.5518 67.5621C27.2589 67.539 26.9716 67.5193 26.7899 67.2495C26.6251 67.0048 26.6705 66.6735 26.7616 66.4109C26.9874 65.7608 27.4193 65.2354 28.0288 64.9246Z" fill="black"/>
<path d="M28.127 65.6228C28.2765 65.7342 28.217 65.6614 28.2945 65.8498C28.2306 66.3031 27.9452 66.5668 27.6299 66.8766C27.4633 66.7652 27.5013 66.7859 27.4561 66.6097C27.5507 66.1741 27.7845 65.8968 28.127 65.6228Z" fill="#FEFEFE"/>
<path d="M30.6364 58.6189C30.9579 58.5947 31.2055 58.5575 31.4852 58.7573C31.5508 58.9245 31.578 58.9717 31.5224 59.1524C31.2457 60.0502 29.7418 61.0393 28.9348 61.443C28.8426 61.4675 28.7864 61.4852 28.6875 61.4969C28.4735 61.5221 28.3694 61.4688 28.1999 61.3504C28.1348 61.1952 28.127 61.0851 28.1745 60.9209C28.4732 59.8855 29.7421 59.1066 30.6364 58.6189Z" fill="black"/>
<path d="M34.2583 54.1255C34.5329 54.1092 34.8905 54.1017 35.1275 54.2669C35.2312 54.3394 35.3059 54.4392 35.3282 54.5624C35.3776 54.8355 35.2646 55.0715 35.1164 55.2936C34.6902 55.932 34.0365 56.2527 33.3007 56.3807C33.0243 56.3939 32.623 56.353 32.397 56.1766C32.2991 56.1 32.2335 56.0048 32.2124 55.8836C32.1662 55.6194 32.2823 55.3848 32.4315 55.174C32.8886 54.5283 33.4981 54.2405 34.2583 54.1255Z" fill="black"/>
<path d="M34.4873 54.7588L34.5253 54.811L34.4857 54.9614C34.111 55.3337 33.6675 55.506 33.1674 55.6427L33.0757 55.5202L33.1527 55.3362C33.534 55.005 33.9999 54.8588 34.4873 54.7588Z" fill="#FEFEFE"/>
<path d="M22.955 63.2488C23.1265 63.2423 23.215 63.277 23.369 63.3501C23.6568 63.7022 23.6556 64.0985 23.6264 64.5401C23.559 65.5543 23.2383 66.5918 22.4555 67.2782C22.3318 67.2012 22.2014 67.1229 22.0918 67.0265C21.7931 66.7639 21.7224 66.2771 21.7341 65.9033C21.7635 64.9737 22.2864 63.8793 22.955 63.2488Z" fill="black"/>
<path d="M53.4453 77.3127C53.5738 77.3018 53.6997 77.2928 53.8287 77.2893C55.5512 77.2427 56.9858 77.581 58.3558 78.6575C58.8432 79.0405 59.3299 79.5008 59.8673 79.8092C60.923 80.4151 61.9209 80.6836 62.8315 81.5592C64.6673 83.3246 65.3857 85.9603 65.4329 88.4387C65.6145 97.9834 56.3384 109.289 50.0582 115.84C45.778 120.305 39.7559 125.016 33.3146 125.155C31.9465 125.144 30.4657 124.968 29.3733 124.061C28.1659 123.058 27.8077 121.567 27.6605 120.082C26.1751 120.016 24.7114 120.042 23.4983 119.042C22.0308 117.832 21.4714 115.929 21.2797 114.107C20.6093 107.733 23.7783 101.917 28.6853 98.0164C31.1082 96.0908 33.8269 94.5382 36.1132 92.4343C38.7239 90.0318 40.4863 87.0228 42.6956 84.2887C45.407 80.9334 48.978 77.7845 53.4453 77.3127Z" fill="black"/>
<path d="M54.4833 79.1311C55.7713 79.0091 56.5857 79.4239 57.6483 80.0764C56.5696 80.1453 55.5689 80.4315 54.6238 80.959C53.477 81.5989 52.4362 82.4777 51.5268 83.4195C48.3011 86.7609 45.6817 90.7546 42.4783 94.209C38.3949 98.6124 33.5066 102.256 30.0206 107.198C27.8992 110.205 26.4797 113.534 25.46 117.054L25.1617 118.086C24.9699 117.992 24.7837 117.892 24.6135 117.761C23.9753 117.271 23.7467 116.405 23.6393 115.645C22.5925 108.238 25.4279 103.234 31.2322 98.8484C33.3411 97.2553 35.5931 95.8823 37.5506 94.0881C40.1948 91.6644 42.0641 88.707 44.2057 85.8671C46.7588 82.4817 50.1728 79.7369 54.4833 79.1311Z" fill="#FEFEFE"/>
<path d="M43.7459 88.3242C43.9897 88.3497 44.0797 88.3641 44.2744 88.5304C44.385 88.7283 44.4312 88.839 44.3806 89.0676C44.3235 89.3258 44.1702 89.4538 43.9621 89.5943C43.8152 89.5378 43.5881 89.4633 43.4758 89.3505C43.319 89.1929 43.3225 89.116 43.3086 88.9083C43.4098 88.6495 43.5467 88.5144 43.7459 88.3242Z" fill="black"/>
<path d="M46.5984 84.9495C46.6917 84.9509 46.7757 84.9491 46.8692 84.9648C47.0972 85.0026 47.1929 85.0928 47.3358 85.2638C47.388 85.4665 47.4209 85.5647 47.328 85.7685C47.2241 85.9968 47.004 86.076 46.7896 86.1643C46.6145 86.1138 46.3511 86.039 46.2249 85.8977C46.0663 85.7204 46.079 85.6546 46.0885 85.4329C46.2138 85.1852 46.3671 85.0949 46.5984 84.9495Z" fill="black"/>
<path d="M24.9451 109.859C25.199 109.866 25.4472 109.877 25.6404 110.067C25.7905 110.216 25.8603 110.366 25.848 110.58C25.8341 110.824 25.6907 110.967 25.5339 111.133C25.2621 111.151 24.9579 111.148 24.7521 110.937C24.613 110.795 24.5668 110.627 24.5847 110.432C24.6072 110.185 24.7814 110.024 24.9451 109.859Z" fill="black"/>
<path d="M33.0031 99.2415C33.2278 99.263 33.4122 99.3125 33.5584 99.4998C33.6961 99.6759 33.7149 99.8714 33.6614 100.081C33.5722 100.432 33.377 100.582 33.0818 100.767C32.8475 100.724 32.628 100.67 32.4804 100.465C32.3526 100.287 32.3458 100.116 32.3971 99.9099C32.4814 99.5734 32.7288 99.4136 33.0031 99.2415Z" fill="black"/>
<path d="M28.941 103.049C29.2545 103.057 29.4214 103.091 29.6696 103.277C29.7445 103.417 29.7919 103.462 29.787 103.627C29.7755 104.007 29.5203 104.211 29.2594 104.448C29.2278 104.45 29.196 104.453 29.1643 104.453C28.8899 104.453 28.7063 104.404 28.4999 104.216C28.4407 104.086 28.3958 103.991 28.4152 103.843C28.461 103.495 28.6946 103.273 28.941 103.049Z" fill="black"/>
<path d="M38.8479 94.4428C39.0071 94.4405 39.2361 94.4238 39.3882 94.47C39.6079 94.5367 39.6369 94.6032 39.7421 94.7884C39.7098 95.2687 39.3996 95.5459 39.0907 95.8788C39.0441 95.8739 38.9972 95.8696 38.9507 95.8639C38.66 95.8286 38.4375 95.7478 38.2505 95.5146C38.2084 95.3788 38.1806 95.2849 38.2171 95.1411C38.3043 94.7975 38.575 94.6312 38.8479 94.4428Z" fill="black"/>
<path d="M57.0754 81.0267C57.2865 80.9998 57.4985 80.9855 57.7114 80.9838C57.9242 80.9821 58.1364 80.993 58.348 81.0164C58.5595 81.0399 58.7689 81.0758 58.9762 81.1241C59.1835 81.1724 59.3873 81.2328 59.5873 81.3053C61.0953 81.847 62.2935 83.0107 62.9678 84.4505C64.5193 87.7641 63.6471 91.688 62.4567 94.9609C59.8106 102.235 53.0708 110.191 47.4269 115.424C45.9659 116.779 44.4864 118.131 42.8464 119.27C41.6507 120.101 40.396 120.784 39.0776 121.399C39.0896 119.759 38.9099 118.162 38.3536 116.612C37.5541 114.385 35.5386 111.146 33.3411 110.096C33.6651 110.733 34.1 111.319 34.4615 111.936C35.3174 113.397 36.1586 114.917 36.8274 116.474C37.173 117.277 37.4728 118.096 37.727 118.931C37.9966 119.843 38.1652 120.828 38.6096 121.67C37.2168 122.325 35.5057 122.838 33.9826 123.005C32.8838 123.125 31.032 123.157 30.1486 122.409C29.4672 121.832 29.1301 121.012 29.0575 120.136C28.932 118.626 29.2793 116.987 29.6412 115.527C31.3389 108.682 34.8744 105.592 39.6745 100.932C42.1227 98.5556 44.5367 96.1226 46.7303 93.5061C48.0437 91.944 49.2961 90.2904 50.5036 88.6451C52.0365 86.5564 53.4324 84.2806 55.5664 82.7372C56.4418 82.104 57.4372 81.7402 58.4038 81.2773C56.8123 81.3415 55.5229 81.8694 54.2888 82.8713C52.1206 84.6315 50.5145 87.134 48.8398 89.3442C47.5859 90.9992 46.2584 92.6312 44.9043 94.2055C37.4152 102.913 29.299 106.411 27.9646 119.19C27.2206 119.118 26.4601 119.127 25.7129 119.109C26.1043 118.013 26.397 116.875 26.7754 115.772C27.4154 113.964 28.1853 112.213 29.0851 110.519C32.0902 104.891 36.3305 101.674 40.7521 97.3097C43.1412 94.9517 45.2396 92.5078 47.276 89.8454C49.541 86.884 53.2061 81.5421 57.0754 81.0267Z" fill="#FEFEFE"/>
<path d="M32.5664 115.55C32.6621 115.55 32.7749 115.544 32.8705 115.562C33.0698 115.598 33.265 115.704 33.3742 115.882C33.4832 116.059 33.5142 116.232 33.4504 116.434C33.3709 116.686 33.2065 116.796 32.9947 116.932C32.7678 116.922 32.4987 116.868 32.319 116.719C32.1821 116.605 32.0935 116.423 32.1062 116.246C32.1304 115.907 32.319 115.747 32.5664 115.55Z" fill="black"/>
<path d="M33.6681 119.36C33.7195 119.354 33.7708 119.347 33.8222 119.342C34.0831 119.316 34.3935 119.352 34.5745 119.567C34.6621 119.671 34.7024 119.787 34.6941 119.92C34.6721 120.272 34.455 120.436 34.2052 120.648C34.1422 120.66 34.0793 120.673 34.0157 120.682C33.7746 120.717 33.5433 120.721 33.3527 120.538C33.2234 120.414 33.1799 120.243 33.2 120.068C33.2383 119.737 33.4308 119.564 33.6681 119.36Z" fill="black"/>
<path d="M56.9092 84.0442C57.5039 84.1279 58.1226 84.7998 58.517 85.2253C60.1332 86.9692 61.8065 89.4753 61.7073 91.9657C61.6662 91.9507 61.6233 91.9395 61.5838 91.921C61.3207 91.7971 61.0501 91.1621 60.9296 90.9102C60.4491 89.9075 59.9565 88.9172 59.3567 87.9784C58.5716 86.7493 57.3762 85.4147 56.9092 84.0442Z" fill="black"/>
<path d="M54.3447 85.9541C54.3835 85.9558 54.4226 85.9555 54.4613 85.9593C55.284 86.0389 56.3916 87.3637 56.9019 87.9392C58.4523 89.6875 60.2436 93.1167 60.1062 95.4914C60.0356 95.4844 59.994 95.4849 59.9242 95.4545C59.4582 95.2522 58.9076 93.6621 58.6776 93.1745C58.1595 92.0759 57.5937 91.0487 56.9268 90.0331C56.1603 88.8657 54.7562 87.2227 54.3447 85.9541Z" fill="black"/>
<path d="M51.7578 89.2051C52.5876 89.5134 53.3137 90.178 53.9287 90.7972C56.238 93.1225 58.3185 96.7181 58.2941 100.086C58.1478 100.087 58.0489 100.057 57.9121 100.007C57.5374 99.6164 56.4208 96.8849 55.9858 96.0888C55.4136 95.0335 54.7866 94.0119 54.1046 93.0241C53.2941 91.8246 52.203 90.5901 51.7578 89.2051Z" fill="black"/>
<path d="M48.2529 93.002C49.5159 93.6357 51.5716 95.8072 52.395 96.9477C53.7929 98.8838 55.1207 102.032 54.7331 104.466C54.6159 104.456 54.5024 104.428 54.3876 104.403C54.0466 104.141 53.2591 101.643 52.9919 101.037C52.426 99.7531 51.7339 98.5731 50.9873 97.3892C50.3216 96.3335 48.4804 94.0637 48.2529 93.002Z" fill="black"/>
<path d="M44.5 98.0542C45.6731 98.4244 46.9479 99.8652 47.7234 100.783C49.5736 102.973 51.4083 106.597 51.151 109.539C51.0642 109.538 50.9893 109.512 50.9058 109.49C50.4597 109.012 49.3943 106.253 48.9374 105.397C48.2231 104.064 47.4545 102.762 46.6316 101.493C45.9396 100.422 44.8969 99.2648 44.5 98.0542Z" fill="black"/>
<path d="M37.0029 105.413C37.6612 105.6 38.3187 106.26 38.7943 106.731C42.0224 109.933 43.6386 112.572 43.6546 117.217C43.5247 117.195 43.403 117.157 43.2766 117.12C42.8712 116.754 42.064 114.002 41.7235 113.295C40.8889 111.562 39.8322 109.897 38.7951 108.28C38.2284 107.396 37.3234 106.405 37.0029 105.413Z" fill="black"/>
<path d="M40.9854 101.439C41.7125 101.675 43.9243 104.243 44.4364 104.918C44.8847 105.51 45.2853 106.133 45.6381 106.787C46.5326 108.437 47.8715 111.922 47.3171 113.801C47.1657 113.814 47.1727 113.801 47.0461 113.738C46.7269 113.211 46.5549 112.577 46.3435 111.997C45.9618 110.95 45.5837 109.871 45.0989 108.867C44.3668 107.351 43.4283 105.888 42.5299 104.463C42.0577 103.714 41.5232 102.966 41.1472 102.163C41.029 101.91 40.9915 101.716 40.9854 101.439Z" fill="black"/>
<path d="M37.1006 26.2081C39.5227 24.1613 42.336 22.3661 45.0742 20.7765C45.4637 20.5505 45.8553 20.3282 46.2492 20.1097C46.6429 19.8912 47.0386 19.6764 47.4365 19.4655C47.8343 19.2546 48.2341 19.0474 48.636 18.8441C49.0378 18.6407 49.4415 18.4412 49.847 18.2454C50.2526 18.0498 50.6601 17.858 51.0693 17.6702C51.4786 17.4823 51.8897 17.2983 52.3025 17.1182C52.7152 16.9382 53.1296 16.7621 53.5458 16.59C53.9619 16.4179 54.3796 16.2497 54.7989 16.0855C55.2183 15.9213 55.6391 15.7611 56.0615 15.6049C56.4838 15.4488 56.9077 15.2967 57.333 15.1486C57.7583 15.0005 58.1849 14.8565 58.6129 14.7165C59.041 14.5766 59.4703 14.4407 59.901 14.309C60.3316 14.1772 60.7634 14.0496 61.1965 13.926C61.6295 13.8025 62.0637 13.6831 62.499 13.5679C62.9343 13.4526 63.3707 13.3415 63.8081 13.2346C64.2456 13.1277 64.684 13.0249 65.1234 12.9263C65.5629 12.8278 66.0032 12.7334 66.4444 12.6432C66.8856 12.553 67.3276 12.4671 67.7705 12.3853C68.2133 12.3036 68.6569 12.2261 69.1013 12.1528C69.5456 12.0795 69.9906 12.0104 70.4362 11.9456C70.8818 11.8808 71.328 11.8203 71.7747 11.764C72.2216 11.7077 72.6689 11.6556 73.1166 11.6079C73.5644 11.5601 74.0127 11.5166 74.4613 11.4774C74.9099 11.4381 75.3588 11.4032 75.8081 11.3725C76.2574 11.3418 76.707 11.3155 77.1568 11.2934C77.6065 11.2713 78.0564 11.2535 78.5066 11.24C78.9567 11.2264 79.4069 11.2172 79.8572 11.2123C80.3075 11.2073 80.7579 11.2067 81.2082 11.2103C81.6585 11.214 82.1087 11.2219 82.5588 11.2342C83.0091 11.2464 83.4591 11.2629 83.9089 11.2838C84.3587 11.3046 84.8083 11.3297 85.2577 11.3591C85.707 11.3884 86.1561 11.4221 86.6048 11.4601C106.051 13.0939 123.279 21.7876 135.89 36.7568C136.265 37.1997 136.634 37.6473 136.997 38.0994C137.36 38.5515 137.718 39.008 138.07 39.469C138.422 39.93 138.769 40.3952 139.109 40.8647C139.45 41.3342 139.784 41.8079 140.113 42.2858C140.442 42.7637 140.765 43.2455 141.081 43.7313C141.398 44.2171 141.709 44.7068 142.014 45.2004C142.319 45.6939 142.617 46.1911 142.91 46.6921C143.202 47.1929 143.488 47.6974 143.768 48.2054C144.048 48.7135 144.322 49.2249 144.589 49.7397C144.856 50.2545 145.117 50.7725 145.371 51.2937C145.626 51.815 145.874 52.3393 146.115 52.8667C146.357 53.3941 146.591 53.9244 146.82 54.4576C147.048 54.9908 147.27 55.5267 147.485 56.0655C147.7 56.6042 147.908 57.1455 148.109 57.6892C148.311 58.2331 148.506 58.7794 148.694 59.3281C148.882 59.8768 149.063 60.4278 149.238 60.981C149.412 61.5341 149.58 62.0893 149.741 62.6467C149.901 63.204 150.055 63.7632 150.202 64.3243C150.348 64.8855 150.488 65.4484 150.621 66.0129C150.754 66.5775 150.88 67.1437 150.999 67.7114C151.118 68.2791 151.229 68.8483 151.334 69.4187C151.439 69.9892 151.537 70.5609 151.627 71.1338C151.718 71.7067 151.801 72.2807 151.878 72.8557C151.954 73.4306 152.023 74.0064 152.085 74.5831C152.148 75.1598 152.203 75.7372 152.25 76.3153C152.298 76.8934 152.339 77.4719 152.372 78.0509C152.406 78.6299 152.432 79.2093 152.451 79.7891C152.47 80.3688 152.482 80.9486 152.487 81.5287C152.492 82.1087 152.489 82.6887 152.48 83.2686C152.47 83.8486 152.453 84.4283 152.429 85.0077C152.406 85.5873 152.374 86.1665 152.336 86.7453C152.298 87.324 152.252 87.9022 152.2 88.4798C151.265 99.2153 147.629 109.018 142.158 118.24C138.114 125.057 133.591 130.807 127.484 135.927C124.822 138.159 122.084 140.235 119.143 142.09C114.737 136.405 110.641 130.442 106.488 124.572C103.562 120.435 100.526 116.369 97.658 112.19L90.7613 102.217C88.8963 99.5097 87.0412 96.7534 85.0747 94.1202C85.6319 93.3819 86.3013 92.7287 86.9364 92.0582C87.9214 91.0059 88.9401 89.9871 89.9924 89.0021C91.0448 88.0169 92.1285 87.0676 93.2435 86.1541C95.1127 87.1009 97.8218 87.9926 99.9072 87.2969C100.523 87.0914 101.063 86.7712 101.606 86.42C105.123 87.1163 108.731 86.7744 112.235 86.1769C112.84 86.0737 113.827 85.999 114.332 85.6692L114.399 85.4996C114.3 85.3487 114.281 85.3303 114.093 85.2944C113.26 85.1357 112.096 85.533 111.237 85.6388C109.767 85.82 103.421 86.3567 102.373 85.7505C102.443 85.5816 102.523 85.4271 102.613 85.2681C102.53 84.9244 102.29 84.6398 102.093 84.352C104.074 84.3161 104.827 83.9856 106.525 83.0092C110.635 83.6357 113.079 83.4001 117.127 82.7154C117.941 82.5776 119.113 82.4963 119.822 82.0698L119.872 81.9248C119.829 81.8423 119.797 81.7184 119.705 81.682C119.28 81.514 117.178 82.0215 116.641 82.1076C113.954 82.5377 111.34 82.7163 108.623 82.5092C108.1 82.4692 107.308 82.4866 106.872 82.1829C106.799 81.9835 106.735 81.8169 106.734 81.6007C107.247 81.4762 107.838 81.5656 108.368 81.5388C109.409 81.4861 111.102 80.9527 111.673 80.0283C111.746 79.9106 111.811 79.7891 111.874 79.6665C116.192 80.4379 119.936 80.3689 124.252 79.6823C124.998 79.5637 126.147 79.5024 126.786 79.1028C126.9 79.0315 126.946 78.9922 127 78.8736C126.951 78.7434 126.981 78.7306 126.872 78.6837C126.482 78.516 121.69 79.3969 120.736 79.4729C120.092 79.5201 119.447 79.5498 118.801 79.5619C118.155 79.5741 117.51 79.5687 116.864 79.5458C116.218 79.5229 115.574 79.4825 114.931 79.4246C114.287 79.3666 113.646 79.2912 113.007 79.1985C113.553 78.9968 114.86 78.6852 115.12 78.128C115.207 77.9422 115.183 77.7507 115.106 77.5671C115.005 77.3295 114.744 77.0905 114.57 76.9038C115.581 76.9304 116.615 76.918 117.621 77.0111C118.99 77.1376 120.33 77.3835 121.708 77.4539C124.211 77.5817 126.616 77.3327 129.086 76.9479C129.79 76.8383 130.85 76.7953 131.44 76.3952L131.495 76.2419C131.377 76.0759 131.321 76.0324 131.115 76.0012C130.297 75.8777 129.205 76.237 128.376 76.348C125.812 76.6913 121.518 77.125 119.071 76.4385C119.519 76.2058 120.124 75.9952 120.4 75.5589C120.456 75.2743 120.415 75.1212 120.254 74.8894C120.187 74.7942 120.118 74.7007 120.046 74.6091C121.131 74.6815 122.965 74.8582 123.843 74.0805C124.083 73.8682 124.191 73.5637 124.296 73.2702C128.552 74.5512 133.455 74.3607 137.752 73.3806C138.438 73.2243 139.295 73.1028 139.919 72.7891C140.039 72.7285 140.109 72.675 140.172 72.5527C140.146 72.4464 140.163 72.385 140.056 72.3308C139.857 72.2298 139.614 72.2414 139.398 72.2623C138.548 72.3444 137.674 72.6081 136.835 72.7874C135.968 72.9725 135.099 73.0887 134.218 73.1878C133.304 73.2945 132.386 73.3593 131.466 73.3822C130.545 73.4051 129.625 73.386 128.706 73.3249C129.041 73.1243 129.784 72.7862 129.858 72.3776C129.926 71.9954 129.472 71.6005 129.237 71.352C130.934 71.4004 133.905 71.4017 135.245 70.2569C138.728 70.3263 142.137 69.5108 145.388 68.3104C146.033 68.0718 147.016 67.7794 147.51 67.2835C147.581 67.2124 147.611 67.1422 147.635 67.047C147.499 66.8625 147.48 66.8611 147.261 66.7891C146.336 66.9573 145.474 67.5413 144.581 67.8528C141.448 68.9465 138.165 69.645 134.833 69.4964C134.261 68.9686 133.693 68.4378 133.127 67.9038C134.923 66.9278 136.666 65.9438 138.307 64.7176C139.072 64.1461 140.1 62.8823 140.958 62.5978C141.782 62.3251 143.005 62.3036 143.69 61.7699C143.725 61.5651 143.702 61.5961 143.599 61.4326C143.069 61.1941 141.166 61.9014 140.411 61.8943C139.45 61.8853 138.417 61.6348 137.463 61.4888C135.263 61.1515 133.046 60.987 130.826 61.2491C130.881 60.299 131.161 59.6089 130.58 58.8473L130.573 58.6923C131.909 57.5189 137.592 55.7318 139.494 55.2145C140.12 55.0444 140.81 55.0299 141.413 54.794C141.653 54.7003 141.763 54.6087 141.866 54.3754C141.83 54.2662 141.837 54.1726 141.722 54.1227C141.309 53.9428 140.422 54.2849 139.987 54.3932C137.196 55.0897 134.515 55.9042 131.925 57.1754C129.534 58.349 126.967 59.6109 125.025 61.4576C124.944 61.0036 124.909 59.9808 124.549 59.6847C124.212 59.4062 123.575 59.5836 123.186 59.6573C125.662 58.0561 128.047 56.4056 130.729 55.1613C131.242 54.9232 134.191 53.7707 134.292 53.6589C134.34 53.6067 134.359 53.5344 134.392 53.472C134.34 53.2526 134.324 53.2482 134.15 53.1017C133.492 52.9193 128.717 55.2608 127.823 55.7685C124.815 57.4773 121.894 59.5823 119.89 62.4393C119.791 61.9925 119.66 61.5901 119.491 61.1653C118.129 61.6062 117.18 62.2224 116.143 63.2026C118.218 59.2882 121.901 56.2219 125.928 54.4708C126.361 54.2827 126.905 54.1374 126.86 53.5793C126.778 53.4972 126.758 53.4396 126.633 53.4311C126.171 53.3997 125.578 53.8016 125.17 53.9987C122.909 55.0895 120.892 56.4388 119.117 58.2227C117.601 59.7467 116.161 61.4637 115.186 63.3901C114.395 63.2336 113.992 63.3925 113.319 63.8414C112.136 64.6299 111.115 65.6382 110.499 66.925C110.375 66.2874 110.257 66.0451 109.799 65.5872L109.714 65.5013C110.866 63.3944 112.5 61.1436 114.255 59.5124C114.747 59.0555 116.599 57.9129 116.775 57.3599L116.729 57.2381C116.481 57.1449 116.251 57.2771 116.016 57.389C114.257 58.2268 109.865 63.0259 109.14 64.972C109.065 65.1727 109.047 65.3869 109.033 65.5989C107.532 66.5526 106.494 67.6185 105.854 69.2911C105.703 68.9645 105.536 68.4303 105.182 68.2787C104.958 68.183 104.732 68.2465 104.532 68.3623C103.813 68.7793 102.982 69.6617 102.605 70.4023C102.438 70.7328 102.341 71.1705 102.067 71.4213C102.197 70.6189 102.655 69.7582 103.01 69.027C104.556 65.843 106.297 63.43 109.218 61.3224C109.802 60.9011 111.989 59.5049 112.182 58.8723L112.103 58.6587C111.941 58.585 111.924 58.5806 111.75 58.65C110.917 58.9811 110.089 59.7691 109.357 60.2884C108.589 60.834 107.782 61.3387 107.039 61.9171C106.066 62.6741 105.156 63.5434 104.23 64.3599C100.726 67.4515 95.7123 71.9487 93.9418 76.3162C93.0779 78.4477 92.8841 80.657 92.614 82.91C91.5675 80.2566 91.761 77.2041 92.9067 74.5907C93.0869 74.1797 93.4848 73.7157 93.552 73.2876C93.4413 73.1033 93.4144 73.0857 93.2228 72.9854C92.9064 73.075 92.7827 73.2371 92.6243 73.5195C91.2384 75.9894 90.6191 79.5483 91.4395 82.2952C91.5979 82.8252 91.8278 83.345 92.0902 83.8318C90.02 85.1558 88.1252 86.7859 86.3978 88.5328C85.4943 89.4466 84.6363 90.4439 83.6748 91.2955C82.3791 89.5948 81.1195 87.8831 79.9277 86.1069C80.6438 84.51 81.213 82.8457 81.8657 81.2218C82.767 78.9796 83.7355 76.7559 84.5917 74.4966C86.6673 75.2121 88.824 75.0134 90.7917 74.0572C91.4765 73.7244 92.8111 73.022 93.1185 72.2998C93.1908 72.1299 93.2081 71.9592 93.1105 71.7972C92.8876 71.4271 92.318 71.04 91.988 70.7563C93.1745 70.5249 94.1314 70.0099 95.181 69.432C98.6269 67.5349 101.261 65.1598 104.323 62.7641C104.952 62.2718 106.503 61.3638 106.904 60.8361C106.981 60.7356 106.976 60.7343 107.021 60.6375L106.975 60.4746C106.792 60.379 106.711 60.3531 106.506 60.4107C105.316 60.7457 101.489 64.2131 100.3 65.1297C99.2522 65.9375 98.1404 66.6654 97.0372 67.3947C96.7096 67.6113 96.101 68.1321 95.7105 68.1414C95.7036 68.089 95.698 68.0365 95.6897 67.9843C95.5981 67.4153 94.7452 66.95 94.294 66.6477C95.5017 66.4437 97.8676 65.4853 98.5886 64.4769C98.7029 64.317 98.7851 64.1237 98.7363 63.9236C98.6132 63.419 97.932 63.0186 97.5218 62.7462C99.6618 62.3162 101.016 61.2328 102.9 60.3061C106.815 58.3808 110.013 56.9875 113.516 54.3004C113.964 53.9563 114.596 53.5578 114.924 53.1025C115.025 52.9631 115.024 52.89 115.036 52.7248L114.926 52.5888C114.204 52.6255 111.101 55.1602 110.189 55.7166C107.368 57.4377 104.434 58.7644 101.441 60.1412C101.217 59.5867 100.977 59.2295 100.539 58.8117C101.447 58.6127 103.884 57.9712 104.39 57.1309C104.476 56.9883 104.481 56.8316 104.432 56.6712C104.297 56.2347 103.886 55.8922 103.562 55.5888C104.384 55.473 105.18 55.3341 105.953 55.0197C106.929 54.623 107.7 53.9408 108.617 53.4511C109.868 52.7835 111.261 52.3733 112.527 51.7076C115.64 50.0703 118.568 47.9224 121.381 45.8243C121.873 45.4579 122.64 45.0213 123.006 44.5432C123.076 44.4519 123.105 44.3578 123.132 44.248C123.063 44.0604 123.049 44.0566 122.882 43.9443C122.671 43.956 122.537 44.027 122.368 44.1463C122.015 44.3956 121.71 44.7163 121.362 44.9765C120.19 45.8387 119.007 46.687 117.815 47.5214C114.973 49.4829 111.805 51.6858 108.44 52.5965C108.233 52.2839 108.033 51.99 107.772 51.7174C108.759 51.3856 110.245 50.8147 110.771 49.8455C110.887 49.6301 110.911 49.3905 110.827 49.1604C110.749 48.9492 110.614 48.8106 110.409 48.7212C110.353 48.6965 110.295 48.6755 110.237 48.6528L109.823 48.4874C111.508 48.6448 112.977 48.1441 114.481 47.4159C114.882 47.2219 115.357 47.0177 115.7 46.731C115.821 46.6309 115.881 46.5236 115.941 46.3793C115.881 45.8928 115.061 45.0281 114.675 44.7324C114.569 44.6516 114.46 44.5779 114.35 44.5029C114.251 44.4353 114.154 44.3684 114.054 44.3035C115.67 43.9439 117.216 43.5464 118.734 42.8625C119.582 42.4767 120.398 42.0324 121.182 41.5298C122.535 40.6812 126.756 37.7446 127.505 36.6011C127.625 36.4179 127.672 36.2662 127.703 36.0513L127.631 35.8912C127.377 35.8579 127.179 35.9841 126.981 36.1317C126.398 36.5676 125.877 37.0971 125.307 37.554C122.909 39.479 120.44 41.3475 117.585 42.5465C116.252 43.1067 114.774 43.2138 113.473 43.7802L112.382 43.3576C114.752 41.5019 116.454 39.2992 117.872 36.6623C118.252 35.9566 118.744 34.6717 119.306 34.1338C119.886 33.5782 122.188 32.4065 122.292 31.7188C122.311 31.5925 122.249 31.5669 122.176 31.4758C121.497 31.4199 118.918 33.4929 118.131 33.9283C117.285 34.3959 116.333 34.662 115.417 34.9634C113.443 35.6133 111.299 36.3946 109.702 37.7663C109.322 38.0926 108.962 38.4488 108.604 38.7989C108.306 38.2146 107.817 36.8827 107.144 36.6891C106.877 36.612 106.672 36.6552 106.442 36.7984C106.276 36.902 106.124 37.0336 105.974 37.1592C106.579 36.0244 107.187 34.8952 107.983 33.8797C110.113 31.164 113.97 28.5112 116.963 26.8066C117.374 26.5729 118.028 26.2831 118.052 25.7579C117.934 25.6557 117.908 25.6269 117.741 25.6327C117.099 25.6552 116.269 26.278 115.724 26.6161C113.07 28.2643 109.868 30.4788 107.83 32.836C107.041 33.7482 106.201 34.8534 105.705 35.9583C105.51 36.3921 105.439 36.9522 105.182 37.3508C104.953 37.708 104.533 37.9941 104.22 38.2839C103.419 39.0268 102.811 40.0004 102.442 41.0224C102.081 40.7894 101.718 40.5592 101.371 40.3056C100.21 41.2184 99.4343 42.9118 99.1453 44.3322C98.8871 44.1379 98.6368 43.9324 98.3475 43.7864C98.1573 43.6941 98.0197 43.6321 97.807 43.6033L97.7109 43.7302C96.6039 45.17 96.0515 45.6941 95.3565 47.45C95.0548 47.1733 94.855 47.0265 94.4262 47.052C94.1003 47.0713 93.8607 47.2306 93.661 47.4804C93.0279 48.2724 92.6387 49.6636 92.6026 50.6679C92.5949 50.8834 92.6553 52.1634 92.5139 52.2134C92.1136 51.6816 92.2835 50.696 92.3715 50.0669C93.1122 44.7674 94.9133 41.388 97.9277 37.0665C98.1636 36.7281 98.9627 35.7686 98.7449 35.3647C98.5637 35.2989 98.5247 35.3018 98.34 35.4016C97.8312 35.6764 97.2934 36.6612 96.9624 37.1428C94.5628 40.634 92.6161 44.3054 91.8967 48.5252C91.7309 49.498 91.6541 50.4736 91.6041 51.4583C91.44 51.3504 90.8997 50.943 90.7137 50.9955C90.2022 51.14 89.6297 52.4954 89.4262 52.9468C89.0692 53.738 88.9356 54.5731 88.8053 55.425C88.4837 55.1585 88.1684 54.8694 87.7194 54.937C87.288 55.002 87.0182 55.3646 86.807 55.713C86.6412 55.9867 86.4982 56.2855 86.3769 56.5809C86.5087 52.1295 88.3769 47.3195 90.5022 43.4538C90.7154 43.0659 91.1369 42.5162 90.7923 42.115C90.5819 42.0843 90.543 42.0713 90.3639 42.213C89.8605 42.6114 89.4391 43.8936 89.1507 44.4969C87.2631 48.4437 85.7928 52.2255 85.5664 56.6571C85.5368 57.2371 85.4672 57.8323 85.4841 58.4126C85.4903 58.6249 85.5376 58.8343 85.5961 59.0376L85.5232 59.2279L85.4504 59.1996C85.2565 59.1254 85.0984 59.0761 84.8882 59.061C84.1661 59.6304 83.643 61.2874 83.5431 62.1726C83.4807 62.7261 83.5042 63.3153 83.5664 63.868C83.1456 63.5708 82.4346 62.9217 81.9015 63.0397C81.6472 63.096 81.5458 63.3055 81.4091 63.4993C81.3729 63.5507 81.3346 63.6008 81.2976 63.6518C81.5509 59.968 82.2127 56.8395 83.3137 53.3249C83.4514 52.8856 84.0328 51.4708 83.9697 51.0715C83.8088 50.9064 83.801 50.9039 83.573 50.868C83.0315 51.1958 81.9189 55.0058 81.7274 55.7823C80.8507 59.3395 80.4569 61.5277 80.4522 65.2207C80.4507 66.3888 80.3963 67.3763 80.7467 68.5089C81.2109 70.0082 82.1218 71.3063 82.6577 72.7764C81.5294 74.8804 80.6512 77.1856 79.7192 79.3863C79.1097 80.8256 78.3843 82.283 77.9114 83.7696L54.6591 51.0854C50.7139 45.6641 46.8242 40.2032 42.99 34.7028L39.0735 29.0711C38.4173 28.1238 37.7057 27.1877 37.1006 26.2081Z" fill="#FEFEFE"/>
<path d="M97.8071 43.6033C98.2461 39.1873 103.018 33.5889 106.375 30.8193C106.693 30.557 106.994 30.3067 107.406 30.2209L107.548 30.2864C107.591 30.4698 107.629 30.5563 107.531 30.7353C107.284 31.1887 105.737 32.4108 105.266 32.8577C101.901 36.0542 99.6923 39.2972 98.3476 43.7864C98.1574 43.6942 98.0198 43.6321 97.8071 43.6033Z" fill="black"/>
<path d="M86.8567 14.4607L86.9453 14.4936C86.8054 15.1202 85.7379 16.4053 85.4738 17.3429C85.1617 18.4523 85.1063 19.6654 84.895 20.8003C84.5699 22.5454 84.1204 24.2698 83.7047 25.9952C85.1921 25.6113 86.6574 25.2235 88.193 25.0844C91.7066 24.766 97.4307 25.7677 100.785 26.8046C98.5041 27.3428 96.6006 28.1789 94.7339 29.6337C93.6496 30.4788 92.6998 31.5149 91.6792 32.4363C89.2938 34.5898 86.4254 35.8104 83.2112 35.9729C79.8584 36.1425 76.9307 34.8511 74.4934 32.6314C73.2941 32.8867 72.1764 33.2001 71.1032 33.8052C74.2492 38.5459 79.86 36.3964 82.8996 42.5031C81.689 42.4312 80.4953 42.2741 79.2796 42.3496C77.4874 42.4608 75.7257 42.8236 73.9226 42.7959C72.0003 42.7663 69.8975 42.2131 68.5374 40.775C67.4744 39.651 67.1145 38.3616 67.1504 36.8415C64.8836 40.6284 64.0039 42.5141 63.0236 46.884C62.9075 47.5994 62.8365 48.3192 62.8105 49.0435C62.7888 49.6739 62.8779 50.4268 62.7227 51.0337C62.4518 51.2107 62.0775 51.1985 61.7608 51.2074C59.9687 51.2575 58.6254 50.3784 57.3623 49.1939C59.2745 42.8432 61.7677 39.371 66.1723 34.5633C63.2443 35.0443 60.4417 34.9152 57.7261 33.6046C53.1954 31.4179 49.7661 25.6071 48.123 20.9732C53.9566 20.4864 60.5265 20.3591 65.7586 23.3638C68.9731 25.2097 71.221 28.0626 72.1989 31.642C75.2966 30.5303 75.6192 28.2224 76.6077 25.4742C77.1147 24.0643 77.7453 22.6595 78.5588 21.3977C80.1407 18.9441 84.2293 15.7778 86.8567 14.4607Z" fill="black"/>
<path d="M67.2998 34.9661L67.3286 34.9885C67.2782 35.372 66.387 36.2417 66.1138 36.5954C65.591 37.2792 65.1028 37.9868 64.6493 38.7183C64.1957 39.4497 63.7788 40.2016 63.3986 40.9738C61.9665 43.8871 61.2943 46.7538 60.967 49.967C60.5588 49.811 60.1744 49.6188 59.7841 49.4233C59.5262 49.2439 59.3261 49.011 59.1143 48.7816C59.2715 48.2517 59.442 47.7261 59.6257 47.2048C59.8096 46.6835 60.0063 46.1672 60.216 45.6558C60.4258 45.1444 60.6482 44.6386 60.8834 44.1384C61.1186 43.6382 61.3663 43.1443 61.6265 42.6565C61.8866 42.1688 62.1588 41.688 62.443 41.214C62.7274 40.7399 63.0235 40.2734 63.3313 39.8144C63.6391 39.3552 63.9582 38.9042 64.2888 38.4611C64.6193 38.018 64.9608 37.5836 65.3131 37.1578C65.9233 36.4065 66.5617 35.5933 67.2998 34.9661Z" fill="#FEFEFE"/>
<path d="M70.0297 34.3291C70.2509 34.5087 70.4373 34.8009 70.6214 35.0227C71.2694 35.8039 71.929 36.5849 72.7942 37.1356C75.4387 38.8189 78.3723 38.9295 80.6873 41.235L79.1927 41.0625C77.1827 41.0076 75.162 41.4068 73.1593 41.138C71.7488 40.9486 70.1531 40.3903 69.2848 39.1954C68.7076 38.4016 68.4536 37.2998 68.6191 36.3321C68.7765 35.4118 69.2973 34.8455 70.0297 34.3291Z" fill="#FEFEFE"/>
<path d="M84.2548 17.7036C84.3176 17.7639 84.278 17.7182 84.3329 17.8674C84.0812 19.5688 83.4029 21.2176 83.0811 22.9177C82.8658 24.0548 82.5998 26.8682 82.0956 27.7766C81.5756 28.7136 79.4867 28.9365 78.5375 29.1711C77.8064 29.3591 77.0775 29.5553 76.3508 29.76L76.2788 29.6785C76.5272 29.1368 76.84 28.6372 77.0559 28.0784C77.9298 25.8188 78.4906 23.0162 80.1678 21.2037C81.3623 19.9123 82.907 18.8378 84.2548 17.7036Z" fill="#FEFEFE"/>
<path d="M88.0173 26.3712C90.0825 25.9877 95.01 26.8044 97.295 27.1061C96.2353 27.4676 95.2045 27.8338 94.2438 28.4225C90.2418 30.8756 88.3685 34.2433 83.1005 34.3602C80.7349 34.4127 77.9981 33.7405 76.243 32.0756C77.7276 31.6422 79.3079 31.3855 80.824 31.0678C83.8713 30.337 86.8802 29.4727 89.8507 28.475C87.4001 28.6098 84.9796 28.8996 82.5892 29.4665C80.3145 30.0058 77.3139 31.0623 75.0464 31.1244L75.1195 31.0885C75.1601 31.0689 75.2013 31.0504 75.2416 31.0303C77.1366 30.0852 79.5046 30.1001 81.4732 29.3185C82.3804 28.9585 82.8009 28.4638 83.1758 27.5967C84.7833 27.0646 86.3286 26.5831 88.0173 26.3712Z" fill="#FEFEFE"/>
<path d="M51.248 22.9585C55.2928 23.1768 59.1326 22.9568 63.0266 24.3689C65.9457 25.4276 68.979 27.4853 70.3196 30.3702C69.5178 29.7328 68.7864 29.0542 67.8981 28.5303C65.156 26.9126 60.654 25.8117 57.4474 25.8631C58.236 26.0676 59.0216 26.2829 59.8041 26.5089C63.0859 27.4988 67.9103 29.0325 69.9567 31.9373C69.758 32.0316 69.5593 32.1121 69.353 32.1884C66.0318 33.4162 62.9105 34.0142 59.5651 32.4616C56.2757 30.9349 53.7901 27.9053 52.1224 24.7604C51.8139 24.1787 51.4711 23.578 51.248 22.9585Z" fill="#FEFEFE"/>
<path d="M119.352 83.8384C121.22 83.8664 140.347 88.0847 141.291 88.7117C141.423 89.572 140.368 92.9857 139.957 93.8805L139.307 94.2804C139.178 94.7758 139.081 95.2796 138.95 95.7757C139.691 97.1524 140.704 98.4059 141.537 99.7354C141.185 101.095 141.227 102.665 141.129 104.063C141.022 105.599 140.84 107.125 140.584 108.643C140.261 110.615 138.26 120.567 137.201 121.753C136.741 122.268 135.572 122.76 134.953 123.175C133.757 123.975 132.595 124.834 131.427 125.674C130.877 126.083 130.277 126.568 129.642 126.831C129.245 126.995 128.954 127.012 128.532 126.949C127.273 126.762 126.001 126.322 124.758 126.031L116.897 124.242C115.162 123.837 113.416 123.482 111.682 123.073C110.869 122.881 109.97 122.736 109.208 122.39C108.953 122.274 108.609 122.087 108.519 121.805C108.044 120.317 110.341 103.849 110.886 101.24C110.989 100.745 111.119 100.204 111.371 99.762C112.221 98.2746 114.948 95.4892 116.209 94.0975C116.912 93.3223 117.718 92.5038 118.167 91.5494C118.179 91.5218 118.192 91.4941 118.204 91.4665C118.046 90.1874 118.897 85.1239 119.352 83.8384Z" fill="black"/>
<path d="M138.528 97.2419C139.166 97.633 139.998 99.223 140.422 99.8901C139.357 100.63 138.35 101.459 137.35 102.283C136.916 102.622 136.48 102.959 136.042 103.293C136.918 101.296 137.615 99.2225 138.528 97.2419Z" fill="#FEFEFE"/>
<path d="M119.376 89.5225C121.74 90.1966 124.133 90.7129 126.527 91.2659L132.022 92.569C133.777 92.9678 135.554 93.3092 137.287 93.8034C137.596 93.8916 137.993 93.9803 138.232 94.1999C138.249 94.5144 138.075 94.8104 137.951 95.0922L137.918 95.1198C137.43 95.1891 135.025 94.4949 134.372 94.3526L125.599 92.485C123.451 92.0118 121.333 91.4559 119.159 91.1004C119.199 90.5623 119.268 90.0512 119.376 89.5225Z" fill="#FEFEFE"/>
<path d="M120.143 84.9177C123.192 85.8266 126.417 86.3428 129.529 86.9995C133.103 87.7537 136.651 88.6344 140.227 89.3779C139.856 90.571 139.564 91.7947 139.251 93.0038L139.181 93.1391C138.933 93.2167 138.646 93.1169 138.398 93.0604C136.937 92.7274 135.496 92.3104 134.039 91.96C130.619 91.129 127.186 90.3602 123.739 89.6537C122.311 89.3476 120.895 88.9916 119.461 88.7133C119.708 87.4516 119.936 86.1864 120.143 84.9177Z" fill="#FEFEFE"/>
<path d="M140.171 101.175L140.206 101.218C140.367 101.82 140.188 102.763 140.135 103.398C139.731 108.266 138.781 112.999 137.483 117.702C137.173 118.824 136.922 120.081 136.402 121.124C134.323 122.342 132.508 123.877 130.481 125.161C130.283 124.832 130.777 123.655 130.888 123.269C131.728 120.297 132.51 117.309 133.234 114.306C133.975 111.353 134.783 108.439 135.022 105.393C135.567 104.848 136.227 104.389 136.827 103.904L140.171 101.175Z" fill="#FEFEFE"/>
<path d="M119.148 92.0532C121.097 92.4025 122.994 92.9858 124.929 93.3978C129.213 94.3097 133.5 95.1203 137.747 96.2007C137.342 97.1277 137.022 98.1077 136.65 99.0509C135.818 101.221 134.907 103.358 133.917 105.461L131.741 104.898C129.232 104.246 126.709 103.615 124.211 102.924C120.368 101.861 116.554 100.735 112.651 99.905C113.087 99.2366 113.661 98.6174 114.173 98.0051C115.84 96.0127 117.662 94.1918 119.148 92.0532Z" fill="#FEFEFE"/>
<path d="M112.081 100.66C112.817 101.01 113.748 101.182 114.537 101.395L120.312 102.904C123.561 103.775 126.764 104.788 130.027 105.613C131.337 105.945 132.64 106.29 133.976 106.497C132.633 112.433 131.222 118.346 129.443 124.168C129.235 124.797 129.063 125.443 128.873 126.078C125.136 125.119 121.419 124.097 117.661 123.214C115.262 122.65 112.821 122.227 110.434 121.627C110.139 121.553 109.718 121.498 109.526 121.261C109.382 119.805 109.755 118.226 109.909 116.771C110.236 113.667 110.641 110.581 111.047 107.486C111.343 105.221 111.596 102.894 112.081 100.66Z" fill="#FEFEFE"/>
<path d="M119.759 105.079C119.843 105.07 119.928 105.06 120.013 105.055C122.346 104.914 124.381 105.58 126.118 107.149C127.825 108.69 128.965 110.708 129.071 113.033C129.165 115.088 128.549 117.017 127.16 118.54C125.616 120.23 123.756 120.873 121.52 120.983C119.259 121.161 116.865 120.242 115.112 118.851C113.573 117.629 112.494 115.7 112.29 113.743C112.078 111.713 112.777 109.658 114.061 108.092C115.551 106.275 117.444 105.321 119.759 105.079Z" fill="black"/>
<path d="M119.792 105.868C121.717 105.732 123.601 106.25 125.151 107.409C126.83 108.663 127.894 110.436 128.181 112.51C128.419 114.238 128.103 116.045 127.026 117.454C125.771 119.096 123.922 119.967 121.913 120.227C119.688 120.328 117.645 119.771 115.866 118.395C114.451 117.3 113.435 115.688 113.218 113.896C113.204 113.778 113.192 113.66 113.184 113.542C113.176 113.424 113.17 113.305 113.168 113.187C113.165 113.068 113.166 112.95 113.169 112.831C113.172 112.713 113.178 112.594 113.187 112.476C113.196 112.358 113.208 112.24 113.223 112.122C113.238 112.005 113.255 111.888 113.276 111.771C113.296 111.654 113.32 111.538 113.346 111.422C113.372 111.307 113.401 111.192 113.433 111.078C113.465 110.963 113.5 110.85 113.537 110.737C113.575 110.625 113.615 110.514 113.657 110.403C113.7 110.292 113.746 110.183 113.794 110.075C113.842 109.966 113.893 109.859 113.947 109.753C114 109.648 114.056 109.543 114.115 109.44C114.173 109.337 114.234 109.235 114.298 109.135C114.361 109.035 114.427 108.937 114.496 108.84C114.564 108.743 114.635 108.648 114.708 108.555C115.996 106.909 117.747 106.106 119.792 105.868Z" fill="#FEFEFE"/>
<path d="M120.581 106.42C120.728 106.405 120.876 106.392 121.024 106.394C122.442 106.411 123.927 107.133 124.92 108.123C126.368 109.565 127.61 111.541 127.582 113.645C127.562 115.134 126.997 117.091 125.898 118.133C124.555 119.407 122.875 119.641 121.101 119.595C119.412 119.464 117.947 119.162 116.559 118.134C115.166 117.102 114.222 115.735 113.984 114.002C113.754 112.325 113.975 110.688 115.03 109.324C116.4 107.554 118.421 106.704 120.581 106.42Z" fill="black"/>
<path d="M124.724 112.145C124.907 111.982 124.928 111.922 125.179 111.912C125.358 112.021 125.43 112.154 125.486 112.351C125.556 112.601 125.508 112.892 125.368 113.112C125.297 113.224 125.312 113.186 125.158 113.226C125.017 113.102 125.035 113.112 125.024 112.932C125.018 112.843 125.019 112.753 125.018 112.664L124.878 112.453L124.724 112.145Z" fill="#FEFEFE"/>
<path d="M117.783 117.463C118.408 117.433 118.943 117.625 119.537 117.799C119.72 118.039 120.053 118.34 120.097 118.63L119.883 118.658C119.454 118.537 119.156 118.396 118.8 118.123L118.696 118.042C118.436 118.032 118.111 118.009 117.875 117.897C117.699 117.812 117.664 117.806 117.596 117.618L117.783 117.463Z" fill="#FEFEFE"/>
<path d="M118.304 107.891L118.432 107.931C118.508 108.274 118.428 108.678 118.395 109.027C117.96 108.923 117.541 108.851 117.089 108.894C116.707 108.93 116.369 109.041 116.125 109.352C115.783 109.788 115.841 110.235 115.887 110.749C115.838 110.748 115.788 110.742 115.739 110.734C115.539 110.701 115.395 110.651 115.272 110.486C115.267 110.371 115.282 110.301 115.338 110.199C115.918 109.139 117.159 108.22 118.304 107.891Z" fill="#FEFEFE"/>
<path d="M122.769 111.701C123.24 111.505 123.848 111.347 124.361 111.352C124.571 111.355 124.66 111.392 124.81 111.533C124.844 111.811 124.782 111.869 124.655 112.113L124.724 112.145L124.878 112.453C124.735 112.661 124.618 112.822 124.422 112.984C124.418 112.987 124.417 112.991 124.414 112.995C124.398 113.117 124.389 113.264 124.348 113.38C124.281 113.571 124.267 113.598 124.086 113.679C123.615 113.51 123.029 112.147 122.769 111.701Z" fill="#FEFEFE"/>
<path d="M124.414 112.995L124.102 113.129C124.005 113.113 123.94 113.124 123.871 113.046C123.728 112.884 123.529 112.357 123.543 112.142C123.556 111.941 123.612 111.796 123.761 111.659C123.864 111.565 123.891 111.595 124.02 111.599C124.233 111.736 124.356 111.84 124.501 112.049C124.514 112.068 124.527 112.087 124.54 112.107L124.655 112.113L124.724 112.145L124.878 112.453C124.735 112.661 124.618 112.822 124.422 112.984C124.418 112.987 124.417 112.991 124.414 112.995Z" fill="black"/>
<path d="M125.049 109.615C125.925 110.44 126.575 111.331 126.765 112.557C126.837 113.023 126.918 114.04 126.639 114.412L126.465 114.388L126.273 114.297C125.619 113.984 126.215 112.89 126.124 112.293C125.91 110.892 125.308 111.297 124.868 110.537C124.78 110.224 124.944 109.91 125.049 109.615Z" fill="#FEFEFE"/>
<path d="M118.199 116.267C118.848 116.287 119.653 116.692 120.306 116.838C120.691 116.924 121.181 116.861 121.517 117.058C121.878 117.549 121.887 118.172 121.954 118.759L120.882 118.7C120.802 118.314 120.685 117.944 120.569 117.568L120.466 117.393C120.005 117.097 119.331 116.872 118.787 116.807C117.956 116.709 117.546 116.828 116.889 117.334L116.284 116.882C117.079 116.835 117.549 116.77 118.199 116.267Z" fill="#FEFEFE"/>
<path d="M118.334 111.82L118.33 111.729C118.3 111.23 118.156 110.597 117.75 110.26C117.651 110.179 117.54 110.146 117.42 110.108L117.334 110.17L117.287 110.565L117.15 110.652L116.935 110.603L116.894 110.501C116.987 110.371 117.072 110.273 117.111 110.116C116.865 110.126 116.674 110.187 116.442 110.269L116.324 110.23C116.328 110.036 116.341 110.042 116.473 109.896C117.101 109.644 117.798 109.737 118.433 109.921C118.762 110.188 118.883 110.923 119.027 111.325C118.872 111.581 118.724 111.846 118.558 112.095C118.394 112.374 118.179 112.615 117.975 112.864C117.729 112.568 117.523 112.308 117.37 111.948C117.208 111.78 117.03 111.646 116.824 111.536L116.719 111.481C116.527 111.378 116.241 111.259 116.177 111.048C116.542 110.91 117.218 111.096 117.56 111.274C117.788 111.393 117.777 111.512 117.847 111.74L117.934 112.106C118.096 112.107 118.217 111.93 118.334 111.82Z" fill="#FEFEFE"/>
<path d="M114.632 111.163C115.536 111.382 116.614 112.421 117.184 113.146C117.576 113.643 117.958 114.302 117.859 114.96C117.8 115.354 117.636 115.602 117.327 115.845C116.811 116.069 116.203 116.182 115.668 115.951C115.083 115.698 114.71 115.085 114.484 114.517C114.041 113.403 114.152 112.235 114.632 111.163Z" fill="#FEFEFE"/>
<path d="M119.583 112.02C120.236 112.05 121.82 111.964 122.266 112.445C122.485 112.68 122.541 113.009 122.533 113.319C122.508 114.244 122.079 115.205 121.421 115.845C121.268 115.926 121.114 115.997 120.941 116.023C120.379 116.109 119.718 116.001 119.265 115.646C118.921 115.378 118.713 115.028 118.677 114.59C118.614 113.803 119.056 112.616 119.583 112.02Z" fill="#FEFEFE"/>
<path d="M123.213 114.237C124.38 114.628 125.586 114.715 126.566 115.538C126.341 116.661 125.807 117.3 124.941 117.992C124.249 118.409 123.621 118.624 122.835 118.81C122.667 118.09 122.517 117.394 122.288 116.687C122.484 115.852 122.888 115.031 123.213 114.237Z" fill="#FEFEFE"/>
<path d="M119.874 107.186C120.288 107.176 120.689 107.169 121.1 107.234C122.145 107.401 123.646 107.924 124.264 108.833C124.406 109.042 124.494 109.289 124.417 109.542C124.259 110.06 123.575 110.367 123.124 110.585C122.17 111.034 121.247 111.288 120.204 111.431C119.69 110.658 119.26 109.388 119.293 108.452C119.311 107.932 119.486 107.532 119.874 107.186Z" fill="#FEFEFE"/>
<defs>
<linearGradient id="paint0_linear_1003_1267" x1="100.986" y1="53.0275" x2="100.881" y2="53.9969" gradientUnits="userSpaceOnUse">
<stop/>
<stop offset="1" stop-color="#0C0C0B"/>
</linearGradient>
</defs>
</svg>
