<svg width="31" height="30" viewBox="0 0 31 30" fill="none" xmlns="http://www.w3.org/2000/svg">
<path d="M23.1108 22.1875H9.84294C8.6096 22.1875 7.42608 21.6625 6.59139 20.75C5.7567 19.8375 5.33314 18.6125 5.4328 17.375L6.46682 4.925C6.5042 4.5375 6.36715 4.16251 6.10553 3.87501C5.84391 3.58751 5.48263 3.4375 5.09643 3.4375H2.94119C2.43041 3.4375 2.00684 3.0125 2.00684 2.5C2.00684 1.9875 2.43041 1.5625 2.94119 1.5625H5.1089C6.01834 1.5625 6.87793 1.95 7.48837 2.6125C7.82474 2.9875 8.0739 3.42501 8.21094 3.91251H23.7711C25.0293 3.91251 26.1879 4.4125 27.0351 5.3125C27.8698 6.225 28.2933 7.4125 28.1937 8.675L27.5209 18.05C27.3839 20.3375 25.3906 22.1875 23.1108 22.1875ZM8.27324 5.77499L7.30151 17.525C7.23922 18.25 7.47592 18.9375 7.96178 19.475C8.44765 20.0125 9.12038 20.3 9.84294 20.3H23.1108C24.4064 20.3 25.5775 19.2 25.6771 17.9L26.3499 8.52501C26.3997 7.78751 26.163 7.08751 25.6771 6.57501C25.1913 6.05001 24.5185 5.76248 23.7835 5.76248H8.27324V5.77499Z" fill="#292D32"/>
<path d="M20.6938 28.4375C19.3234 28.4375 18.2021 27.3125 18.2021 25.9375C18.2021 24.5625 19.3234 23.4375 20.6938 23.4375C22.0641 23.4375 23.1854 24.5625 23.1854 25.9375C23.1854 27.3125 22.0641 28.4375 20.6938 28.4375ZM20.6938 25.3125C20.3449 25.3125 20.0709 25.5875 20.0709 25.9375C20.0709 26.2875 20.3449 26.5625 20.6938 26.5625C21.0426 26.5625 21.3167 26.2875 21.3167 25.9375C21.3167 25.5875 21.0426 25.3125 20.6938 25.3125Z" fill="#292D32"/>
<path d="M10.7275 28.4375C9.35706 28.4375 8.23584 27.3125 8.23584 25.9375C8.23584 24.5625 9.35706 23.4375 10.7275 23.4375C12.0978 23.4375 13.2191 24.5625 13.2191 25.9375C13.2191 27.3125 12.0978 28.4375 10.7275 28.4375ZM10.7275 25.3125C10.3786 25.3125 10.1045 25.5875 10.1045 25.9375C10.1045 26.2875 10.3786 26.5625 10.7275 26.5625C11.0763 26.5625 11.3504 26.2875 11.3504 25.9375C11.3504 25.5875 11.0763 25.3125 10.7275 25.3125Z" fill="#292D32"/>
<path d="M26.6116 10.9375H11.6619C11.1511 10.9375 10.7275 10.5125 10.7275 10C10.7275 9.4875 11.1511 9.0625 11.6619 9.0625H26.6116C27.1223 9.0625 27.5459 9.4875 27.5459 10C27.5459 10.5125 27.1223 10.9375 26.6116 10.9375Z" fill="#292D32"/>
</svg>
