<svg width="41" height="41" viewBox="0 0 41 41" fill="none" xmlns="http://www.w3.org/2000/svg">
<g clip-path="url(#clip0_2021_998)">
<path d="M20.5 39.25C30.8552 39.25 39.25 30.8552 39.25 20.5C39.25 10.1447 30.8552 1.75 20.5 1.75C10.1447 1.75 1.75 10.1447 1.75 20.5C1.75 23.4994 2.45429 26.3342 3.70649 28.8484C4.03926 29.5165 4.15002 30.2802 3.9571 31.0011L2.84033 35.1751C2.35553 36.9869 4.01314 38.6444 5.82503 38.1597L9.99886 37.0429C10.7199 36.85 11.4835 36.9608 12.1516 37.2934C14.6657 38.5457 17.5006 39.25 20.5 39.25Z" stroke="#FEFEFE" stroke-width="2"/>
<g clip-path="url(#clip1_2021_998)">
<path d="M17.8868 6.94819C17.7293 7.07569 17.7049 7.30675 17.8325 7.46425L21.5265 12.0273C21.6708 12.2055 21.6431 12.4678 21.4649 12.6121C21.2867 12.7564 21.0243 12.7288 20.88 12.5506L17.186 7.98757C17.0585 7.83007 16.8275 7.80575 16.67 7.93326C16.5125 8.06076 16.4881 8.29182 16.6157 8.44932L20.3097 13.0123C20.4539 13.1906 20.4263 13.4529 20.2481 13.5972C20.0699 13.7415 19.8075 13.7139 19.6632 13.5356L15.9692 8.97264C15.8417 8.81514 15.6107 8.79083 15.4532 8.91833C15.2957 9.04584 15.2713 9.27689 15.3988 9.43439L19.0929 13.9974C19.2371 14.1756 19.2095 14.438 19.0313 14.5823C18.8531 14.7266 18.5907 14.6989 18.4464 14.5207L14.7524 9.95771C14.6249 9.80021 14.3939 9.7759 14.2364 9.9034C14.0789 10.0309 14.0545 10.262 14.182 10.4195L19.1074 16.5035C19.5063 16.9962 20.2317 17.0725 20.7244 16.6736C20.9026 16.5294 21.165 16.557 21.3093 16.7352L23.5691 19.5266C23.1497 20.0784 23.143 20.8664 23.5982 21.4286L28.5235 27.5126C29.3298 28.5085 30.796 28.6628 31.7919 27.8566C32.7878 27.0503 32.9421 25.5841 32.1359 24.5882L27.2105 18.5042C26.7554 17.942 25.9833 17.7845 25.3562 18.0798L23.0965 15.2884C22.9522 15.1102 22.9798 14.8478 23.158 14.7035C23.6507 14.3046 23.7271 13.5792 23.3282 13.0865L18.4028 7.0025C18.2753 6.845 18.0443 6.82068 17.8868 6.94819ZM26.6402 18.9659L31.5655 25.0499C32.1172 25.7313 32.0116 26.7346 31.3302 27.2862C30.6488 27.8379 29.6455 27.7323 29.0939 27.0509L24.1685 20.9669C23.8885 20.6209 23.9421 20.1116 24.288 19.8315L25.5048 18.8464C25.8508 18.5664 26.3601 18.62 26.6402 18.9659ZM22.6963 14.1331C22.2035 14.532 22.1272 15.2574 22.5261 15.7501L24.7579 18.5069L24.1115 19.0303L21.8797 16.2735C21.4808 15.7807 20.7554 15.7044 20.2627 16.1033C20.0844 16.2476 19.8221 16.2199 19.6778 16.0417L19.1207 15.3536C19.2526 15.3114 19.3791 15.2449 19.4931 15.1526C19.7279 14.9625 19.8679 14.6981 19.9072 14.4202C20.1873 14.4396 20.475 14.3577 20.7099 14.1676C20.9447 13.9774 21.0848 13.7131 21.124 13.4351C21.4041 13.4546 21.6918 13.3727 21.9267 13.1825C22.0406 13.0902 22.132 12.9804 22.2007 12.8601L22.7578 13.5483C22.9021 13.7265 22.8745 13.9888 22.6963 14.1331Z" fill="#FEFEFE"/>
<path d="M9.97758 13.3512C9.19886 13.9816 8.85902 14.9884 9.02057 16.1861C9.18392 17.3969 9.84676 18.749 10.9374 20.0962C11.7271 21.0717 12.9884 21.5494 14.2292 21.3431C14.631 21.2762 15.0483 21.442 15.3184 21.7756L17.4851 24.452C17.0658 25.0039 17.059 25.7918 17.5142 26.354L22.4395 32.438C23.2458 33.434 24.712 33.5883 25.7079 32.782C26.7039 31.9758 26.8582 30.5095 26.0519 29.5136L21.1266 23.4296C20.6714 22.8674 19.8993 22.71 19.2723 23.0052L17.1056 20.3288C16.8355 19.9952 16.7602 19.5524 16.9092 19.1734C17.3693 18.0028 17.1647 16.6696 16.375 15.6942C15.2843 14.347 14.0998 13.4172 12.9495 13.0053C11.8117 12.598 10.7563 12.7208 9.97758 13.3512ZM20.5562 23.8914L25.4815 29.9754C26.0332 30.6568 25.9276 31.66 25.2462 32.2116C24.5648 32.7633 23.5615 32.6577 23.0099 31.9763L18.0846 25.8923C17.8045 25.5463 17.8581 25.037 18.204 24.757L19.4208 23.7719C19.7668 23.4918 20.2761 23.5454 20.5562 23.8914ZM16.2263 18.905C15.9808 19.5294 16.0992 20.252 16.5352 20.7906L18.6739 23.4324L18.0275 23.9557L15.8888 21.3139C15.4527 20.7753 14.7707 20.5091 14.1088 20.6191C13.1282 20.7822 12.1315 20.4049 11.5078 19.6345C10.5018 18.3918 9.89319 17.1655 9.74783 16.0879C9.62005 15.1404 9.85915 14.3913 10.4393 13.9216C11.0195 13.4519 11.802 13.374 12.7021 13.6962C13.7258 14.0627 14.7986 14.9133 15.8046 16.156C16.4284 16.9264 16.5899 17.9798 16.2263 18.905Z" fill="#FEFEFE"/>
<path d="M19.64 24.6646C19.4825 24.7921 19.4582 25.0232 19.5857 25.1807L20.0782 25.7891C20.2057 25.9466 20.4368 25.9709 20.5943 25.8434C20.7518 25.7159 20.7761 25.4848 20.6486 25.3273L20.156 24.7189C20.0285 24.5614 19.7975 24.5371 19.64 24.6646Z" fill="#FEFEFE"/>
<path d="M21.1176 26.4898C20.9601 26.6173 20.9358 26.8484 21.0633 27.0059L23.2797 29.7437C23.4072 29.9012 23.6382 29.9255 23.7957 29.798C23.9532 29.6705 23.9776 29.4394 23.8501 29.2819L21.6336 26.5441C21.5061 26.3866 21.2751 26.3623 21.1176 26.4898Z" fill="#FEFEFE"/>
<path d="M25.724 19.7393C25.5665 19.8668 25.5422 20.0979 25.6697 20.2554L26.1622 20.8638C26.2897 21.0213 26.5208 21.0456 26.6783 20.9181C26.8358 20.7906 26.8601 20.5596 26.7326 20.4021L26.24 19.7937C26.1125 19.6362 25.8815 19.6118 25.724 19.7393Z" fill="#FEFEFE"/>
<path d="M27.2016 21.5645C27.0441 21.692 27.0198 21.9231 27.1473 22.0806L29.3637 24.8184C29.4912 24.9759 29.7222 25.0002 29.8797 24.8727C30.0372 24.7452 30.0615 24.5141 29.934 24.3566L27.7176 21.6188C27.5901 21.4613 27.3591 21.437 27.2016 21.5645Z" fill="#FEFEFE"/>
</g>
</g>
<defs>
<clipPath id="clip0_2021_998">
<rect width="41" height="41" fill="white"/>
</clipPath>
<clipPath id="clip1_2021_998">
<rect width="25" height="25" fill="white" transform="translate(3 19) rotate(-38.9922)"/>
</clipPath>
</defs>
</svg>
