<svg width="48" height="46" viewBox="0 0 48 46" fill="none" xmlns="http://www.w3.org/2000/svg">
<path d="M4.62083 4.03589C7.08155 1.57446 10.4344 0.21875 14.0601 0.21875C18.1158 0.21875 22.1658 1.94232 25.1701 4.94661C29.8665 9.64304 35.3294 20.6352 34.0901 27.6002L39.7265 33.2366C41.6758 32.0938 44.0715 32.348 45.7365 34.0123C47.6773 35.953 47.6837 39.1059 45.7508 41.0409C45.118 41.673 44.3444 42.1166 43.5008 42.3366C43.2751 43.1823 42.8287 43.713 42.2044 44.3366C41.2651 45.2752 40.0137 45.5595 38.6808 45.5595C38.6694 45.5595 38.6587 45.5595 38.6473 45.5595C37.318 45.5595 36.073 45.2938 35.1401 44.3616C33.6544 42.8759 33.3644 40.6052 34.2758 38.7809L28.7673 33.3387C27.9465 33.5395 27.0394 33.6738 26.0515 33.6738C19.3344 33.6738 9.84583 28.883 5.53226 24.5688C2.6844 21.7216 1.01226 18.038 0.822262 14.183C0.629406 10.2759 1.9794 6.67732 4.62083 4.03589ZM37.1394 37.7359C37.6973 38.2923 37.6973 39.198 37.1401 39.7559C36.4894 40.4059 36.3558 41.7859 37.1594 42.588C37.5558 42.9859 38.0965 43.2088 38.6615 43.198C39.238 43.1938 39.778 42.9695 40.1837 42.563C40.5823 42.1652 40.8108 41.6173 40.8123 41.0595C40.8144 40.2723 41.4523 39.6366 42.2387 39.6352C42.803 39.6338 43.333 39.4145 43.7308 39.0173C44.5494 38.1988 44.5437 36.8595 43.7165 36.033C42.8337 35.1488 41.5558 35.193 40.6094 36.1388C40.3415 36.4066 39.978 36.5573 39.5994 36.5573C39.2208 36.5573 38.8573 36.4066 38.5894 36.1388L32.9837 30.5345C32.743 30.9059 32.4723 31.2559 32.1565 31.5709C31.9594 31.7688 31.7458 31.9502 31.523 32.1209L37.1394 37.7359ZM3.67583 14.0509C3.83083 17.1959 5.20726 20.2195 7.55226 22.5645C11.463 26.4745 20.2051 30.848 26.0508 30.848C27.9008 30.848 29.2758 30.4116 30.1365 29.5509C34.0037 25.6823 28.4494 12.2666 23.1501 6.96661C20.6773 4.49375 17.3637 3.07589 14.0601 3.07589C11.1973 3.07589 8.56297 4.13375 6.64083 6.05589C4.57726 8.11946 3.52369 10.9595 3.67583 14.0509Z" fill="black"/>
<path d="M10.0891 6.5318C10.4398 6.35395 10.8713 6.49609 11.0491 6.8468C11.227 7.19895 11.0856 7.62895 10.7341 7.8068C10.0763 8.13895 9.47912 8.57037 8.96055 9.08966C8.82126 9.22894 8.63841 9.29894 8.45555 9.29894C8.27269 9.29894 8.08984 9.22894 7.95055 9.08966C7.67126 8.81037 7.67126 8.35895 7.95055 8.07966C8.57626 7.45323 9.29627 6.9318 10.0891 6.5318Z" fill="black"/>
<path d="M15.138 5.66374C17.4266 5.91945 19.6195 6.99302 21.313 8.68659C23.2316 10.6045 25.2702 14.078 26.3873 17.3323C26.5152 17.7052 26.3159 18.1116 25.943 18.2402C25.8666 18.2659 25.788 18.2787 25.7116 18.2787C25.4152 18.2787 25.1373 18.0923 25.0359 17.7959C23.9837 14.7295 22.0816 11.4752 20.3037 9.69731C18.8387 8.23159 16.9487 7.30374 14.9802 7.08445C14.588 7.04016 14.3066 6.68659 14.3495 6.29516C14.3923 5.90302 14.7423 5.61945 15.138 5.66374Z" fill="black"/>
<path d="M42.0547 35.5596C42.0576 35.5596 42.0604 35.5596 42.0626 35.5596C42.4676 35.5596 43.254 36.0931 43.6347 36.9696C43.7926 37.331 43.6261 37.9089 43.264 38.0667C43.1711 38.1074 43.0747 38.191 42.9804 38.191C42.704 38.191 42.4418 38.056 42.3247 37.7867C42.2304 37.5717 42.0861 37.541 42.024 37.5339C41.6404 37.5174 41.3361 36.9324 41.3404 36.546C41.3447 36.1539 41.664 35.5596 42.0547 35.5596Z" fill="black"/>
</svg>
