<svg width="24" height="24" viewBox="0 0 24 24" fill="none" xmlns="http://www.w3.org/2000/svg">
<rect width="24" height="24" rx="4" fill="#FCE9EB"/>
<g clip-path="url(#clip0_686_575)">
<path fill-rule="evenodd" clip-rule="evenodd" d="M18.24 10.544C17.992 8 16.488 4 11.84 4C7.19204 4 5.68804 8 5.44004 10.544C4.57005 10.8742 3.99619 11.7095 4.00002 12.64V13.76C4.00002 14.9971 5.00292 16 6.24004 16C7.47716 16 8.48004 14.9971 8.48004 13.76V12.64C8.47602 11.7296 7.92323 10.9114 7.08004 10.568C7.24004 9.096 8.02404 5.6 11.84 5.6C15.656 5.6 16.432 9.096 16.592 10.568C15.7505 10.9122 15.2006 11.7308 15.2 12.64V13.76C15.2035 14.62 15.6973 15.4026 16.472 15.776C16.136 16.408 15.28 17.264 13.176 17.52C12.7555 16.8814 11.9418 16.6296 11.234 16.9191C10.5262 17.2086 10.1223 17.9585 10.2699 18.7088C10.4175 19.4591 11.0753 20 11.84 20C12.4443 19.9967 12.9951 19.6532 13.264 19.112C16.696 18.72 17.792 16.952 18.136 15.912C19.0667 15.6105 19.6926 14.7382 19.68 13.76V12.64C19.6839 11.7095 19.11 10.8742 18.24 10.544ZM6.88004 13.76C6.88004 14.1135 6.5935 14.4 6.24004 14.4C5.88658 14.4 5.60004 14.1135 5.60004 13.76V12.64C5.60004 12.4113 5.72202 12.2001 5.92004 12.0857C6.11805 11.9714 6.36202 11.9714 6.56004 12.0857C6.75805 12.2001 6.88004 12.4113 6.88004 12.64V13.76ZM16.8 12.64C16.8 12.2865 17.0866 12 17.44 12C17.7935 12 18.08 12.2865 18.08 12.64V13.76C18.08 14.1135 17.7935 14.4 17.44 14.4C17.0866 14.4 16.8 14.1135 16.8 13.76V12.64Z" fill="#E32636"/>
</g>
<defs>
<clipPath id="clip0_686_575">
<rect width="16" height="16" fill="white" transform="translate(4 4)"/>
</clipPath>
</defs>
</svg>
