<svg width="24" height="24" viewBox="0 0 24 24" fill="none" xmlns="http://www.w3.org/2000/svg">
<rect width="24" height="24" rx="4" fill="#FCE9EB"/>
<g clip-path="url(#clip0_686_570)">
<path d="M12.4297 19.8537C11.9795 19.8535 11.53 19.8168 11.0857 19.744C8.9125 19.3874 6.96971 18.1828 5.68401 16.3948C4.39831 14.6068 3.87483 12.3816 4.22854 10.208C4.42647 8.97056 4.90349 7.79442 5.62346 6.76872C6.34343 5.74302 7.28745 4.89468 8.38397 4.28799C8.56896 4.18462 8.77975 4.13657 8.99127 4.14953C9.20278 4.1625 9.40612 4.23594 9.57711 4.36113C9.75188 4.48071 9.88813 4.64851 9.96929 4.8441C10.0504 5.0397 10.073 5.25466 10.0343 5.46285L9.43997 5.41713L10.0023 5.5177C9.68502 7.20044 9.98146 8.94114 10.8378 10.424C11.6941 11.9069 13.0537 13.0337 14.6697 13.6C15.9142 14.0319 17.253 14.1157 18.5417 13.8423C18.7456 13.8023 18.9566 13.82 19.151 13.8935C19.3453 13.967 19.5153 14.0933 19.6417 14.2582C19.7682 14.4231 19.846 14.6201 19.8665 14.8269C19.887 15.0337 19.8493 15.242 19.7577 15.4286C19.0526 16.7616 17.9981 17.8777 16.7072 18.6572C15.4164 19.4367 13.9377 19.8503 12.4297 19.8537ZM8.87768 5.32113C8.0033 5.81692 7.24304 6.49118 6.64634 7.30007C6.04964 8.10896 5.62986 9.03437 5.41427 10.0161C5.19869 10.9979 5.19213 12.0141 5.39503 12.9985C5.59794 13.983 6.00575 14.9138 6.59197 15.7303C7.29852 16.7179 8.24472 17.5096 9.34153 18.0309C10.4383 18.5521 11.6497 18.7858 12.8617 18.7099C14.0737 18.634 15.2465 18.251 16.2697 17.597C17.2929 16.943 18.133 16.0395 18.7108 14.9714C17.2404 15.267 15.7179 15.166 14.2994 14.6788C12.4278 14.0226 10.8525 12.7186 9.85822 11.0025C8.86392 9.28639 8.51613 7.27126 8.87768 5.32113Z" fill="#E32636"/>
</g>
<defs>
<clipPath id="clip0_686_570">
<rect width="16" height="16" fill="white" transform="translate(4 4)"/>
</clipPath>
</defs>
</svg>
