<svg width="156" height="157" viewBox="0 0 156 157" fill="none" xmlns="http://www.w3.org/2000/svg">
<g clip-path="url(#clip0_1003_1233)">
<path d="M74.597 0.122473C74.6265 0.119977 74.6557 0.116963 74.685 0.115001C78.3266 -0.128693 82.0821 0.15883 85.7047 0.537541C86.5144 0.622927 87.3226 0.720903 88.1293 0.831469C88.9359 0.942034 89.7407 1.06514 90.5436 1.20078C91.3465 1.33641 92.1471 1.48452 92.9454 1.6451C93.7437 1.80568 94.5394 1.97866 95.3323 2.16404C96.1253 2.34941 96.9152 2.54708 97.7021 2.75706C98.489 2.96705 99.2725 3.18923 100.052 3.42362C100.832 3.65802 101.609 3.90451 102.381 4.16309C103.154 4.42166 103.922 4.6922 104.686 4.97472C105.45 5.25723 106.21 5.55157 106.965 5.85776C107.72 6.16393 108.47 6.48179 109.215 6.81134C109.96 7.14089 110.7 7.48197 111.435 7.83458C112.17 8.18714 112.899 8.55112 113.622 8.92652C114.346 9.30181 115.063 9.68828 115.775 10.0859C116.486 10.4836 117.192 10.8923 117.891 11.312C118.59 11.7316 119.282 12.162 119.968 12.6033C120.653 13.0444 121.332 13.4962 122.004 13.9586C125.049 16.0841 127.927 18.5421 130.699 21.0131C140.477 29.7295 148.331 42.2155 152.317 54.727C152.82 56.3487 153.274 57.9844 153.679 59.6339C154.084 61.2833 154.438 62.9436 154.743 64.6147C155.048 66.2858 155.302 67.9647 155.505 69.6513C155.709 71.3379 155.861 73.0291 155.963 74.725C155.995 75.3504 156.019 75.9761 156.036 76.6021C156.053 77.2281 156.063 77.8541 156.065 78.4803C156.066 79.1065 156.061 79.7327 156.048 80.3588C156.034 80.9848 156.013 81.6106 155.985 82.2362C155.957 82.8618 155.921 83.4869 155.877 84.1116C155.834 84.7363 155.783 85.3603 155.724 85.9837C155.666 86.6073 155.6 87.2299 155.526 87.8517C155.453 88.4735 155.372 89.0944 155.283 89.7142C155.195 90.3341 155.098 90.9528 154.995 91.5703C154.892 92.1879 154.781 92.8041 154.662 93.4189C154.544 94.0337 154.418 94.6469 154.285 95.2586C154.152 95.8703 154.011 96.4804 153.863 97.0887C153.716 97.697 153.56 98.3034 153.398 98.908C153.235 99.5125 153.066 100.115 152.889 100.715C152.711 101.316 152.527 101.914 152.336 102.51C152.144 103.106 151.946 103.699 151.74 104.29C151.534 104.881 151.321 105.47 151.101 106.055C150.881 106.641 150.654 107.224 150.42 107.805C150.186 108.385 149.945 108.962 149.697 109.537C149.448 110.111 149.194 110.683 148.932 111.251C148.67 111.819 148.401 112.384 148.126 112.946C147.85 113.507 147.568 114.065 147.279 114.62C146.99 115.175 146.695 115.726 146.392 116.274C146.09 116.821 145.781 117.365 145.466 117.905C145.151 118.445 144.829 118.981 144.5 119.513C144.172 120.045 143.837 120.573 143.496 121.098C143.155 121.622 142.808 122.141 142.454 122.657C142.101 123.172 141.741 123.683 141.375 124.19C141.009 124.697 140.637 125.199 140.259 125.697C139.881 126.195 139.497 126.688 139.107 127.176C138.717 127.664 138.321 128.148 137.919 128.626C137.518 129.105 137.11 129.579 136.697 130.047C136.267 130.544 135.83 131.035 135.386 131.521C134.943 132.006 134.494 132.486 134.039 132.961C133.584 133.435 133.123 133.904 132.657 134.366C132.19 134.829 131.717 135.286 131.239 135.737C130.761 136.188 130.278 136.632 129.788 137.071C129.299 137.51 128.805 137.942 128.305 138.368C127.805 138.794 127.3 139.214 126.789 139.628C126.279 140.041 125.763 140.448 125.243 140.849C124.722 141.249 124.197 141.643 123.666 142.031C123.136 142.418 122.601 142.798 122.061 143.172C121.521 143.546 120.977 143.913 120.428 144.273C119.879 144.633 119.326 144.986 118.768 145.332C118.21 145.678 117.648 146.017 117.082 146.349C116.515 146.681 115.945 147.006 115.371 147.324C114.796 147.641 114.218 147.952 113.636 148.255C113.054 148.558 112.468 148.854 111.879 149.142C111.29 149.43 110.697 149.711 110.1 149.985C109.504 150.258 108.904 150.524 108.301 150.782C107.698 151.04 107.092 151.291 106.482 151.534C105.873 151.777 105.261 152.012 104.646 152.24C104.031 152.468 103.413 152.688 102.792 152.899C102.171 153.112 101.548 153.316 100.922 153.512C100.297 153.709 99.6685 153.897 99.0381 154.077C98.4078 154.258 97.7752 154.431 97.1405 154.595C96.5057 154.76 95.8691 154.916 95.2304 155.065C94.5918 155.214 93.9515 155.354 93.3093 155.487C92.6672 155.619 92.0235 155.743 91.3782 155.86C90.733 155.976 90.0864 156.084 89.4386 156.184C88.7906 156.284 88.1415 156.376 87.4914 156.459C86.8411 156.543 86.19 156.618 85.5379 156.685C84.8858 156.753 84.233 156.812 83.5794 156.863C82.9259 156.913 82.2718 156.956 81.6172 156.99C80.8455 157.027 80.0733 157.052 79.3008 157.066C78.5283 157.08 77.7558 157.082 76.9832 157.073C76.2107 157.063 75.4385 157.043 74.6665 157.01C73.8946 156.978 73.1233 156.934 72.3527 156.878C71.582 156.822 70.8124 156.755 70.0437 156.677C69.2751 156.598 68.5078 156.508 67.7417 156.407C66.9758 156.305 66.2115 156.192 65.4488 156.068C64.6862 155.943 63.9256 155.807 63.1671 155.66C62.4085 155.513 61.6522 155.354 60.8983 155.184C60.1444 155.015 59.3931 154.833 58.6446 154.641C57.896 154.449 57.1505 154.245 56.408 154.03C55.6655 153.816 54.9263 153.59 54.1905 153.353C53.4547 153.116 52.7226 152.869 51.9941 152.61C51.2657 152.351 50.5412 152.081 49.8206 151.801C49.1001 151.521 48.3839 151.229 47.672 150.928C46.9602 150.626 46.253 150.313 45.5504 149.99C43.2706 148.931 41.0969 147.707 38.9174 146.457C34.8742 144.139 30.9451 141.555 27.4665 138.432C23.7867 135.129 20.3212 131.648 17.2118 127.789C16.8954 127.396 16.5829 126.999 16.2742 126.6C15.9655 126.201 15.6607 125.798 15.3598 125.393C15.0589 124.988 14.762 124.579 14.469 124.168C14.176 123.757 13.887 123.343 13.602 122.926C13.317 122.51 13.036 122.09 12.7592 121.668C12.4822 121.245 12.2094 120.821 11.9408 120.393C11.6722 119.965 11.4077 119.535 11.1473 119.102C10.887 118.67 10.6309 118.234 10.3789 117.797C10.127 117.359 9.87932 116.919 9.63593 116.476C9.39254 116.033 9.15343 115.588 8.91861 115.141C8.68389 114.694 8.45346 114.244 8.22731 113.792C8.00127 113.341 7.77957 112.887 7.56221 112.43C7.34492 111.974 7.13205 111.516 6.92359 111.056C6.71514 110.595 6.51117 110.133 6.31166 109.669C6.11215 109.205 5.91716 108.738 5.72667 108.27C5.53618 107.802 5.35024 107.332 5.16885 106.86C4.98745 106.389 4.81064 105.915 4.6384 105.44C4.46617 104.965 4.29855 104.488 4.13554 104.009C3.97252 103.531 3.81415 103.051 3.66043 102.569C3.5067 102.088 3.35765 101.605 3.21327 101.12C3.06888 100.636 2.9292 100.15 2.79423 99.6629C2.65925 99.1756 2.52899 98.6871 2.40346 98.1974C2.27793 97.7076 2.15714 97.2166 2.0411 96.7245C1.92506 96.2323 1.8138 95.7391 1.70731 95.2448C1.60083 94.7505 1.49912 94.2553 1.4022 93.759C1.30529 93.2628 1.21319 92.7655 1.1259 92.2673C1.03862 91.7693 0.956145 91.2704 0.878494 90.7707C0.800853 90.271 0.728054 89.7706 0.660094 89.2695C0.592134 88.7684 0.529027 88.2666 0.470771 87.7643C0.412526 87.2619 0.359139 86.759 0.310609 86.2556C0.26208 85.7522 0.218431 85.2484 0.179662 84.7441C0.140882 84.2399 0.106981 83.7354 0.0779619 83.2304C0.0438736 82.6414 0.0164016 82.0522 -0.00445553 81.4628C-0.0253126 80.8732 -0.0395486 80.2835 -0.0471631 79.6936C-0.0547661 79.1037 -0.055748 78.5138 -0.0501085 77.9239C-0.044469 77.334 -0.0322085 76.7443 -0.0133264 76.1547C0.00556713 75.565 0.0310768 74.9757 0.0632015 74.3867C0.0953262 73.7976 0.134061 73.209 0.179405 72.6208C0.224761 72.0327 0.27671 71.4451 0.335251 70.8582C0.393804 70.2712 0.458932 69.6849 0.530636 69.0995C0.602352 68.514 0.680637 67.9294 0.765493 67.3457C0.850337 66.762 0.941727 66.1792 1.03967 65.5975C1.13759 65.0159 1.24204 64.4354 1.35302 63.8562C1.46399 63.2769 1.58146 62.6989 1.70541 62.1223C1.82937 61.5457 1.95979 60.9706 2.09666 60.397C2.23354 59.8233 2.37684 59.2513 2.52656 58.6809C2.67629 58.1105 2.83241 57.5419 2.9949 56.9751C3.1574 56.4082 3.32624 55.8433 3.50143 55.2803C3.67662 54.7172 3.85811 54.1562 4.04589 53.5973C4.23369 53.0384 4.42773 52.4817 4.62803 51.9273C4.82832 51.3728 5.03481 50.8206 5.2475 50.2709C5.4602 49.721 5.67904 49.1737 5.90404 48.6289C6.12903 48.084 6.3601 47.5418 6.59727 47.0023C6.83444 46.4627 7.07764 45.9258 7.32688 45.3917C7.57612 44.8577 7.83135 44.3265 8.09254 43.7983C8.35363 43.27 8.62065 42.7448 8.89361 42.2226C9.16656 41.7003 9.44534 41.1812 9.72994 40.6653C10.0147 40.1494 10.3051 39.6368 10.6012 39.1275C10.8973 38.6183 11.1991 38.1125 11.5066 37.61C11.8141 37.1076 12.1272 36.6087 12.4458 36.1133C12.7646 35.618 13.0888 35.1264 13.4186 34.6384C13.7483 34.1504 14.0835 33.6662 14.4242 33.1858C14.7647 32.7055 15.1107 32.2291 15.462 31.7566C15.8133 31.2841 16.1699 30.8156 16.5318 30.3512C17.7471 28.7793 19.1054 27.2626 20.4258 25.7794C20.8567 25.3036 21.2934 24.8332 21.7358 24.3681C22.1782 23.9031 22.6261 23.4436 23.0797 22.9896C23.5332 22.5355 23.9922 22.0871 24.4566 21.6444C24.9211 21.2017 25.391 20.7648 25.8661 20.3336C26.3412 19.9025 26.8216 19.4773 27.3071 19.058C27.7926 18.6387 28.2832 18.2254 28.7787 17.8182C29.2743 17.4109 29.7748 17.0098 30.2802 16.6149C30.7854 16.22 31.2955 15.8314 31.8104 15.4491C32.3252 15.0667 32.8447 14.6907 33.3687 14.3212C33.8925 13.9516 34.4209 13.5886 34.9538 13.2321C35.4866 12.8756 36.0237 12.5256 36.565 12.1824C37.1064 11.839 37.6518 11.5024 38.2014 11.1726C38.751 10.8427 39.3045 10.5196 39.8619 10.2034C40.4194 9.88717 40.9806 9.57782 41.5456 9.2753C42.1105 8.97289 42.6791 8.67748 43.2513 8.38907C43.8234 8.10067 44.3991 7.81935 44.9781 7.54513C45.5571 7.27088 46.1394 7.00381 46.7249 6.74391C47.3104 6.48401 47.899 6.23136 48.4907 5.98596C49.0824 5.74055 49.677 5.50247 50.2745 5.27171C50.8719 5.04095 51.4721 4.81758 52.0751 4.6016C52.678 4.38564 53.2835 4.17712 53.8915 3.97605C54.4995 3.77498 55.1099 3.58143 55.7227 3.39541C56.3354 3.20937 56.9503 3.03091 57.5673 2.86002C58.1845 2.68913 58.8036 2.52587 59.4246 2.37022C60.0456 2.21459 60.6685 2.06662 61.2932 1.92632C61.9179 1.78602 62.5441 1.65343 63.172 1.52855C63.7999 1.40367 64.4292 1.28655 65.0599 1.17718C65.6908 1.06779 66.3228 0.966198 66.9559 0.872388C67.5892 0.778578 68.2234 0.692579 68.8587 0.614388C69.4942 0.536198 70.1304 0.465841 70.7674 0.403316C71.4044 0.340803 72.0421 0.286135 72.6805 0.23931C73.3189 0.192497 73.9577 0.153551 74.597 0.122473Z" fill="white"/>
<path d="M43.2686 36.5185C43.3924 33.5734 43.2768 30.5558 43.2589 27.6038C43.2506 26.2386 43.0955 24.7015 43.389 23.3642C43.4168 23.242 43.4488 23.1209 43.4847 23.0008C43.5207 22.8808 43.5607 22.7621 43.6048 22.6448C43.6487 22.5275 43.6965 22.4119 43.7483 22.2978C43.8 22.1837 43.8554 22.0715 43.9147 21.9612C43.9739 21.8508 44.0369 21.7426 44.1034 21.6366C44.1698 21.5305 44.2398 21.4269 44.3133 21.3256C44.3869 21.2243 44.4637 21.1256 44.5438 21.0296C44.6239 20.9335 44.7071 20.8402 44.7935 20.7498C45.7845 19.7303 47.1544 19.1879 48.5651 19.1805C50.0228 19.1729 51.495 19.7105 52.5171 20.7753C54.3629 22.6982 54.0275 25.4386 54.0194 27.8869C63.35 23.9313 72.0565 22.0981 82.1931 22.8499C82.8746 22.8978 83.5549 22.9591 84.2339 23.0335C84.9131 23.1081 85.5905 23.196 86.2662 23.2971C86.9419 23.3982 87.6155 23.5125 88.2868 23.64C88.9581 23.7675 89.6266 23.9081 90.2924 24.0618C90.9583 24.2156 91.6209 24.3823 92.2802 24.5619C92.9396 24.7415 93.5953 24.934 94.2472 25.1394C94.8991 25.3448 95.5468 25.5628 96.1903 25.7934C96.8337 26.0242 97.4724 26.2675 98.1065 26.5232C102.956 28.5044 107.143 30.7333 111.319 33.9426C111.962 34.4367 115.396 37.3631 115.887 37.4016C117.516 37.1794 123.648 36.7626 124.872 37.7017C125.373 38.0861 125.37 39.444 125.416 40.0345C125.629 42.7415 125.724 45.4443 125.168 48.1213C128.418 52.47 131.38 60.0924 132.615 65.3917C132.986 67.0294 133.29 68.6796 133.527 70.3424C133.763 72.0051 133.932 73.6748 134.032 75.3514C134.126 76.8697 134.326 78.6133 134.108 80.1218C134.08 80.3072 134.048 80.4916 134.01 80.6751C134.947 83.2164 135.607 85.7939 135.923 88.4883C136.877 96.6476 134.815 105.501 131.431 112.891C127.803 120.813 121.794 127.577 113.532 130.628L113.309 130.709C112.765 134.003 111.566 136.635 108.785 138.617C108.62 138.734 108.452 138.846 108.281 138.953C108.11 139.061 107.936 139.163 107.759 139.261C107.583 139.358 107.403 139.451 107.221 139.538C107.04 139.626 106.855 139.708 106.669 139.785C106.483 139.862 106.294 139.934 106.104 140.001C105.913 140.067 105.721 140.128 105.528 140.184C105.334 140.24 105.138 140.29 104.942 140.335C104.745 140.38 104.548 140.419 104.349 140.453C102.851 140.711 101.305 140.663 99.7899 140.662L94.6818 140.652L88.6382 140.643C86.7666 140.639 84.8838 140.685 83.032 140.364C81.9155 140.171 80.8876 139.741 79.8099 139.417C76.004 138.272 74.9315 137.971 72.2947 134.839C67.7664 134.617 63.1683 133.757 58.7414 132.798C57.0658 132.435 55.2815 131.718 53.58 131.596C52.4935 131.534 51.3784 131.57 50.289 131.562C42.8578 131.507 37.7976 131.866 31.1143 127.682C30.9368 127.568 30.7607 127.452 30.586 127.335C30.4114 127.217 30.2381 127.097 30.0663 126.975C29.8946 126.853 29.7244 126.728 29.5557 126.602C29.3868 126.476 29.2196 126.348 29.0541 126.217C28.8885 126.087 28.7244 125.955 28.562 125.82C28.3996 125.686 28.2389 125.549 28.0798 125.411C27.9206 125.273 27.7632 125.132 27.6076 124.99C27.4519 124.848 27.298 124.704 27.1458 124.558C26.9936 124.412 26.8433 124.264 26.6948 124.114C26.5461 123.964 26.3994 123.813 26.2545 123.66C26.1096 123.506 25.9667 123.351 25.8255 123.194C25.6844 123.037 25.5453 122.879 25.4081 122.719C25.2707 122.559 25.1354 122.397 25.0021 122.233C24.8688 122.069 24.7375 121.904 24.6082 121.737C24.4789 121.571 24.3516 121.402 24.2265 121.232C24.1013 121.062 23.9782 120.891 23.8571 120.718C23.736 120.545 23.6171 120.37 23.5003 120.195C23.3835 120.019 23.2689 119.841 23.1564 119.663C23.044 119.484 22.9337 119.304 22.8256 119.123C22.7175 118.941 22.6116 118.758 22.5079 118.574C22.4043 118.39 22.3028 118.205 22.2036 118.019C22.1046 117.832 22.0077 117.645 21.913 117.456C21.8185 117.267 21.7263 117.077 21.6363 116.885C21.5463 116.694 21.4586 116.502 21.3733 116.309C21.288 116.115 21.2051 115.921 21.1247 115.726C21.0441 115.53 20.9659 115.334 20.8901 115.137C20.8143 114.939 20.7409 114.741 20.67 114.542C20.599 114.343 20.5305 114.143 20.4644 113.943C20.3983 113.742 20.3346 113.54 20.2734 113.338C20.2122 113.136 20.1535 112.933 20.0972 112.729C20.0409 112.525 19.9872 112.321 19.9359 112.116C19.8845 111.91 19.8357 111.705 19.7895 111.498C18.8639 107.486 19.1934 102.33 19.19 98.1787L19.1823 80.8887L19.1648 69.8159C19.1674 67.1602 19.0814 64.4802 19.4563 61.844C19.514 61.4233 19.5828 61.0044 19.6626 60.5872C19.7423 60.1701 19.8329 59.7554 19.9344 59.3431C20.0357 58.9307 20.1478 58.5213 20.2707 58.1149C20.3935 57.7086 20.5269 57.3057 20.6709 56.9063C20.8148 56.507 20.9691 56.1118 21.1337 55.7205C21.2984 55.3293 21.4731 54.9427 21.6579 54.5608C21.8427 54.1788 22.0374 53.802 22.242 53.4304C22.4466 53.0588 22.6607 52.6928 22.8845 52.3325C26.7417 46.165 32.4608 42.0178 39.5565 40.4094C39.814 39.466 42.3888 37.0885 43.2686 36.5185Z" fill="#101F26"/>
<path d="M76.731 113.76C76.8585 113.988 76.9753 114.284 77.0101 114.545C77.1344 115.477 75.9491 116.722 75.4172 117.435L75.3093 117.545C75.2888 117.402 76.5652 114.259 76.731 113.76Z" fill="white"/>
<path d="M39.5566 40.4095C39.8142 39.4661 42.389 37.0885 43.2688 36.5186L43.2443 39.8383C41.9977 39.9572 40.7642 40.0585 39.5566 40.4095Z" fill="white"/>
<path d="M45.6846 35.3008C47.6711 35.34 49.6576 35.3412 51.6443 35.3042L51.6191 39.8242C51.0059 39.9385 50.2673 39.8643 49.6377 39.8626L45.6943 39.8529C45.7077 38.3355 45.7044 36.8181 45.6846 35.3008Z" fill="#FEFEFE"/>
<path d="M100.917 120.585C103.804 120.614 106.362 121.115 108.486 123.238C110.174 124.926 111.078 127.302 111.067 129.683C111.057 132 110.16 134.103 108.52 135.73C108.377 135.872 108.23 136.008 108.078 136.14C107.926 136.271 107.77 136.397 107.61 136.518C107.45 136.639 107.286 136.755 107.118 136.865C106.95 136.975 106.778 137.079 106.604 137.177C106.429 137.276 106.251 137.368 106.07 137.454C105.889 137.541 105.705 137.621 105.519 137.695C105.332 137.769 105.144 137.836 104.953 137.898C104.762 137.959 104.569 138.014 104.375 138.062C102.256 138.589 99.4423 138.352 97.236 138.351L87.14 138.33L86.8815 138.323L86.8267 138.221C87.1135 137.865 87.5889 137.627 87.9704 137.379C91.5014 137.191 95.0974 137.314 98.6357 137.315C100.364 137.316 102.249 137.467 103.948 137.115C105.227 136.851 106.41 136.311 107.367 135.408C109.012 133.856 109.982 132.04 110.032 129.737C110.078 127.605 109.305 125.462 107.814 123.932C105.626 121.688 103.198 121.559 100.27 121.529C100.524 121.233 100.716 120.918 100.917 120.585Z" fill="#FEFEFE"/>
<path d="M48.4683 21.4536C49.355 21.4688 50.1895 21.7896 50.8131 22.4366C51.1727 22.8096 51.4397 23.2686 51.5441 23.7799C51.7594 24.8338 51.645 26.0586 51.6428 27.1338L51.6245 32.9614L49.0358 32.9652L45.6355 32.9626L45.6209 27.4561C45.6119 26.4411 45.5059 25.3433 45.6326 24.3381C45.7023 23.7859 45.8665 23.2514 46.1821 22.7893C46.734 21.9811 47.55 21.6449 48.4683 21.4536Z" fill="#FEFEFE"/>
<path d="M53.5801 131.596C54.9957 131.463 56.3992 131.357 57.7962 131.072C62.8365 130.045 67.3673 127.356 70.9577 123.698C69.7601 126.835 69.694 129.624 71.0882 132.728C71.423 133.47 71.8252 134.174 72.2948 134.839C67.7665 134.617 63.1683 133.757 58.7414 132.798C57.0658 132.435 55.2815 131.718 53.5801 131.596Z" fill="white"/>
<path d="M118.207 39.4587C119.255 39.3594 120.351 39.4355 121.401 39.4837C120.08 40.861 118.693 42.1856 117.345 43.5378L104.943 55.9515C104.388 56.496 103.862 57.0601 103.339 57.6346C103.339 52.8987 103.549 48.1318 106.888 44.4039C109.797 41.157 113.946 39.6817 118.207 39.4587Z" fill="white"/>
<path d="M123.155 41.0356C123.26 41.1345 123.274 41.2376 123.281 41.3793C123.49 46.009 122.825 50.7381 119.635 54.3116C118.619 55.4488 117.395 56.3707 116.064 57.1025C112.514 59.055 109.247 59.102 105.336 59.3022C105.292 59.2635 105.277 59.2001 105.25 59.1475C105.709 58.3242 107.898 56.3104 108.716 55.4662C111.608 52.4808 114.565 49.5703 117.504 46.6324C119.371 44.7658 121.196 42.8033 123.155 41.0356Z" fill="white"/>
<path d="M98.402 123.758C98.4779 123.757 98.5539 123.756 98.6299 123.756C101.292 123.762 104.275 123.507 106.293 125.594C107.301 126.637 107.801 128.01 107.776 129.455C107.775 129.55 107.771 129.645 107.765 129.739C107.759 129.834 107.751 129.929 107.74 130.023C107.73 130.117 107.717 130.211 107.702 130.305C107.687 130.399 107.669 130.492 107.65 130.585C107.63 130.678 107.608 130.77 107.584 130.862C107.56 130.953 107.533 131.044 107.504 131.135C107.476 131.225 107.445 131.315 107.412 131.404C107.379 131.493 107.343 131.581 107.306 131.668C107.269 131.755 107.229 131.841 107.188 131.926C107.146 132.012 107.102 132.096 107.057 132.179C107.011 132.262 106.963 132.344 106.913 132.424C106.864 132.505 106.812 132.584 106.758 132.663C106.705 132.741 106.649 132.817 106.592 132.893C106.534 132.968 106.475 133.042 106.414 133.114C106.353 133.187 106.29 133.258 106.226 133.327C106.161 133.396 106.095 133.464 106.028 133.53C104.229 135.273 101.933 135.077 99.6188 135.052C96.4434 135.001 93.2593 135.062 90.0835 135.09C91.313 133.137 92.8129 131.327 94.1845 129.472C95.5825 127.582 96.9136 125.575 98.402 123.758Z" fill="#FEFEFE"/>
<path d="M125.169 48.1213C128.418 52.47 131.38 60.0924 132.615 65.3917C132.986 67.0294 133.29 68.6796 133.527 70.3423C133.763 72.0051 133.932 73.6747 134.032 75.3514C134.126 76.8697 134.326 78.6133 134.108 80.1218C134.08 80.3071 134.048 80.4916 134.01 80.6751C132.449 77.4378 130.452 74.6471 127.521 72.5204C123.018 69.253 116.87 68.03 111.404 68.7434C108.914 69.0683 106.49 69.7562 104.013 70.1599C103.813 67.1187 103.287 64.3545 102.427 61.4295C107.511 61.9843 113.482 61.4073 117.899 58.6782C121.672 56.347 124.158 52.4022 125.169 48.1213Z" fill="white"/>
<path d="M94.3413 100.134C96.4988 99.8325 98.8965 100.518 100.636 101.813C102.547 103.235 103.843 105.582 104.172 107.937C104.198 108.138 104.218 108.339 104.23 108.541C104.243 108.743 104.248 108.945 104.247 109.147C104.246 109.349 104.237 109.551 104.222 109.753C104.207 109.954 104.186 110.155 104.157 110.355C104.128 110.555 104.093 110.754 104.051 110.952C104.008 111.15 103.96 111.346 103.904 111.54C103.848 111.735 103.786 111.927 103.717 112.117C103.649 112.307 103.574 112.495 103.492 112.679C102.962 113.856 102.131 114.896 101.393 115.949C99.7265 118.329 97.9795 120.622 96.2312 122.941C93.6184 126.406 91.1056 129.955 88.483 133.412C86.7569 135.688 85.0668 136.803 82.2155 137.187C80.0887 137.302 77.9345 136.794 76.1695 135.564C74.2004 134.191 72.8142 131.929 72.3965 129.565C72.007 127.361 72.4589 125.001 73.7487 123.167C75.1037 121.239 76.6002 119.379 78.0374 117.511C79.615 115.459 81.1634 113.372 82.7122 111.298L86.6788 105.962C87.666 104.633 88.6298 103.085 89.8917 102.009C91.1381 100.946 92.7534 100.401 94.3413 100.134Z" fill="#FEFEFE"/>
<path d="M94.8247 101.086C94.8309 101.086 94.8369 101.085 94.8431 101.084C96.8959 100.976 98.8557 101.573 100.433 102.916C100.535 103.001 100.634 103.089 100.731 103.179C100.828 103.269 100.923 103.362 101.015 103.457C101.108 103.552 101.198 103.649 101.286 103.749C101.373 103.848 101.459 103.95 101.541 104.054C101.624 104.157 101.704 104.263 101.782 104.371C101.859 104.479 101.934 104.588 102.006 104.7C102.078 104.811 102.147 104.924 102.214 105.039C102.28 105.154 102.344 105.271 102.405 105.389C102.465 105.507 102.523 105.626 102.578 105.747C102.633 105.868 102.685 105.99 102.734 106.114C102.783 106.238 102.828 106.362 102.871 106.488C102.914 106.614 102.953 106.741 102.99 106.869C103.026 106.996 103.059 107.125 103.089 107.254C103.12 107.384 103.147 107.514 103.17 107.645C103.194 107.775 103.214 107.907 103.232 108.039C103.249 108.17 103.263 108.303 103.274 108.435C103.359 109.548 103.224 110.988 102.744 112.001C101.888 113.809 100.551 115.475 99.3571 117.075L95.0128 122.857C93.02 125.54 91.0537 128.232 89.0281 130.891C88.3316 131.805 87.6883 132.778 86.9441 133.653C85.582 135.255 83.8249 135.984 81.761 136.135C79.7696 136.245 77.9069 135.69 76.3612 134.403C74.6658 132.992 73.4426 130.794 73.2389 128.581C73.1125 127.21 73.4464 125.852 74.08 124.64C74.7879 123.285 75.8025 122.124 76.7337 120.921C77.6349 119.745 78.5242 118.561 79.4018 117.368C81.8673 114.029 84.3605 110.712 86.8812 107.415C87.9188 106.048 88.8916 104.578 89.9949 103.268C91.1821 101.857 93.0539 101.241 94.8247 101.086Z" fill="#101F26"/>
<path d="M95.3416 103.236C96.522 103.1 97.9226 103.689 98.849 104.391C98.9249 104.449 98.9993 104.508 99.0723 104.568C99.1453 104.629 99.2168 104.692 99.2867 104.756C99.3565 104.821 99.4248 104.887 99.4915 104.954C99.5581 105.022 99.623 105.092 99.6862 105.163C99.7494 105.234 99.8108 105.307 99.8704 105.381C99.93 105.455 99.9878 105.53 100.044 105.607C100.1 105.684 100.153 105.763 100.206 105.842C100.257 105.922 100.307 106.003 100.356 106.085C100.404 106.168 100.449 106.251 100.493 106.335C100.537 106.42 100.579 106.505 100.619 106.592C100.658 106.679 100.696 106.766 100.731 106.855C100.766 106.943 100.799 107.032 100.83 107.123C100.861 107.213 100.89 107.303 100.917 107.395C100.943 107.486 100.967 107.579 100.989 107.671C101.011 107.764 101.03 107.857 101.048 107.951C101.065 108.045 101.08 108.139 101.092 108.233C101.23 109.3 101.064 110.34 100.64 111.325C100.069 112.649 99.0623 113.767 98.2126 114.916C96.7745 116.853 95.3175 118.776 93.8419 120.685C93.2326 120.18 92.6064 119.722 91.9531 119.276C89.4579 117.554 86.9841 115.801 84.5317 114.018C86.7853 111.384 88.6778 108.415 90.8128 105.683C92.0845 104.057 93.316 103.484 95.3416 103.236Z" fill="#FEFEFE"/>
<path d="M83.2139 115.805C83.9859 116.079 84.9024 116.922 85.5832 117.407C87.9121 119.066 90.1834 120.835 92.5921 122.374C91.1711 124.367 89.7135 126.324 88.2472 128.284C87.0175 129.927 85.8476 132 84.1429 133.17C83.4943 133.521 82.8268 133.797 82.0988 133.926C80.681 134.177 79.266 133.791 78.1043 132.959C76.8027 132.028 75.9749 130.602 75.7307 129.023C75.708 128.881 75.6904 128.738 75.6778 128.595C75.6651 128.451 75.6576 128.308 75.6552 128.164C75.6527 128.02 75.6553 127.876 75.6631 127.732C75.6709 127.588 75.6836 127.445 75.7015 127.302C75.7194 127.16 75.7423 127.018 75.7703 126.877C75.7981 126.735 75.831 126.595 75.8689 126.456C75.9067 126.318 75.9494 126.18 75.997 126.045C76.0445 125.909 76.0968 125.775 76.1539 125.643C76.814 124.117 78.6619 122.058 79.7081 120.66C80.9034 119.062 82.0418 117.42 83.2139 115.805Z" fill="#FEFEFE"/>
<path d="M54.0196 27.8868C63.3502 23.9312 72.0567 22.098 82.1933 22.8498C82.8748 22.8977 83.5551 22.959 84.2341 23.0334C84.9133 23.108 85.5907 23.1959 86.2664 23.297C86.9421 23.3981 87.6157 23.5124 88.287 23.6399C88.9583 23.7674 89.6268 23.908 90.2926 24.0617C90.9585 24.2155 91.6211 24.3822 92.2804 24.5618C92.9398 24.7414 93.5954 24.9339 94.2474 25.1393C94.8993 25.3447 95.547 25.5626 96.1905 25.7933C96.8339 26.0241 97.4726 26.2674 98.1067 26.5231C102.956 28.5043 107.144 30.7331 111.32 33.9425C111.962 34.4366 115.397 37.363 115.888 37.4015C111.742 38.1631 108.239 39.5585 105.335 42.7574C101.34 47.1579 100.781 52.579 101.019 58.2455C100.487 57.1846 99.8978 56.1789 99.1796 55.2332C97.0518 52.4319 94.1793 50.2182 90.6149 49.7551C90.0275 49.6788 89.27 49.643 88.7874 50.0504C88.5263 50.2709 88.2948 50.7097 88.3146 51.0581C88.3775 52.1574 90.9855 52.1118 91.7677 52.3895C92.9244 52.8003 93.9794 53.3658 94.9411 54.1323C99.8179 58.0196 101.121 64.3126 101.806 70.1834C99.1016 69.9904 96.1953 68.9021 93.2991 68.6547C88.9794 68.2856 84.1201 68.9862 80.3564 71.2424C79.4747 71.7707 78.6991 72.4153 77.9179 73.0789C77.7943 66.2924 78.606 60.6387 75.456 54.2627C75.1804 53.7049 74.8853 53.1578 74.5705 52.6212C74.2558 52.0848 73.9223 51.5604 73.5701 51.048C73.2181 50.5355 72.8481 50.0365 72.4603 49.5508C72.0725 49.0651 71.6679 48.594 71.2464 48.1374C66.8368 43.3278 60.5276 40.1972 54.0015 39.9381L54.0196 27.8868Z" fill="white"/>
<path d="M104.057 72.5373C106.356 72.1467 108.612 71.5194 110.912 71.1514C115.369 70.4381 120.106 71.0276 124.13 73.1362C128.461 75.406 131.209 79.2575 132.641 83.8773C135.612 93.4636 132.701 105.438 128.176 114.077C125.081 119.985 119.824 126.132 113.276 128.163C113.088 127.252 112.91 126.359 112.614 125.476C112.148 124.345 111.585 123.301 110.792 122.368C108.663 119.864 105.825 118.593 102.595 118.337C104.871 114.385 107.09 112.484 106.362 107.43C106.336 107.246 106.306 107.062 106.271 106.88C106.235 106.697 106.196 106.515 106.151 106.335C106.107 106.154 106.058 105.975 106.005 105.796C105.952 105.618 105.894 105.442 105.832 105.266C105.77 105.091 105.704 104.917 105.633 104.746C105.563 104.574 105.488 104.404 105.409 104.235C105.329 104.067 105.246 103.901 105.158 103.737C105.071 103.573 104.98 103.412 104.884 103.253C104.788 103.093 104.689 102.936 104.586 102.782C104.482 102.628 104.375 102.476 104.264 102.327C104.153 102.179 104.039 102.033 103.92 101.889C103.802 101.746 103.68 101.606 103.555 101.469C103.43 101.332 103.301 101.199 103.169 101.068C103.038 100.938 102.902 100.811 102.764 100.687C102.626 100.563 102.485 100.443 102.34 100.327C102.196 100.21 102.049 100.098 101.899 99.9884C101.754 99.8798 101.606 99.7749 101.456 99.6735C101.305 99.5722 101.152 99.4747 100.997 99.3809C100.842 99.2871 100.684 99.1973 100.525 99.1113C100.365 99.0253 100.203 98.9433 100.04 98.8653C99.8762 98.7874 99.7108 98.7135 99.5435 98.6436C99.3763 98.5738 99.2074 98.5082 99.0368 98.4468C98.8664 98.3853 98.6945 98.3281 98.5212 98.2752C98.3479 98.2222 98.1735 98.1735 97.9979 98.1292C97.8222 98.0849 97.6456 98.0449 97.4681 98.0092C97.2904 97.9736 97.1121 97.9425 96.933 97.9157C96.7538 97.8889 96.5741 97.8665 96.3939 97.8486C96.2136 97.8308 96.0331 97.8174 95.8523 97.8083C95.6713 97.7994 95.4903 97.7949 95.3093 97.7949C95.1282 97.7949 94.9472 97.7993 94.7662 97.8081C94.5854 97.8171 94.4049 97.8305 94.2246 97.8484C94.0444 97.8662 93.8647 97.8885 93.6856 97.9152C92.0824 98.1647 90.3845 98.8323 89.0872 99.82C86.9436 101.452 85.4967 103.914 83.8988 106.047C82.2518 108.247 80.5997 110.435 78.9854 112.66C78.7532 111.247 78.033 109.873 77.8946 108.507C77.7885 107.456 77.873 106.324 77.8681 105.265L77.8487 98.1357L77.9105 76.0581C80.9913 72.5668 85.5688 71.1491 90.0717 70.8756C94.0892 70.767 97.8455 71.8761 101.778 72.4826C101.8 73.6091 101.392 76.5023 102.125 77.3105C102.321 77.5262 102.58 77.6264 102.866 77.6367C103.157 77.6471 103.441 77.5594 103.649 77.3486C104.344 76.6431 104.068 73.5873 104.057 72.5373Z" fill="white"/>
<path d="M44.1083 42.2178L47.1986 42.187C49.8887 42.1687 52.6578 42.0503 55.3324 42.3409C60.3014 42.8807 65.3059 45.3409 68.8371 48.8713C73.2938 53.3267 75.6691 59.3421 75.693 65.6344L75.6896 93.895L75.6941 102.206C75.6944 105.092 75.8201 108.101 75.1932 110.934C75.1338 111.202 75.0698 111.468 75.0012 111.733C74.9327 111.998 74.8596 112.262 74.7819 112.525C74.7041 112.788 74.6219 113.049 74.5351 113.308C74.4483 113.568 74.3571 113.826 74.2615 114.083C74.1658 114.339 74.0657 114.594 73.9613 114.847C73.8567 115.1 73.7479 115.352 73.6347 115.601C73.5215 115.85 73.404 116.097 73.2823 116.342C73.1605 116.587 73.0345 116.83 72.9044 117.071C72.7742 117.312 72.64 117.55 72.5016 117.786C72.3633 118.022 72.2208 118.256 72.0742 118.487C71.9277 118.718 71.7773 118.946 71.623 119.172C71.4686 119.398 71.3104 119.621 71.1483 119.841C70.9861 120.062 70.8202 120.279 70.6507 120.493C70.4811 120.708 70.3078 120.919 70.1308 121.128C69.9539 121.336 69.7734 121.541 69.5893 121.743C69.4052 121.945 69.2177 122.144 69.0268 122.34C64.835 126.556 59.1714 129.253 53.1984 129.235C43.8896 129.225 36.7114 130.12 29.1872 123.307C29.045 123.178 28.9043 123.048 28.7653 122.916C28.6264 122.785 28.489 122.651 28.3533 122.516C28.2174 122.381 28.0834 122.244 27.951 122.105C27.8186 121.966 27.6879 121.826 27.5589 121.684C27.43 121.543 27.3028 121.399 27.1774 121.254C27.0519 121.109 26.9283 120.963 26.8065 120.815C26.6846 120.667 26.5645 120.517 26.4464 120.366C26.3282 120.215 26.2119 120.063 26.0974 119.909C25.983 119.755 25.8705 119.6 25.7599 119.443C25.6491 119.287 25.5404 119.128 25.4336 118.969C25.3269 118.81 25.2221 118.649 25.1192 118.487C25.0164 118.325 24.9156 118.162 24.8168 117.997C24.718 117.833 24.6212 117.667 24.5264 117.5C24.4317 117.334 24.339 117.166 24.2483 116.997C24.1577 116.827 24.0691 116.657 23.9825 116.486C23.8961 116.314 23.8118 116.142 23.7295 115.969C23.6473 115.795 23.5672 115.621 23.4892 115.445C23.4112 115.27 23.3354 115.093 23.2616 114.916C23.188 114.739 23.1165 114.561 23.0472 114.382C22.9779 114.203 22.9109 114.023 22.846 113.842C22.7812 113.661 22.7186 113.48 22.6582 113.297C22.5977 113.115 22.5394 112.932 22.4835 112.748C22.4276 112.565 22.3739 112.38 22.3225 112.195C22.2712 112.01 22.222 111.825 22.1751 111.638C22.1283 111.452 22.0837 111.265 22.0414 111.078C21.9991 110.89 21.9592 110.703 21.9215 110.514C21.8838 110.326 21.8484 110.137 21.8153 109.948C21.7823 109.759 21.7516 109.569 21.7232 109.379C21.6948 109.189 21.6687 108.999 21.6449 108.808C21.6212 108.617 21.5998 108.426 21.5807 108.235C21.5617 108.044 21.5449 107.853 21.5306 107.661C21.5163 107.469 21.5043 107.278 21.4946 107.086C21.3396 103.868 21.4792 100.57 21.4992 97.3466L21.5074 83.1261L21.498 71.8312C21.4866 68.0333 21.2722 64.1515 22.0987 60.4198C22.155 60.1733 22.2153 59.9277 22.2796 59.683C22.3438 59.4384 22.412 59.195 22.4842 58.9527C22.5563 58.7103 22.6324 58.4692 22.7125 58.2294C22.7924 57.9895 22.8762 57.751 22.9638 57.5139C23.0515 57.2768 23.143 57.0412 23.2383 56.8071C23.3337 56.5729 23.4328 56.3404 23.5356 56.1095C23.6385 55.8786 23.745 55.6495 23.8553 55.4221C23.9656 55.1947 24.0795 54.9691 24.1971 54.7456C24.3147 54.5219 24.4358 54.3002 24.5605 54.0804C24.6853 53.8607 24.8136 53.6431 24.9454 53.4276C25.0772 53.2122 25.2124 52.9989 25.3511 52.7877C25.4898 52.5767 25.6319 52.368 25.7773 52.1616C25.9229 51.9552 26.0717 51.7512 26.2237 51.5496C26.3758 51.348 26.5311 51.149 26.6895 50.9526C26.8481 50.7561 27.0097 50.5623 27.1745 50.3711C27.3393 50.1799 27.5072 49.9915 27.6781 49.8058C27.809 49.6628 27.9417 49.5214 28.0762 49.3818C28.2107 49.242 28.3468 49.1039 28.4846 48.9676C28.6225 48.8313 28.7621 48.6968 28.9033 48.5639C29.0444 48.4311 29.1872 48.3 29.3316 48.1707C29.476 48.0414 29.622 47.9138 29.7694 47.7882C29.9171 47.6625 30.0661 47.5387 30.2167 47.4169C30.3673 47.2949 30.5194 47.1748 30.6729 47.0567C30.8263 46.9385 30.9813 46.8222 31.1377 46.7079C31.2941 46.5936 31.4519 46.4813 31.6111 46.3709C31.7703 46.2605 31.9308 46.1521 32.0927 46.0457C32.2544 45.9393 32.4175 45.8349 32.5819 45.7325C32.7463 45.6303 32.9119 45.53 33.0788 45.4318C33.2457 45.3336 33.4138 45.2374 33.583 45.1435C33.7523 45.0493 33.9227 44.9574 34.0941 44.8677C34.2657 44.7779 34.4383 44.6903 34.612 44.6048C34.7856 44.5193 34.9603 44.436 35.136 44.3548C35.3116 44.2737 35.4884 44.1947 35.6661 44.118C35.8437 44.0412 36.0223 43.9666 36.2017 43.8943C36.3812 43.822 36.5616 43.752 36.7429 43.6841C36.924 43.6163 37.1061 43.5507 37.289 43.4874C37.4717 43.4241 37.6553 43.3631 37.8397 43.3044C38.024 43.2457 38.209 43.1893 38.3947 43.1352C38.5804 43.081 38.7668 43.0292 38.9538 42.9797C39.1407 42.9302 39.3284 42.8831 39.5166 42.8384C39.7048 42.7935 39.8934 42.751 40.0826 42.711C40.2717 42.6708 40.4614 42.633 40.6516 42.5975C40.8417 42.5622 41.0322 42.5292 41.2232 42.4986C41.4142 42.4679 41.6055 42.4396 41.797 42.4137C41.9887 42.3877 42.1807 42.3642 42.3729 42.3431C42.5652 42.322 42.7576 42.3033 42.9503 42.287C43.1429 42.2707 43.3357 42.2567 43.5288 42.2452C43.7218 42.2337 43.915 42.2246 44.1083 42.2178Z" fill="#FEFEFE"/>
<path d="M42.0909 49.6856C45.3657 49.6732 48.6404 49.6786 51.9151 49.7016C53.0463 49.7111 54.6611 49.5059 55.7335 49.8302C56.0525 49.9268 56.3249 50.1024 56.4753 50.4104C56.602 50.67 56.5739 51.131 56.4388 51.3827C56.2554 51.724 55.996 51.8454 55.6509 51.9854C54.0007 52.0279 42.5524 52.1208 41.8344 51.8919C41.5763 51.8098 41.4402 51.6261 41.3243 51.3938C41.1773 51.0991 41.1229 50.7633 41.2453 50.4496C41.3986 50.0568 41.7291 49.8567 42.0909 49.6856Z" fill="#101F26"/>
<path d="M33.752 98.0649C33.8398 98.0561 33.9277 98.0492 34.0157 98.0443C34.1038 98.0394 34.192 98.0365 34.2803 98.0355C34.3684 98.0346 34.4566 98.0356 34.5448 98.0387C34.633 98.0417 34.721 98.0467 34.8089 98.0537C34.8969 98.0606 34.9846 98.0696 35.0721 98.0806C35.1596 98.0915 35.2469 98.1043 35.3339 98.1191C35.4209 98.1339 35.5075 98.1507 35.5937 98.1694C35.68 98.1882 35.7658 98.2089 35.851 98.2314C35.9363 98.254 36.0211 98.2785 36.1053 98.3049C36.1896 98.3313 36.2731 98.3595 36.356 98.3896C36.439 98.4198 36.5213 98.4518 36.6028 98.4856C36.6844 98.5195 36.7652 98.5551 36.8451 98.5925C36.925 98.63 37.0041 98.6692 37.0824 98.7103C37.1606 98.7513 37.2379 98.794 37.3141 98.8386C37.3905 98.883 37.4658 98.9291 37.54 98.977C37.6143 99.0248 37.6875 99.0743 37.7595 99.1255C37.8414 99.1831 37.9218 99.2427 38.0008 99.3042C38.0797 99.3658 38.157 99.4294 38.2328 99.4948C38.3087 99.5602 38.3829 99.6275 38.4554 99.6967C38.5279 99.7658 38.5986 99.8367 38.6676 99.9093C38.7367 99.982 38.8039 100.056 38.8692 100.132C38.9346 100.208 38.998 100.286 39.0596 100.365C39.1211 100.444 39.1806 100.525 39.2382 100.607C39.2957 100.689 39.3512 100.773 39.4046 100.857C39.458 100.942 39.5094 101.028 39.5586 101.116C39.6078 101.203 39.6548 101.292 39.6997 101.382C39.7445 101.471 39.7871 101.562 39.8274 101.654C39.8678 101.746 39.9059 101.839 39.9416 101.933C39.9775 102.027 40.0109 102.121 40.042 102.217C40.0731 102.312 40.1019 102.408 40.1283 102.505C40.1547 102.602 40.1786 102.699 40.2002 102.797C40.2218 102.896 40.241 102.994 40.2577 103.093C40.5369 104.708 40.2314 106.262 39.2748 107.598C38.177 109.131 36.7771 109.779 34.963 110.082C33.5104 110.139 32.1497 109.921 30.9296 109.072C30.8467 109.014 30.7653 108.953 30.6854 108.891C30.6055 108.828 30.5271 108.764 30.4503 108.697C30.3736 108.631 30.2985 108.563 30.2249 108.492C30.1515 108.422 30.0798 108.35 30.0099 108.277C29.94 108.203 29.8719 108.128 29.8056 108.051C29.7394 107.974 29.675 107.895 29.6126 107.815C29.5501 107.735 29.4897 107.653 29.4312 107.57C29.3729 107.487 29.3166 107.402 29.2622 107.316C29.2079 107.23 29.1557 107.143 29.1057 107.054C29.0557 106.966 29.0079 106.876 28.9622 106.785C28.9165 106.694 28.8731 106.602 28.8319 106.509C28.7907 106.416 28.7518 106.322 28.7153 106.227C28.6788 106.132 28.6445 106.037 28.6125 105.94C28.5807 105.843 28.5512 105.746 28.524 105.648C28.4968 105.55 28.4721 105.451 28.4497 105.352C28.4274 105.252 28.4076 105.152 28.3901 105.052C28.1202 103.434 28.5833 101.811 29.5347 100.494C30.5652 99.0675 32.0447 98.3254 33.752 98.0649Z" fill="#101F26"/>
<path d="M34.042 100.39C34.8229 100.329 35.6166 100.453 36.3026 100.848C36.3554 100.879 36.4075 100.911 36.4589 100.945C36.5102 100.979 36.5606 101.014 36.6103 101.05C36.6598 101.086 36.7085 101.123 36.7564 101.161C36.8041 101.2 36.8509 101.24 36.8968 101.281C36.9426 101.321 36.9873 101.363 37.031 101.406C37.0749 101.449 37.1176 101.494 37.1591 101.539C37.2008 101.584 37.2413 101.63 37.2807 101.677C37.32 101.724 37.3581 101.772 37.3951 101.822C37.4321 101.871 37.4679 101.921 37.5025 101.971C37.537 102.022 37.5703 102.074 37.6023 102.126C37.6344 102.179 37.6651 102.232 37.6944 102.286C37.7239 102.34 37.7519 102.395 37.7787 102.45C37.8054 102.505 37.8307 102.561 37.8547 102.618C37.8787 102.675 37.9013 102.732 37.9225 102.79C37.9437 102.847 37.9635 102.906 37.9818 102.964C38.0001 103.023 38.017 103.082 38.0324 103.142C38.2763 104.099 38.134 105.161 37.6108 106.002C37.0095 106.968 36.0699 107.526 34.9868 107.775C33.9182 107.821 32.9307 107.683 32.0366 107.036C31.9897 107.001 31.9437 106.965 31.8986 106.928C31.8534 106.891 31.8092 106.853 31.7661 106.814C31.7228 106.775 31.6805 106.735 31.6392 106.694C31.5979 106.653 31.5576 106.611 31.5185 106.567C31.4792 106.524 31.4411 106.48 31.4041 106.435C31.367 106.39 31.3311 106.344 31.2964 106.297C31.2615 106.25 31.2279 106.203 31.1955 106.154C31.1631 106.105 31.1319 106.056 31.1018 106.006C31.0718 105.956 31.0431 105.905 31.0157 105.854C30.9882 105.802 30.9619 105.75 30.9369 105.697C30.912 105.644 30.8885 105.591 30.8662 105.537C30.8438 105.483 30.8229 105.428 30.8034 105.373C30.7837 105.318 30.7655 105.263 30.7486 105.207C30.7317 105.151 30.7162 105.094 30.7022 105.038C30.688 104.981 30.6753 104.924 30.664 104.867C30.6527 104.809 30.6428 104.752 30.6343 104.694C30.4783 103.675 30.7979 102.583 31.4315 101.779C32.1109 100.917 32.9853 100.531 34.042 100.39Z" fill="white"/>
<path d="M62.6471 97.9829C64.0296 97.7743 65.6303 98.3067 66.734 99.1303C68.066 100.124 68.92 101.682 69.1452 103.326C69.3688 104.959 68.8642 106.627 67.8729 107.928C66.7982 109.338 65.2695 110.004 63.5521 110.23C63.4628 110.235 63.3734 110.238 63.284 110.239C63.1945 110.24 63.105 110.24 63.0155 110.237C62.9261 110.235 62.8368 110.23 62.7475 110.224C62.6582 110.217 62.5691 110.209 62.4802 110.199C62.3914 110.188 62.3027 110.176 62.2142 110.162C62.1259 110.148 62.0379 110.132 61.9502 110.114C61.8625 110.096 61.7752 110.076 61.6884 110.054C61.6016 110.032 61.5153 110.009 61.4295 109.983C61.3436 109.958 61.2584 109.93 61.1738 109.901C61.0891 109.872 61.0051 109.841 60.9217 109.808C60.8384 109.776 60.7558 109.741 60.6739 109.705C60.5921 109.668 60.5111 109.63 60.4309 109.59C60.3507 109.55 60.2713 109.509 60.1929 109.465C60.1145 109.422 60.037 109.377 59.9605 109.33C59.8841 109.284 59.8086 109.235 59.7342 109.186C59.6597 109.136 59.5864 109.084 59.5141 109.031C59.4333 108.97 59.354 108.908 59.2763 108.844C59.1986 108.779 59.1226 108.713 59.048 108.645C58.9735 108.577 58.9006 108.507 58.8295 108.435C58.7585 108.363 58.6892 108.29 58.6216 108.215C58.5542 108.14 58.4885 108.063 58.4247 107.985C58.3609 107.906 58.2991 107.827 58.2392 107.745C58.1793 107.664 58.1214 107.581 58.0656 107.497C58.0097 107.412 57.9559 107.327 57.9043 107.24C57.8526 107.153 57.803 107.065 57.7557 106.976C57.7083 106.886 57.6631 106.796 57.62 106.704C57.577 106.613 57.5362 106.52 57.4978 106.426C57.4593 106.333 57.4232 106.238 57.3894 106.143C57.3555 106.048 57.3239 105.952 57.2947 105.855C57.2655 105.758 57.2386 105.66 57.2142 105.562C57.1898 105.464 57.1677 105.365 57.1481 105.266C57.1285 105.167 57.1113 105.067 57.0966 104.967C57.0817 104.865 57.0694 104.764 57.0596 104.662C57.0497 104.56 57.0424 104.458 57.0375 104.356C57.0327 104.254 57.0305 104.151 57.0308 104.049C57.031 103.947 57.0338 103.844 57.039 103.742C57.0444 103.64 57.0522 103.538 57.0625 103.436C57.0729 103.334 57.0857 103.233 57.101 103.132C57.1163 103.03 57.1341 102.93 57.1544 102.829C57.1748 102.729 57.1976 102.629 57.2229 102.53C57.2482 102.431 57.2758 102.333 57.3058 102.235C57.3359 102.137 57.3685 102.04 57.4034 101.944C57.4382 101.848 57.4755 101.753 57.5151 101.658C57.5547 101.564 57.5966 101.471 57.6408 101.379C57.6849 101.286 57.7314 101.195 57.7801 101.106C57.8288 101.016 57.8796 100.927 57.9327 100.84C57.9858 100.752 58.041 100.666 58.0983 100.582C58.1556 100.497 58.215 100.414 58.2764 100.332C59.3742 98.877 60.8828 98.2175 62.6471 97.9829Z" fill="#101F26"/>
<path d="M62.7801 100.297C63.5918 100.245 64.387 100.39 65.0894 100.818C65.1425 100.851 65.1947 100.885 65.2461 100.921C65.2975 100.957 65.3479 100.993 65.3975 101.031C65.447 101.069 65.4956 101.109 65.5432 101.149C65.5908 101.19 65.6374 101.231 65.6829 101.274C65.7285 101.317 65.773 101.361 65.8163 101.406C65.8597 101.451 65.902 101.497 65.9431 101.545C65.984 101.592 66.0239 101.64 66.0626 101.689C66.1013 101.738 66.1387 101.789 66.1749 101.84C66.2111 101.891 66.246 101.943 66.2795 101.996C66.3132 102.048 66.3455 102.102 66.3765 102.156C66.4074 102.211 66.437 102.266 66.4652 102.322C66.4935 102.378 66.5203 102.435 66.5457 102.492C66.5711 102.549 66.5951 102.607 66.6176 102.666C66.6402 102.724 66.6612 102.783 66.6808 102.842C66.7004 102.902 66.7186 102.962 66.7352 103.022C66.7519 103.083 66.767 103.144 66.7806 103.205C66.7959 103.27 66.8095 103.335 66.8214 103.401C66.8333 103.467 66.8437 103.533 66.8523 103.599C66.8609 103.665 66.8679 103.732 66.8732 103.798C66.8785 103.865 66.8821 103.931 66.8842 103.998C66.8861 104.065 66.8864 104.132 66.8849 104.199C66.8835 104.265 66.8804 104.332 66.8756 104.399C66.871 104.465 66.8646 104.532 66.8565 104.598C66.8483 104.665 66.8386 104.731 66.8272 104.797C66.8158 104.862 66.8027 104.928 66.788 104.993C66.7732 105.058 66.7569 105.123 66.739 105.187C66.7211 105.252 66.7015 105.315 66.6802 105.379C66.6591 105.442 66.6364 105.505 66.6121 105.567C66.5878 105.629 66.5619 105.691 66.5345 105.752C66.507 105.812 66.4781 105.873 66.4477 105.932C66.4172 105.991 66.3853 106.05 66.352 106.108C66.3185 106.165 66.2837 106.222 66.2475 106.278C65.6009 107.261 64.7017 107.71 63.5921 107.95C62.7184 107.97 61.949 107.856 61.1776 107.41C61.1209 107.377 61.065 107.342 61.01 107.306C60.9551 107.27 60.9011 107.232 60.848 107.193C60.795 107.154 60.743 107.113 60.692 107.072C60.6409 107.03 60.5911 106.987 60.5423 106.943C60.4936 106.898 60.446 106.853 60.3995 106.806C60.353 106.759 60.3078 106.711 60.2637 106.662C60.2197 106.613 60.1771 106.563 60.1356 106.512C60.0942 106.461 60.054 106.408 60.0152 106.355C59.9764 106.301 59.939 106.247 59.9031 106.192C59.867 106.136 59.8324 106.08 59.7993 106.023C59.7662 105.966 59.7345 105.908 59.7043 105.85C59.6741 105.791 59.6455 105.731 59.6183 105.671C59.5911 105.611 59.5655 105.55 59.5414 105.489C59.5174 105.427 59.495 105.365 59.4741 105.302C59.4532 105.24 59.434 105.177 59.4164 105.113C59.3987 105.049 59.3827 104.985 59.3683 104.921C59.3542 104.859 59.3418 104.798 59.331 104.736C59.32 104.674 59.3106 104.612 59.3029 104.549C59.2951 104.487 59.2889 104.424 59.2842 104.362C59.2795 104.299 59.2764 104.236 59.275 104.173C59.2735 104.11 59.2736 104.047 59.2753 103.984C59.277 103.922 59.2803 103.859 59.2851 103.796C59.2899 103.733 59.2962 103.671 59.3042 103.608C59.3122 103.546 59.3218 103.484 59.3328 103.422C59.3439 103.36 59.3565 103.298 59.3707 103.237C59.3848 103.176 59.4006 103.115 59.4179 103.055C59.4352 102.994 59.4539 102.934 59.4741 102.874C59.4943 102.815 59.5161 102.756 59.5394 102.698C59.5625 102.639 59.5872 102.582 59.6133 102.524C59.6395 102.467 59.667 102.411 59.6959 102.355C59.7249 102.299 59.7552 102.244 59.787 102.19C59.8187 102.136 59.8518 102.082 59.8861 102.03C60.5736 100.979 61.6023 100.539 62.7801 100.297Z" fill="white"/>
<path d="M48.4571 110.81C49.9909 110.847 51.4016 111.215 52.6549 112.134C54.0551 113.161 55.123 114.789 55.3776 116.525C55.3929 116.637 55.4055 116.75 55.4155 116.863C55.4254 116.975 55.4325 117.088 55.4369 117.202C55.4413 117.315 55.443 117.428 55.4419 117.541C55.4407 117.654 55.4368 117.768 55.4302 117.881C55.4236 117.994 55.4142 118.107 55.4021 118.219C55.39 118.332 55.3752 118.444 55.3578 118.556C55.3402 118.668 55.3199 118.779 55.297 118.89C55.274 119.001 55.2484 119.111 55.2201 119.221C55.1918 119.33 55.1608 119.439 55.1271 119.547C55.0936 119.655 55.0574 119.763 55.0185 119.869C54.9797 119.975 54.9383 120.081 54.8944 120.185C54.8504 120.289 54.804 120.392 54.755 120.494C54.706 120.596 54.6547 120.697 54.6009 120.797C54.547 120.896 54.4908 120.994 54.4322 121.091C54.3735 121.188 54.3126 121.283 54.2493 121.377C54.1861 121.47 54.1206 121.562 54.0529 121.653C52.8294 123.268 51.2283 124.034 49.2671 124.308C47.5076 124.394 45.8163 123.964 44.4302 122.837C43.0845 121.743 42.2555 120.096 42.0798 118.373C41.8909 116.523 42.5524 114.614 43.73 113.194C44.9726 111.695 46.5488 110.977 48.4571 110.81Z" fill="#101F26"/>
<path d="M47.9439 113.202C48.8578 113.149 49.6751 113.184 50.5191 113.577C51.6337 114.098 52.5351 115.144 52.9179 116.317C53.2901 117.459 53.1461 118.73 52.5785 119.783C51.9514 120.945 50.9424 121.564 49.7165 121.924C49.6504 121.942 49.5839 121.958 49.517 121.973C49.45 121.987 49.3828 122 49.3153 122.011C49.2477 122.023 49.1799 122.032 49.1119 122.04C49.044 122.048 48.9758 122.054 48.9074 122.059C48.8391 122.064 48.7708 122.067 48.7024 122.068C48.6339 122.069 48.5655 122.069 48.4971 122.067C48.4286 122.065 48.3602 122.061 48.292 122.056C48.2237 122.051 48.1556 122.044 48.0877 122.035C48.0198 122.027 47.9521 122.016 47.8848 122.004C47.8173 121.992 47.7502 121.979 47.6834 121.964C47.6166 121.948 47.5503 121.932 47.4844 121.913C47.4184 121.895 47.3529 121.875 47.2878 121.853C47.2229 121.832 47.1585 121.808 47.0947 121.784C47.0307 121.759 46.9674 121.733 46.9048 121.705C46.8422 121.677 46.7803 121.648 46.7191 121.617C46.6579 121.586 46.5975 121.554 46.5378 121.52C46.4765 121.485 46.4161 121.448 46.3566 121.41C46.2971 121.372 46.2386 121.332 46.1811 121.291C46.1234 121.25 46.0669 121.208 46.0114 121.164C45.9559 121.12 45.9015 121.075 45.848 121.029C45.7947 120.982 45.7426 120.935 45.6915 120.886C45.6406 120.837 45.5908 120.787 45.5422 120.735C45.4937 120.684 45.4464 120.631 45.4002 120.577C45.3542 120.523 45.3096 120.469 45.2663 120.413C45.223 120.357 45.1809 120.3 45.1403 120.242C45.0998 120.184 45.0606 120.125 45.0228 120.065C44.9852 120.005 44.9489 119.944 44.9141 119.882C44.8793 119.821 44.846 119.758 44.8143 119.695C44.7825 119.631 44.7523 119.567 44.7237 119.502C44.6951 119.438 44.6681 119.372 44.6427 119.306C44.6172 119.24 44.5934 119.173 44.5711 119.106C44.5489 119.038 44.5284 118.97 44.5095 118.902C44.4887 118.829 44.4697 118.756 44.4526 118.682C44.4355 118.607 44.4202 118.533 44.4069 118.458C44.3935 118.383 44.382 118.308 44.3723 118.233C44.3627 118.157 44.355 118.082 44.3492 118.006C44.3432 117.93 44.3392 117.854 44.3372 117.778C44.3351 117.702 44.3349 117.626 44.3365 117.55C44.3382 117.474 44.3418 117.398 44.3473 117.323C44.3529 117.247 44.3603 117.171 44.3695 117.096C44.3788 117.02 44.3899 116.945 44.4029 116.87C44.416 116.795 44.4308 116.721 44.4475 116.647C44.4642 116.573 44.4828 116.499 44.5031 116.426C44.5235 116.352 44.5458 116.28 44.5697 116.208C44.5938 116.136 44.6196 116.064 44.6471 115.993C44.6748 115.923 44.7041 115.853 44.7351 115.783C44.7662 115.714 44.799 115.646 44.8336 115.578C44.8681 115.51 44.9042 115.444 44.942 115.378C45.6237 114.179 46.664 113.569 47.9439 113.202Z" fill="white"/>
<path d="M30.3609 57.428C32.4723 57.3037 34.6407 57.4091 36.7584 57.4111L48.7977 57.4096L60.3379 57.4035C62.4239 57.3982 64.5739 57.2868 66.6538 57.4166C67.1913 57.4502 67.7038 57.5678 68.1576 57.8714C68.8196 58.3144 69.2218 58.8749 69.3874 59.648C69.7169 61.1858 69.5301 62.9939 69.533 64.5729L69.5475 73.1521L69.552 83.9266C69.5525 85.8121 69.6544 87.7653 69.522 89.6424C69.4816 90.2162 69.3992 90.806 69.0686 91.2909C68.5884 91.9952 67.8646 92.3646 67.0531 92.5392C65.2922 92.7082 63.431 92.6012 61.6604 92.6055L51.1565 92.6061L37.366 92.5893C35.2327 92.5891 33.0624 92.7008 30.9345 92.6099C30.373 92.586 29.858 92.5094 29.3557 92.2353C28.7036 91.8797 28.1793 91.2591 27.9613 90.5453C27.6269 89.4505 27.8135 79.7146 27.8098 77.7201L27.755 66.7098C27.7491 64.802 27.6995 62.8784 27.7767 60.9731C27.8039 60.3005 27.8223 59.6637 28.1476 59.0589C28.6281 58.1658 29.4177 57.6967 30.3609 57.428Z" fill="#101F26"/>
<path d="M30.8982 59.6757C33.4221 59.5874 35.9744 59.6733 38.5012 59.6752L53.1615 59.6611L61.9548 59.6447C63.4261 59.6435 65.0291 59.5118 66.4797 59.7053C66.71 59.7361 67.0272 59.736 67.1503 59.9656C67.2963 60.238 67.314 60.6213 67.3217 60.9233C67.3875 63.4945 67.4726 89.2921 67.1731 89.9254C67.0487 90.1883 66.6181 90.2938 66.3655 90.3685C59.1364 90.4759 51.8897 90.3785 44.6587 90.3727L36.1842 90.3656C34.6836 90.3666 33.1587 90.4322 31.6607 90.3594C31.2679 90.3403 30.4259 90.3241 30.1385 90.0533C30.0141 89.6743 29.994 89.2838 29.9832 88.8874C29.9153 86.3657 29.967 60.4843 30.1308 60.119C30.2469 59.8599 30.6545 59.7528 30.8982 59.6757Z" fill="#FEFEFE"/>
<path d="M48.2062 64.2124C48.7761 64.1802 49.0849 64.2639 49.5524 64.607C50.2019 65.084 50.7298 65.7322 51.2427 66.3488C53.433 68.983 55.2725 72.3186 55.805 75.7435C56.2211 78.4201 55.9879 81.2982 54.3426 83.5422C54.268 83.6424 54.1909 83.7406 54.1113 83.8369C54.0318 83.9332 53.95 84.0275 53.8659 84.1197C53.7817 84.212 53.6953 84.3022 53.6068 84.3902C53.5182 84.4782 53.4275 84.564 53.3347 84.6474C53.2419 84.7309 53.1472 84.8121 53.0505 84.8908C52.9537 84.9697 52.855 85.046 52.7544 85.1198C52.6539 85.1937 52.5517 85.2651 52.4477 85.3339C52.3437 85.4027 52.238 85.4688 52.1307 85.5324C52.0235 85.596 51.9148 85.6569 51.8045 85.715C51.6942 85.7732 51.5826 85.8287 51.4696 85.8813C51.3567 85.9339 51.2425 85.9837 51.1271 86.0308C51.0116 86.0777 50.895 86.1218 50.7774 86.163C50.6598 86.2042 50.5413 86.2424 50.4219 86.2776C50.3025 86.313 50.1822 86.3454 50.0611 86.3747C49.9401 86.404 49.8184 86.4303 49.696 86.4536C49.5737 86.4769 49.4508 86.4971 49.3275 86.5143C48.3521 86.5613 47.4298 86.5331 46.4921 86.2346C44.6629 85.6522 43.2468 84.3766 42.3693 82.6756C40.9338 79.8928 41.0657 76.4168 42.0048 73.4976C42.8372 70.9104 45.7017 65.4953 48.2062 64.2124Z" fill="#101F26"/>
<path d="M48.6278 66.6914C51.0943 69.1688 53.1194 72.9928 53.6052 76.4774C53.8744 78.4068 53.7087 80.605 52.4824 82.1989C51.5517 83.4088 50.2342 84.0754 48.7449 84.2758C47.523 84.2294 46.3839 83.9089 45.4563 83.0606C44.2351 81.9435 43.6428 80.169 43.5524 78.5466C43.3039 74.0837 45.7768 69.9034 48.6278 66.6914Z" fill="#FEFEFE"/>
<path d="M48.4665 73.4539C48.562 73.4912 48.5865 73.494 48.6775 73.5692C49.4975 74.2492 50.7592 76.5093 50.9392 77.5885C51.0524 78.2687 50.9579 78.9879 50.5477 79.5557C50.078 80.2061 49.3852 80.4009 48.6394 80.5313C48.0047 80.5004 47.3651 80.3209 46.857 79.9187C46.3856 79.5455 46.1142 78.9931 46.064 78.3952C45.9222 76.7027 47.4325 74.6627 48.4665 73.4539Z" fill="#101F26"/>
</g>
<defs>
<clipPath id="clip0_1003_1233">
<rect width="156" height="157" fill="white"/>
</clipPath>
</defs>
</svg>
