<svg width="71" height="71" viewBox="0 0 71 71" fill="none" xmlns="http://www.w3.org/2000/svg">
<g clip-path="url(#clip0_712_1045)">
<path d="M34.0486 25.7854C34.0069 21.9221 33.9966 18.0588 34.0179 14.1956C34.0077 12.5346 34.0059 10.8737 34.0125 9.21284C34.0139 8.3944 33.9746 7.55895 34.0251 6.74363C34.0385 6.52538 34.0475 6.2306 34.2004 6.0662C34.4144 5.83613 34.714 5.77915 35.0164 5.77283C35.4976 5.76273 36.3741 5.66066 36.7368 6.00491C36.8995 6.15943 36.973 6.37204 36.9967 6.59082C37.0598 7.17451 37.0169 7.80596 37.0181 8.39425L37.0212 11.8846L37.0156 22.8165C37.0199 23.808 36.9994 24.799 36.9543 25.7894L36.3879 25.7369L36.3805 12.4903L36.3745 8.71243C36.3783 7.95974 36.4223 7.19635 36.3811 6.44507C35.8263 6.37145 35.2069 6.40362 34.6486 6.43757C34.6042 8.08737 34.6487 9.74356 34.6542 11.3936L34.6465 18.5471L34.6444 23.3413C34.6439 24.0974 34.5804 24.9049 34.6489 25.6556L34.7099 25.7064L34.0486 25.7854Z" fill="black"/>
<path d="M5.75846 34.0552C6.47415 33.9878 7.22298 34.017 7.9421 34.0141L11.993 34.0142L21.141 34.0183C22.745 34.0345 24.3489 34.0342 25.9528 34.0172C25.9367 34.2218 25.9342 34.4426 25.8947 34.6431C24.3845 34.6449 6.29787 34.5775 6.02894 34.6801C5.74308 34.9804 5.86194 35.6485 5.85904 36.041C5.93162 36.1343 6.00168 36.2311 6.08347 36.3168C6.83913 36.3603 7.61003 36.3189 8.36769 36.3206L12.9895 36.3241L25.8904 36.3247C25.9187 36.5331 25.9404 36.7384 25.9525 36.9484L11.6144 36.9364L7.75838 36.9494C7.1406 36.9522 6.44258 37.0178 5.83475 36.9244C5.67652 36.9001 5.5373 36.7878 5.44333 36.6623C5.15613 36.2785 5.18532 35.315 5.26548 34.846C5.32974 34.4702 5.45477 34.278 5.75846 34.0552Z" fill="black"/>
<path d="M45.0645 34.023C45.1024 34.0496 45.1265 34.059 45.1733 34.0597C46.2712 34.0748 47.3742 34.0241 48.4736 34.0282L60.3469 34.034C61.0546 34.0297 64.8541 33.9478 65.1962 34.0727C65.4551 34.1672 65.589 34.494 65.6299 34.7446C65.6872 35.096 65.7121 36.4262 65.4982 36.6878C65.4092 36.7967 65.2757 36.8764 65.1551 36.9453C64.1438 37.016 63.0933 36.9465 62.0779 36.9374C60.5636 36.924 59.0482 36.9469 57.5338 36.9475L49.6881 36.9484C48.1448 36.9503 46.5952 36.9831 45.0525 36.9435C45.0775 36.7172 45.0887 36.4736 45.1424 36.2532L45.1607 36.2951C45.3001 36.3861 51.7181 36.3003 52.4213 36.2977L61.1251 36.2955L63.6491 36.3112C64.0483 36.3144 64.507 36.3697 64.8961 36.2965C64.9661 36.2377 64.993 36.217 65.0231 36.1275C65.0905 35.9269 65.0736 34.8869 64.974 34.6999C64.8448 34.6498 64.671 34.6542 64.5332 34.6524C63.3125 34.6368 62.0891 34.6772 60.868 34.6757L47.3497 34.6752C46.9989 34.6776 45.3889 34.615 45.1746 34.6962L45.1411 34.8216C45.0677 34.6228 45.0866 34.2474 45.0645 34.023Z" fill="black"/>
<path d="M33.9746 45.1013C34.2195 45.1569 34.4795 45.1336 34.716 45.1952C34.6909 47.2374 34.6819 49.2796 34.6887 51.3218L34.7223 64.872C35.2406 64.8605 35.759 64.8524 36.2774 64.8478L36.2854 53.4145C36.2796 50.6835 36.2181 47.9449 36.2992 45.215C36.527 45.1561 36.7805 45.1509 37.0151 45.1306C37.0104 49.2734 36.9684 53.4219 37.0092 57.5638L37.0187 62.48C37.02 63.3479 37.1013 64.3085 36.9759 65.1644C36.8424 65.3294 36.7045 65.4903 36.4839 65.5207C36.1405 65.568 34.4949 65.6082 34.2712 65.4189C34.121 65.2919 34.0355 65.0878 34.0164 64.8968C33.9523 64.2569 33.9856 63.59 33.9867 62.9471L34.0028 59.337L33.9826 50.9957C33.9852 49.0313 34.0337 47.0652 33.9746 45.1013Z" fill="black"/>
<path d="M34.716 45.1953C35.221 45.2972 35.7884 45.2599 36.2993 45.2151C36.2181 47.945 36.2796 50.6836 36.2854 53.4146L36.2774 64.8479C35.759 64.8525 35.2406 64.8606 34.7223 64.872L34.6887 51.3219C34.6819 49.2796 34.691 47.2374 34.716 45.1953Z" fill="#FEFEFE"/>
<path d="M45.1414 34.8214L45.1749 34.696C45.3892 34.6148 46.9992 34.6775 47.35 34.6751L60.8682 34.6755C62.0893 34.6771 63.3128 34.6367 64.5334 34.6523C64.6712 34.6541 64.8451 34.6497 64.9743 34.6997C65.0738 34.8867 65.0907 35.9268 65.0234 36.1273C64.9933 36.2169 64.9663 36.2376 64.8963 36.2964C64.5073 36.3695 64.0485 36.3143 63.6493 36.3111L61.1254 36.2954L52.4216 36.2976C51.7183 36.3001 45.3003 36.3859 45.161 36.2949L45.1426 36.253C45.179 35.7745 45.1706 35.3001 45.1414 34.8214Z" fill="#FEFEFE"/>
<path d="M5.859 36.041C5.86189 35.6485 5.74303 34.9804 6.02889 34.6801C6.29782 34.5775 24.3845 34.645 25.8946 34.6432C25.8425 35.1977 25.8193 35.7709 25.8904 36.3248L12.9894 36.3242L8.36765 36.3206C7.60998 36.3189 6.83909 36.3604 6.08342 36.3168C6.00163 36.2312 5.93158 36.1344 5.859 36.041Z" fill="#FEFEFE"/>
<path d="M34.6489 6.43749C35.2073 6.40354 35.8266 6.37137 36.3814 6.44499C36.4226 7.19627 36.3786 7.95966 36.3748 8.71235L36.3809 12.4902L36.3882 25.7368C35.8265 25.6754 35.2734 25.6814 34.7102 25.7063L34.6492 25.6555C34.5807 24.9048 34.6442 24.0973 34.6447 23.3413L34.6468 18.547L34.6545 11.3935C34.649 9.74348 34.6046 8.08729 34.6489 6.43749Z" fill="#FEFEFE"/>
<path d="M34.7101 25.7063C35.2733 25.6813 35.8264 25.6754 36.3882 25.7368L36.9545 25.7893C39.6795 26.303 41.8445 27.6044 43.4212 29.9219C44.2787 31.1822 44.796 32.5246 45.0648 34.023C45.0868 34.2474 45.068 34.6228 45.1413 34.8216C45.1706 35.3002 45.179 35.7747 45.1426 36.2532C45.089 36.4736 45.0777 36.7172 45.0527 36.9435C45.0411 37.0224 45.0285 37.1011 45.0149 37.1796C45.0013 37.2582 44.9867 37.3366 44.9712 37.4148C44.9557 37.493 44.9392 37.571 44.9218 37.6488C44.9043 37.7266 44.8859 37.8042 44.8665 37.8815C44.8471 37.9588 44.8268 38.0359 44.8055 38.1128C44.7842 38.1896 44.762 38.2662 44.7389 38.3425C44.7157 38.4187 44.6916 38.4947 44.6665 38.5704C44.6414 38.6461 44.6155 38.7215 44.5886 38.7965C44.5616 38.8716 44.5338 38.9463 44.505 39.0207C44.4762 39.095 44.4465 39.169 44.4159 39.2426C44.3853 39.3162 44.3538 39.3894 44.3214 39.4623C44.289 39.5352 44.2557 39.6076 44.2215 39.6796C44.1873 39.7517 44.1522 39.8232 44.1162 39.8944C44.0802 39.9655 44.0434 40.0362 44.0056 40.1065C43.9679 40.1767 43.9294 40.2464 43.8899 40.3157C43.8504 40.385 43.8101 40.4538 43.7689 40.5221C43.7278 40.5904 43.6858 40.6582 43.643 40.7254C43.6002 40.7927 43.5565 40.8594 43.5121 40.9256C43.4675 40.9917 43.4222 41.0573 43.3761 41.1224C43.33 41.1874 43.2831 41.2519 43.2354 41.3158C43.1877 41.3797 43.1392 41.443 43.0899 41.5056C43.0407 41.5683 42.9906 41.6304 42.9399 41.6918C42.8891 41.7533 42.8375 41.8141 42.7852 41.8743C42.7329 41.9345 42.6799 41.994 42.6261 42.0528C42.5723 42.1117 42.5178 42.1699 42.4626 42.2274C42.4074 42.2849 42.3514 42.3417 42.2948 42.3978C42.2382 42.454 42.1809 42.5094 42.1229 42.5641C42.0649 42.6188 42.0062 42.6728 41.9469 42.726C41.8875 42.7793 41.8275 42.8318 41.7669 42.8836C41.7062 42.9353 41.645 42.9864 41.5831 43.0366C41.5212 43.0869 41.4587 43.1364 41.3956 43.1851C41.3324 43.2338 41.2687 43.2817 41.2044 43.3289C41.0516 43.4451 40.8954 43.5566 40.7358 43.6632C40.5762 43.7699 40.4135 43.8716 40.2477 43.9683C40.0819 44.0651 39.9132 44.1567 39.7418 44.2432C39.5704 44.3297 39.3965 44.4108 39.2202 44.4867C39.0438 44.5625 38.8653 44.6329 38.6847 44.6979C38.504 44.7628 38.3216 44.8222 38.1373 44.876C37.953 44.9298 37.7672 44.9779 37.58 45.0204C37.3928 45.0629 37.2045 45.0996 37.015 45.1306C36.7804 45.1509 36.5269 45.1561 36.2992 45.215C35.7883 45.2599 35.2209 45.2971 34.7159 45.1952C34.4794 45.1336 34.2194 45.1569 33.9745 45.1013C33.7842 45.069 33.5951 45.0312 33.407 44.9878C33.219 44.9444 33.0324 44.8955 32.8472 44.8412C32.662 44.7868 32.4786 44.727 32.2969 44.6619C32.1152 44.5967 31.9356 44.5263 31.7581 44.4506C31.5806 44.3749 31.4054 44.294 31.2327 44.208C31.0599 44.122 30.8898 44.031 30.7224 43.935C30.5549 43.839 30.3905 43.7381 30.229 43.6325C30.0675 43.5268 29.9093 43.4165 29.7543 43.3015C27.8012 41.8714 26.3141 39.3398 25.9525 36.9483C25.9403 36.7384 25.9187 36.533 25.8904 36.3246C25.8193 35.7708 25.8424 35.1976 25.8946 34.6431C25.9341 34.4425 25.9366 34.2217 25.9527 34.0171C26.1381 32.7506 26.6172 31.4556 27.292 30.3729C28.5178 28.4061 30.2224 26.957 32.4371 26.2078C32.9642 26.0295 33.5075 25.911 34.0488 25.7853L34.7101 25.7063Z" fill="black"/>
<path d="M34.8879 26.5257C34.8983 26.5233 34.9086 26.5199 34.9192 26.5187C36.8813 26.2849 39.4807 27.2117 40.9812 28.4539C42.9252 30.0633 44.0552 32.2491 44.2753 34.7585C44.2817 34.8314 44.2872 34.9044 44.2918 34.9775C44.2964 35.0506 44.3001 35.1237 44.3029 35.1968C44.3057 35.27 44.3076 35.3431 44.3086 35.4163C44.3095 35.4895 44.3096 35.5627 44.3088 35.6359C44.3079 35.7091 44.3062 35.7823 44.3036 35.8555C44.3009 35.9286 44.2973 36.0017 44.2929 36.0748C44.2884 36.1478 44.2831 36.2208 44.2768 36.2938C44.2705 36.3667 44.2634 36.4396 44.2553 36.5123C44.2472 36.5851 44.2382 36.6577 44.2283 36.7302C44.2185 36.8028 44.2077 36.8752 44.196 36.9474C44.1843 37.0197 44.1717 37.0918 44.1583 37.1638C44.1448 37.2357 44.1305 37.3075 44.1153 37.3791C44.1 37.4507 44.0839 37.5221 44.0668 37.5933C44.0498 37.6645 44.0319 37.7355 44.0132 37.8062C43.9944 37.877 43.9747 37.9475 43.9542 38.0178C43.9337 38.0881 43.9123 38.1581 43.89 38.2278C43.8678 38.2975 43.8447 38.367 43.8207 38.4361C43.7967 38.5053 43.7718 38.5742 43.7462 38.6427C43.7205 38.7112 43.6939 38.7795 43.6666 38.8474C43.6392 38.9153 43.611 38.9828 43.5819 39.0499C43.5529 39.1172 43.523 39.184 43.4923 39.2505C43.4616 39.3169 43.43 39.3829 43.3977 39.4486C43.3653 39.5143 43.3322 39.5795 43.2982 39.6443C43.2643 39.7092 43.2295 39.7736 43.1939 39.8376C43.1583 39.9016 43.1219 39.9651 43.0848 40.0282C43.0477 40.0913 43.0098 40.1539 42.9711 40.2161C42.9324 40.2782 42.8929 40.3398 42.8527 40.401C42.8125 40.4621 42.7715 40.5228 42.7298 40.583C42.6881 40.6431 42.6456 40.7027 42.6024 40.7618C42.5592 40.8209 42.5152 40.8795 42.4706 40.9375C42.426 40.9955 42.3806 41.0529 42.3345 41.1097C42.2884 41.1667 42.2416 41.223 42.1942 41.2787C42.1473 41.3335 42.0997 41.3877 42.0514 41.4414C42.0032 41.495 41.9543 41.548 41.9048 41.6005C41.8553 41.653 41.8052 41.7049 41.7544 41.7561C41.7037 41.8074 41.6524 41.8581 41.6004 41.9081C41.5484 41.9581 41.4959 42.0076 41.4427 42.0563C41.3896 42.1051 41.3358 42.1533 41.2815 42.2007C41.2272 42.2482 41.1724 42.295 41.117 42.3412C41.0615 42.3874 41.0056 42.4329 40.949 42.4777C40.8925 42.5225 40.8354 42.5667 40.7778 42.6102C40.7203 42.6536 40.6622 42.6963 40.6036 42.7384C40.545 42.7805 40.4859 42.8218 40.4263 42.8624C40.3667 42.9031 40.3066 42.943 40.2461 42.9822C40.1855 43.0214 40.1245 43.0599 40.063 43.0976C40.0015 43.1354 39.9396 43.1724 39.8772 43.2086C39.8148 43.2449 39.752 43.2804 39.6888 43.3151C39.6256 43.3498 39.562 43.3838 39.4979 43.417C39.4339 43.4502 39.3695 43.4827 39.3047 43.5143C39.2399 43.546 39.1747 43.5769 39.1091 43.607C39.0435 43.6371 38.9776 43.6664 38.9114 43.6949C38.8451 43.7234 38.7785 43.7512 38.7116 43.7781C38.6447 43.805 38.5774 43.8311 38.5099 43.8564C38.4423 43.8817 38.3745 43.9062 38.3063 43.9299C38.2382 43.9536 38.1698 43.9764 38.1011 43.9985C38.0324 44.0205 37.9634 44.0417 37.8943 44.0621C37.8251 44.0825 37.7556 44.102 37.686 44.1207C37.6163 44.1395 37.5464 44.1573 37.4763 44.1744C37.4062 44.1914 37.3359 44.2076 37.2654 44.223C37.1949 44.2383 37.1243 44.2528 37.0535 44.2664C36.9826 44.2801 36.9116 44.2929 36.8405 44.3048C36.7694 44.3168 36.6981 44.3279 36.6267 44.3381C36.5553 44.3484 36.4837 44.3577 36.4121 44.3663C36.3405 44.3748 36.2687 44.3824 36.1969 44.3892C36.1769 44.3917 36.157 44.3949 36.137 44.3969C34.0893 44.603 31.7403 43.7967 30.1448 42.5303C28.3497 41.1054 27.0249 38.9602 26.7681 36.659C26.4845 34.1179 27.1719 31.7298 28.7715 29.7446C30.2876 27.863 32.503 26.7786 34.8879 26.5257Z" fill="#FEFEFE"/>
<path d="M35.6517 33.7925C35.8017 33.8178 35.9385 33.8486 36.0454 33.9653C36.2456 34.1835 36.209 34.5325 36.2018 34.8061C36.5144 34.7885 37.0285 34.691 37.3072 34.8684C37.4074 34.9321 37.4681 35.0089 37.4915 35.126C37.4125 35.5371 36.7935 35.7666 36.5043 36.0349C36.4937 36.0447 36.4834 36.0549 36.4729 36.0649C36.6094 36.4002 37.1768 37.1664 37.0738 37.5085C37.0414 37.6162 37.0077 37.6343 36.9209 37.6969C36.4484 37.7487 36.0228 37.0711 35.5747 36.9096C35.5606 36.9046 35.5464 36.8998 35.5322 36.8949C35.3829 37.0277 35.2488 37.1829 35.1112 37.3279C34.9669 37.4783 34.8059 37.6798 34.5971 37.7342C34.4866 37.7631 34.413 37.7505 34.3149 37.6967C34.1012 37.3649 34.4352 36.7896 34.4924 36.4356C34.3238 36.2287 33.8353 36.3945 33.5839 36.2214C33.4848 36.1532 33.4213 36.0221 33.4069 35.9052C33.393 35.7923 33.4223 35.7116 33.499 35.6296C33.7197 35.3937 34.2581 35.4068 34.5622 35.3853C34.428 35.1913 34.2583 34.9914 34.1593 34.7775C34.1048 34.6597 34.0615 34.5085 34.1237 34.3849C34.1686 34.2956 34.2306 34.2653 34.319 34.2303C34.603 34.2361 34.8154 34.4678 35.0374 34.624C35.2859 34.5765 35.2375 34.0246 35.6517 33.7925Z" fill="#FEFEFE"/>
<path d="M34.9232 36.2815C34.7868 36.0801 34.3002 36.154 34.0605 36.0803L34.0922 36.0064C34.138 35.9798 34.1388 35.9767 34.1968 35.9578C34.4743 35.8674 35.023 35.9693 35.2807 36.085C35.1562 36.1007 35.0636 36.0836 34.9836 36.1942C34.9679 36.2159 34.9589 36.2448 34.9498 36.2699L34.9232 36.2815Z" fill="black"/>
<path d="M35.2811 36.0852C35.1835 36.5625 34.9042 37.1683 34.5219 37.4817L34.4932 37.4636C34.5613 37.0977 34.7567 36.6182 34.9236 36.2816L34.9502 36.27C34.9593 36.245 34.9683 36.2161 34.984 36.1944C35.064 36.0838 35.1566 36.1009 35.2811 36.0852Z" fill="black"/>
<path d="M35.5125 36.0859C35.5691 36.0943 35.5718 36.0928 35.6331 36.111C35.9468 36.2038 36.7043 37.1953 36.8505 37.4956C36.7728 37.4683 36.701 37.4327 36.6357 37.3818C36.2923 37.1145 35.5642 36.5242 35.5125 36.0859Z" fill="black"/>
<path d="M35.5192 34.3423C35.6449 34.5411 35.6106 35.2886 35.6313 35.5655C36.0681 35.3264 36.5814 35.258 37.0641 35.155C36.653 35.5026 36.046 35.7892 35.4985 35.7687C34.9067 35.5947 34.5464 35.0092 34.2307 34.5168C34.6087 34.824 34.9955 35.0881 35.3388 35.4385C35.3839 35.0709 35.4216 34.7003 35.5192 34.3423Z" fill="black"/>
<path d="M18.5483 7.32301C21.2188 7.1907 23.9714 8.13974 26.0225 9.83835C28.5749 11.952 30.0408 14.6719 30.3525 17.971C30.3603 18.0637 30.3671 18.1564 30.3727 18.2491C30.3783 18.342 30.3827 18.4348 30.3861 18.5277C30.3894 18.6206 30.3916 18.7136 30.3927 18.8065C30.3938 18.8995 30.3938 18.9925 30.3926 19.0855C30.3913 19.1784 30.389 19.2714 30.3855 19.3643C30.382 19.4572 30.3775 19.5501 30.3718 19.6429C30.366 19.7356 30.3591 19.8283 30.3511 19.921C30.3431 20.0136 30.334 20.1061 30.3238 20.1986C30.3135 20.291 30.3021 20.3832 30.2896 20.4754C30.2771 20.5675 30.2635 20.6594 30.2487 20.7512C30.234 20.843 30.2181 20.9346 30.2011 21.0261C30.1841 21.1174 30.166 21.2086 30.1468 21.2996C30.1276 21.3906 30.1073 21.4813 30.0858 21.5717C30.0644 21.6622 30.0419 21.7524 30.0182 21.8423C29.9946 21.9322 29.9699 22.0218 29.944 22.1112C29.9182 22.2005 29.8913 22.2895 29.8633 22.3781C29.8353 22.4668 29.8062 22.5551 29.776 22.643C29.7459 22.731 29.7147 22.8186 29.6824 22.9058C29.6502 22.9929 29.6168 23.0797 29.5824 23.1661C29.548 23.2525 29.5125 23.3384 29.476 23.4239C29.4395 23.5094 29.402 23.5945 29.3634 23.679C29.3248 23.7636 29.2852 23.8477 29.2445 23.9313C29.2039 24.015 29.1622 24.0981 29.1196 24.1807C29.0769 24.2633 29.0333 24.3454 28.9886 24.4269C28.9439 24.5084 28.8983 24.5894 28.8516 24.6698C28.8049 24.7503 28.7573 24.8301 28.7087 24.9094C28.6601 24.9887 28.6105 25.0673 28.56 25.1454C28.5095 25.2234 28.458 25.3008 28.4056 25.3777C28.3532 25.4544 28.2999 25.5305 28.2456 25.606C28.1913 25.6815 28.1362 25.7564 28.0801 25.8305C28.024 25.9047 27.967 25.9781 27.9091 26.0509C27.8512 26.1236 27.7924 26.1956 27.7328 26.267C26.3516 27.9298 24.348 29.361 22.2558 29.9683C21.3975 30.2175 20.5039 30.3234 19.6168 30.4045C16.4966 30.458 13.9433 29.6825 11.5656 27.5917C11.4953 27.5296 11.4257 27.4666 11.3569 27.4029C11.288 27.3391 11.22 27.2745 11.1528 27.2091C11.0855 27.1437 11.0191 27.0774 10.9534 27.0104C10.8878 26.9433 10.823 26.8755 10.759 26.8069C10.695 26.7382 10.6319 26.6688 10.5696 26.5987C10.5073 26.5285 10.4458 26.4576 10.3852 26.386C10.3246 26.3143 10.2649 26.2419 10.2061 26.1688C10.1473 26.0957 10.0894 26.0219 10.0323 25.9474C9.97529 25.873 9.91918 25.7978 9.86396 25.7219C9.80874 25.646 9.75446 25.5695 9.70112 25.4923C9.64778 25.4151 9.59538 25.3373 9.54393 25.2588C9.49252 25.1803 9.44203 25.1013 9.39245 25.0216C9.34293 24.9419 9.29439 24.8616 9.24685 24.7807C9.19925 24.6999 9.15265 24.6184 9.10704 24.5364C9.06142 24.4544 9.01682 24.3719 8.97324 24.2888C8.92966 24.2057 8.88709 24.1221 8.84554 24.038C8.80399 23.9539 8.76345 23.8692 8.72393 23.7842C8.68441 23.6991 8.64592 23.6135 8.60848 23.5274C8.57109 23.4414 8.53474 23.3549 8.49943 23.268C8.46407 23.1811 8.4298 23.0938 8.39661 23.006C8.36338 22.9182 8.33124 22.8301 8.30019 22.7415C8.26913 22.653 8.23917 22.5641 8.2103 22.4748C8.18137 22.3856 8.15354 22.296 8.1268 22.206C8.1001 22.116 8.0745 22.0258 8.04998 21.9353C8.02542 21.8447 8.00199 21.7538 7.97971 21.6627C7.95737 21.5716 7.93615 21.4802 7.91604 21.3885C7.89593 21.2969 7.87694 21.205 7.85906 21.1129C7.84123 21.0208 7.82449 20.9285 7.80884 20.8359C7.79324 20.7434 7.77875 20.6507 7.76538 20.5579C7.75201 20.465 7.73975 20.3719 7.72861 20.2788C7.71752 20.1856 7.70754 20.0923 7.69867 19.9989C7.68986 19.9055 7.68215 19.812 7.67557 19.7184C7.61131 18.7022 7.62476 17.6806 7.80297 16.6754C8.1687 14.6128 9.24841 12.596 10.6309 11.0423C12.6759 8.74393 15.4993 7.51066 18.5483 7.32301Z" fill="black"/>
<path d="M18.588 7.95529C18.6139 7.95326 18.6398 7.95162 18.6657 7.95038C20.7892 7.86198 23.1075 8.50985 24.861 9.7134C25.3409 10.0427 25.7767 10.4431 26.2066 10.8343C26.2722 10.8939 26.3371 10.9544 26.4012 11.0157C26.4653 11.0769 26.5287 11.139 26.5913 11.2018C26.6539 11.2647 26.7157 11.3283 26.7768 11.3926C26.8378 11.457 26.898 11.5221 26.9575 11.5879C27.0169 11.6538 27.0755 11.7204 27.1333 11.7876C27.1911 11.8549 27.2481 11.9229 27.3042 11.9916C27.3603 12.0603 27.4155 12.1297 27.4699 12.1998C27.5243 12.2698 27.5779 12.3405 27.6305 12.4119C27.6832 12.4832 27.735 12.5552 27.7859 12.6279C27.8367 12.7005 27.8867 12.7738 27.9358 12.8477C27.9849 12.9216 28.033 12.9961 28.0803 13.0712C28.1275 13.1462 28.1738 13.2219 28.2192 13.2981C28.2646 13.3743 28.3091 13.451 28.3525 13.5283C28.396 13.6056 28.4385 13.6835 28.4801 13.7619C28.5216 13.8403 28.5622 13.9191 28.6018 13.9984C28.6415 14.0778 28.6801 14.1577 28.7177 14.2379C28.7554 14.3183 28.7921 14.3991 28.8278 14.4803C28.8634 14.5614 28.8981 14.6431 28.9317 14.7252C28.9653 14.8073 28.998 14.8897 29.0296 14.9726C29.0612 15.0554 29.0918 15.1387 29.1213 15.2223C29.1509 15.306 29.1794 15.39 29.2069 15.4743C29.2344 15.5586 29.2609 15.6433 29.2863 15.7282C29.3117 15.8132 29.336 15.8985 29.3593 15.9841C29.3826 16.0697 29.4049 16.1555 29.426 16.2417C29.4472 16.3278 29.4673 16.4142 29.4864 16.5008C29.5055 16.5875 29.5234 16.6743 29.5403 16.7614C29.5573 16.8484 29.5731 16.9357 29.5879 17.0232C29.6026 17.1106 29.6163 17.1983 29.6289 17.2861C29.6415 17.3739 29.653 17.4618 29.6634 17.5499C29.6739 17.638 29.6832 17.7262 29.6914 17.8145C29.6997 17.9028 29.7069 17.9912 29.713 18.0797C29.719 18.1682 29.724 18.2568 29.7279 18.3454C29.8683 21.3928 28.8645 24.1068 26.8086 26.3585C26.7499 26.4219 26.6905 26.4846 26.6303 26.5465C26.5701 26.6085 26.5092 26.6698 26.4476 26.7302C26.3859 26.7908 26.3235 26.8505 26.2604 26.9095C26.1973 26.9685 26.1335 27.0267 26.0691 27.0841C26.0045 27.1415 25.9393 27.1982 25.8735 27.254C25.8075 27.3099 25.741 27.365 25.6738 27.4193C25.6066 27.4735 25.5387 27.527 25.4702 27.5796C25.4017 27.6322 25.3326 27.684 25.2629 27.7349C25.1931 27.7859 25.1227 27.836 25.0517 27.8852C24.9808 27.9345 24.9092 27.9829 24.8371 28.0304C24.765 28.0779 24.6923 28.1246 24.619 28.1703C24.5458 28.216 24.472 28.2609 24.3976 28.3049C24.3232 28.3488 24.2484 28.3919 24.173 28.4341C24.0976 28.4763 24.0217 28.5175 23.9454 28.5579C23.8689 28.5982 23.7921 28.6376 23.7148 28.6761C23.6374 28.7146 23.5596 28.7521 23.4814 28.7886C23.4031 28.8252 23.3244 28.8609 23.2453 28.8956C23.1663 28.9303 23.0867 28.964 23.0068 28.9968C22.9269 29.0295 22.8466 29.0613 22.7659 29.0922C22.6852 29.123 22.6042 29.1528 22.5227 29.1817C22.4413 29.2106 22.3596 29.2384 22.2775 29.2653C22.1954 29.2922 22.113 29.3181 22.0303 29.343C21.9476 29.368 21.8646 29.3918 21.7813 29.4147C21.698 29.4376 21.6145 29.4595 21.5306 29.4804C21.4468 29.5012 21.3628 29.5211 21.2785 29.54C21.1941 29.5588 21.1096 29.5766 21.0249 29.5934C20.9402 29.6102 20.8553 29.626 20.7701 29.6407C20.685 29.6555 20.5998 29.6692 20.5143 29.6819C20.4289 29.6945 20.3433 29.7062 20.2575 29.7168C20.1718 29.7274 20.086 29.737 20.0001 29.7455C19.9141 29.7541 19.828 29.7616 19.7419 29.768C19.6558 29.7745 19.5696 29.78 19.4833 29.7843C19.4497 29.7875 19.4161 29.7901 19.3824 29.7923C18.8656 29.8259 18.3487 29.7874 17.8347 29.7322C15.5695 29.4895 13.6089 28.5512 11.9077 27.0588C11.842 27.0001 11.7769 26.9406 11.7126 26.8803C11.6482 26.82 11.5846 26.7589 11.5217 26.697C11.4589 26.6352 11.3968 26.5726 11.3354 26.5092C11.274 26.4459 11.2135 26.3818 11.1537 26.317C11.0939 26.2521 11.0349 26.1866 10.9767 26.1204C10.9185 26.0541 10.8611 25.9872 10.8045 25.9195C10.7479 25.8519 10.6922 25.7836 10.6372 25.7146C10.5823 25.6456 10.5282 25.576 10.475 25.5057C10.4218 25.4354 10.3694 25.3644 10.3179 25.2928C10.2664 25.2213 10.2157 25.1491 10.166 25.0763C10.1162 25.0035 10.0673 24.9301 10.0193 24.8562C9.97132 24.7822 9.92424 24.7076 9.87809 24.6325C9.83188 24.5573 9.78659 24.4817 9.74221 24.4055C9.69789 24.3292 9.65448 24.2525 9.61198 24.1752C9.56949 24.0979 9.52794 24.0201 9.48733 23.9419C9.44672 23.8636 9.40707 23.7848 9.36839 23.7056C9.32971 23.6263 9.29197 23.5466 9.25518 23.4665C9.21843 23.3863 9.18265 23.3057 9.14783 23.2247C9.11301 23.1437 9.07919 23.0623 9.04635 22.9804C9.01352 22.8986 8.98167 22.8163 8.95082 22.7337C8.91996 22.6511 8.89012 22.5681 8.8613 22.4848C8.83247 22.4015 8.80467 22.3178 8.77787 22.2338C8.75103 22.1498 8.72523 22.0655 8.70046 21.9808C8.6757 21.8962 8.65198 21.8112 8.6293 21.726C8.60656 21.6408 8.5849 21.5554 8.56429 21.4696C8.54364 21.3839 8.52405 21.2979 8.50553 21.2117C8.48696 21.1255 8.46945 21.0391 8.45301 20.9524C8.43657 20.8658 8.42116 20.7789 8.4068 20.6919C8.39244 20.6049 8.37914 20.5178 8.36691 20.4304C8.35467 20.3431 8.34348 20.2556 8.33333 20.168C8.32323 20.0804 8.31419 19.9927 8.30621 19.9049C8.29819 19.8171 8.29126 19.7292 8.28541 19.6412C8.27922 19.5494 8.27417 19.4576 8.27026 19.3656C8.2664 19.2737 8.26365 19.1818 8.26201 19.0897C8.26038 18.9978 8.25988 18.9058 8.26053 18.8138C8.26117 18.7218 8.26295 18.6298 8.26587 18.5378C8.2688 18.4459 8.27286 18.354 8.27806 18.2622C8.28326 18.1703 8.2896 18.0785 8.29708 17.9868C8.30456 17.8951 8.31315 17.8035 8.32286 17.712C8.33261 17.6206 8.34348 17.5292 8.35547 17.438C8.36745 17.3468 8.38058 17.2558 8.39484 17.1648C8.4091 17.074 8.42448 16.9833 8.44097 16.8928C8.45747 16.8023 8.47507 16.712 8.49379 16.6219C8.51251 16.5318 8.53235 16.442 8.5533 16.3524C8.57425 16.2628 8.59629 16.1735 8.61941 16.0845C8.64259 15.9955 8.66686 15.9067 8.69222 15.8183C8.71758 15.7298 8.74402 15.6417 8.77156 15.554C8.79909 15.4662 8.82769 15.3787 8.85736 15.2917C8.88708 15.2046 8.91786 15.1179 8.9497 15.0316C8.98155 14.9452 9.01446 14.8593 9.04843 14.7739C9.08241 14.6884 9.11742 14.6033 9.15348 14.5187C9.18953 14.434 9.22665 14.3499 9.26483 14.2662C9.30297 14.1824 9.34214 14.0992 9.38236 14.0165C9.42257 13.9337 9.4638 13.8515 9.50605 13.7698C9.54829 13.6881 9.59155 13.6069 9.63583 13.5262C9.68006 13.4455 9.7253 13.3654 9.77156 13.2859C9.81781 13.2064 9.86504 13.1274 9.91322 13.049C9.96141 12.9707 10.0106 12.8929 10.0607 12.8158C10.1108 12.7386 10.1619 12.6621 10.2139 12.5862C10.2659 12.5103 10.3188 12.4351 10.3727 12.3605C10.4266 12.2859 10.4814 12.212 10.537 12.1388C10.5927 12.0656 10.6493 11.9931 10.7068 11.9213C10.7643 11.8494 10.8227 11.7783 10.8819 11.708C10.9412 11.6376 11.0014 11.568 11.0623 11.4991C11.1221 11.4332 11.1827 11.3681 11.244 11.3037C11.3054 11.2393 11.3675 11.1757 11.4304 11.1128C11.4934 11.05 11.5571 10.9879 11.6215 10.9267C11.686 10.8654 11.7512 10.8049 11.8171 10.7453C11.8831 10.6856 11.9497 10.6267 12.0172 10.5687C12.0845 10.5107 12.1526 10.4535 12.2214 10.3972C12.2902 10.3408 12.3597 10.2853 12.4299 10.2307C12.5001 10.176 12.5709 10.1222 12.6424 10.0693C12.7139 10.0164 12.786 9.96442 12.8588 9.91331C12.9315 9.86215 13.0049 9.81193 13.079 9.76265C13.1529 9.71332 13.2276 9.66491 13.3028 9.61742C13.378 9.56992 13.4537 9.52337 13.5301 9.47776C13.6064 9.43214 13.6833 9.38747 13.7608 9.34374C13.8382 9.30006 13.9162 9.25732 13.9947 9.21552C14.0732 9.17372 14.1522 9.13288 14.2317 9.09302C14.3112 9.05315 14.3912 9.01427 14.4716 8.97638C14.5521 8.93849 14.633 8.9016 14.7144 8.86569C14.7958 8.82979 14.8776 8.79489 14.9598 8.76102C15.042 8.72714 15.1246 8.69428 15.2077 8.66244C15.2907 8.63059 15.3741 8.59976 15.4579 8.56995C15.5417 8.54018 15.6259 8.51143 15.7104 8.4837C15.7949 8.45597 15.8797 8.4293 15.9649 8.40369C16.0501 8.37804 16.1355 8.35345 16.2213 8.32992C16.3071 8.3064 16.3931 8.28391 16.4794 8.26247C16.5657 8.24107 16.6523 8.22074 16.7392 8.20148C16.826 8.18216 16.913 8.16394 17.0003 8.1468C17.0875 8.12967 17.175 8.11362 17.2627 8.09866C17.3503 8.08366 17.4382 8.06974 17.5262 8.05691C17.6142 8.04409 17.7023 8.03235 17.7906 8.0217C17.8789 8.01105 17.9673 8.00149 18.0558 7.99302C18.1444 7.98456 18.233 7.97718 18.3217 7.97089C18.4104 7.9646 18.4992 7.9594 18.588 7.95529Z" fill="#FEFEFE"/>
<path d="M19.0803 9.95215C19.1494 9.95388 19.2181 9.96025 19.2864 9.97124C19.5664 10.016 19.7022 10.2298 19.8533 10.4439C20.1376 10.3434 20.3733 10.3455 20.67 10.3568C20.7829 10.4381 20.8843 10.5395 20.9873 10.6329C21.1375 10.6594 21.2863 10.7071 21.4336 10.747C21.6481 11.0015 21.7355 11.2283 21.8296 11.5405C21.9976 11.6572 22.1823 11.7546 22.3592 11.8574C22.4236 11.8342 22.5497 11.7964 22.6029 11.7529C22.8555 11.5465 22.8935 11.1159 23.2716 11.021C23.5631 10.9478 23.8508 11.1406 24.0873 11.2841C24.3064 11.1189 24.4802 11.0023 24.7642 10.9987C25.1055 10.9945 25.4175 11.1963 25.6429 11.438C26.0216 11.8441 26.044 12.2189 26.0246 12.7431C26.3545 12.9692 26.4849 13.1588 26.6117 13.5305C26.5549 13.8612 26.4636 14.119 26.3048 14.4133C26.3436 14.4228 26.3824 14.4325 26.4211 14.4424C26.7003 14.5149 27.0406 14.6166 27.1852 14.8916C27.3392 15.1844 27.2111 15.4815 27.1172 15.7686C27.2471 15.9418 27.3961 16.0781 27.4441 16.2976C27.494 16.5267 27.4456 16.7496 27.3201 16.9457C27.1078 17.2777 26.7499 17.4707 26.3744 17.5527C26.318 17.6161 26.2672 17.6681 26.1976 17.7172C26.1227 17.7703 26.1291 17.7741 26.0927 17.852C26.1409 17.877 26.1826 17.9073 26.2225 17.9443C26.5383 18.2373 26.4669 18.9232 26.4684 19.322C26.4143 19.4241 26.3546 19.5307 26.2795 19.6187C26.033 19.9075 25.6625 19.914 25.3137 19.9398C25.15 20.4576 25.0404 21.0025 24.9122 21.5303L24.1295 24.7806C23.9726 25.4148 23.8636 26.1958 23.5261 26.7586C23.3354 27.0767 23.0057 27.3411 22.6391 27.422C22.2368 27.5108 21.7564 27.4686 21.343 27.4705L19.1103 27.4748L16.944 27.477C16.5096 27.4779 16.0591 27.5039 15.6276 27.4577C15.3785 27.431 15.1772 27.3522 14.9662 27.2153C14.6849 27.0327 14.5369 26.8303 14.3978 26.5324C14.0679 25.8264 13.8986 24.9572 13.6698 24.2078C13.2618 22.8719 12.7145 21.3182 12.417 19.9859C12.302 19.972 12.1861 19.9584 12.072 19.9382C11.8214 19.894 11.5904 19.7649 11.4515 19.5463C11.1676 19.0997 11.3035 18.3433 11.4192 17.8593C11.1455 17.7568 10.866 17.6735 10.5893 17.58C10.3554 17.501 10.0194 17.3855 9.92391 17.1301C9.88944 17.0379 9.89405 16.9198 9.93513 16.8305C10.0677 16.542 10.5567 16.5249 10.8221 16.4401C10.8729 16.4239 11.0358 16.3638 11.0477 16.3072C11.0487 16.302 11.0233 16.1937 11.0234 16.1836C11.0244 16.0481 11.185 15.7987 11.2457 15.6736C11.16 15.532 11.0769 15.3676 11.0931 15.1969C11.1196 14.9166 11.4182 14.7398 11.6203 14.5847C11.5403 14.3522 11.4687 14.1442 11.5056 13.8948C11.5385 13.6717 11.628 13.46 11.8159 13.3245C12.0362 13.1654 12.2732 13.1636 12.5289 13.2133C12.6951 12.8313 12.9799 12.2218 13.2389 11.9036C13.314 11.8113 13.3997 11.7609 13.5193 11.7503C13.7992 11.7253 14.1107 11.8823 14.3162 12.0611C14.426 12.1566 14.4925 12.2388 14.4996 12.3861L14.4156 12.4338C14.115 12.4436 13.8761 12.3284 13.6088 12.2076C13.4707 12.5278 13.1684 12.8423 13.0932 13.1685C13.0448 13.3788 13.1963 13.5502 13.2979 13.718C13.3936 13.8758 13.441 14.0145 13.3892 14.1984C13.3469 14.3487 13.2614 14.4985 13.1125 14.5623C13.0161 14.6037 12.9429 14.578 12.8502 14.5464C12.7877 14.4649 12.7582 14.4298 12.7622 14.32C12.7662 14.2067 12.9184 14.0724 12.9946 13.99C12.984 13.9265 12.9646 13.8735 12.9215 13.8233C12.8602 13.7519 12.7643 13.723 12.675 13.7077C12.4685 13.672 12.1949 13.6341 12.0177 13.7648C11.8685 14.0265 12.1575 14.3729 12.1288 14.6681C12.1058 14.9047 11.7544 15.0843 11.5774 15.2229C11.7821 15.4499 11.9959 15.5179 12.2546 15.6584C12.3973 15.736 12.5461 15.8061 12.5954 15.9723C12.5664 16.0531 12.5504 16.0821 12.4656 16.1218C12.249 16.2232 12.0159 16.0267 11.8202 15.9548C11.7367 15.9241 11.6905 15.9125 11.6058 15.946C11.548 16.0591 11.5102 16.1299 11.5194 16.2586C11.5657 16.3668 11.6126 16.4173 11.711 16.4775C11.94 16.6175 12.2428 16.6564 12.4955 16.7501C13.5195 17.1295 14.5041 17.6034 15.614 17.6609C15.7371 17.6672 15.8963 17.6889 16.0159 17.6554C16.0844 17.6361 16.0569 17.6517 16.0967 17.5771C16.0915 17.5629 16.0877 17.5481 16.0809 17.5346C15.9992 17.3705 14.1847 15.9031 13.9761 15.8298C13.539 15.8747 13.8512 16.3138 13.6305 16.5587C13.5324 16.5863 13.4899 16.5837 13.3927 16.5536C13.3415 16.5085 13.2987 16.4728 13.2747 16.406C13.1984 16.1945 13.2648 15.9061 13.3679 15.7153C13.4413 15.5797 13.5717 15.4315 13.7288 15.3966C13.9535 15.3467 14.1574 15.3898 14.344 15.5183C14.3629 15.5313 14.3814 15.5449 14.4003 15.558C15.023 15.9905 15.6001 16.5137 16.1919 16.9896C16.3011 16.7255 16.3498 16.5037 16.3628 16.2169C16.3911 15.5947 16.3988 13.3739 16.0026 12.9695C15.9316 12.8969 15.8415 12.8568 15.7385 12.8629C15.4979 12.8771 15.365 13.1006 15.2344 13.2732C15.0391 13.2489 14.7813 13.1968 14.6108 13.3246C14.2927 13.5631 14.6353 13.6903 14.5607 13.9729C14.5023 14.1945 14.2461 14.3277 14.2153 14.5751C14.276 14.7572 14.4738 14.8247 14.5777 14.9743C14.6343 15.0556 14.625 15.119 14.6114 15.212C14.5576 15.2855 14.5341 15.3282 14.4355 15.3436C14.35 15.3571 14.2561 15.3204 14.1847 15.2754C13.9943 15.1555 13.8527 14.9267 13.8077 14.7085C13.7348 14.3537 13.8854 14.1261 14.0792 13.8496C14.0681 13.8182 14.0566 13.7869 14.0461 13.7553C13.9856 13.5734 13.9963 13.2862 14.1012 13.1212C14.3185 12.7789 14.7888 12.8521 15.1072 12.682C15.2919 12.5834 15.4838 12.3512 15.699 12.3372C15.9461 12.3211 16.1997 12.5787 16.3595 12.7418C16.7202 12.3004 17.1754 12.2544 17.3632 12.0175C17.4131 11.9547 17.4083 11.9363 17.402 11.8613C17.2306 11.658 16.99 11.6427 16.7428 11.5973C16.5568 11.3991 16.4217 11.1421 16.2815 10.91C16.2194 10.974 16.1561 11.0363 16.0923 11.0987C15.9419 11.246 15.7536 11.2877 15.5653 11.3688C15.0151 11.6054 15.3088 11.7709 15.1537 12.1743C15.0786 12.2471 15.0435 12.2693 14.9401 12.2867C14.8827 12.2653 14.8472 12.2613 14.8055 12.213C14.6851 12.0736 14.6747 11.8851 14.6971 11.7094C14.7677 11.1561 15.2463 11.0384 15.6614 10.8087C15.7682 10.7496 15.8567 10.662 15.9537 10.5888C16.107 10.4731 16.2496 10.4497 16.4367 10.4868C16.7946 10.5577 16.7432 10.8566 16.95 11.0744C17.2349 11.3746 17.5363 11.1931 17.8527 11.663C17.8583 11.8868 17.8691 12.1074 17.8332 12.3294C18.1208 12.5859 18.3866 12.8579 18.662 13.1266C18.9422 12.7947 19.4317 12.0861 19.8026 11.9038C19.9083 11.8519 20.0271 11.8447 20.1372 11.8909C20.4732 12.0316 20.7272 12.5326 20.853 12.8556C21.5314 13.1561 21.1984 13.2673 21.4776 13.6297C21.5223 13.6279 21.5974 13.6308 21.6422 13.6167C21.7281 13.5898 21.7939 13.5444 21.8282 13.4578C21.9247 13.2145 21.7255 12.8964 21.63 12.6816C21.6737 12.4881 21.7313 12.3133 21.8032 12.1291C21.4763 11.8028 21.3346 11.5952 21.2148 11.1408C21.1904 11.1366 21.1661 11.1319 21.1417 11.1282C20.827 11.0802 20.6029 10.8257 20.3083 10.8005C20.1363 10.7858 20.0194 11.0902 19.8216 11.1125C19.5455 11.0235 19.5573 10.6533 19.3465 10.4957C19.2603 10.4313 19.1561 10.4173 19.052 10.426C18.385 10.481 18.4869 11.2231 18.1831 11.6029C18.0931 11.6433 18.0935 11.6441 17.9985 11.6187C17.924 11.556 17.9027 11.5028 17.8843 11.4101C17.8243 11.1067 17.957 10.8117 18.1221 10.5642C18.3622 10.2042 18.659 10.0293 19.0803 9.95215Z" fill="black"/>
<path d="M21.581 15.2217C21.6459 15.2288 21.7395 15.2243 21.7934 15.263C21.9568 15.3803 22.032 15.6539 22.0748 15.8423C22.0953 15.933 22.0839 15.9336 22.0351 16.01C21.8802 15.8108 21.5869 15.5202 21.5195 15.2804L21.581 15.2217Z" fill="#FEFEFE"/>
<path d="M23.6689 13.0452C23.7923 13.1171 23.8325 13.2414 23.8906 13.3651C23.5794 13.7714 23.2577 14.1645 22.897 14.5281C22.8082 14.4858 22.7421 14.4292 22.7048 14.3383C22.9894 13.9691 23.3523 13.331 23.6689 13.0452Z" fill="#FEFEFE"/>
<path d="M11.3301 16.7808C11.4921 16.8071 11.747 16.9598 11.9093 17.0218C12.4731 17.237 13.0503 17.4202 13.6091 17.648C13.3789 17.6451 13.1544 17.634 12.9255 17.6098C12.1123 17.4592 11.2817 17.2887 10.5029 17.0074C10.7875 16.9484 11.055 16.8747 11.3301 16.7808Z" fill="#FEFEFE"/>
<path d="M21.3121 14.1003C21.594 14.1414 21.8648 14.1905 22.1396 14.2656C22.3787 14.5183 22.5819 14.8171 22.778 15.1036C22.6888 15.237 22.5632 15.4859 22.4047 15.5224L22.3446 15.3956C22.3186 15.2855 22.2883 15.171 22.2337 15.0711C22.1508 14.9195 22.0118 14.793 21.8417 14.7512C21.5689 14.6842 21.3522 14.7952 21.1222 14.9233C21.0081 14.7776 20.9058 14.6208 20.8 14.4689C20.9727 14.3492 21.1418 14.2234 21.3121 14.1003Z" fill="#FEFEFE"/>
<path d="M20.4139 14.9773C20.5988 15.0727 21.4945 16.0801 21.7456 16.3252L21.2858 16.98C20.8199 16.5802 20.3731 16.1601 19.9453 15.7197C20.0955 15.4684 20.2517 15.221 20.4139 14.9773Z" fill="#FEFEFE"/>
<path d="M19.6726 16.2002C19.9039 16.3106 20.8441 17.2179 20.8928 17.4391C20.9152 17.5414 20.8874 17.5658 20.8278 17.6389C20.647 17.6964 20.4143 17.6678 20.2247 17.6659L18.9595 17.6721C19.1705 17.1685 19.4082 16.6779 19.6726 16.2002Z" fill="#FEFEFE"/>
<path d="M24.7942 13.8835C24.8211 13.9124 24.8393 13.9579 24.8581 13.9927C24.857 14.0726 24.8471 14.1277 24.8 14.1944C24.5518 14.5459 24.201 14.8664 23.92 15.1973C23.2517 15.9847 22.5907 16.7977 21.998 17.6431C21.819 17.64 21.6375 17.6554 21.4585 17.6637C21.4207 17.6608 21.4442 17.6655 21.3923 17.6361C21.5675 17.1883 23.5261 15.0101 23.9892 14.5513C24.2394 14.3034 24.4998 14.0774 24.7942 13.8835Z" fill="#FEFEFE"/>
<path d="M17.0865 12.6701C17.1652 12.6642 17.2836 12.6445 17.3581 12.6719C17.6107 12.7647 18.0536 13.279 18.2782 13.4698C17.902 13.9447 17.5465 14.4253 17.2224 14.9376C17.1007 15.1643 16.976 15.3895 16.8483 15.6129C16.8249 14.7845 16.7524 13.9601 16.7297 13.1329C16.8273 12.9489 16.9226 12.8024 17.0865 12.6701Z" fill="#FEFEFE"/>
<path d="M24.0605 15.7236C24.3106 15.8793 24.5374 16.3191 24.6958 16.5704C24.8282 16.5395 24.9674 16.5077 25.1042 16.5164C25.2722 16.5272 25.4537 16.6486 25.5569 16.7769C25.6755 16.9243 25.7133 17.0767 25.6822 17.2619C25.6498 17.4555 25.6041 17.5248 25.4456 17.6434L24.0863 17.6528C24.2222 17.422 24.3595 17.2057 24.4444 16.9496C24.4121 16.9281 24.3804 16.9056 24.3469 16.8863C24.2867 16.8516 24.2067 16.8265 24.1388 16.8504C23.8924 16.9374 23.7158 17.4348 23.5892 17.6493C23.2271 17.6453 22.8661 17.6389 22.5044 17.6623C23.0479 17.0385 23.5176 16.3503 24.0605 15.7236Z" fill="#FEFEFE"/>
<path d="M20.5827 13.2349C20.6393 13.2522 20.6997 13.2696 20.7521 13.2973C20.8295 13.3381 20.9079 13.4289 20.9229 13.516C20.9613 13.7388 20.5178 14.1374 20.3649 14.3128C19.5594 15.2375 19.0819 16.3231 18.5603 17.4156C18.523 17.4939 18.4896 17.5868 18.425 17.646C18.3824 17.6852 18.2932 17.6682 18.237 17.6681C18.0904 17.6705 17.9438 17.6804 17.8069 17.6226C17.8075 17.5995 17.8074 17.5764 17.8087 17.5533C17.8238 17.2808 18.0236 16.9621 18.1464 16.7186C18.7575 15.5061 19.556 14.1326 20.5827 13.2349Z" fill="#FEFEFE"/>
<path d="M19.9559 12.3831C20.1347 12.47 20.217 12.6154 20.3164 12.7808C20.0546 13.0988 19.7658 13.3918 19.5075 13.7136C18.5835 14.864 17.7216 16.2397 17.2888 17.6572L16.8871 17.6613C16.7837 17.6616 16.6108 17.6852 16.5344 17.6182C16.5755 17.3001 16.7533 16.9606 16.8851 16.6695C17.7155 14.8361 18.6443 13.8487 19.9559 12.3831Z" fill="#FEFEFE"/>
<path d="M24.5997 11.4951C24.6669 11.4954 24.7359 11.4961 24.8024 11.5072C25.1403 11.5638 25.3877 11.7909 25.5805 12.0582C25.5963 12.3774 25.559 12.6973 25.5673 13.0177C25.769 13.1353 26.0274 13.2526 26.1177 13.4839C26.2294 13.7701 25.85 14.004 25.7566 14.2464C25.7148 14.3548 25.7101 14.5001 25.764 14.6057C25.9097 14.891 26.3429 14.8497 26.6041 14.9625C26.9428 15.1086 26.6265 15.5646 26.6947 15.8382C26.7448 16.0389 26.8946 16.2113 26.9637 16.4061C27.0002 16.5091 27.0006 16.6218 26.9436 16.7175C26.839 16.8931 26.5671 17.0266 26.3737 17.0622C26.0828 17.007 25.969 16.584 25.7788 16.3767C25.5328 16.1088 25.2507 16.0756 24.9091 16.0688C24.7303 15.8411 24.5358 15.6237 24.3483 15.4031L24.6249 15.0889C24.8275 14.8758 25.124 14.6166 25.2383 14.3424C25.3466 14.0824 25.339 13.7702 25.223 13.5144C25.1239 13.2955 24.9497 13.1269 24.7225 13.0457C24.4993 12.9658 24.3279 13.0482 24.1241 13.1377L24.1187 13.1029L24.1088 13.0451C24.0894 12.9244 24.0758 12.8107 24.0085 12.705C23.9423 12.6011 23.8715 12.5786 23.7558 12.5565C23.2696 12.6774 22.8739 13.5696 22.5183 13.9613C22.4076 13.8985 22.2911 13.8438 22.1775 13.7862C22.246 13.6458 22.3266 13.4941 22.3482 13.3373C22.3837 13.0792 22.2468 12.914 22.1077 12.7176C22.2065 12.5629 22.3166 12.4343 22.4403 12.3002L22.9602 12.2717C22.9965 12.1558 23.0326 12.0394 23.0744 11.9253C23.127 11.7815 23.2033 11.6165 23.3623 11.5655C23.6062 11.4872 23.9833 11.7556 24.2072 11.8573C24.334 11.7318 24.4663 11.6135 24.5997 11.4951Z" fill="#FEFEFE"/>
<path d="M11.8912 18.1178L18.5077 18.1355C19.5151 18.1353 25.4084 18.0304 25.8023 18.1777C25.8823 18.262 25.9142 18.3339 25.9384 18.4458C26.0051 18.7552 26.0328 19.1733 25.8552 19.4458C25.7127 19.4942 25.5743 19.503 25.425 19.5065C24.3715 19.5308 23.3111 19.5037 22.2571 19.501L16.77 19.5031L13.7224 19.5079C13.2003 19.5085 12.5207 19.5798 12.0166 19.4588C11.9437 19.4412 11.917 19.4129 11.8768 19.3504C11.6964 19.0694 11.8197 18.4276 11.8912 18.1178Z" fill="#FEFEFE"/>
<path d="M12.9031 19.9512C14.3448 19.9 15.7974 19.9326 17.2401 19.9327L24.8111 19.9409C24.3565 21.8486 23.881 23.7511 23.3844 25.6483C23.3148 25.9731 23.2475 26.3424 23.0496 26.6158C22.9042 26.8167 22.7368 26.9137 22.4956 26.9533C21.9828 27.0375 21.4335 27.0001 20.914 26.9994L18.6449 27.0016L16.6817 27.0031C16.342 27.0031 15.9624 27.0319 15.627 26.9812C15.4479 26.9541 15.2961 26.8609 15.154 26.7526C14.9889 26.6267 14.8751 26.3562 14.7998 26.1628C14.5195 25.442 14.3484 24.6526 14.1126 23.913L13.3354 21.4415C13.1863 20.9691 12.967 20.4424 12.9031 19.9512Z" fill="#FEFEFE"/>
<path d="M15.5279 25.3391C15.5757 25.3404 15.637 25.3384 15.6847 25.3498C15.8031 25.378 15.9311 25.4789 15.986 25.5889C16.0554 25.7276 16.0239 25.8178 15.9682 25.9487C15.9205 25.9539 15.8613 25.964 15.8126 25.96C15.7161 25.9521 15.6343 25.9137 15.5718 25.8381C15.4564 25.6983 15.4929 25.4991 15.5279 25.3391Z" fill="black"/>
<path d="M14.5394 20.749C14.6356 20.7729 14.6945 20.7911 14.7771 20.8497C14.8833 21.0365 15.7743 24.5218 15.765 24.7181C15.7596 24.8295 15.6682 24.8824 15.5936 24.9527C15.5203 24.9356 15.446 24.9058 15.3896 24.8541C15.2755 24.7495 14.3741 21.2552 14.3582 20.9083C14.4086 20.8048 14.4404 20.8018 14.5394 20.749Z" fill="black"/>
<path d="M18.1507 40.5295C18.1826 40.5252 18.2145 40.5212 18.2466 40.5191C18.3365 40.5132 18.4265 40.5084 18.5165 40.5047C18.6065 40.5009 18.6965 40.4983 18.7866 40.4967C18.8767 40.4952 18.9668 40.4948 19.0569 40.4954C19.147 40.496 19.237 40.4977 19.3271 40.5005C19.4172 40.5034 19.5072 40.5073 19.5971 40.5123C19.6871 40.5173 19.777 40.5233 19.8668 40.5305C19.9566 40.5377 20.0463 40.5459 20.1359 40.5553C20.2255 40.5646 20.315 40.575 20.4043 40.5866C20.4937 40.598 20.5829 40.6106 20.672 40.6243C20.761 40.638 20.8499 40.6527 20.9386 40.6685C21.0273 40.6843 21.1158 40.7012 21.204 40.7192C21.2923 40.7371 21.3804 40.7562 21.4682 40.7763C21.5561 40.7963 21.6436 40.8175 21.731 40.8397C21.8183 40.8619 21.9053 40.8852 21.992 40.9095C22.0788 40.9338 22.1652 40.9592 22.2514 40.9856C22.3375 41.012 22.4233 41.0395 22.5088 41.0679C22.5942 41.0964 22.6794 41.1259 22.7641 41.1565C22.8489 41.1871 22.9333 41.2186 23.0173 41.2512C23.1013 41.2838 23.1848 41.3174 23.268 41.352C23.3512 41.3866 23.434 41.4223 23.5163 41.4589C23.5986 41.4955 23.6804 41.5331 23.7619 41.5717C23.8432 41.6103 23.9242 41.6499 24.0046 41.6905C24.0851 41.731 24.165 41.7726 24.2444 41.8151C24.3239 41.8576 24.4028 41.901 24.4812 41.9454C24.5596 41.9898 24.6375 42.0351 24.7148 42.0814C24.792 42.1277 24.8687 42.1749 24.9449 42.2231C25.0211 42.2712 25.0966 42.3203 25.1716 42.3702C25.2465 42.4202 25.3209 42.4711 25.3946 42.5229C25.4683 42.5746 25.5414 42.6273 25.6139 42.6808C25.6863 42.7344 25.7581 42.7888 25.8293 42.8441C25.9004 42.8994 25.9709 42.9555 26.0407 43.0125C26.1104 43.0695 26.1795 43.1273 26.2479 43.186C26.3207 43.2495 26.3928 43.3139 26.464 43.3792C26.5353 43.4445 26.6058 43.5106 26.6755 43.5776C26.7451 43.6446 26.8139 43.7124 26.882 43.781C26.95 43.8497 27.0171 43.9191 27.0835 43.9894C27.1498 44.0597 27.2153 44.1308 27.2799 44.2026C27.3445 44.2745 27.4082 44.3471 27.4711 44.4205C27.534 44.4939 27.5959 44.5681 27.657 44.643C27.718 44.7179 27.7782 44.7935 27.8374 44.8699C27.8966 44.9463 27.9549 45.0233 28.0123 45.1011C28.0697 45.1789 28.1261 45.2574 28.1815 45.3365C28.237 45.4156 28.2915 45.4954 28.345 45.5759C28.3986 45.6563 28.4511 45.7374 28.5027 45.8191C28.5542 45.9009 28.6048 45.9832 28.6544 46.0662C28.7039 46.1491 28.7525 46.2327 28.8 46.3168C28.8476 46.4009 28.8941 46.4856 28.9396 46.5709C28.9851 46.6562 29.0296 46.742 29.073 46.8283C29.1164 46.9146 29.1588 47.0015 29.2001 47.0888C29.2414 47.1762 29.2817 47.264 29.3209 47.3524C29.3601 47.4407 29.3982 47.5295 29.4352 47.6188C29.4722 47.708 29.5082 47.7977 29.5431 47.8879C29.5779 47.978 29.6117 48.0685 29.6444 48.1595C29.6771 48.2504 29.7087 48.3418 29.7391 48.4334C29.7696 48.5252 29.7989 48.6172 29.8272 48.7096C29.8554 48.8021 29.8825 48.8949 29.9085 48.9879C29.9345 49.081 29.9593 49.1744 29.983 49.2681C30.0068 49.3618 30.0294 49.4557 30.0508 49.5499C30.0723 49.6442 30.0926 49.7386 30.1118 49.8333C30.1309 49.9281 30.1489 50.023 30.1658 50.1182C30.1826 50.2133 30.1984 50.3086 30.2129 50.4042C30.2274 50.4997 30.2408 50.5955 30.2531 50.6913C30.2654 50.7872 30.2764 50.8832 30.2863 50.9793C30.2962 51.0754 30.305 51.1717 30.3126 51.268C30.4608 53.3535 30.0725 55.1183 29.1843 57.0067C28.778 57.8707 28.3 58.6911 27.6741 59.4156C27.2082 59.9549 26.722 60.4795 26.1745 60.9373C26.0592 61.0318 25.9421 61.124 25.8233 61.214C25.7045 61.304 25.584 61.3917 25.4619 61.4771C25.3397 61.5625 25.2159 61.6455 25.0906 61.7262C24.9653 61.8069 24.8385 61.8851 24.7102 61.9609C24.5818 62.0368 24.4521 62.1101 24.321 62.181C24.1899 62.2519 24.0574 62.3202 23.9237 62.386C23.7899 62.4518 23.655 62.5151 23.5189 62.5757C23.3827 62.6363 23.2455 62.6944 23.1071 62.7498C22.9687 62.8052 22.8293 62.858 22.689 62.908C22.5486 62.9581 22.4073 63.0055 22.2651 63.0502C22.1229 63.0949 21.9799 63.1369 21.8362 63.1761C21.6923 63.2153 21.5478 63.2518 21.4027 63.2855C21.2575 63.3192 21.1117 63.3501 20.9653 63.3783C20.8189 63.4064 20.6721 63.4318 20.5247 63.4543C20.3774 63.4768 20.2297 63.4965 20.0816 63.5134C19.9335 63.5303 19.7852 63.5443 19.6365 63.5555C19.6059 63.5595 19.5753 63.5638 19.5444 63.5665C16.8545 63.8044 13.7772 62.7633 11.7212 61.0543C9.34438 59.0786 7.81619 56.3721 7.53909 53.2771C7.53048 53.1825 7.523 53.0879 7.51666 52.9931C7.51032 52.8983 7.50514 52.8035 7.50113 52.7086C7.49712 52.6137 7.49427 52.5188 7.49259 52.4238C7.49091 52.3288 7.49036 52.2339 7.49096 52.1389C7.4916 52.0439 7.49338 51.9489 7.4963 51.8541C7.49928 51.7591 7.50339 51.6642 7.50864 51.5694C7.51389 51.4745 7.5203 51.3798 7.52788 51.2851C7.53545 51.1904 7.54417 51.0959 7.55403 51.0014C7.56393 50.9069 7.57498 50.8126 7.58716 50.7184C7.59934 50.6242 7.61267 50.5302 7.62713 50.4363C7.64159 50.3424 7.65721 50.2488 7.674 50.1553C7.69074 50.0618 7.70865 49.9685 7.72771 49.8755C7.74673 49.7824 7.76689 49.6896 7.78818 49.597C7.80953 49.5045 7.83197 49.4122 7.85549 49.3202C7.87906 49.2282 7.90375 49.1365 7.92956 49.0451C7.95531 48.9536 7.9822 48.8625 8.01023 48.7718C8.03826 48.6811 8.06738 48.5907 8.0976 48.5007C8.12786 48.4106 8.15918 48.3209 8.19157 48.2317C8.22396 48.1424 8.25747 48.0535 8.29208 47.965C8.32665 47.8766 8.36231 47.7886 8.39906 47.701C8.43576 47.6134 8.47355 47.5263 8.51242 47.4396C8.55125 47.3529 8.59117 47.2668 8.63218 47.1811C8.67313 47.0954 8.71513 47.0102 8.75817 46.9255C8.80121 46.8408 8.84526 46.7567 8.89033 46.6731C8.93545 46.5895 8.98156 46.5065 9.02865 46.424C9.0758 46.3415 9.12392 46.2597 9.173 46.1784C9.22213 46.0971 9.27225 46.0164 9.32336 45.9364C9.37442 45.8563 9.42647 45.7769 9.47951 45.6981C9.5325 45.6193 9.58649 45.5411 9.64146 45.4636C9.69639 45.3861 9.75225 45.3094 9.80906 45.2332C9.86586 45.1571 9.92358 45.0817 9.98222 45.007C10.0409 44.9323 10.1004 44.8583 10.1609 44.7851C12.1994 42.3592 14.974 40.8046 18.1507 40.5295Z" fill="black"/>
<path d="M18.3889 41.239C18.4036 41.2373 18.4183 41.2353 18.433 41.234C21.0022 40.9992 23.8038 42.026 25.7479 43.6848C25.8175 43.7451 25.8864 43.8062 25.9545 43.8682C26.0226 43.9302 26.0899 43.993 26.1565 44.0566C26.223 44.1202 26.2888 44.1846 26.3538 44.2499C26.4188 44.3151 26.483 44.3811 26.5464 44.4479C26.6098 44.5147 26.6723 44.5823 26.734 44.6506C26.7958 44.7189 26.8567 44.7879 26.9168 44.8578C26.9768 44.9276 27.036 44.9981 27.0943 45.0693C27.1527 45.1406 27.2102 45.2125 27.2668 45.2852C27.3234 45.3578 27.3791 45.4311 27.4338 45.5051C27.4887 45.5791 27.5426 45.6537 27.5956 45.729C27.6486 45.8044 27.7006 45.8803 27.7517 45.9569C27.8029 46.0334 27.8531 46.1106 27.9023 46.1884C27.9516 46.2662 27.9999 46.3446 28.0472 46.4236C28.0946 46.5026 28.141 46.5821 28.1864 46.6622C28.2318 46.7423 28.2762 46.823 28.3197 46.9042C28.3631 46.9854 28.4055 47.0671 28.447 47.1493C28.4884 47.2315 28.5289 47.3142 28.5684 47.3975C28.6078 47.4807 28.6462 47.5643 28.6836 47.6485C28.721 47.7326 28.7574 47.8172 28.7927 47.9023C28.8281 47.9873 28.8624 48.0727 28.8956 48.1586C28.9289 48.2444 28.9611 48.3307 28.9923 48.4174C29.0234 48.504 29.0535 48.591 29.0826 48.6784C29.1116 48.7658 29.1396 48.8535 29.1665 48.9416C29.1934 49.0296 29.2192 49.118 29.244 49.2067C29.2687 49.2954 29.2924 49.3844 29.315 49.4736C29.3376 49.5629 29.3591 49.6525 29.3795 49.7422C29.3999 49.832 29.4192 49.9221 29.4374 50.0124C29.4556 50.1026 29.4727 50.1931 29.4887 50.2837C29.5047 50.3744 29.5196 50.4653 29.5334 50.5564C29.5472 50.6474 29.5599 50.7386 29.5714 50.8299C29.583 50.9213 29.5935 51.0128 29.6028 51.1044C29.6122 51.196 29.6204 51.2877 29.6275 51.3795C29.8389 54.1536 28.7435 57.14 26.9242 59.2276C25.0185 61.4142 22.297 62.6592 19.4259 62.8609C16.584 63.0328 13.8958 61.9959 11.75 60.1646C10.3207 58.9448 9.15336 57.0513 8.60734 55.2608C8.37875 54.5112 8.24808 53.7024 8.18679 52.9209C7.96333 50.0693 9.01043 47.2124 10.8556 45.0549C12.813 42.766 15.3909 41.4805 18.3889 41.239Z" fill="#FEFEFE"/>
<path d="M19.9567 43.5591C20.3438 43.562 22.5258 43.5315 22.7384 43.6218C22.802 43.6894 22.8443 43.7251 22.838 43.8275C22.8346 43.8836 22.807 43.9364 22.7666 43.9734C22.6764 44.056 22.5691 44.078 22.4513 44.0906C22.1575 44.1221 21.8405 44.0858 21.5448 44.0808C21.0849 44.073 20.6234 44.085 20.1635 44.0921C19.8391 44.8845 19.4455 45.6461 19.0953 46.4271C19.8091 46.4706 20.9102 46.3436 21.5504 46.4807C21.77 46.5277 21.9718 46.6249 22.1341 46.7816C22.4773 47.113 22.5058 47.5263 22.5144 47.9726C22.9946 47.9625 23.5004 47.9278 23.9076 48.2332C24.1234 48.3951 24.2651 48.6267 24.3007 48.8951C24.3382 49.1786 24.2452 49.4802 24.0623 49.6986C23.8269 49.9797 23.5632 50.0614 23.2141 50.0974C23.1491 51.6878 22.904 53.2866 22.7652 54.8733L22.496 58.2629C22.4493 58.8166 22.4617 59.4882 22.2776 60.0126C22.1381 60.4099 21.8317 60.6669 21.4648 60.8469C21.3609 60.8788 21.2602 60.8995 21.1517 60.9073C20.3869 60.9624 19.5852 60.9109 18.8161 60.9133C18.2012 60.9151 16.89 60.99 16.3476 60.8866C16.0667 60.8331 15.7929 60.6766 15.5829 60.4855C15.3883 60.3082 15.3266 60.0318 15.2808 59.7807C15.2041 59.3605 15.1922 58.9066 15.1545 58.4799L14.929 55.9353C14.755 54.0178 14.494 52.0613 14.4274 50.1399C14.1584 50.0575 13.9387 49.9749 13.7348 49.7687C13.5332 49.5646 13.4182 49.2909 13.4314 49.0023C13.433 48.9662 13.4364 48.9303 13.4416 48.8946C13.4469 48.8588 13.4539 48.8234 13.4627 48.7883C13.4715 48.7533 13.482 48.7187 13.4942 48.6847C13.5065 48.6507 13.5205 48.6174 13.5361 48.5848C13.5517 48.5523 13.5689 48.5205 13.5878 48.4897C13.6066 48.4588 13.627 48.429 13.6487 48.4002C13.6706 48.3714 13.6938 48.3438 13.7184 48.3173C13.7431 48.2908 13.769 48.2657 13.7961 48.2419C14.1732 47.9115 14.6077 47.936 15.0734 47.9576C15.1085 47.512 15.1843 47.1137 15.5199 46.7902C15.5562 46.7556 15.5944 46.7233 15.6346 46.6934C15.6748 46.6635 15.7167 46.6361 15.7602 46.6114C15.8038 46.5866 15.8487 46.5646 15.895 46.5454C15.9413 46.5261 15.9885 46.5098 16.0368 46.4964C16.5491 46.3559 17.8934 46.4467 18.4958 46.448C18.8116 45.8336 19.6146 43.9608 19.9567 43.5591Z" fill="black"/>
<path d="M16.3296 46.9585C17.2318 46.9143 18.1511 46.9473 19.055 46.9463C19.8965 46.9455 20.7579 46.9048 21.5968 46.9652C21.8276 47.1579 22.036 47.4052 22.0902 47.7126C22.1097 47.8234 22.0835 47.8678 22.0222 47.9519C21.8402 48.0094 21.5863 47.9747 21.3945 47.9723C20.7572 47.9708 15.9015 48.0027 15.7342 47.9146C15.6558 47.8733 15.603 47.8282 15.5823 47.7379C15.54 47.5532 15.7279 47.2798 15.8428 47.153C15.979 47.0029 16.1356 46.9733 16.3296 46.9585Z" fill="#FEFEFE"/>
<path d="M14.2884 48.4658L20.5643 48.4618C21.3039 48.4636 22.6995 48.3923 23.3466 48.5169C23.5061 48.5476 23.645 48.6307 23.7294 48.7721C23.8039 48.8972 23.8155 49.0524 23.773 49.1905C23.7173 49.3716 23.6127 49.4661 23.4484 49.5499C22.9405 49.6065 22.4022 49.5749 21.8901 49.5754L19.1373 49.5791L16.0718 49.5817C15.5344 49.582 14.973 49.6144 14.4386 49.5672C14.2669 49.5519 14.113 49.5238 14.0082 49.3704C13.9262 49.2504 13.9218 49.0957 13.9492 48.958C13.9976 48.7153 14.0884 48.6045 14.2884 48.4658Z" fill="#FEFEFE"/>
<path d="M15.6949 50.0795C18.0275 50.0426 20.3647 50.0751 22.6975 50.0895C22.6686 51.4471 22.4273 52.8246 22.3125 54.1783C22.2012 55.4905 22.1193 56.8045 21.9957 58.1159C21.9467 58.6366 21.9153 59.1703 21.8289 59.6861C21.797 59.8764 21.7521 60.0054 21.6365 60.1606C21.4048 60.3365 21.1917 60.4064 20.9029 60.4321C20.1653 60.4979 19.3926 60.44 18.6497 60.4423C17.9963 60.4443 17.2501 60.5295 16.6075 60.4293C16.3957 60.3963 16.1705 60.3322 16.0064 60.187C15.8765 60.0719 15.8161 59.9335 15.7847 59.7656C15.7013 59.3206 15.6874 58.8474 15.652 58.396C15.5949 57.6401 15.5335 56.8846 15.4678 56.1294C15.2936 54.1766 15.0089 52.0311 14.9512 50.0896L15.6949 50.0795Z" fill="#FEFEFE"/>
<path d="M18.8089 51.875C18.8637 51.8876 18.9352 51.8999 18.9842 51.9275C19.2395 52.0718 19.5926 53.3312 19.6588 53.6492C20.094 53.6476 21.3541 53.5523 21.6595 53.7581C21.7069 53.85 21.7161 53.8679 21.6859 53.9737C21.5956 54.2903 20.4779 55.0485 20.1553 55.2374C20.2919 55.6873 20.6768 56.6162 20.5771 57.0728C20.5198 57.1487 20.5012 57.1896 20.3965 57.1964C20.0752 57.2175 19.1543 56.4787 18.8784 56.2861C18.6043 56.2052 17.7187 57.2729 17.2789 57.2112C17.2284 57.2042 17.1784 57.185 17.154 57.1389C17.0036 56.8547 17.4315 55.6351 17.515 55.2607C17.1631 55.0395 16.214 54.3422 16.0811 53.9881C16.088 53.9251 16.0791 53.889 16.1244 53.8393C16.3558 53.5856 17.6724 53.6462 18.051 53.6456C18.1758 53.2435 18.298 52.834 18.4463 52.44C18.5249 52.2309 18.5924 51.9726 18.8089 51.875Z" fill="black"/>
<path d="M18.8355 52.7244C19.0158 52.9508 19.2382 53.8092 19.3388 54.1222L20.8652 54.1178C20.4675 54.4481 20.042 54.7488 19.626 55.0555C19.7401 55.5652 19.9295 56.0489 20.0498 56.5555C19.6722 56.244 19.2701 55.9555 18.8805 55.6588C18.61 55.687 17.9474 56.3394 17.6508 56.5265C17.7451 56.1897 18.0462 55.4776 17.9837 55.1552C17.9169 54.8099 17.0723 54.3343 16.7861 54.1282C17.3302 54.0997 17.8776 54.1108 18.4223 54.1118C18.5339 53.6415 18.6716 53.1791 18.8355 52.7244Z" fill="#FEFEFE"/>
<path d="M51.7495 7.36104C51.7797 7.35921 51.81 7.3578 51.8403 7.3568C52.593 7.33214 53.3607 7.43941 54.0968 7.59052C56.3298 8.04895 58.2554 9.01604 59.9176 10.582C62.004 12.5476 63.3954 15.5629 63.4738 18.4322C63.556 21.4433 62.5519 24.327 60.4632 26.5276C58.1343 28.9811 55.5086 30.3294 52.0942 30.4229C49.12 30.5758 46.1241 29.3312 43.9348 27.3479C41.6905 25.3148 40.5471 22.6762 40.412 19.6713C40.2764 16.6534 41.2362 13.5405 43.3123 11.2993C45.6389 8.7876 48.3316 7.5013 51.7495 7.36104Z" fill="black"/>
<path d="M51.2659 8.02858C53.9585 7.82845 56.7259 8.79019 58.8143 10.4737C58.8827 10.5299 58.9505 10.5868 59.0175 10.6446C59.0846 10.7024 59.1509 10.761 59.2166 10.8203C59.2822 10.8797 59.3471 10.9399 59.4113 11.0008C59.4755 11.0618 59.539 11.1235 59.6017 11.1859C59.6644 11.2484 59.7263 11.3117 59.7875 11.3757C59.8487 11.4396 59.9091 11.5043 59.9686 11.5698C60.0282 11.6352 60.087 11.7013 60.1451 11.7682C60.2031 11.8351 60.2603 11.9026 60.3166 11.9709C60.373 12.0391 60.4285 12.108 60.4832 12.1776C60.538 12.2472 60.5918 12.3174 60.6448 12.3884C60.6978 12.4592 60.75 12.5307 60.8013 12.6029C60.8525 12.6751 60.9029 12.7478 60.9524 12.8212C61.002 12.8946 61.0506 12.9685 61.0984 13.0431C61.1461 13.1176 61.1929 13.1927 61.2388 13.2684C61.2847 13.3441 61.3297 13.4203 61.3738 13.497C61.4179 13.5738 61.461 13.6511 61.5032 13.7289C61.5454 13.8067 61.5867 13.885 61.627 13.9638C61.6673 14.0426 61.7067 14.1219 61.7451 14.2016C61.7835 14.2814 61.8209 14.3616 61.8574 14.4422C61.8938 14.5229 61.9293 14.604 61.9638 14.6855C61.9983 14.767 62.0318 14.8489 62.0643 14.9313C62.0969 15.0136 62.1284 15.0963 62.1589 15.1794C62.1894 15.2625 62.2189 15.3459 62.2474 15.4297C62.2759 15.5135 62.3034 15.5977 62.3298 15.6822C62.3563 15.7666 62.3818 15.8514 62.4062 15.9365C62.4306 16.0215 62.454 16.1069 62.4763 16.1925C62.4987 16.2782 62.52 16.3641 62.5403 16.4503C62.5605 16.5364 62.5798 16.6228 62.598 16.7094C62.6162 16.7961 62.6333 16.8829 62.6494 16.97C62.6655 17.057 62.6805 17.1442 62.6945 17.2316C62.7085 17.319 62.7214 17.4066 62.7333 17.4943C62.7451 17.582 62.7559 17.6699 62.7657 17.7579C63.05 20.5423 62.2445 23.4421 60.4598 25.6166C60.4 25.6892 60.3393 25.7611 60.2777 25.8323C60.2161 25.9034 60.1537 25.9738 60.0903 26.0433C60.027 26.1129 59.9628 26.1817 59.8978 26.2497C59.8327 26.3177 59.7669 26.3849 59.7002 26.4513C59.6335 26.5177 59.566 26.5832 59.4977 26.648C59.4294 26.7127 59.3603 26.7766 59.2905 26.8396C59.2206 26.9026 59.1499 26.9647 59.0785 27.026C59.0071 27.0873 58.935 27.1477 58.8621 27.2071C58.7892 27.2666 58.7156 27.3252 58.6413 27.3829C58.5669 27.4406 58.4919 27.4974 58.4162 27.5532C58.3404 27.609 58.264 27.6639 58.1869 27.7179C58.1098 27.7718 58.0321 27.8248 57.9537 27.8769C57.8753 27.9289 57.7963 27.9799 57.7166 28.03C57.6369 28.0801 57.5567 28.1292 57.4758 28.1773C57.3949 28.2254 57.3135 28.2725 57.2315 28.3187C57.1495 28.3647 57.0669 28.4098 56.9837 28.4539C56.9006 28.4979 56.817 28.541 56.7328 28.583C56.6485 28.625 56.5638 28.6659 56.4786 28.7058C56.3934 28.7458 56.3077 28.7846 56.2216 28.8224C56.1354 28.8602 56.0488 28.8969 55.9617 28.9326C55.8747 28.9683 55.7872 29.0029 55.6992 29.0364C55.6113 29.0699 55.523 29.1023 55.4343 29.1337C55.3455 29.165 55.2564 29.1952 55.167 29.2244C55.0775 29.2535 54.9877 29.2815 54.8976 29.3085C54.8074 29.3354 54.7169 29.3612 54.6261 29.3859C54.5353 29.4106 54.4442 29.4342 54.3529 29.4566C54.2615 29.479 54.1698 29.5004 54.0779 29.5206C53.9861 29.5407 53.8939 29.5598 53.8015 29.5777C53.7091 29.5956 53.6166 29.6124 53.5238 29.6281C53.431 29.6437 53.338 29.6582 53.2449 29.6715C53.1518 29.6848 53.0585 29.697 52.965 29.7081C52.8716 29.7192 52.778 29.7291 52.6843 29.7378C51.8872 29.7769 51.0884 29.7838 50.295 29.6828C48.2106 29.4177 46.1873 28.4744 44.6146 27.0908C42.4824 25.215 41.1965 22.6674 41.0184 19.8252C41.012 19.7356 41.0068 19.6459 41.0027 19.5561C40.9985 19.4664 40.9955 19.3765 40.9936 19.2866C40.9916 19.1968 40.9907 19.107 40.991 19.0171C40.9913 18.9272 40.9927 18.8374 40.9952 18.7475C40.9977 18.6577 41.0013 18.5679 41.006 18.4782C41.0107 18.3884 41.0165 18.2988 41.0234 18.2092C41.0303 18.1196 41.0383 18.0301 41.0475 17.9406C41.0566 17.8512 41.0668 17.7619 41.0782 17.6728C41.0895 17.5837 41.1019 17.4947 41.1154 17.4058C41.1289 17.317 41.1435 17.2283 41.1592 17.1398C41.1749 17.0513 41.1917 16.963 41.2096 16.8749C41.2275 16.7869 41.2464 16.6991 41.2665 16.6114C41.2865 16.5238 41.3077 16.4365 41.3299 16.3494C41.3521 16.2623 41.3754 16.1755 41.3997 16.089C41.4241 16.0025 41.4495 15.9163 41.4759 15.8304C41.5024 15.7445 41.5299 15.659 41.5584 15.5738C41.587 15.4886 41.6167 15.4038 41.6474 15.3193C41.678 15.2348 41.7097 15.1507 41.7425 15.067C41.7752 14.9833 41.809 14.9 41.8438 14.8171C41.8786 14.7343 41.9144 14.6519 41.9512 14.5699C41.988 14.488 42.0258 14.4064 42.0646 14.3254C42.1035 14.2443 42.1433 14.1638 42.1842 14.0837C42.225 14.0037 42.2668 13.9241 42.3096 13.8451C42.3524 13.766 42.3961 13.6875 42.4408 13.6096C42.4856 13.5316 42.5312 13.4543 42.5778 13.3774C42.6245 13.3006 42.6721 13.2243 42.7205 13.1487C42.769 13.073 42.8185 12.998 42.8688 12.9235C42.9192 12.8491 42.9704 12.7753 43.0226 12.7022C43.0748 12.629 43.1279 12.5564 43.1819 12.4846C43.2358 12.4127 43.2906 12.3415 43.3463 12.271C43.4021 12.2005 43.4586 12.1307 43.5161 12.0616C43.5735 11.9925 43.6318 11.9241 43.691 11.8564C45.6263 9.65699 48.3248 8.21824 51.2659 8.02858Z" fill="#FEFEFE"/>
<path d="M56.8497 11.7354C57.2766 11.7306 58.4994 11.6229 58.7786 11.8983C59.0865 12.2019 58.9615 13.29 58.9786 13.7167C59.785 15.0778 60.2874 15.1584 60.31 16.9336C60.3285 18.3913 60.3144 19.851 60.3139 21.3089C60.3135 22.1191 60.3818 22.9942 60.2756 23.7954C60.2507 23.9834 60.2355 24.1087 60.0927 24.2477C59.6961 24.634 59.0608 24.5569 58.5507 24.5587C57.8966 24.5589 55.9339 24.721 55.4758 24.3831C55.2887 24.2451 55.1213 23.9876 55.0892 23.7557C55.0014 23.1219 55.0704 21.8488 55.0716 21.156L55.0734 18.3364C55.0739 17.5669 54.9885 16.6702 55.1866 15.9264C55.4022 15.1169 55.9881 14.4157 56.4668 13.7432C56.4412 13.318 56.338 12.378 56.5083 11.9995C56.5768 11.8475 56.7027 11.7932 56.8497 11.7354Z" fill="black"/>
<path d="M56.8652 12.1746C57.4132 12.1723 57.9824 12.1436 58.5269 12.204C58.5503 12.6022 58.533 13.0123 58.5329 13.4118L56.8676 13.4117C56.8545 13.0008 56.8652 12.5859 56.8652 12.1746Z" fill="#FEFEFE"/>
<path d="M57.0371 13.8612C57.5434 13.8486 58.0491 13.9053 58.5559 13.8875C59.3931 15.2154 59.906 15.4538 59.9056 17.1299C59.4169 17.1645 58.9176 17.1488 58.4273 17.1507C57.4626 17.1509 56.4917 17.172 55.5278 17.1367C55.4751 16.4364 55.5759 15.9475 55.9203 15.3304C56.0639 15.0729 56.696 14.0189 56.9049 13.899C56.9446 13.8762 56.9931 13.8739 57.0371 13.8612Z" fill="#FEFEFE"/>
<path d="M55.5095 17.5632L59.8989 17.5771V18.4867C59.4487 18.4871 57.9863 18.3896 57.6555 18.547C57.5954 18.6355 57.5809 18.6556 57.5714 18.7608C57.5964 18.7995 57.5974 18.8065 57.6376 18.8397C57.8604 19.0246 59.5032 18.9323 59.9028 18.9296L59.9057 19.7894C59.4599 19.7996 57.8722 19.6829 57.6043 19.9429C57.5871 20.0325 57.5895 20.0735 57.6208 20.1593C57.7934 20.3123 59.5315 20.2368 59.873 20.2367L59.8802 21.127C59.4427 21.1268 59.0051 21.1372 58.5675 21.1333C58.3325 21.1312 58.0842 21.0925 57.8513 21.1233C57.7282 21.1396 57.6665 21.1739 57.5917 21.2708C57.5835 21.3688 57.5967 21.4112 57.6408 21.4987C57.7308 21.5685 57.7797 21.568 57.8887 21.5741C58.5541 21.5696 59.2194 21.5747 59.8846 21.5895C59.8927 21.8779 59.8899 22.1675 59.8922 22.4561C59.423 22.4947 58.9601 22.4981 58.4896 22.4984C58.2746 22.4985 57.9968 22.4669 57.7885 22.5029C57.6833 22.521 57.6657 22.5556 57.6007 22.6328C57.5928 22.7336 57.5942 22.7345 57.6504 22.8189C58.0406 22.9966 59.379 22.9041 59.8866 22.905C59.8885 23.1859 59.9482 23.7541 59.7343 23.9622C59.6184 24.0749 59.4086 24.1183 59.2552 24.1392C58.8398 24.1957 58.3885 24.1601 57.9689 24.1572C57.4708 24.1538 56.9753 24.1682 56.4776 24.1748C56.236 24.1781 55.8398 24.2132 55.6603 24.0208C55.5693 23.9233 55.5093 23.7865 55.4951 23.6544C55.4168 22.9299 55.5082 22.1519 55.5071 21.421C55.5052 20.1382 55.4388 18.845 55.5095 17.5632Z" fill="#FEFEFE"/>
<path d="M48.3994 17.0179C49.6724 16.9528 51.1066 17.316 52.1061 18.131C52.9143 18.79 53.3022 19.6496 53.4074 20.6719C53.4498 20.6744 53.4919 20.6778 53.5341 20.6811C53.7257 20.6963 53.8954 20.7365 54.0581 20.8443C54.2458 20.9686 54.3691 21.1439 54.4033 21.3684C54.4371 21.5904 54.3712 21.8314 54.2302 22.0062C53.9961 22.2966 53.7101 22.3562 53.3614 22.398C53.3587 22.6862 53.3768 22.974 53.3789 23.2622C53.3813 23.5997 53.3613 23.9039 53.1025 24.152C52.9888 24.261 52.8569 24.3368 52.7013 24.367C52.2904 24.4465 51.8174 24.4033 51.3985 24.4023L49.039 24.3936L45.9833 24.3969C45.5336 24.3976 44.993 24.4574 44.5552 24.3693C44.3612 24.3303 44.1569 24.2133 44.021 24.0702C43.6852 23.7167 43.8217 22.8499 43.8229 22.3864C43.6555 22.3662 43.4643 22.3542 43.3206 22.2564C43.1286 22.1258 43.0011 21.908 42.9609 21.682C42.9184 21.4424 42.9644 21.1924 43.1138 20.9971C43.3134 20.7363 43.57 20.6791 43.8748 20.6352C43.9228 19.822 44.216 19.1509 44.7656 18.5506C45.6859 17.5454 47.0663 17.0841 48.3994 17.0179Z" fill="black"/>
<path d="M44.2155 22.3556C44.4482 22.3524 44.8627 22.2933 45.0783 22.3677L44.9581 22.4276C44.7389 22.4893 44.4979 22.6424 44.2711 22.6281C44.1927 22.54 44.2166 22.471 44.2155 22.3556Z" fill="#FEFEFE"/>
<path d="M51.9985 22.364C52.3116 22.3623 52.6382 22.2927 52.9379 22.3965C53.0055 22.5006 52.9799 22.552 52.9683 22.6731C52.6844 22.6693 52.2726 22.464 51.9985 22.364Z" fill="#FEFEFE"/>
<path d="M43.6726 21.053C44.1525 21.0438 44.6418 21.075 45.1231 21.0772L49.039 21.0873L51.8067 21.0844C52.3231 21.0834 52.8478 21.0643 53.3632 21.0932C53.5365 21.1029 53.7213 21.1112 53.8632 21.2231C53.946 21.2884 54.0019 21.3913 53.9996 21.4982C53.9971 21.6106 53.935 21.7206 53.8547 21.7964C53.6269 22.0114 53.3777 21.9809 53.0878 21.9771C52.3152 21.9854 50.8306 21.8917 50.1509 22.0151C49.5819 22.1183 49.2169 22.5816 48.6034 22.5901C47.997 22.5984 47.6169 22.1019 47.0495 22.0175C46.1192 21.8791 44.8793 22.0643 43.905 21.994C43.7437 21.9823 43.5569 21.9681 43.4544 21.8294C43.3761 21.7236 43.3595 21.5104 43.3833 21.3855C43.4164 21.2115 43.5348 21.1438 43.6726 21.053Z" fill="#FEFEFE"/>
<path d="M50.5578 22.3637C50.7016 22.3569 50.8551 22.3684 50.9951 22.4022C51.1957 22.4508 52.8965 23.0724 52.9437 23.1188C53.0139 23.1879 53.0571 23.266 53.0485 23.3673C53.0375 23.4976 52.9519 23.6197 52.8617 23.709C52.7243 23.8449 52.5333 23.9289 52.3429 23.9564C51.9825 24.0086 51.1808 23.963 50.7731 23.9688L46.1048 23.9937C45.7222 24.0014 45.3227 24.0317 44.9416 24.0023C44.7186 23.9851 44.4829 23.9266 44.3396 23.7413C44.1588 23.5077 44.2138 23.2658 44.2532 22.9967C44.9896 22.8563 45.7796 22.3861 46.5044 22.3857C47.3297 22.3851 47.8935 23.0586 48.7627 22.9884C49.4189 22.9352 49.8624 22.4398 50.5027 22.3692L50.5578 22.3637Z" fill="#FEFEFE"/>
<path d="M48.3369 17.4637C49.3408 17.3316 50.7204 17.7133 51.554 18.2785C52.4274 18.8707 52.8122 19.6405 53.0005 20.6558C51.6801 20.6782 50.3597 20.6876 49.0392 20.6841L44.2983 20.6713C44.3798 20.0019 44.6036 19.4332 45.0507 18.9208C45.8616 17.9914 47.1358 17.5461 48.3369 17.4637Z" fill="#FEFEFE"/>
<path d="M51.348 40.6044C51.3622 40.6027 51.3762 40.6004 51.3905 40.5993C54.2181 40.3797 57.2106 41.5323 59.3777 43.2956C61.7146 45.1971 63.1941 48.1636 63.4864 51.1418C63.4946 51.2339 63.5018 51.326 63.5077 51.4183C63.5137 51.5106 63.5186 51.6029 63.5223 51.6952C63.5261 51.7877 63.5287 51.8801 63.5302 51.9725C63.5317 52.0649 63.532 52.1574 63.5313 52.2498C63.5305 52.3423 63.5287 52.4347 63.5256 52.5271C63.5227 52.6195 63.5186 52.7118 63.5133 52.8041C63.5081 52.8965 63.5018 52.9887 63.4943 53.0809C63.4868 53.173 63.4782 53.265 63.4685 53.357C63.4588 53.4489 63.448 53.5407 63.4361 53.6324C63.4241 53.7241 63.4111 53.8156 63.3969 53.907C63.3827 53.9983 63.3675 54.0895 63.3511 54.1805C63.3347 54.2715 63.3173 54.3622 63.2987 54.4528C63.2801 54.5434 63.2605 54.6337 63.2397 54.7238C63.219 54.8139 63.1971 54.9037 63.1741 54.9933C63.1512 55.0828 63.1272 55.1721 63.1021 55.2611C63.0769 55.3501 63.0507 55.4387 63.0235 55.527C62.9962 55.6154 62.9679 55.7034 62.9385 55.7911C62.909 55.8787 62.8786 55.966 62.8471 56.0529C62.8155 56.1398 62.783 56.2263 62.7494 56.3124C62.7158 56.3985 62.6811 56.4842 62.6454 56.5695C62.6097 56.6548 62.573 56.7397 62.5352 56.824C62.4974 56.9084 62.4586 56.9924 62.4188 57.0758C62.3791 57.1593 62.3383 57.2422 62.2965 57.3247C62.2546 57.4071 62.2118 57.4891 62.168 57.5705C62.1242 57.6519 62.0794 57.7328 62.0336 57.8131C61.9879 57.8934 61.9411 57.9732 61.8934 58.0524C61.8458 58.1316 61.7971 58.2102 61.7475 58.2882C61.6979 58.3662 61.6474 58.4436 61.5959 58.5204C61.5444 58.5972 61.492 58.6733 61.4387 58.7489C61.3853 58.8244 61.3311 58.8992 61.2759 58.9734C61.2207 59.0476 61.1647 59.1211 61.1078 59.194C61.0508 59.2668 60.993 59.339 60.9343 59.4104C59.4593 61.1963 57.2908 62.6047 55.0498 63.2187C54.2896 63.427 53.4904 63.5359 52.7067 63.6084C49.794 63.7513 46.7552 62.8734 44.528 60.9445C44.4545 60.882 44.3819 60.8186 44.31 60.7543C44.2382 60.69 44.1671 60.6248 44.0969 60.5587C44.0267 60.4926 43.9573 60.4256 43.8887 60.3578C43.8202 60.29 43.7526 60.2212 43.6858 60.1516C43.619 60.0821 43.553 60.0117 43.488 59.9405C43.423 59.8694 43.3589 59.7973 43.2956 59.7245C43.2324 59.6517 43.1701 59.5781 43.1088 59.5037C43.0474 59.4293 42.987 59.3542 42.9275 59.2782C42.868 59.2023 42.8095 59.1257 42.752 59.0483C42.6945 58.9709 42.6379 58.8928 42.5823 58.814C42.5267 58.7352 42.4722 58.6557 42.4186 58.5755C42.365 58.4954 42.3125 58.4145 42.2609 58.333C42.2094 58.2515 42.1589 58.1693 42.1094 58.0866C42.06 58.0038 42.0116 57.9204 41.9642 57.8364C41.9168 57.7524 41.8705 57.6678 41.8253 57.5827C41.78 57.4975 41.7359 57.4118 41.6928 57.3255C41.6497 57.2392 41.6077 57.1524 41.5668 57.0651C41.5259 56.9777 41.4861 56.8899 41.4475 56.8016C41.4088 56.7133 41.3712 56.6244 41.3348 56.5351C41.2983 56.4458 41.263 56.3561 41.2288 56.266C41.1946 56.1758 41.1616 56.0852 41.1297 55.9942C41.0978 55.9032 41.067 55.8118 41.0375 55.72C41.0078 55.6283 40.9794 55.5361 40.9521 55.4436C40.9248 55.3511 40.8987 55.2583 40.8738 55.1652C40.8488 55.072 40.8251 54.9786 40.8025 54.8848C40.7798 54.7911 40.7584 54.697 40.7382 54.6027C40.718 54.5085 40.699 54.414 40.6811 54.3192C40.6633 54.2244 40.6466 54.1294 40.6312 54.0343C40.6157 53.9391 40.6015 53.8437 40.5885 53.7481C40.5754 53.6526 40.5635 53.5569 40.5529 53.4611C40.5422 53.3652 40.5328 53.2693 40.5246 53.1732C40.5163 53.0771 40.5093 52.9809 40.5035 52.8847C40.2911 49.7622 41.2721 46.7227 43.3407 44.3601C45.4494 41.9519 48.1887 40.8112 51.348 40.6044Z" fill="black"/>
<path d="M51.1982 41.31C53.7491 41.0197 56.7525 42.1053 58.7487 43.6845C61.0171 45.4792 62.4461 48.2056 62.7709 51.0623C63.0875 53.8473 62.2037 56.7362 60.456 58.9167C58.5591 61.2832 55.7551 62.5818 52.781 62.9027C50.0285 63.1229 47.1198 62.2385 45.0105 60.4381C44.9412 60.3787 44.8727 60.3184 44.8049 60.2573C44.7371 60.1962 44.67 60.1343 44.6038 60.0715C44.5375 60.0087 44.472 59.9451 44.4073 59.8807C44.3427 59.8163 44.2788 59.7511 44.2158 59.6851C44.1527 59.6191 44.0905 59.5523 44.0291 59.4848C43.9677 59.4172 43.9071 59.3489 43.8474 59.2799C43.7877 59.2108 43.7289 59.141 43.6709 59.0706C43.613 59 43.5559 58.9288 43.4997 58.8568C43.4435 58.7849 43.3883 58.7123 43.3339 58.639C43.2795 58.5657 43.226 58.4918 43.1735 58.4171C43.1209 58.3425 43.0693 58.2672 43.0187 58.1913C42.9679 58.1154 42.9182 58.0388 42.8695 57.9617C42.8207 57.8845 42.7729 57.8067 42.7261 57.7284C42.6793 57.65 42.6334 57.5711 42.5885 57.4916C42.5437 57.4121 42.4998 57.3321 42.4569 57.2515C42.414 57.171 42.3721 57.0899 42.3313 57.0082C42.2904 56.9266 42.2506 56.8445 42.2117 56.7619C42.173 56.6793 42.1352 56.5962 42.0985 56.5127C42.0617 56.4291 42.0259 56.3451 41.9913 56.2607C41.9567 56.1762 41.923 56.0914 41.8904 56.0061C41.8579 55.9208 41.8264 55.8351 41.796 55.749C41.7656 55.663 41.7363 55.5766 41.708 55.4898C41.6797 55.403 41.6525 55.3159 41.6264 55.2284C41.6003 55.141 41.5753 55.0532 41.5514 54.9651C41.5275 54.877 41.5046 54.7887 41.4829 54.7C41.4612 54.6114 41.4406 54.5224 41.4211 54.4333C41.4016 54.3441 41.3832 54.2547 41.3659 54.1651C41.3486 54.0754 41.3324 53.9856 41.3174 53.8956C41.3023 53.8056 41.2884 53.7154 41.2756 53.625C41.2627 53.5346 41.251 53.4441 41.2405 53.3534C41.2299 53.2628 41.2205 53.172 41.2123 53.081C41.2039 52.9902 41.1968 52.8992 41.1907 52.8081C41.184 52.7204 41.1783 52.6325 41.1738 52.5446C41.1692 52.4567 41.1657 52.3688 41.1633 52.2808C41.1609 52.1928 41.1595 52.1048 41.1592 52.0168C41.159 51.9287 41.1598 51.8407 41.1617 51.7528C41.1636 51.6648 41.1665 51.5768 41.1706 51.4888C41.1746 51.4009 41.1797 51.3131 41.1859 51.2252C41.1921 51.1374 41.1993 51.0497 41.2077 50.9621C41.216 50.8745 41.2254 50.787 41.2359 50.6996C41.2464 50.6122 41.2579 50.5249 41.2706 50.4378C41.2832 50.3507 41.2968 50.2637 41.3116 50.177C41.3263 50.0902 41.3421 50.0036 41.359 49.9172C41.3758 49.8308 41.3937 49.7447 41.4128 49.6587C41.4317 49.5727 41.4517 49.487 41.4728 49.4016C41.4938 49.3161 41.516 49.2309 41.5391 49.1461C41.5623 49.0611 41.5865 48.9765 41.6117 48.8921C41.6369 48.8078 41.6632 48.7238 41.6905 48.6402C41.7177 48.5565 41.7461 48.4731 41.7754 48.3901C41.8047 48.3071 41.835 48.2245 41.8664 48.1423C41.8977 48.06 41.93 47.9781 41.9634 47.8967C41.9967 47.8152 42.031 47.7342 42.0664 47.6535C42.1017 47.5729 42.138 47.4928 42.1753 47.4131C42.2126 47.3333 42.2509 47.2541 42.2901 47.1753C42.3293 47.0965 42.3695 47.0182 42.4107 46.9404C42.4518 46.8626 42.4939 46.7852 42.537 46.7084C42.58 46.6317 42.624 46.5554 42.6689 46.4798C42.7138 46.404 42.7596 46.3289 42.8063 46.2543C42.8531 46.1797 42.9008 46.1057 42.9494 46.0323C42.9979 45.9589 43.0473 45.8861 43.0977 45.8139C43.148 45.7417 43.1992 45.6701 43.2513 45.5992C43.3034 45.5282 43.3564 45.4579 43.4102 45.3882C43.464 45.3186 43.5186 45.2496 43.5741 45.1813C43.6296 45.113 43.686 45.0454 43.7431 44.9784C45.6692 42.7547 48.2767 41.5231 51.1982 41.31Z" fill="#FEFEFE"/>
<path d="M51.9791 45.0018C52.0477 44.9967 52.1497 44.9831 52.2168 45.0028C52.5603 45.1033 52.8635 46.1779 53.035 46.5056L53.0659 46.5642C53.4429 46.564 54.3788 46.4711 54.6527 46.7485C54.713 46.8097 54.727 46.8718 54.722 46.9554C54.6984 47.3555 53.8408 47.9083 53.5575 48.1896L53.5207 48.2264C53.5834 48.5396 53.8547 49.5847 53.733 49.8378C53.6916 49.9243 53.6457 49.9767 53.5474 49.9955C53.259 50.0506 52.3337 49.4663 52.0486 49.3117C51.597 49.5092 51.1241 49.9431 50.6359 50.0176C50.5371 50.0327 50.497 50.0264 50.4189 49.9667C50.2386 49.5616 50.5639 48.6491 50.6441 48.2096C50.2422 47.8204 49.8213 47.4555 49.4421 47.0431C49.4624 46.9385 49.4831 46.8289 49.55 46.7424C49.7643 46.4651 50.8729 46.5465 51.2589 46.5281C51.4532 46.0012 51.6151 45.4395 51.9791 45.0018Z" fill="black"/>
<path d="M52.1076 45.5881C52.3984 45.9525 52.4102 46.522 52.8018 46.9611C53.2565 47.0024 53.7122 47.018 54.1688 47.0079C53.8023 47.3928 53.3679 47.6927 53.0474 48.1252C53.0916 48.5853 53.2412 49.0289 53.2779 49.4935C52.8915 49.2463 52.5043 48.9859 52.0815 48.805C51.6559 48.9483 51.2363 49.2428 50.8462 49.4678C50.9288 49.001 51.0525 48.5422 51.1323 48.0741C50.7812 47.6905 50.4081 47.3296 50.0132 46.9912C50.4139 46.9822 51.046 47.0775 51.4072 46.9134C51.8006 46.7347 51.9714 45.9613 52.1076 45.5881Z" fill="#FEFEFE"/>
<path d="M46.1244 45.012C46.1983 45.0017 46.3126 44.9862 46.3855 45.0075C46.7262 45.1068 47.0786 46.1844 47.2315 46.5133C47.6884 46.5263 48.3404 46.465 48.7624 46.6372C48.8816 46.6859 48.9283 46.7427 48.9808 46.8572C48.9628 47.2228 48.032 47.9201 47.7355 48.1914C47.8556 48.5676 48.1245 49.3472 48.0763 49.724C48.0604 49.848 48.0108 49.8972 47.915 49.9706C47.5077 50.0593 46.955 49.6488 46.6071 49.4534C46.5504 49.4092 46.4756 49.3453 46.3997 49.3407C45.9429 49.3129 45.3877 50.0335 44.9031 49.974C44.8044 49.9619 44.7446 49.9089 44.6904 49.8297C44.4895 49.5357 44.7951 48.5942 44.8749 48.2374C44.5607 47.9126 43.6406 47.344 43.6458 46.8693C43.6463 46.8159 43.664 46.7549 43.7022 46.7166C43.9039 46.515 45.0725 46.5585 45.402 46.5315C45.6074 46.1197 45.8239 45.318 46.1244 45.012Z" fill="black"/>
<path d="M46.2843 45.5854C46.6077 45.8853 46.5666 46.5349 46.9067 46.8548C47.1548 47.0882 48.0522 46.9906 48.4048 46.9915C48.0251 47.3549 47.6173 47.6652 47.2651 48.0613C47.3549 48.5395 47.4604 49.0047 47.6048 49.4696C47.2075 49.2649 46.8345 49.0176 46.439 48.814C45.9824 48.8864 45.5164 49.2544 45.1277 49.4974C45.1653 49.1295 45.2807 48.7725 45.3182 48.4074C45.3327 48.2649 45.3384 48.1202 45.2676 47.9908C45.1766 47.8244 44.4848 47.3081 44.2856 47.0529C44.278 47.0431 44.2706 47.033 44.2632 47.0231C44.5863 47.0152 45.4179 47.0689 45.6802 46.941C45.9776 46.7959 46.1639 45.9158 46.2843 45.5854Z" fill="#FEFEFE"/>
<path d="M57.7515 45.0017C58.4709 45.0315 58.2965 46.1849 58.7322 46.5142C59.1194 46.8066 60.0162 46.4575 60.4218 46.8023C60.513 46.8799 60.5361 46.9654 60.5442 47.0798C60.3675 47.4797 59.5939 48.0285 59.2473 48.3288C59.3702 48.7563 59.6279 49.6473 59.4753 50.0549C59.4303 50.0975 59.4124 50.13 59.3482 50.1413C58.9854 50.2052 58.2001 49.5629 57.8758 49.3535C57.5427 49.2795 56.7712 50.1376 56.3662 50.1391C56.2818 50.1394 56.2191 50.1232 56.1671 50.0515C55.9478 49.7486 56.2939 48.654 56.3936 48.3022C56.0509 47.9401 55.5357 47.6365 55.2624 47.231C55.1879 47.1205 55.1376 46.9929 55.1704 46.8592C55.2772 46.4243 56.4941 46.6969 56.8457 46.5297C57.3028 46.3125 57.231 45.3402 57.7515 45.0017Z" fill="black"/>
<path d="M57.8174 45.6648C58.1153 45.9252 58.1284 46.5218 58.3704 46.8464C58.5804 47.1279 59.4904 47.1058 59.8557 47.1506C59.5195 47.5329 59.0983 47.8246 58.7715 48.2221C58.89 48.6857 59.0104 49.1501 59.0776 49.6243C58.6689 49.352 58.264 49.0705 57.8371 48.8271C57.4514 48.9291 56.8507 49.3462 56.5232 49.5878C56.6881 49.1026 56.782 48.6492 56.845 48.1429C56.5655 47.7409 56.1356 47.4051 55.7815 47.0684C56.1598 47.0529 56.6767 47.119 57.0324 46.998C57.4277 46.8636 57.6501 46.0303 57.8174 45.6648Z" fill="#FEFEFE"/>
<path d="M56.0991 51.8191C56.2621 51.8093 56.4192 51.8096 56.5807 51.837C57.0491 51.9166 57.4308 52.1696 57.7022 52.5585C58.318 53.4407 58.3446 54.6304 58.1421 55.6469C57.8049 57.3383 56.7493 58.969 55.3068 59.9229C54.6371 60.3658 53.7815 60.7124 52.9676 60.5288C52.3558 60.3908 51.981 60.0411 51.6656 59.5226C51.3354 59.6068 51.0224 59.7466 50.6894 59.8269C49.6415 60.0792 48.6378 59.8558 47.6597 59.4638C47.554 59.4166 47.4499 59.3661 47.3473 59.3122C47.2449 59.2583 47.1442 59.2013 47.0454 59.141C46.9465 59.0807 46.8497 59.0174 46.7549 58.951C46.66 58.8846 46.5674 58.8152 46.4771 58.7428C46.3866 58.6705 46.2986 58.5954 46.213 58.5175C46.1274 58.4396 46.0443 58.359 45.9639 58.2758C45.8834 58.1926 45.8056 58.1069 45.7306 58.0187C45.6556 57.9305 45.5834 57.8401 45.5141 57.7473C45.1656 57.2801 44.2053 55.6083 44.3145 55.0295C44.3373 54.9087 44.4047 54.8113 44.5105 54.7487C44.7658 54.5975 48.7178 53.7261 49.2511 53.64C49.3429 53.6251 49.4106 53.6538 49.4962 53.6854C49.6106 53.7276 49.6802 53.7424 49.8015 53.7404C49.8563 53.6765 49.8394 53.7017 49.8749 53.6446C49.8997 53.6047 49.9255 53.5556 49.9577 53.5213C50.0856 53.3854 53.48 52.6158 53.7561 52.6212C53.8052 52.6614 53.8353 52.7001 53.8688 52.7532L53.9078 52.8162C54.0902 52.7409 54.27 52.5822 54.4341 52.4698C54.9724 52.1009 55.4507 51.9009 56.0991 51.8191Z" fill="black"/>
<path d="M53.7282 57.8074C53.7672 57.8184 53.8379 57.8324 53.8748 57.8542C53.9181 57.8797 53.9494 57.9039 53.9521 57.9555C53.9638 58.1685 53.6754 58.4893 53.5502 58.6621C53.5374 58.6674 53.525 58.674 53.5118 58.6779C53.4268 58.7028 53.417 58.6989 53.3464 58.6546C53.3442 58.6385 53.3404 58.6225 53.3396 58.6063C53.3266 58.3269 53.5641 58.0198 53.7282 57.8074Z" fill="#FEFEFE"/>
<path d="M50.2988 54.2915C50.8961 54.6581 51.4299 55.0614 52.0601 55.3818L51.9101 55.7315L51.8454 55.8583C51.6047 55.8006 50.5221 54.5524 50.2988 54.2915Z" fill="#FEFEFE"/>
<path d="M50.3372 53.9905C50.8688 54.0037 51.9239 54.3653 52.4617 54.5422L52.2904 54.9119L52.2467 54.9813C52.0106 54.9827 50.6686 54.1454 50.3372 53.9905Z" fill="#FEFEFE"/>
<path d="M54.5404 56.147C54.7579 56.1434 54.9466 56.3219 55.1175 56.4411C55.097 56.4993 55.0754 56.5571 55.0525 56.6144C54.9082 56.9769 54.6904 57.2783 54.3246 57.4365C54.2289 57.451 54.1202 57.4645 54.0237 57.4471C53.9286 57.4301 53.8377 57.3761 53.7899 57.2904C53.7247 57.1732 53.7568 57.0161 53.7979 56.8962C53.9268 56.5208 54.1942 56.3092 54.5404 56.147Z" fill="#FEFEFE"/>
<path d="M55.4186 54.4009C55.4781 54.4032 55.5372 54.4044 55.5954 54.4183C55.7041 54.4443 55.8161 54.5255 55.8629 54.6279C55.9289 54.7725 55.9012 54.9389 55.8558 55.0849C55.7429 55.4484 55.5034 55.7572 55.1651 55.9314C55.0418 55.7945 54.7994 55.7127 54.7182 55.5675C54.6506 55.4464 54.663 55.3193 54.7062 55.1915C54.825 54.8408 55.0996 54.5718 55.4186 54.4009Z" fill="#FEFEFE"/>
<path d="M53.4999 53.1152L53.5201 53.117L53.5517 53.156C53.446 53.4144 52.9508 53.9124 52.7597 54.1693L51.1853 53.8196L50.7363 53.7402C51.1399 53.622 51.5592 53.5518 51.9696 53.4602C52.4801 53.3464 52.9875 53.2208 53.4999 53.1152Z" fill="#FEFEFE"/>
<path d="M49.9216 54.4617C50.3498 54.6984 50.7443 55.3576 51.0797 55.7255C51.2742 55.9387 51.4857 56.1144 51.7155 56.2881C51.5562 56.7576 51.4538 57.2164 51.4235 57.7119C51.4171 57.7781 51.4061 57.8292 51.3824 57.8914C51.3105 57.8465 51.3005 57.8125 51.265 57.7358C51.1089 57.3987 51.0116 57.0254 50.8688 56.68C50.5617 55.937 50.225 55.2063 49.9216 54.4617Z" fill="#FEFEFE"/>
<path d="M49.849 55.3264C49.8595 55.3416 49.8722 55.3556 49.8806 55.3721C50.043 55.6932 50.958 58.1265 50.9162 58.3052L50.7956 58.3465C50.455 58.4118 50.1042 58.4468 49.7615 58.505C49.8121 57.4471 49.8052 56.3855 49.849 55.3264Z" fill="#FEFEFE"/>
<path d="M48.8212 54.1121L48.8896 54.1241C48.8609 54.1881 48.8741 54.1777 48.8292 54.219C48.5859 54.4423 46.3727 56.0271 46.2226 56.0271L46.1647 55.922C46.0405 55.5778 45.9111 55.2406 45.8345 54.882C46.8336 54.6391 47.8292 54.3824 48.8212 54.1121Z" fill="#FEFEFE"/>
<path d="M48.9662 54.5562C48.97 54.6403 48.1202 56.2062 48.0237 56.4048C47.8238 56.8109 47.6417 57.2247 47.4772 57.6464C47.2855 57.4737 47.111 57.2997 46.9434 57.1034C46.7826 56.8928 46.6198 56.6837 46.4548 56.4762C47.2855 55.9185 48.2647 55.263 48.9662 54.5562Z" fill="#FEFEFE"/>
<path d="M49.4858 54.1726C49.5011 54.2532 49.4994 54.215 49.4921 54.3011C49.3782 55.6665 49.3534 57.037 49.3266 58.4061C48.9383 58.3292 48.58 58.2456 48.2159 58.0864L47.8259 57.8964C48.3367 56.8986 48.8157 55.8718 49.2814 54.8519C49.3827 54.63 49.3722 54.3903 49.4858 54.1726Z" fill="#FEFEFE"/>
<path d="M45.132 55.005C45.282 54.9917 45.3472 54.9485 45.4054 55.1185C45.8824 56.5126 46.4318 57.5894 47.7645 58.3427C48.9531 59.0145 50.1448 58.9905 51.4244 58.6345C51.47 58.8411 51.5451 59.0725 51.5317 59.2839L51.462 59.3265C50.7171 59.4393 49.9759 59.5744 49.2223 59.4515C47.7885 59.2176 46.6039 58.4982 45.7549 57.3122C45.4351 56.8654 44.7435 55.6496 44.8346 55.1128C44.9087 55.0373 45.0321 55.0278 45.132 55.005Z" fill="#FEFEFE"/>
<path d="M56.036 52.2285C56.1279 52.2154 56.2208 52.2174 56.3132 52.2235C56.4293 52.2312 56.523 52.2454 56.5998 52.3352C56.5361 52.7644 56.0319 53.5295 55.8177 53.9472C55.6791 53.9604 55.5348 53.9695 55.3989 53.9998C55.0516 54.0775 54.7442 54.3302 54.5559 54.6254C54.3055 55.018 54.2523 55.3792 54.3552 55.8214C53.9593 56.0619 53.5513 56.3133 53.3957 56.7787C53.3001 57.0646 53.3523 57.3575 53.4899 57.6185C53.3866 57.7285 53.283 57.8434 53.2001 57.9697C53.0458 58.2048 52.9185 58.5267 52.9839 58.8115C53.0087 58.9195 53.0656 59.0193 53.17 59.0679C53.2696 59.1142 53.4003 59.0909 53.4997 59.0546C54.022 58.8637 54.267 58.2302 54.495 57.7676C54.6171 57.7136 54.7406 57.6606 54.8461 57.5771C55.2681 57.2437 55.4646 56.7248 55.5147 56.2051C55.7725 55.9683 56.0034 55.7278 56.1523 55.4052C56.3604 54.9538 56.2993 54.5575 56.1271 54.1138C56.449 53.5865 56.7328 53.025 56.9938 52.465C57.4517 52.8493 57.6021 53.2305 57.7569 53.7892C57.9832 55.2742 57.5704 56.767 56.704 57.9869C56.0345 58.9296 55.0108 59.939 53.8195 60.1324C53.3422 60.2098 52.8212 60.1308 52.428 59.8357C52.0501 59.552 51.8804 59.1173 51.8202 58.662C51.6082 57.057 52.3812 55.292 53.3356 54.0421C54.0178 53.1487 54.8929 52.3807 56.036 52.2285Z" fill="#FEFEFE"/>
</g>
<defs>
<clipPath id="clip0_712_1045">
<rect width="71" height="71" fill="white"/>
</clipPath>
</defs>
</svg>
