<svg width="50" height="50" viewBox="0 0 50 50" fill="none" xmlns="http://www.w3.org/2000/svg">
<g clip-path="url(#clip0_2091_2513)">
<path d="M47.6063 35.2659H46.5903C46.7343 34.4783 46.8085 33.6771 46.8085 32.8723C46.8085 25.5106 40.8192 19.5215 33.4574 19.5215H26.1028C19.0082 19.5215 13.1891 25.0845 12.7762 32.0776L10.6864 32.0841L9.09375 30.5005C8.44063 29.8474 7.57246 29.4877 6.64893 29.4877C5.72529 29.4877 4.85713 29.8474 4.2041 30.5005C3.55117 31.1534 3.19141 32.0217 3.19141 32.9452C3.19141 33.8114 3.50771 34.6288 4.08584 35.2658H2.39346C1.07383 35.2659 0 36.3396 0 37.6596C0 38.9795 1.07383 40.0532 2.39365 40.0532H3.41426L3.99619 41.7991C4.66406 43.8028 6.8418 45.3725 8.954 45.3725H41.0461C43.1582 45.3725 45.3358 43.8029 46.0039 41.7991L46.5858 40.0532H47.6064C48.9263 40.0532 50.0001 38.9795 50.0001 37.6596C50 36.3396 48.9262 35.2659 47.6063 35.2659ZM45.2128 32.8724C45.2128 33.6788 45.1285 34.4812 44.9646 35.266H43.3299C43.5192 34.4858 43.6171 33.6849 43.6171 32.8724C43.6171 27.2703 39.0596 22.7128 33.4575 22.7128C31.3492 22.7128 29.3254 23.3558 27.6049 24.5722C27.2451 24.8266 27.1596 25.3245 27.4141 25.6843C27.6685 26.044 28.1661 26.1297 28.5262 25.8751C29.9758 24.8502 31.681 24.3085 33.4574 24.3085C38.1796 24.3085 42.0213 28.1502 42.0213 32.8724C42.0213 33.6889 41.905 34.4913 41.6789 35.266H25.2359C25.0099 34.4913 24.8936 33.6889 24.8936 32.8724C24.8936 31.0958 25.4353 29.3905 26.4602 27.941C26.7146 27.5813 26.6291 27.0834 26.2693 26.8289C25.9092 26.5744 25.4117 26.66 25.1572 27.0197C23.9408 28.7401 23.2979 30.764 23.2979 32.8724C23.2979 33.6848 23.3957 34.4857 23.5851 35.266H21.9503C21.7863 34.4813 21.7021 33.6789 21.7021 32.8724C21.7021 26.3906 26.9756 21.1174 33.4574 21.1174C39.9393 21.1174 45.2128 26.3906 45.2128 32.8724ZM14.3476 32.8731C14.3476 26.3909 19.6211 21.1173 26.1028 21.1173H27.1327C22.9527 23.3752 20.1063 27.7974 20.1063 32.8723C20.1063 33.6771 20.1807 34.4783 20.3245 35.2659H14.3475V32.8731H14.3476ZM5.33252 31.6288C5.68408 31.2772 6.15156 31.0835 6.64893 31.0835C7.14629 31.0835 7.61367 31.2771 7.96699 31.6304L9.79561 33.4489C9.94561 33.5982 10.1488 33.6848 10.3607 33.6811L12.752 33.6736V35.266H6.3373L5.33242 34.2617C4.98086 33.9102 4.78721 33.4426 4.78721 32.9452C4.78721 32.448 4.98086 31.9805 5.33252 31.6288ZM47.6063 38.4574H46.0272C46.0247 38.4574 10.3724 38.4574 10.3724 38.4574C9.93164 38.4574 9.57451 38.8146 9.57451 39.2553C9.57451 39.6959 9.93164 40.0531 10.3724 40.0531H44.9036L44.4898 41.2944C44.0413 42.6398 42.4644 43.7766 41.046 43.7766H8.95391C7.53564 43.7766 5.95859 42.6398 5.51006 41.2944L5.09629 40.0531H7.18076C7.62148 40.0531 7.97861 39.6959 7.97861 39.2553C7.97861 38.8146 7.62148 38.4574 7.18076 38.4574H3.97549C3.97266 38.4574 2.39355 38.4574 2.39355 38.4574C1.95352 38.4574 1.5957 38.0995 1.5957 37.6596C1.5957 37.2195 1.95361 36.8617 2.39355 36.8617H47.6063C48.0464 36.8617 48.4042 37.2196 48.4042 37.6596C48.4043 38.0996 48.0464 38.4574 47.6063 38.4574Z" fill="black"/>
<path d="M33.4571 28.8828C31.2573 28.8828 29.4678 30.6724 29.4678 32.8722C29.4678 33.3128 29.8249 33.67 30.2656 33.67C30.7063 33.67 31.0635 33.3128 31.0635 32.8722C31.0635 31.5522 32.1373 30.4785 33.4571 30.4785C34.777 30.4785 35.8508 31.5522 35.8508 32.8722C35.8508 33.3128 36.2079 33.67 36.6486 33.67C37.0894 33.67 37.4465 33.3128 37.4465 32.8722C37.4465 30.6724 35.6569 28.8828 33.4571 28.8828Z" fill="black"/>
<path d="M22.3408 14.2024C22.3408 12.9432 22.6654 12.3479 23.0412 11.6589C23.4607 10.8896 23.9365 10.0175 23.9365 8.35137C23.9365 6.68848 23.4627 5.8168 23.0436 5.04863C22.909 4.79824 22.6446 4.62793 22.3404 4.62793C21.8998 4.62793 21.5426 4.98516 21.5426 5.42578C21.5426 5.56484 21.5783 5.69551 21.6409 5.80928C22.0166 6.49785 22.3408 7.09287 22.3408 8.35137C22.3408 9.61064 22.0162 10.2059 21.6404 10.8949C21.2209 11.6643 20.7451 12.5363 20.7451 14.2024C20.7451 15.8686 21.2208 16.7405 21.6403 17.5099C21.7852 17.7754 22.059 17.9258 22.3415 17.9258C22.4705 17.9258 22.6015 17.8944 22.7228 17.8282C23.1097 17.6173 23.2522 17.1326 23.0411 16.7458C22.6654 16.0566 22.3408 15.4617 22.3408 14.2024Z" fill="black"/>
<path d="M27.6592 14.2024C27.6592 12.9432 27.9838 12.3479 28.3596 11.6589C28.7791 10.8896 29.2549 10.0175 29.2549 8.35137C29.2549 6.68848 28.7811 5.8168 28.3619 5.04863C28.2273 4.79824 27.963 4.62793 27.6588 4.62793C27.2182 4.62793 26.8609 4.98516 26.8609 5.42578C26.8609 5.56484 26.8967 5.69551 26.9593 5.80928C27.335 6.49785 27.6592 7.09287 27.6592 8.35137C27.6592 9.61064 27.3346 10.2059 26.9588 10.8949C26.5393 11.6643 26.0635 12.5363 26.0635 14.2024C26.0635 15.8686 26.5392 16.7405 26.9587 17.5099C27.1035 17.7754 27.3773 17.9258 27.6599 17.9258C27.7889 17.9258 27.9198 17.8944 28.0411 17.8282C28.428 17.6173 28.5706 17.1326 28.3595 16.7458C27.9838 16.0566 27.6592 15.4617 27.6592 14.2024Z" fill="black"/>
</g>
<defs>
<clipPath id="clip0_2091_2513">
<rect width="50" height="50" fill="white"/>
</clipPath>
</defs>
</svg>
