<svg width="31" height="30" viewBox="0 0 31 30" fill="none" xmlns="http://www.w3.org/2000/svg">
<path d="M6.54754 1.20831C6.09075 1.39581 5.53013 1.74998 5.30174 1.97915C4.86571 2.41665 4.2428 3.74998 4.13899 4.47915C4.09746 4.74998 3.80677 4.93748 3.22539 5.10415C2.08341 5.39581 1.79272 5.66665 1.48127 6.79165C1.066 8.29165 1.79272 10.2083 2.7686 10.2083C3.30845 10.2083 3.88982 10.5416 4.03517 10.9166C4.26357 11.5208 3.76524 12.5 3.18387 12.625C2.33257 12.7916 2.02112 13 1.6889 13.6666C1.08676 14.8541 1.4605 17.0625 2.3118 17.5208C2.47791 17.6041 2.87242 17.7291 3.18387 17.7916C3.55761 17.875 3.78601 18.125 3.95211 18.5625C4.28433 19.5416 3.80677 20.2083 2.74784 20.2083C1.79272 20.2083 1.066 22.1458 1.48127 23.625C1.79272 24.75 2.08341 25.0208 3.22539 25.3125C3.80677 25.4791 4.09746 25.6666 4.13899 25.9375C4.2428 26.6666 4.88647 28 5.3225 28.4583C6.38143 29.5416 6.7967 29.5833 16.6386 29.5833C24.6532 29.5833 25.8783 29.5416 26.6465 29.2291C27.6432 28.8541 28.2038 28.3541 28.7021 27.3958C29.5119 25.875 29.5327 7.85415 28.7229 4.16665C28.3284 2.31248 27.9131 1.68748 26.7504 1.20831C25.9821 0.895813 24.8401 0.854145 16.6386 0.854145C8.41625 0.854145 7.29503 0.895813 6.54754 1.20831ZM22.66 2.62498C24.6325 2.70831 25.8368 2.85415 26.1275 3.04165C26.8957 3.52081 27.2071 5.58331 27.3525 11.5833C27.4355 14.5416 27.4148 19.125 27.3317 21.75L27.1864 26.5416L26.6258 27.0833C26.1067 27.625 25.9613 27.6458 22.8676 27.7916C18.8187 28 14.5415 28 10.368 27.7916C7.17044 27.6458 7.08739 27.625 6.56831 27.0833C5.86235 26.3333 5.88311 25.2916 6.60983 25.3541C7.91793 25.5 8.9561 24.3125 8.9561 22.6875C8.9561 21.3541 8.27091 20.375 7.19121 20.1458C5.88311 19.8541 5.73777 19.7291 5.73777 18.8333C5.73777 18.0208 5.73777 18.0208 6.73441 17.875C7.29503 17.8125 7.8764 17.625 8.04251 17.4791C8.91457 16.75 9.20526 15.1458 8.68617 13.8958C8.29167 12.9791 7.89716 12.7083 6.73441 12.5416C5.73777 12.3958 5.73777 12.3958 5.73777 11.5833C5.73777 10.6875 5.88311 10.5625 7.19121 10.2708C9.86969 9.70831 9.3506 4.77081 6.60983 5.06248C5.88311 5.12498 5.86235 4.08331 6.58907 3.31248C7.12892 2.72915 7.2535 2.70831 9.03915 2.68748C10.0773 2.66665 11.5931 2.60415 12.3821 2.52081C14.0431 2.37498 18.2374 2.41665 22.66 2.62498ZM6.83823 6.91665C7.14968 7.22915 7.14968 8.18748 6.83823 8.49998C6.69289 8.64581 5.98693 8.74998 5.11487 8.74998C4.2428 8.74998 3.53685 8.64581 3.3915 8.49998C3.08005 8.18748 3.08005 7.22915 3.3915 6.91665C3.72372 6.58331 6.50602 6.58331 6.83823 6.91665ZM6.83823 14.4166C7.14968 14.7291 7.14968 15.6875 6.83823 16C6.69289 16.1458 5.96617 16.25 5.07334 16.25C3.70295 16.25 3.53685 16.2083 3.22539 15.7291C2.91394 15.25 2.91394 15.1666 3.22539 14.6875C3.53685 14.2083 3.70295 14.1666 5.07334 14.1666C5.96617 14.1666 6.69289 14.2708 6.83823 14.4166ZM6.83823 21.9166C7.14968 22.2291 7.14968 23.1875 6.83823 23.5C6.69289 23.6458 5.98693 23.75 5.11487 23.75C3.49532 23.75 3.14234 23.5625 3.14234 22.7083C3.14234 21.8541 3.49532 21.6666 5.11487 21.6666C5.98693 21.6666 6.69289 21.7708 6.83823 21.9166Z" fill="#292D32"/>
<path d="M15.9534 8.83331C15.5173 8.97915 14.7283 9.47915 14.23 9.95831C13.7109 10.4375 13.1295 10.8333 12.9427 10.8333C12.735 10.8333 12.2367 11.1875 11.8422 11.6041C10.3057 13.25 10.368 15.375 12.0083 16.9583C12.7766 17.7083 12.9011 17.9375 12.9011 18.7083C12.9011 19.9583 13.5863 21.2083 14.4584 21.5833C15.4135 21.9791 19.1094 21.9791 20.0645 21.5833C20.9574 21.2083 21.6218 19.9583 21.6218 18.6666C21.6218 17.8333 21.7048 17.6666 22.4523 17.0833C23.5528 16.2083 24.0511 14.6458 23.6774 13.2916C23.3867 12.2916 22.1616 10.8333 21.5803 10.8333C21.3726 10.8333 20.7912 10.4375 20.2929 9.93748C19.6908 9.37498 19.0264 8.95831 18.4035 8.79165C17.303 8.49998 17.0123 8.49998 15.9534 8.83331ZM17.9674 10.7083C18.3412 10.8541 18.8602 11.2708 19.1094 11.625C19.3793 12 19.8984 12.3541 20.4383 12.5416C21.0819 12.75 21.4141 13 21.6841 13.5416C22.0578 14.2291 22.0578 14.3125 21.7464 15.0416C21.5595 15.4791 21.2688 15.8333 21.1027 15.8333C20.9158 15.8333 20.5421 15.9791 20.2722 16.1666C19.8154 16.4791 19.7531 16.6458 19.7531 17.8958C19.7531 18.6458 19.6493 19.4166 19.5454 19.5833C19.4001 19.8125 18.881 19.8958 17.3653 19.9166C14.8944 19.9583 14.7699 19.875 14.7699 17.9166C14.7699 16.6458 14.7283 16.4791 14.2508 16.1666C13.9808 15.9791 13.6071 15.8333 13.4202 15.8333C13.2541 15.8333 12.9634 15.4791 12.7766 15.0416C12.4651 14.3125 12.4651 14.2291 12.8389 13.5416C13.1088 13 13.441 12.75 14.0847 12.5416C14.6245 12.3541 15.1436 12 15.4135 11.625C15.6627 11.2708 16.161 10.875 16.514 10.7083C17.303 10.375 17.1576 10.375 17.9674 10.7083Z" fill="#292D32"/>
</svg>
