<svg width="31" height="30" viewBox="0 0 31 30" fill="none" xmlns="http://www.w3.org/2000/svg">
<path d="M15.4983 13.5875C15.3737 13.575 15.2242 13.575 15.0872 13.5875C12.1222 13.4875 9.76758 11.05 9.76758 8.05C9.76758 4.9875 12.2343 2.5 15.299 2.5C18.3512 2.5 20.8303 4.9875 20.8303 8.05C20.8179 11.05 18.4633 13.4875 15.4983 13.5875Z" fill="none" stroke="#292D32" stroke-width="2" stroke-linecap="round" stroke-linejoin="round"/>
<path d="M9.26919 18.2C6.25434 20.225 6.25434 23.525 9.26919 25.5375C12.6952 27.8375 18.3137 27.8375 21.7397 25.5375C24.7546 23.5125 24.7546 20.2125 21.7397 18.2C18.3262 15.9125 12.7076 15.9125 9.26919 18.2Z" fill="none" stroke="#292D32" stroke-width="2" stroke-linecap="round" stroke-linejoin="round"/>
</svg>
