<svg width="50" height="30" viewBox="0 0 50 30" fill="none" xmlns="http://www.w3.org/2000/svg">
<path d="M48.0925 19.061L48.093 12.9697C49.1948 12.6386 50.0001 11.6155 50.0001 10.4072C50.0001 4.967 45.5741 0.541016 40.1339 0.541016H9.86682C4.42657 0.541016 0.000585939 4.967 0.000585939 10.4072C0.000585939 11.6154 0.805861 12.6386 1.90772 12.9697L1.90723 19.0612C0.805275 19.3921 0 20.4154 0 21.6236V23.8343C0 26.9357 2.52374 29.4589 5.62579 29.4589H44.3749C47.4763 29.4589 49.9995 26.9357 49.9995 23.8343V21.6236C49.9995 20.4151 49.1942 19.3916 48.0925 19.061ZM38.5575 2.26621L40.4841 4.19288C41.022 4.73145 41.022 5.60753 40.4848 6.14532C39.946 6.68341 39.0701 6.68361 38.5321 6.14571L34.6528 2.26631L38.5575 2.26621ZM25.6104 2.26621L27.537 4.19288C28.0747 4.73145 28.0747 5.60753 27.5377 6.14532C26.9992 6.68322 26.1231 6.68302 25.585 6.14571L21.7057 2.26631L25.6104 2.26621ZM9.86672 2.26631H12.6634L14.59 4.19298C15.1277 4.73155 15.1277 5.60763 14.5908 6.14542C14.0522 6.68312 13.1761 6.68312 12.638 6.14581L8.82726 2.33506C9.16799 2.29141 9.51437 2.26631 9.86672 2.26631ZM1.72578 10.4072C1.72578 6.97023 3.86788 4.02598 6.88634 2.83389L11.4185 7.36603C12.0238 7.97062 12.8188 8.27287 13.6139 8.27287C14.4093 8.27287 15.2049 7.97033 15.8107 7.36525C17.02 6.1545 17.02 4.18448 15.8103 2.97334L15.1034 2.26641H19.2657L24.3654 7.36613C24.9708 7.97072 25.7657 8.27296 26.5608 8.27296C27.3562 8.27296 28.1518 7.97042 28.7577 7.36535C29.967 6.1546 29.967 4.18458 28.7573 2.97344L28.0503 2.26651H32.2127L37.312 7.36583C37.9172 7.97101 38.7121 8.27345 39.5074 8.27345C40.3028 8.27345 41.0985 7.97082 41.7047 7.36544C42.9138 6.1547 42.9138 4.18467 41.7043 2.97354L41.0503 2.31953C45.1091 2.77666 48.2745 6.22853 48.2745 10.4074C48.2745 10.9313 47.8483 11.3574 47.3245 11.3574H47.2301H2.77022H2.67579C2.15196 11.3572 1.72578 10.9311 1.72578 10.4072ZM3.63292 15.1523V13.0824H46.3676V15.1523H3.63292ZM46.3671 16.8782V18.9481H22.661L24.7307 16.8782H46.3671ZM22.2909 16.8782L16.9556 22.2141L11.6197 16.8782H22.2909ZM11.2496 18.9481H3.63243V16.8782H9.17971L11.2496 18.9481ZM44.3749 27.7335H5.62579C3.4751 27.7335 1.72539 25.9842 1.72539 23.8342V21.6235C1.72539 21.0996 2.15166 20.6734 2.67549 20.6734H2.76983H12.975L16.3456 24.044C16.5074 24.2058 16.7268 24.2967 16.9556 24.2967C17.1844 24.2967 17.4038 24.2057 17.5657 24.044L20.9359 20.6734H47.2298H47.3253C47.8485 20.6734 48.2742 21.0996 48.2742 21.6235V23.8342C48.2742 25.9843 46.5249 27.7335 44.3749 27.7335Z" fill="black"/>
</svg>
