<svg width="50" height="50" viewBox="0 0 50 50" fill="none" xmlns="http://www.w3.org/2000/svg">
<g clip-path="url(#clip0_715_1931)">
<path d="M22.3407 9.57461C22.3407 8.31533 22.6653 7.72012 23.0411 7.03105C23.4608 6.26172 23.9364 5.38975 23.9364 3.72354C23.9364 2.06064 23.4626 1.18896 23.0435 0.420801C22.9089 0.170312 22.6446 0 22.3404 0C21.8998 0 21.5426 0.357227 21.5426 0.797852C21.5426 0.936914 21.5783 1.06758 21.6409 1.18135C22.0164 1.86992 22.3408 2.46494 22.3408 3.72344C22.3408 4.98271 22.0162 5.57793 21.6404 6.26699C21.2207 7.03633 20.7451 7.9083 20.7451 9.57451C20.7451 11.2407 21.2208 12.1126 21.6403 12.8819C21.7852 13.1475 22.059 13.2979 22.3415 13.2979C22.4705 13.2979 22.6015 13.2665 22.7228 13.2003C23.1097 12.9894 23.2522 12.5047 23.0411 12.1179C22.6653 11.4288 22.3407 10.8338 22.3407 9.57461Z" fill="black"/>
<path d="M27.6591 9.57461C27.6591 8.31533 27.9837 7.72012 28.3595 7.03105C28.7791 6.26172 29.2548 5.38975 29.2548 3.72354C29.2548 2.06064 28.781 1.18896 28.3618 0.420801C28.2272 0.170312 27.963 0 27.6588 0C27.2182 0 26.8609 0.357227 26.8609 0.797852C26.8609 0.936914 26.8967 1.06758 26.9593 1.18135C27.3348 1.86992 27.6592 2.46494 27.6592 3.72344C27.6592 4.98271 27.3346 5.57793 26.9588 6.26699C26.5391 7.03633 26.0635 7.9083 26.0635 9.57451C26.0635 11.2407 26.5392 12.1126 26.9587 12.8819C27.1035 13.1475 27.3773 13.2979 27.6599 13.2979C27.7889 13.2979 27.9198 13.2665 28.0411 13.2003C28.428 12.9894 28.5706 12.5047 28.3595 12.1179C27.9837 11.4288 27.6591 10.8338 27.6591 9.57461Z" fill="black"/>
<path d="M47.6063 14.8937H39.2743L49.0549 5.4583C49.0584 5.45498 49.0617 5.45156 49.0651 5.44814C49.668 4.84541 50 4.04395 50 3.1915C50 2.33906 49.668 1.5376 49.0652 0.934766C48.4624 0.332031 47.6609 0 46.8085 0C45.9561 0 45.1546 0.332031 44.5518 0.934766C44.5483 0.938184 44.545 0.941504 44.5416 0.94502L31.0854 14.8937H2.39365C1.07373 14.8937 0 15.9674 0 17.2872C0 18.6071 1.07373 19.6809 2.39365 19.6809H3.20918C3.6293 30.0177 12.1684 38.2979 22.6064 38.2979H27.3937C37.8317 38.2979 46.3708 30.0177 46.7909 19.6809H47.6064C48.9264 19.6809 50.0001 18.6071 50.0001 17.2872C50 15.9674 48.9263 14.8937 47.6063 14.8937ZM45.6848 2.0585C45.9856 1.75996 46.3845 1.5957 46.8085 1.5957C47.2347 1.5957 47.6354 1.76162 47.9368 2.06318C48.2382 2.36455 48.4043 2.76533 48.4043 3.1915C48.4043 3.61553 48.24 4.01436 47.9415 4.31523L36.9761 14.8937H33.3026L45.6848 2.0585ZM47.6063 18.0852H10.3724C9.93174 18.0852 9.57451 18.4424 9.57451 18.883C9.57451 19.3236 9.93174 19.6809 10.3724 19.6809H45.194C44.7751 29.1375 36.9517 36.7021 27.3937 36.7021H22.6064C13.0483 36.7021 5.225 29.1375 4.80605 19.6809H7.18096C7.62158 19.6809 7.97881 19.3236 7.97881 18.883C7.97881 18.4424 7.62158 18.0852 7.18096 18.0852H2.39365C1.95361 18.0852 1.5958 17.7272 1.5958 17.2873C1.5958 16.8474 1.95371 16.4895 2.39365 16.4895H47.6064C48.0465 16.4895 48.4043 16.8474 48.4043 17.2873C48.4043 17.7272 48.0464 18.0852 47.6063 18.0852Z" fill="black"/>
<path d="M47.6063 39.8937H2.39365C1.07373 39.8937 0 40.9674 0 42.2872C0 43.6072 1.07373 44.6809 2.39365 44.6809H3.41426L3.99619 46.4268C4.66416 48.4305 6.8418 50 8.95391 50H41.0461C43.1582 50 45.3358 48.4305 46.0037 46.4267L46.5856 44.6808H47.6063C48.9262 44.6808 49.9999 43.6071 49.9999 42.2871C50 40.9674 48.9263 39.8937 47.6063 39.8937ZM47.6063 43.0851H46.0273C46.0248 43.0851 10.3724 43.0851 10.3724 43.0851C9.93174 43.0851 9.57451 43.4423 9.57451 43.8829C9.57451 44.3236 9.93174 44.6808 10.3724 44.6808H44.9036L44.4898 45.9221C44.0413 47.2675 42.4644 48.4042 41.046 48.4042H8.95391C7.53565 48.4042 5.95859 47.2675 5.51006 45.9221L5.09629 44.6808H7.18076C7.62139 44.6808 7.97861 44.3236 7.97861 43.8829C7.97861 43.4423 7.62139 43.0851 7.18076 43.0851H3.97656C3.97207 43.0851 2.39355 43.0851 2.39355 43.0851C1.95352 43.0851 1.5957 42.7272 1.5957 42.2872C1.5957 41.8472 1.95361 41.4894 2.39355 41.4894H47.6063C48.0464 41.4894 48.4042 41.8473 48.4042 42.2872C48.4043 42.7273 48.0464 43.0851 47.6063 43.0851Z" fill="black"/>
</g>
<defs>
<clipPath id="clip0_715_1931">
<rect width="50" height="50" fill="white"/>
</clipPath>
</defs>
</svg>
